<svg viewBox="0 0 1000 1000" width="1000" height="1000" xmlns="http://www.w3.org/2000/svg"><clipPath id="a"><path d="M709.82 612.9l-539.55 5.37s40.34-250.91 64.38-266.71c26.83-17.63 346.42-28.36 405.43-10 26.2 8.2 69.74 271.34 69.74 271.34z"/></clipPath><ellipse cx="746.99" cy="809.68" fill="#a89fff" rx="67.06" ry="90"/><ellipse cx="245.76" cy="809.68" fill="#a89fff" rx="67.06" ry="90"/><path d="M744.49 605.71s-57.86-274.83-88.17-286.54-421.54-10.33-440.83 9.64-77.15 294.81-77.15 294.81-82 19.29-98.49 46.15-24.11 159.8 3.44 164.63 205.26 0 205.26 0h464.26s149.28-1.28 182.53-5.52c37.88-4.82 31.59-146.58 16.53-177.71-20.66-42.7-167.38-45.46-167.38-45.46z" fill="#ff7348"/><ellipse cx="694.11" cy="824.24" fill="#f9ce46" rx="67.06" ry="90"/><path d="M757.72 824.24c-.2 30.79-12.44 66.39-41.6 81.21-27.62 14-56.51-2-71.26-26.5-17.61-29.26-19.1-68.69-5.1-99.68 11.56-25.59 37-48 66.81-39.92 35.61 9.67 50.94 51.61 51.15 84.89 0 4.43 6.93 4.44 6.9 0-.22-33.56-14.22-72.74-46.61-88-30.3-14.23-61.78 1.86-78.4 28.6-19.63 31.58-21.06 74.21-5.81 107.8 12.85 28.29 41.47 51.69 74 43.24 39-10.13 56.54-55.15 56.78-91.69.07-4.39-6.83-4.4-6.86.05z" fill="#112870"/><ellipse cx="186.75" cy="824.24" fill="#f9ce46" rx="67.06" ry="90"/><path d="M250.75 824.62c-.2 30.79-12.44 66.4-41.6 81.22-27.63 14-56.52-2-71.27-26.5-17.61-29.27-19.1-68.7-5.1-99.69 11.56-25.59 37-48 66.81-39.91 35.62 9.67 50.94 51.6 51.16 84.88 0 4.44 6.92 4.45 6.89 0-.21-33.56-14.22-72.74-46.61-88-30.3-14.22-61.78 1.86-78.4 28.6-19.63 31.58-21.06 74.21-5.81 107.8 12.85 28.29 41.47 51.69 74 43.24 39-10.13 56.55-55.15 56.78-91.69.07-4.39-6.82-4.39-6.85.05z" fill="#112870"/><g clip-path="url(#a)"><path d="M709.82 612.9l-539.55 5.37s40.34-250.91 64.38-266.71c26.83-17.63 346.42-28.36 405.43-10 26.2 8.2 69.74 271.34 69.74 271.34z" fill="#75ddf9"/><path d="M362.7 627.36s-7.7-107.19 25.23-132.48c-7.73-14.56-18.27-30.17-6.89-55.95 11.49-26.06 88.69-8.4 92.36 10.73 6.19 32.19-10.31 55.18-10.31 55.18s27.32 39.09 24.23 122.63-131.71 45-124.62-.11zM171.1 637.32s-20-102.59 13-127.88c-7.73-14.56-6-34.76 5.36-60.55 11.5-26.05 56.87-5.33 60.55 13.8 6.19 32.19-15.33 48.28-15.33 48.28s43.71 44.45 40.62 128-111.3 43.46-104.2-1.65z" fill="#a89fff"/><path d="M463.12 499.51s38.64-1.78 63.21 57.19c19.65 47.16 40.09-38.52 70.75-33.8s56.59 33 2.35 103.76-186.94-18.47-136.31-127.15z" fill="#fff"/><path d="M448.36 498.37S395 493.06 395.25 612c1.06 63.09 0 77.54 0 77.54L551.17 687s-10.62-192.46-102.81-188.63z" fill="#fff"/><g fill="#fc92c3"><path d="M527.37 571.76s15.91 19.11 32.06 26.27c5.25-8.32 9.26-22.8 16.33-27.47s12.22-48.44-.58-55.92c-3.93-2.35-18.25-9-38.62 6.31.69 17.38-9.19 50.81-9.19 50.81z"/><path d="M580.05 519.6c-4.86 0-18.23-.72-19.18 8.29s31 10.31 32.39 1.49c0 0 4.02-9.71-13.21-9.78z"/><path d="M563.61 532.2s-5.85 2.25-6 8.46 18.25 6.1 30.66 6.08c7-.81 8.73-12.59-.54-14.92s-24.12.38-24.12.38z"/><path d="M563.46 545.18s-4.07.43-4.59 6.11 8.88 7.05 15.87 7.77 14.68.43 15.3-4.33-1-8.89-5.94-10-20.64.45-20.64.45z"/><path d="M566.06 555.84s-5.13 1.18-4.9 9.34 15.93 6.25 22.35 5.05 5.33-13.72-1.62-14.09-15.83-.3-15.83-.3zM507.7 555s29.42-47.45 49.33-40.14c5.7 2.74 2.65 13.86-7.78 22 4.72 7.42 14.21 30-1.9 53.82-6.35-4.11-31.6-21.61-39.65-35.68zM595 550.54s15.91 19.11 32.06 26.27c5.25-8.33 9.26-22.8 16.33-27.47s12.23-48.44-.58-55.92c-3.93-2.35-18.25-9-38.62 6.3.66 17.39-9.19 50.82-9.19 50.82z"/><path d="M647.65 498.38c-4.86 0-18.22-.72-19.18 8.28s30.95 10.32 32.4 1.49c0 0 4.01-9.71-13.22-9.77z"/><path d="M631.22 511s-5.86 2.25-6 8.47 18.26 6.09 30.66 6.08c7.05-.81 8.74-12.59-.54-14.92s-24.12.37-24.12.37z"/><path d="M631.06 524s-4.07.43-4.59 6.1 8.89 7.06 15.87 7.78 14.68.42 15.31-4.33-1-8.9-5.95-10-20.64.45-20.64.45z"/><path d="M633.67 534.62s-5.14 1.17-4.9 9.34 15.93 6.25 22.34 5 5.33-13.71-1.61-14.09-15.83-.25-15.83-.25zM575.3 533.79s29.42-47.46 49.34-40.15c5.69 2.74 2.64 13.86-7.78 22 4.71 7.42 14.2 30-1.91 53.82-6.32-4.12-31.6-21.62-39.65-35.67z"/></g><path d="M386.46 563.08c17.39-49.82 55.32-75.48 67.68-67.48s5.77 27 5.77 27c-20.25 46.47-11.7 78.31-11.7 78.31-1.87.14 30.17-16.71 60-46.58l51.88 44c-33 59.74-99.33 84.82-138.47 73.56-33.12-9.51-58.98-40.59-35.16-108.81z" fill="#fff"/><path d="M469.38 422.32s13.34 5.36 20.26 23.64c1.06 2.81 8.73 7.92 9.42 11.36.26 1.28-4.79 4.77-4.6 6.14 4 29.1-19.34 27.9-19.34 27.9s-.21 3.61 3.61 17.41-16.14 22.52-27.19 14c-14.53-11.17-17.2-19.33-17.2-25.06 1.91-13.81 1.91-23.58-.85-39.51s1.27-47.56 35.89-35.88z" fill="#fc92c3"/><path d="M410.76 437.4a14.07 14.07 0 019.76-12.74s-6.76-6.65-3-13.39c4.68-8.28 13.75-3.4 13.75-3.4s-3.34-11 5.58-15.5 15.51 3.18 15.51 3.18-1.49-11 8.5-12.1 15.89 9.26 15.89 9.26S487 382.38 498.27 389s7.89 21.26 7.89 21.26 9.11 3 5.71 15.7-26.55 11.47-26.55 11.47c-29.85-4.29-27.76 4.41-29.14 13.58a54 54 0 00.67 9.36s.85 5.31-2.55 5.1-2.33-18.27-10.19-20.82-11.05 12.11-3.83 19.12c0 0 1.07 13.17-5.44 13.71h-.35l-.15.1c-5.53 3-16.36-7.65-16.79-14.45s3.85-9.69 3.85-9.69-11.33-7.68-10.64-16.04z" fill="#4081f4"/></g><g fill="#112870"><path d="M641.81 583.72c-3.33 12.78-13.75 22-27.39 18-12.53-3.65-21.89-15.27-24.46-27.79-.89-4.34-7.54-2.5-6.65 1.84 3.22 15.7 16.13 30.24 32.22 33.3 16.31 3.11 29-8.34 32.93-23.51 1.12-4.29-5.53-6.13-6.65-1.83zM576.06 504.72c-1-13.37 9-24.58 22.28-25.82 12.82-1.2 23.94 6.6 29.77 17.6 2.08 3.93 8 .45 5.95-3.48-7.37-13.91-22.21-23.11-38.18-20.72-15.8 2.36-27.89 16.24-26.72 32.42.31 4.4 7.21 4.43 6.9 0zM611.73 535.15c-.89-1.11-2.74-3.1-2.38-4.67a1.44 1.44 0 01.54-.87c-.45.17.05.39.35.89a7.14 7.14 0 01.81 2.38c.06.34 0 2.81.13 2.89 1.48 1 .88-.45 1-.69a21.38 21.38 0 00.81-3.2c1.45-4.21-5.21-6-6.65-1.84-1 2.88-1.67 6.14-.08 9a6.92 6.92 0 006.41 3.43c6.71-.57 6-9.73 4.11-14.13-2.11-5-8.06-7.69-12.2-3.15-4.39 4.81-1.11 10.69 2.25 14.88 1.18 1.46 3.65 1.2 4.88 0a3.53 3.53 0 000-4.88z"/><path d="M610.79 537.77c20.93 27.23 45.34 51.23 70.92 74.12 3.3 3 8.2-1.91 4.88-4.87-25.11-22.43-49.3-46-69.84-72.73-2.67-3.47-8.66 0-6 3.48zM564.59 524c4.48.21 9 .15 13.47.27a26 26 0 016.35.57c2.52.73 7.71 5.82 2.53 6.72-2.55.45-3.31 4.11-1.52 5.77 1.32 1.22 3.91 3.1 4 5.09s-1.57 2.53-2.42 4a4.42 4.42 0 00-.61 3.17c.23 1.29 3.61 5.13.33 6a3.47 3.47 0 00-1.52 5.76c2.48 2.34 2.52 5.92-1 7.29-2.06.8-4.58.53-6.72 1.1a17.07 17.07 0 00-10.19 8c-2.92 4.73-4.47 10.3-6.82 15.31-2.76 5.87-5.94 11.54-9.11 17.19-2.18 3.88 3.78 7.36 6 3.49a225.36 225.36 0 0011-21.42c2.56-6 4.35-14.49 11.66-16.1 5-1.09 10-1 12.76-6.14 2.5-4.65 1.06-10.14-2.63-13.62l-1.52 5.76c3.31-.84 6-2.94 6.79-6.38a8.52 8.52 0 00-.19-4.59c-.44-1.36-1.64-2.27-2.12-3.48l-.34 2.66c.79-1.52 2.34-2.39 3-4.08a9.32 9.32 0 00.52-4.59c-.48-3.91-3.14-6.76-5.92-9.33l-1.52 5.76c9.51-1.66 8.59-14.14 1.55-18.3-7.27-4.28-17.66-2.43-25.74-2.81-4.44-.2-4.43 6.7 0 6.9z"/><path d="M633.56 498.36c-9.66 2.44-9.68 16.2.56 17.7l-1.52-5.77c-3.71 2.91-7.09 7-6.71 12 .32 4.27 3.29 8.11 7.63 8.73v-6.65c-9 2.06-10.32 13-2.83 17.78l-1.24-4.72c-3.56 5.72-.14 11.67 5.44 14.37a19 19 0 0018.19-1.15c3.8-2.28.33-8.25-3.49-5.95a12.47 12.47 0 01-7.3 2c-2.14-.11-9.32-1.87-6.88-5.8a3.51 3.51 0 00-1.24-4.71c-2.6-1.68-1.27-4.62 1.18-5.18 3.14-.72 3.44-6.16 0-6.65-6.31-.9 0-7.53 2.12-9.19 1.94-1.52.93-5.41-1.52-5.77q-4.12 0-.56-4.38c4.3-1.09 2.48-7.74-1.83-6.66z"/></g><path d="M445.07 555.34c-2.09 10.71-11.6 58.66 11.72 51.53 4.55-1.4 8.3-4.7 11.65-7.94 4.33-4.18 8.52-8.5 12.78-12.75l28.13-28.09c3.14-3.14-1.73-8-4.88-4.88-13.62 13.61-27 27.48-40.9 40.84-2.37 2.28-6.4 6.69-10.08 6.55-5.33-.19-5.07-11.63-5.15-15.2-.24-9.52 1.57-18.93 3.38-28.23.85-4.34-5.8-6.19-6.65-1.83z" fill="#75ddf9"/><g fill="#112870"><path d="M476.73 452.73c4.44 0 4.44-6.89 0-6.89s-4.45 6.89 0 6.89zM482.15 476.49l.3-.3a3.45 3.45 0 10-4.88-4.87l-.3.3a3.45 3.45 0 004.88 4.87zM439.71 454.41a7.7 7.7 0 000 2.91 6.44 6.44 0 00.8 2 3.45 3.45 0 006-3.48 4.77 4.77 0 01-.24-.44l.35.82a3.75 3.75 0 01-.23-.79l.12.91a3.84 3.84 0 010-.83l-.12.92v-.16a3.83 3.83 0 00-.35-2.66 3.44 3.44 0 00-4.72-1.24 3.33 3.33 0 00-1.58 2.06z"/></g><path d="M354.21 327S328.15 624.4 342 626.7a83.51 83.51 0 0026.06 0l3.78-299.7z" fill="#ff7348"/><path d="M569.4 367.93c9.67-18.77 46.05-7.71 40 14.24-3 11-16 11.48-25.15 14.1-8 2.3-15.52 6.65-18.32 15-1.42 4.21 5.24 6 6.65 1.83 4.17-12.36 23.11-10.76 32.77-15.93s13.69-16.56 10.35-26.95C609 349.3 574 344 563.45 364.45c-2 3.94 3.92 7.44 5.95 3.48zM560.3 434.76c4.44 0 4.45-6.9 0-6.9s-4.44 6.9 0 6.9z" fill="#fff"/><g fill="#112870"><path d="M682.75 813.09a13.06 13.06 0 00-6.27 14.32 12.43 12.43 0 0012.22 9.47c13.24.19 18.28-16.63 8.57-24.83-3.37-2.85-8.27 2-4.87 4.87 4.62 3.91 4.21 12.48-2.89 13.05a5.8 5.8 0 01-3.28-10.92c3.92-2.09.44-8-3.48-6zM174.38 811.53c-6.23 6.82-6.44 18.91 1.57 24.62a9 9 0 0012.18-1.29c4.1-4.39 3.2-10.53 2-15.86-1-4.33-7.63-2.5-6.65 1.83.58 2.55 1.54 5.73.29 8.21-1.69 3.37-4.44 1.56-5.85-.87a10.19 10.19 0 011.35-11.76c3-3.28-1.88-8.17-4.88-4.88zM741.06 611.25c1.63 16.32 3.53 33.53 13.91 46.92a39.08 39.08 0 0015.29 12.24c8.09 3.47 17.29 3.75 25.94 4.6q57.9 5.72 116.06 7.92c4.44.17 4.43-6.73 0-6.9Q860 674 808 669.24c-15.38-1.43-33.78-.4-45.2-12.48S749.53 627 748 611.25c-.43-4.38-7.34-4.42-6.89 0zM368.5 641.57a1647.72 1647.72 0 0042.39 164.08c1.32 4.22 8 2.42 6.65-1.84a1644.23 1644.23 0 01-42.38-164.08c-.89-4.34-7.54-2.51-6.66 1.84z"/></g><path d="M657 630.77a26.46 26.46 0 00-7.34 15.71 38.44 38.44 0 002.26 17.37c1 2.75 2.3 5.54 4.63 7.32 3.19 2.46 7.85 2.47 11.45.65a17.54 17.54 0 007.78-8.94c4.39-10.32 0-36.56-18.44-32" fill="#fff"/><path d="M842.82 433.91c-2.77-7.27-5.55-23.19-7.43-26.72s-14.32-1.41-15.13 2.88 4.82 29.21 4.82 29.21z" fill="#fc92c3"/><g fill="#112870"><path d="M658.18 634.66c7.27-6.67 13 6 13.9 11.36 1.45 8.23-.43 18.41-9.29 21.49-4.17 1.45-2.38 8.11 1.83 6.65 13.72-4.77 16.94-20.14 13.44-32.93-2.87-10.52-14.66-20.71-24.76-11.45-3.28 3 1.61 7.87 4.88 4.88z"/><path d="M672.6 646.43c6.51 12.58 19.61 21.48 31.27 28.85 3.76 2.38 7.23-3.59 3.48-6-10.69-6.75-22.82-14.82-28.79-26.37-2-4-8-.47-6 3.48zM165.63 637.27q6.1 23.65 13.17 47.05c2.39 7.87 4.65 15.86 7.44 23.6 2.2 6.11 5.88 8.73 12.27 9.67 27.7 4 49.38 22.15 61.15 47.28 7.35 15.7 10.48 33.07 11.08 50.29.15 4.43 7.05 4.45 6.89 0-1-28-8.72-56.68-27.94-77.83a85 85 0 00-30.9-21.74c-6.32-2.54-12.68-3.77-19.36-4.8-2.38-.36-3.81-.6-5.32-2.55-1.28-1.67-1.72-3.66-2.36-5.63q-2.07-6.39-4.05-12.79-8.38-27-15.42-54.38c-1.1-4.3-7.76-2.48-6.65 1.83zM303.89 651.27a26.41 26.41 0 0020.48-1.27c4-1.91.52-7.86-3.48-6a19.4 19.4 0 01-15.17.55c-4.19-1.49-6 5.17-1.83 6.66zM591.87 653.54a100.15 100.15 0 0022.21 1.46c4.42-.21 4.44-7.11 0-6.9a92.11 92.11 0 01-20.38-1.24c-4.34-.77-6.2 5.87-1.83 6.65z"/></g><path d="M897.34 747.74c0 9.71 4.19 24.35 16.17 24.52 11.7.17 14.21-13.74 14.58-22.79.18-4.4.12-8.83-.05-13.24-.13-3.54 0-7.63-1.8-10.82-3-5.24-9.79-6.5-15.23-5.06-11.6 3.08-13.45 17.36-13.67 27.39-.09 4.44 6.8 4.44 6.9 0 .13-6.2.4-15.5 6-19.5a8.58 8.58 0 016-1.49c3.46.45 4.29 2.57 4.67 5.83a112 112 0 01.21 16.89c-.2 4.79-.82 16.12-7.68 15.89-7.5-.24-9.25-12-9.27-17.62.05-4.43-6.84-4.44-6.83 0z" fill="#f9ce46"/><g fill="#112870"><path d="M617.47 263.81c.21-54.69 25.75-107.06 69.19-140.44a177.06 177.06 0 01259.49 231.86c-28 46.32-77 78.22-130.79 84.42a188.57 188.57 0 01-20.85 1.2c-4.44 0-4.44 6.91 0 6.89a185.52 185.52 0 00146.13-72.25c35-45.68 46.57-106.72 30.81-162.09-15.29-53.77-55.38-98.4-107-119.74-53.24-22-115.56-17.21-164.86 12.56a185.42 185.42 0 00-87.67 135.37 189.6 189.6 0 00-1.36 22.22c0 4.44 6.88 4.44 6.9 0z"/><path d="M807.34 263.81A12.83 12.83 0 11794.51 251a12.83 12.83 0 0112.83 12.81z"/><path d="M803.89 263.81c-.67 13.14-20.95 11.19-18.62-1.67 2-11.1 18.07-9.25 18.62 1.67.22 4.41 7.12 4.44 6.89 0-.43-8.62-6.7-15.87-15.61-16.24a16.26 16.26 0 10-.66 32.51c9.18 0 15.83-7.43 16.27-16.27.22-4.44-6.67-4.43-6.89 0zM626.45 201.2l15.84 10c3.76 2.39 7.22-3.58 3.48-6l-15.84-10c-3.76-2.39-7.22 3.58-3.48 6zM742.56 94.78l6.4 19.58c1.38 4.2 8 2.4 6.65-1.84L749.21 93c-1.37-4.2-8-2.41-6.65 1.83zM940.16 317.67l20.84 5.67c4.29 1.17 6.12-5.48 1.83-6.65L942 311c-4.29-1.17-6.12 5.48-1.83 6.65zM860.73 102l-4.85 13.6c-1.49 4.19 5.17 6 6.66 1.84l4.84-13.61c1.49-4.19-5.17-6-6.65-1.83zM946.75 204.34l12.85-5.52c1.73-.74 2.08-3.25 1.24-4.72-1-1.78-3-2-4.72-1.24l-12.85 5.52c-1.73.74-2.08 3.25-1.24 4.72 1 1.78 3 2 4.72 1.24zM805.36 363.35l1.17 24.65c.21 4.41 7.11 4.44 6.9 0l-1.17-24.65c-.21-4.42-7.11-4.44-6.9 0z"/><path d="M807.2 364.21l16.32-.8c4.42-.22 4.45-7.12 0-6.9l-16.32.81c-4.41.21-4.44 7.11 0 6.89zM809.66 379.15l13-.24c4.44-.08 4.45-7 0-6.9l-13 .24c-4.43.09-4.44 7 0 6.9zM810 392.24l12.38-1.17c4.38-.42 4.42-7.32 0-6.9L810 385.34c-4.38.41-4.43 7.32 0 6.9zM660.66 229.54q-.84-16-2.72-31.84l-2.53 3.3 12.59-1.82c4.37-.65 2.51-7.29-1.84-6.65l-12.56 1.85a3.44 3.44 0 00-2.6 3.32q1.88 15.88 2.72 31.84c.24 4.41 7.14 4.44 6.9 0z"/><path d="M656.65 214.52a37.24 37.24 0 0011.33-.87c4.33-1 2.5-7.64-1.83-6.65a31.27 31.27 0 01-9.5.62c-4.43-.36-4.4 6.54 0 6.9zM791.5 270c21.61 26.94 52.79 60.8 74.78 87.43a7.32 7.32 0 003.45 2.62 1.19 1.19 0 001.41-1.35c-.71-5.19-3.51-9.92-6.3-14.4A478.78 478.78 0 00801 263.11"/><path d="M790.69 270.77c20.64 25.67 42.93 50 64.32 75q3.82 4.46 7.58 9c1.64 2 3.87 5.91 6.69 6.32 5.38.79 1.81-7.44.91-9.51-3.33-7.64-8.61-14.69-13.25-21.57q-7.61-11.3-15.84-22.13a488.93 488.93 0 00-39.27-45.54c-1-1.06-2.66.57-1.63 1.63a482.17 482.17 0 0160.24 75.53c2.1 3.27 4.28 6.52 6.12 9.94 1 1.79 2.52 4.11 2.71 6.16.11 1.19 1.05 1.47-.36 1.9-1.2.37-1.55-.61-2.29-1.47-4.59-5.36-9.07-10.81-13.67-16.16-9.62-11.17-19.37-22.24-29.06-33.35-10.7-12.3-21.36-24.64-31.58-37.34-.92-1.15-2.54.48-1.62 1.63zM805.69 96.71v-4.18a3.45 3.45 0 10-6.9 0v4.18a3.45 3.45 0 006.9 0zM919.44 151.31l3.48-2.78a3.45 3.45 0 00-2.44-5.89 4 4 0 00-2.44 1l-3.48 2.78a3.43 3.43 0 00-1 2.44 3.56 3.56 0 001 2.44 3.49 3.49 0 002.44 1 4.06 4.06 0 002.44-1zM955.25 256.64h4.87a3.45 3.45 0 100-6.89h-4.87a3.45 3.45 0 100 6.89zM894 383.83l4.87 4.17a3.51 3.51 0 004.88 0c1.18-1.29 1.46-3.62 0-4.87l-4.83-4.13a3.51 3.51 0 00-4.88 0c-1.18 1.29-1.46 3.62 0 4.87zM680.18 135.31l4.86 4.87a3.45 3.45 0 104.88-4.88l-4.87-4.87a3.45 3.45 0 00-4.87 4.88zM624.19 242.73h4.87a3.45 3.45 0 100-6.89h-4.87a3.45 3.45 0 100 6.89z"/></g><path d="M848.05 200.48c-3.92 3.91-27.4 4.51-29.81 0s-1.8-48.47 0-53.58 26.49-3.92 29.81 0 3.95 49.67 0 53.58z" fill="#fc92c3"/><path d="M843.56 171.09c-1.94 1.2-18.09 1.2-20 0s-1.94-15 0-18.65 18.09-1.8 20 0 1.94 17.44 0 18.65zM832.6 190.26c3.88 0 3.88-6 0-6s-3.87 6 0 6z" fill="#fff"/><path d="M850.94 177.57c3.61 0 1.52 14.55 2.6 17.45 1.57 4.2 6.3 6.6 10.42 4.41 3.17-1.69 4.3-5.1 4.37-8.47.11-6.08 0-12.16 0-18.24v-11.09c0-1.67.56-4.54 0-6.14-.39-1.08-.49 2.17-.24.81a6 6 0 00.18-2.05 15.64 15.64 0 00-1.33-4.58c-1.79-4.25-5.05-8.1-9.85-8.76l-.8 5.91a13.36 13.36 0 015 1 9.83 9.83 0 011.75.94c.19.14 1.91 2.07 1.88 2.06s2.62-1.63 1.49-1.93c-3.74-1-5.34 4.8-1.6 5.8 5.48 1.46 7.72-3.47 4.74-7.76s-8.34-6.12-13.3-6.17c-3.28 0-4.23 5.43-.8 5.91s5.35 3.31 6.37 6.46a11.35 11.35 0 00.41 1.5c.25.49.08.36.07.37 1-1.14.21-1.73 0 .15v.46c-.39 5 0 10.11 0 15.08v18.06c0 1.31.31 3.53-.5 4.66-2.44 3.41-2.88-3.33-2.88-4.69 0-6.24 1.24-17.21-8-17.21-3.87 0-3.87 6 0 6z" fill="#fc92c3"/><g fill="#112870"><path d="M916.68 854.42a94.37 94.37 0 0041.47-55.59c1.15-4.29-5.5-6.12-6.66-1.83a87.18 87.18 0 01-38.29 51.46c-3.77 2.33-.31 8.3 3.48 6zM950.4 862.39c4.43 0 4.44-6.9 0-6.9s-4.45 6.9 0 6.9zM164.91 265.89L193 289.33c3.39 2.82 8.29-2 4.88-4.88L169.78 261c-3.38-2.82-8.29 2-4.87 4.88zM118.59 332.41a51.42 51.42 0 0119 10.72c3.31 2.94 8.2-1.92 4.88-4.88a59.62 59.62 0 00-22-12.49c-4.25-1.33-6.06 5.33-1.83 6.65zM116.71 405.23l9.38-2.35c4.31-1.07 2.48-7.73-1.83-6.65l-9.38 2.35c-4.3 1.07-2.48 7.73 1.83 6.65zM80.7 913.61l96.81 3.81c4.44.17 4.43-6.72 0-6.9l-96.81-3.81c-4.44-.17-4.43 6.72 0 6.9zM646.86 920.13L775 918.88c4.44 0 4.45-6.94 0-6.9l-128.12 1.25c-4.44 0-4.45 6.94 0 6.9zM485 441.82a90.63 90.63 0 0014.88 20.78l.7-5.41a50.82 50.82 0 01-6.86 2.74 3.53 3.53 0 00-2.41 4.25c1.35 5.15-.93 12.87-3.87 17.19-3.06 4.49-10.71 7.67-16 5.8-4.2-1.49-6 5.17-1.84 6.65 7.39 2.61 17.6-1.17 22.41-7.1 4.95-6.1 7.95-16.7 5.95-24.38l-2.41 4.24a63.23 63.23 0 008.5-3.44c2.07-1 2.12-3.91.7-5.41a83.42 83.42 0 01-13.8-19.39c-2-3.95-8-.46-6 3.48z"/></g></svg>