<svg viewBox="0 0 1000 1000" width="1000" height="1000" xmlns="http://www.w3.org/2000/svg"><path d="M674.75 340.37l97.96-30.97L980 667.1l-143.46 65.1z" fill="#49281f"/><path d="M856.76 632.98l-20.22 99.22-130.82-179.48 91.29-35.15z" fill="#609fd8"/><path d="M413.25 775.3L213.36 887.38 24.13 490.9l199.89-112.09zM852.34 633.5L652.45 745.58 463.21 349.09l199.9-112.08z" fill="#c0e4f9"/><path d="M413.25 775.3l239.2-29.72-189.24-396.49-239.19 29.72z" fill="#a0caea"/><path d="M852.34 633.5l-39.36-82.47-399.86 81.95-266.71 106.8-2.44 2.21 69.39 145.4L413.25 775.3l239.2-29.72z" fill="#fff"/><path d="M163.37 775.3l260.49-99.35 408.19-77.62 24.71 34.65-204.12 112.49-239.52 29.7-202.87 113.76z" fill="#c0e4f9"/><path d="M356.2 655.77l57.05 119.53 239.2-29.72-70.28-147.25-169.05 34.65z" fill="#e8f5fc"/><path d="M374.77 694.67l38.42 80.49 239.22-29.66-49.45-103.61-179.1 34.06z" fill="#a0caea"/><path d="M83.01 461.5l330.11 89.32 38.55 82.16-38.55 10.74-38.55-68.25-346.33-84.05" fill="#fff"/><path d="M413.12 550.82l-122.88-33.25 20.21 42.34 64.12 15.56 38.55 68.25 38.55-10.74z" fill="#e8f5fc"/><path d="M381.54 542.28l331.77-203.8L731 379.56 413.12 562.2z" fill="#fff"/><path d="M515.94 459.56l-134.4 82.72 31.58 19.92 119.1-68.53z" fill="#e8f5fc"/><path d="M519.29 354.91l-41.89 23.9-134.43 20.97 24.64 82.79 136.71-47.34 46.57-44.3z" fill="#fff"/><path d="M477.4 378.81l-134.43 20.97 24.64 82.79 136.71-47.34zM479.47 562.2l49.93-27.81 21.49 37.29-52.46 18.95z" fill="#e8f5fc"/><g fill="#fff"><path d="M580.59 328.36l34.13-23.38 17.69 30.97-41.71 18.96zM614.72 437.06l42.97 108.07 17.06-10.74-42.34-103.64zM569.22 498.37l30.33-15.8 10.74 34.76h15.8L640 552.72l-50.56 13.27zM678.55 445.28l34.12-14.53 32.87 80.26-46.77 13.27zM97.13 580.52l53.08-24.01 100.49 54.35 11.37 36.65-118.18 28.44zM190.66 499.63l3.16-80.89 24.65 4.42v81.53M224.16 847.22l-24.65-62.57 99.22-39.18 25.28 45.5z"/></g><path d="M491.48 686.7l127.74-10.75 80.81-27.81 30.12 52.51-77.51 47.98-139.05 14.08z" fill="#e8f5fc"/><path d="M730.15 700.65l-30.12-52.51-80.81 27.81 33.23 69.63 54.3-30.45z" fill="#fff"/><path d="M401.74 708.82l36.66-11.38 18.32 48.03-32.86 6.95z" fill="#e8f5fc"/><path d="M212 891.79l-1.45-3L20 489.59l203-113.84L462.21 346 664.5 232.6l1.46 3.05 190.51 399.16-203 113.83-239.21 29.72zM28.25 492.2L214.76 883l197.49-110.76 239.19-29.72 196.77-110.33-186.5-390.78-197.49 110.74L225 381.87z" fill="#a0caea"/><path d="M673.27 270.47l-109 279.27-48.16.45-84.03-304.61C402.14 168.87 447.24 92.64 564.29 111c82.34 0 138.91 82.77 108.98 159.47z" fill="#49281f"/><path d="M624.61 270.47l-109 279.27-109-279.27C376.72 193.77 433.29 111 515.63 111c82.37 0 138.91 82.77 108.98 159.47z" fill="#f28686"/><circle cx="515.81" cy="227.56" fill="#fcd2d2" r="79.31"/><path d="M515.81 148.25a79.32 79.32 0 110 158.63" fill="none" stroke="#49281f" stroke-linecap="round" stroke-miterlimit="10" stroke-width="2"/><circle cx="515.81" cy="227.56" fill="#fcd2d2" r="44.55"/></svg>