<svg viewBox="0 0 1000 1000" width="1000" height="1000" xmlns="http://www.w3.org/2000/svg"><rect fill="#ffd3b3" height="949.6" rx="474.8" width="949.6" x="25.2" y="25.2"/><g fill="#f96632"><path d="M246.9 532.7c15.5-19.2 31.6-38.3 51-53.4s42.9-26.2 67.4-27.2c3.3-.2 6.7-.1 9.7 1a23 23 0 0 1 9.3 8c12 15.7 17.2 35.8 17.3 55.6s-4.6 39.2-11 57.8c-6.2 18-14 35.6-25.6 50.7a62.5 62.5 0 0 1-27.9 22.4c-13.8 4.8-29 2-43.3-1"/><path d="M249.9 535.7a487 487 0 0 1 27.6-32c4.8-5 9.7-9.7 14.9-14.3a154.4 154.4 0 0 1 15.7-12.2 142 142 0 0 1 17-10 106 106 0 0 1 18-7q4.7-1.4 9.5-2.4l4.6-.8c1.3-.2-.9.1.5 0l1.3-.2a82 82 0 0 1 7.7-.5H370.3c.5.1.6.1.2 0l.9.2a20 20 0 0 1 2.1.6c1.3.4-.5-.4.5.2l1 .6 1 .6c1 .7-.5-.5.4.3a34.1 34.1 0 0 1 7.1 8.6 79 79 0 0 1 5 8.7l1 1.8.4 1.2s.6 1.3.3.5q1 2.3 1.8 4.7a93.5 93.5 0 0 1 2.7 9.2 98 98 0 0 1 1.9 10c0-.2-.1-.8 0 0l.1 1.4a121.1 121.1 0 0 1 .6 7.5 128.2 128.2 0 0 1-1 21.2v.7l-.2 1.4-.5 2.8-1 5.6q-1 5.4-2.4 10.6c-1.9 7.2-4 14.2-6.5 21.2-4.6 12.9-9.9 25-17.3 36.8q-2.7 4.4-5.7 8.5l-1.6 2c.5-.5 0 .2-.2.3l-.6.8a74 74 0 0 1-3.2 3.8 73.3 73.3 0 0 1-6.9 6.8 39.2 39.2 0 0 1-6.9 5 35.6 35.6 0 0 1-7.7 3.7 42.4 42.4 0 0 1-4.8 1.3 31.4 31.4 0 0 1-5.1.8 66.3 66.3 0 0 1-10.5 0 92.5 92.5 0 0 1-9.8-1.3l-10.5-2c-2.2-.4-4.7.7-5.2 3-.5 2.2.6 4.8 3 5.3 14.7 3 30.5 6 45.2 1.1a67.8 67.8 0 0 0 31.4-25.2 167.3 167.3 0 0 0 20.7-38 235.5 235.5 0 0 0 13-43c5.4-27.9 3.8-58.6-12.4-82.8-3.9-6-8.6-12-15.7-14.2a33 33 0 0 0-11.3-.7 104.3 104.3 0 0 0-11 1.3 120 120 0 0 0-39 14.5c-25 14.2-44.8 35.6-63 57.6l-6.8 8.4c-1.4 1.7-1.8 4.3 0 6 1.6 1.4 4.6 1.9 6 0zm418.2-71.2a468.3 468.3 0 0 1 56.2 34.7c7.9 5.7 15.7 11.7 21.8 19.2a65.2 65.2 0 0 1 12.7 55.4 64.5 64.5 0 0 1-36.2 43.6c-23.2 10.1-51.3 4.9-72-9.7s-34.9-37.5-43-61.8"/><path d="M666 468.2q17.9 9.4 34.9 20.2 8.5 5.4 16.7 11.2l8 5.8c2.6 1.9 4.4 3.2 7 5.4a91.9 91.9 0 0 1 6.8 6.3 73.8 73.8 0 0 1 3.3 3.6l1.3 1.6c-.5-.5 0 0 0 .1l1 1.3a62 62 0 0 1 4.3 7l1.8 3.8.4 1a60 60 0 0 1 1 2.7 65.6 65.6 0 0 1 2.4 8l.8 3.8.1 1.2v.3l.3 2.3a64.2 64.2 0 0 1 .1 8.6l-.3 4-.1 1.2c0-.8 0-.1 0 0l-.4 2.4a61.1 61.1 0 0 1-2.1 8.1l-1.3 3.5c-.4 1.2.3-.8-.2.4l-.3.7a37 37 0 0 1-1 2 65.5 65.5 0 0 1-4 7.1l-2.2 3-.3.5-.4.5-1.4 1.7a64.9 64.9 0 0 1-5.7 5.9l-2.9 2.4-.7.6c-.6.4.8-.6-.2.1-.6.5-1.2 1-1.8 1.3a61 61 0 0 1-6.9 4.2l-3.5 1.7h-.1l-1.1.4-2.3.8a61.7 61.7 0 0 1-8 2.2l-2.1.4-1 .2c-.1 0-1.4.2-.4 0-1.5.3-3 .4-4.4.5a72.3 72.3 0 0 1-8.3 0l-4.2-.3-1-.2c-1.3-.1.9.2-.4 0l-2.4-.4a81.3 81.3 0 0 1-16.4-4.7l-.9-.4-.5-.2-1.8-.8a93.2 93.2 0 0 1-4-2 81.5 81.5 0 0 1-7.2-4.3l-3.6-2.5-.6-.5-.4-.3-1.8-1.5a98.5 98.5 0 0 1-14.6-15l-2.3-2.9a126.5 126.5 0 0 1-9.1-14.5l-3.9-7.7-1.7-3.9-.3-.7-.2-.4-1-2.3c-1-2.6-2-5.2-2.8-7.9a4.4 4.4 0 0 0-5.3-3c-2 .7-3.7 3-3 5.3a129.2 129.2 0 0 0 39 59.8 84.1 84.1 0 0 0 68.8 18.6 68.3 68.3 0 0 0 50-44.6c8-23.3 2-50.4-14.7-68.5a111.5 111.5 0 0 0-15-13.2c-5.5-4-11.2-8-16.8-11.8q-17.2-11.6-35.4-21.6l-9-5a4.3 4.3 0 1 0-4.3 7.4z"/></g><g fill="#ff983b"><path d="M291.3 540a193.1 193.1 0 0 1 143.8 7.1 29.5 29.5 0 0 1 13.7 10.3c4 6.6 2.4 15.6-2.5 21.5s-12.6 8.8-20.2 9.3c10.5 2.5 18.3 13.6 17 24.4s-11.1 19.8-22 19.9a26.4 26.4 0 0 1 7.9 28 26 26 0 0 1-23.1 17.2c8 11.6 1.4 27.8-7.3 38.9a118.7 118.7 0 0 1-30.8 27.6c-4.6 2.8-11.3 5.1-15 1.1-3.5-3.8-1.3-9.8 1.1-14.4-9 15.1-26.4 22.6-42.8 29-24.3 9.6-31.6 79.3-57.6 82.1-12.3 1.4-10.5 5.2-21.6-.3-13.9-6.7-29 6.1-37.2-7-8.6-13.3-53-53.1-61.5-66.5"/><path d="M292.4 544a188.9 188.9 0 0 1 120.8-1 176.3 176.3 0 0 1 18.8 7.3c5.5 2.6 11.1 5.2 13.7 10.5a7.5 7.5 0 0 1 .6 1.6l.2 1 .2.8c0-.3 0-.3 0 0a18.3 18.3 0 0 1 0 2.6v.9c-.1 1.3.2-.6-.1.7a17 17 0 0 1-3.6 7.8 24.5 24.5 0 0 1-17 7.7 4.3 4.3 0 0 0-4.1 3.7 4.3 4.3 0 0 0 3 4.7 19.2 19.2 0 0 1 13.7 14.1l.2 1.3.1.5v.4a25.1 25.1 0 0 1 0 2.8v.9l-.2 1.3a23.5 23.5 0 0 1-1 3l-.2.6-.6 1.2a21 21 0 0 1-1.7 2.6l-.4.5-1 1a21.5 21.5 0 0 1-2.2 2l-1 .7-1.3.8-1.4.7-.3.1-.7.3a20 20 0 0 1-3 .9l-.6.1c-.3 0-.3 0 0 0h-.5l-1.7.1c-3.5.1-6 4.8-3 7.3a20.1 20.1 0 0 1 4.4 5 25.2 25.2 0 0 1 1.7 3.3l.4 1.1.6 1.8a21 21 0 0 1-.4 12.6 12.4 12.4 0 0 1-1.2 2.7 24 24 0 0 1-1.9 3l-.8.9-.9 1-1.3 1.2c-.1.1-1.3 1-.9.8a21.6 21.6 0 0 1-9.1 4.2 26.4 26.4 0 0 1-2.9.3c-3 .1-5.6 3.6-3.7 6.4 3.6 5.4 3.7 11.2 2 17.3a51.9 51.9 0 0 1-9.6 17.8 119.5 119.5 0 0 1-16.2 16.5c-2.8 2.3-5.6 4.4-8.6 6.4-2.8 2-6 4-8.7 4.9a19.8 19.8 0 0 1-2 .5 9.6 9.6 0 0 1-1 0 7.9 7.9 0 0 1-.8 0c.4 0 .4 0 0 0a2.4 2.4 0 0 1-1.7-1.4 6.1 6.1 0 0 1-.3-1c.2.8 0-.6 0-.8v-.4a12.5 12.5 0 0 1 .4-1.6 21.1 21.1 0 0 1 2-4.9 4.3 4.3 0 1 0-7.4-4.3 47.1 47.1 0 0 1-13.5 14 106.2 106.2 0 0 1-18.8 10l-4.4 1.7-5 2a21 21 0 0 0-4.3 2.6 41.3 41.3 0 0 0-8.8 9.6c-5.4 7.7-9.2 16.6-13 25.2-3.8 9-7.5 18.3-12.3 27a74 74 0 0 1-5.1 8.4l-.3.4-1 1.3a31.3 31.3 0 0 1-4 3.9l-.5.4.3-.2-1 .7a22.7 22.7 0 0 1-2.3 1.3c-1 .5 1-.3-.2 0l-1.1.4a11 11 0 0 1-1.2.3h-.4c-.6.2 1.4-.1-.3 0a61.4 61.4 0 0 0-9.3 2l-2.5.5c-.8.2 1 0 .2 0a5.7 5.7 0 0 0-.6 0h-.6c-1.2 0 .5.3-.2 0l-3.3-1c-1-.4-3.6-1.7-5.4-2.3-6.3-2.4-13-1.4-19.6-.6a46 46 0 0 1-4.3.3h-3c1 0-.1 0-.3-.1a13.7 13.7 0 0 1-2.1-.6c.8.3-.8-.5-1-.6l-.6-.4-.4-.4a10.8 10.8 0 0 1-1-1l-.3-.5c-4.6-7-10.8-13.2-16.6-19.2-7.9-8.2-16-16.2-24-24.3-6.6-6.6-13.4-13.3-19.2-20.7l-.4-.4c-.5-.7.6.8.1.2a25.6 25.6 0 0 1-1.7-2.5 4.3 4.3 0 1 0-7.4 4.3c4.6 7.2 11 13.4 17 19.6l24.3 24.5c3.8 3.8 7.5 7.6 11 11.5l4.5 4.9q1 1 1.9 2.2l.7 1 .4.5c.5.6-.6-.8 0-.2 1.2 1.8 2.4 3.7 3.9 5.4a15.8 15.8 0 0 0 8.5 5c6.3 1.2 12.6-.7 19-.9a19.2 19.2 0 0 1 8.6 1.3c3 1.3 5.7 2.9 9 3.4a16.3 16.3 0 0 0 7-.5 60.4 60.4 0 0 1 8.2-1.8c8.7-1 14.8-7 19.7-14 5.4-7.9 9.2-16.9 13-25.7 4-9.3 7.7-18.7 12.6-27.5 1.1-2 2.3-3.9 3.6-5.7l.8-1.2.5-.7a50.6 50.6 0 0 1 4.8-5l.5-.5c.7-.6-.8.6 0 0l2-1.3 1.2-.7.4-.1a4 4 0 0 0-.4.1l1-.3c13.4-5.3 27.5-11.3 37.7-22a51.1 51.1 0 0 0 6.7-8.8l-7.4-4.3c-2 3.8-3.8 8-3.5 12.3a11.1 11.1 0 0 0 7.9 10.3c8.4 2.4 17-4.2 23.3-9a124.5 124.5 0 0 0 19.9-18.1 69.8 69.8 0 0 0 13.6-22c3.2-8.7 3.5-18.8-1.9-26.7l-3.7 6.4a30.7 30.7 0 0 0 23.5-13 29.4 29.4 0 0 0 3.6-26.4 30.1 30.1 0 0 0-8.8-13l-3 7.2a27.4 27.4 0 0 0 23.7-15.3 26.6 26.6 0 0 0-3.7-28.5 26.3 26.3 0 0 0-14-9l-1 8.4a35 35 0 0 0 20.1-7.3 25 25 0 0 0 9-18.2c.4-7.5-3.4-14-9.3-18.4s-13-7-19.7-9.7a196.8 196.8 0 0 0-87-13 194 194 0 0 0-49 10.2 4.4 4.4 0 0 0-3 5.2 4.3 4.3 0 0 0 5.2 3zm416.3-4a193.1 193.1 0 0 0-143.8 7.1 29.5 29.5 0 0 0-13.7 10.3c-4 6.6-2.4 15.6 2.5 21.5s12.6 8.8 20.2 9.3c-10.5 2.5-18.3 13.6-17 24.4s11.1 19.8 22 19.9a26.4 26.4 0 0 0-7.9 28 26 26 0 0 0 23.1 17.2c-8 11.6-1.4 27.8 7.3 38.9a118.7 118.7 0 0 0 30.8 27.6c4.6 2.8 11.3 5.1 15 1.1 3.5-3.8 1.3-9.8-1.1-14.4 9 15.1 26.4 22.6 42.8 29 24.3 9.6 31.6 79.3 57.6 82.1 12.3 1.4 10.5 5.2 21.6-.3 13.9-6.7 29 6.1 37.2-7 8.6-13.3 53-53.1 61.5-66.5"/><path d="M709.8 535.8a198.2 198.2 0 0 0-131.2 1 141.9 141.9 0 0 0-20.4 8.9c-6.1 3.4-11.7 8.6-13 15.8a24.6 24.6 0 0 0 6.8 21.8 33.9 33.9 0 0 0 22 9.1l-1.2-8.4a27.8 27.8 0 0 0-19.6 20.3 26.2 26.2 0 0 0 9.5 26.5 26.8 26.8 0 0 0 16.1 6l-3-7.4a30.7 30.7 0 0 0-10.3 24.7 30 30 0 0 0 28.7 27.8l-3.7-6.4c-10.3 15.2-.2 34.3 10 46.6a122 122 0 0 0 19.4 18.6 107.7 107.7 0 0 0 10.6 7.3 22 22 0 0 0 12 3.7A11.1 11.1 0 0 0 653 743c1-5-1-10-3.2-14.3l-7.4 4.3c7.8 12.9 21 20.7 34.5 26.6l10.4 4.3c1.5.6-.6-.4.4.2l1.2.6 2.2 1.4c.7.5-.8-.7-.1-.1l.5.5 1 .8 2 2.2c.7.6 1.2 1.3 1.8 2l.5.6 1 1.4c5.4 8 9.2 17.1 13 26 4 9.3 7.7 18.7 12.7 27.4 4.1 7.4 9.5 14.9 17.6 18.1a22.6 22.6 0 0 0 6 1.3 58.4 58.4 0 0 1 7.6 1.7 16.3 16.3 0 0 0 7.3.5 18.6 18.6 0 0 0 3.2-.9l5.4-2.4a16.8 16.8 0 0 1 2.2-.7l1.3-.3.6-.1a28.3 28.3 0 0 1 4.9-.2c3.3.1 6.5.7 9.8 1 6.4.7 13.1-.2 17.6-5.3a39 39 0 0 0 2.5-3.5c.3-.4 1.4-1.5 1.4-2l-.3.4.4-.5.8-1 2-2.3c3-3.6 6.4-7 9.7-10.5 8-8.3 16.2-16.4 24.3-24.6 6.7-6.8 13.6-13.6 19.5-21 1-1.4 2.1-2.8 3-4.3a4.3 4.3 0 1 0-7.3-4.3 32.9 32.9 0 0 1-1.8 2.5c-.5.7.7-.8.2-.2l-.5.6-3.7 4.4c-3.2 3.6-6.5 7.1-10 10.6-7.8 8.1-16 16.1-24 24.2-6.4 6.6-13 13.2-18.8 20.5a59.5 59.5 0 0 0-3.1 4.3 8.7 8.7 0 0 1-1.3 1.5l-.6.6c.6-.6-.3.2-.4.2l-1 .6a13.7 13.7 0 0 1-2.1.6c-.2 0-1.4.2-.4 0l-1 .2h-2c-1.5 0-3-.2-4.5-.4-3.1-.4-6.2-.8-9.4-.9a27.7 27.7 0 0 0-10.4 1.7l-2.8 1.3-1.4.7-.7.3a28.3 28.3 0 0 1-3.5 1c1.2-.3 0 0-.4 0h-.7c-.9 0 1 .3.2 0l-2.8-.6a50.8 50.8 0 0 0-9.6-1.9c-.8 0 1 .2.4 0h-.6a11 11 0 0 1-1.1-.3 22 22 0 0 1-1.2-.4l-.4-.1c.7.3.8.3.4.1l-.4-.2a18.8 18.8 0 0 1-2-1l-1.1-.8.3.2-.8-.6a31.6 31.6 0 0 1-3.8-4l-.9-1-.3-.4-2-2.9c-10.5-16.3-15.4-35.6-25-52.5a39 39 0 0 0-17.6-17.8c-12.2-5-25.4-10.2-34.8-19.8a37.5 37.5 0 0 1-5.9-7.5 4.3 4.3 0 1 0-7.3 4.3 22.1 22.1 0 0 1 1.8 4.2 13.6 13.6 0 0 1 .5 2.3v1.2l-.2.8c-.2.9.3-.2-.3.5-.8 1.1.3-.2-.2.4l-.3.2c-.1.1-1.2.5-.5.3l-.8.2c1-.2-.3 0-.5 0a9.4 9.4 0 0 1-1.3 0c.9 0-.6-.2-.6-.2-.3 0-.6-.2-.8-.3-.5 0-1-.2-1.4-.4l-.5-.2a36.8 36.8 0 0 1-4.6-2.6 108.9 108.9 0 0 1-9-6.4 118.8 118.8 0 0 1-16.6-16.2c-4.2-5-8.3-11-10.5-17.2a27.5 27.5 0 0 1-1.9-10.5V688l.1-.9a22.3 22.3 0 0 1 .6-2.7 15.8 15.8 0 0 1 2.3-4.6c2-2.8-.6-6.3-3.7-6.4l-1.8-.1c.7 0-.9-.2-1-.2a21.6 21.6 0 0 1-9.2-4.2l-.9-.8a30.5 30.5 0 0 1-2.2-2.2c-.1-.2-1-1.3-.8-.9a24 24 0 0 1-1.9-3 12.4 12.4 0 0 1-1.2-2.7 21 21 0 0 1-.3-12.7l.5-1.7.4-1.1a25.2 25.2 0 0 1 1.8-3.3 20.1 20.1 0 0 1 4.4-5c3-2.5.4-7.2-3-7.3h-1.4l-.8-.1s.5 0 0 0a24.3 24.3 0 0 1-2.8-.7 17.1 17.1 0 0 1-4.7-2.3 19.8 19.8 0 0 1-6.6-7.7l-.3-.6s.2.5 0 0l-.5-1.4a20.7 20.7 0 0 1-.7-2.8c-.1-.8 0 .5 0-.2v-4c0-.3 0-.3 0 0v-.4a25.6 25.6 0 0 1 .7-2.6l.5-1.5a6.6 6.6 0 0 1 .2-.6l.1-.2 1.3-2.4.8-1.3.4-.5.2-.2a27.5 27.5 0 0 1 2.3-2.4 11.4 11.4 0 0 1 2-1.6 22.9 22.9 0 0 1 2.8-1.5l.3-.2.7-.2a33 33 0 0 1 1.7-.5 4.2 4.2 0 0 0 3-4.7 4.3 4.3 0 0 0-4.1-3.7 25.7 25.7 0 0 1-15.2-6 18.8 18.8 0 0 1-1.6-1.5 8.7 8.7 0 0 1-1-1.2 18 18 0 0 1-1.8-3.6l-.7-2-.2-1.1s-.2-.8 0-.3a14.7 14.7 0 0 1-.2-2V565c0-.2.1-1.4 0-.8a11.7 11.7 0 0 1 3.4-6.8 26 26 0 0 1 7.2-5 146.1 146.1 0 0 1 18-7.7 190.5 190.5 0 0 1 81-10.3 184.8 184.8 0 0 1 44.7 9.7 4.3 4.3 0 1 0 2.3-8.2z"/></g><g fill="#f96632"><path d="M435.1 547.1a193.1 193.1 0 0 0-143.8-7.2l-9 13.1-32.4 108c-1.3 4.2-2.6 9-1 13a17.9 17.9 0 0 0 4 5.8 71.8 71.8 0 0 0 69.8 19.8c3.5-1 7.2-2.2 10.6-1.1 10.2 3.2 7 21.6 16.7 26.5 3.2-15.8 10.6-32.3 25-39.2 10.3-4.8 21.8-3.8 33.2-3.7a20.3 20.3 0 0 0-2.3-4.4 26 26 0 0 0 23.1-17.3 26.4 26.4 0 0 0-7.9-28c10.8 0 20.8-9 22-19.8s-6.5-22-17-24.4c7.6-.5 15.3-3.5 20.2-9.3s6.4-14.9 2.4-21.5c-3-5-8.3-7.8-13.6-10.3z"/><path d="M437.3 543.4a194.4 194.4 0 0 0-43.7-14.4 199.7 199.7 0 0 0-45.7-3.8 196.3 196.3 0 0 0-45.5 6.8c-3.7 1-7.2 2.1-10.8 3.3a7.3 7.3 0 0 0-4 2.5l-.1.2-.9 1.2-6.7 9.7a12.2 12.2 0 0 0-2 3.7l-3.8 12.6-7.5 24.8-15 50.2-3.7 12.4a124.7 124.7 0 0 0-3.4 12.2c-.9 4.5-.8 9 1.6 13a37.4 37.4 0 0 0 7.3 8.4 76.2 76.2 0 0 0 36.2 18.4 74.3 74.3 0 0 0 31.2-.2l5-1.3a39 39 0 0 1 3.2-.7h.3a11.2 11.2 0 0 1 1.6 0 4.9 4.9 0 0 1 .6 0s-.5-.1 0 0a4.6 4.6 0 0 0 1 .3c-.3 0-.7-.4 0 0l.7.4.3.2c.5.3-.3 0-.3-.2l.5.4.5.5c.2.1.7.9.3.3l.2.4.4.6a15.2 15.2 0 0 1 .8 1.5 6.3 6.3 0 0 0 .3.7c-.3-.4-.3-.6 0 0l.6 1.7c1.6 4.7 2.6 9.8 5.3 14a15.5 15.5 0 0 0 5.8 5.5c2.3 1.2 5.6.2 6.2-2.6a88.6 88.6 0 0 1 4.2-14.1l.3-.9c.3-.7 0-.1 0 0l.7-1.7 1.7-3.3a54.1 54.1 0 0 1 3.8-6.2l.5-.5c.6-1-.4.4 0-.2l1-1.2a43.8 43.8 0 0 1 5.2-5c.6-.5 0 0 0 0l.8-.6 1.5-1a35.7 35.7 0 0 1 3.1-1.7 22.5 22.5 0 0 1 3.5-1.4 38.7 38.7 0 0 1 3.8-1l2.2-.4.9-.1.8-.1c6.7-.8 13.5-.4 20.2-.3 2.5 0 5-2.8 4-5.4a26.7 26.7 0 0 0-2.7-5.5l-3.7 6.4a30.7 30.7 0 0 0 23.8-13.3 29.4 29.4 0 0 0 3.2-26.2 30 30 0 0 0-8.6-13l-3 7.3a27.4 27.4 0 0 0 23.7-15.3 25.8 25.8 0 0 0 2.3-15.3 28 28 0 0 0-6.3-13.3 26.2 26.2 0 0 0-13.8-8.8l-1.1 8.4c9.7-.6 19.4-4.6 25-12.9a24.6 24.6 0 0 0 4.2-13.3 21.1 21.1 0 0 0-5-13.9c-3.4-4-8.3-6.7-13-9-2-.9-4.7-.6-5.8 1.6-1 2-.7 4.9 1.5 5.9a66.4 66.4 0 0 1 7.8 4.3l.5.3c-.6-.4 0 0 0 0l1.2 1 1.1 1.1a5.2 5.2 0 0 1 .4.5l.3.3.2.4.3.4a15 15 0 0 1 .9 1.5l.2.5c-.3-.7 0-.2 0 0l.4 1.2a18.5 18.5 0 0 1 .4 2v.1a18.5 18.5 0 0 1 0 2.6v.5c0 .6-.2 1.1-.3 1.7a22.8 22.8 0 0 1-.8 2.7s-.3.6 0 .1l-.2.4a20.7 20.7 0 0 1-1.4 2.4c-.1.2-1 1.3-.4.7a26.2 26.2 0 0 1-2 2l-1 1-.6.5c.1-.1.6-.5 0 0a31 31 0 0 1-4 2.3l-.8.4c-.3.1-.4.1 0 0l-3.2 1-3.2.7-.8.2c.4-.1.4 0 0 0l-2 .1a4.3 4.3 0 0 0-4.1 3.7 4.2 4.2 0 0 0 3 4.7c1 .2 1.8.6 2.7.9-.9-.3.3.1.6.3l1.5.8 1.2.8c.2 0 .4.2.6.4-.7-.5-.2-.2 0 0a27.8 27.8 0 0 1 2.3 2.1l1 1c0 .2.2.4.4.6-.1-.1-.5-.7 0 0a32 32 0 0 1 1.6 2.6l.7 1.4.3.6c0-.1-.3-.8 0 0a27 27 0 0 1 .9 2.8 22.6 22.6 0 0 1 .3 1.7v.3a19.9 19.9 0 0 1 0 3v.9c0 .6.1-.7 0-.1 0 .5-.2 1-.3 1.4a24 24 0 0 1-.8 2.8c-.3.8 0 .1 0 0l-.3.7-.7 1.2a24.5 24.5 0 0 1-1.7 2.7l-.4.5-1 1-1 1-.6.4c0 .1-1 .8-.2.2a23 23 0 0 1-2.6 1.8l-1.6.8-.6.3c.5-.3.3-.2-.1 0a21.8 21.8 0 0 1-3.2.9l-.7.1c-1.1.2.9 0-.3 0h-1.7a4.3 4.3 0 0 0-4 2.7 4.2 4.2 0 0 0 1 4.7 24.8 24.8 0 0 1 2 1.8l1 1.1.3.4c-.6-.7.1.2.2.3a26.6 26.6 0 0 1 2 3.4l.4.7c0 .3.4 1 .2.5l.3.8.5 1.4a27 27 0 0 1 .7 2.8l.1.6.1 1.3a26.2 26.2 0 0 1 0 3v1.3c0 .2-.2 1 0 .4s0 0 0 .1a23.5 23.5 0 0 1-.7 3l-.4 1.2-.3.7a26.9 26.9 0 0 1-1.3 2.5l-.8 1.2-.4.6c-.2.2-.4.6 0 .2l-.3.3-.5.5a27.3 27.3 0 0 1-3 3l-.5.4c.7-.5.2-.1 0 0l-1.3.9a28 28 0 0 1-2.7 1.5l-.6.3c-1 .5.5-.2-.2 0l-1.5.6a24 24 0 0 1-3.1.8c-.3.1-1.6.2-.6.2l-1.8.1c-3 .1-5.6 3.6-3.7 6.4a22.9 22.9 0 0 1 1.2 2l.5 1 .2.5 4-5.4c-12.5-.2-25.7-1.1-37.2 5.2-9 5.1-15.5 14-19.6 23.4a90.3 90.3 0 0 0-5.5 17.3l6.3-2.5-1-.6c-.9-.5.6.6-.1 0l-.8-.8-.5-.5c.5.5-.3-.4-.4-.6l-.5-.9-.5-.9-.2-.4c-.3-.7 0-.5 0 0a14.7 14.7 0 0 0-.8-2.1l-.8-2.4-1.4-4.6a26 26 0 0 0-4.8-9.3 13.6 13.6 0 0 0-12-4.1c-4.9.6-9.5 2.4-14.4 3.1-.2 0-1 .1-.2 0l-.7.1-1.5.2-3.4.2h-6.6l-3.2-.2-1.5-.2h-.8c-1.2-.2.9 0-.4-.1A75.7 75.7 0 0 1 283 694l-2.9-1-1.4-.6c-1.1-.4.5.3-.2 0l-.9-.4a72 72 0 0 1-11.5-6.5l-2.6-2c-.5-.3.5.5 0 0l-.7-.5-1.4-1.1q-2.5-2.2-4.8-4.6l-1-1.1-.6-.6-.5-.6-.3-.4-.4-.6-.4-.8-.3-.5c.1.3.1.4 0 0l-.5-1.7c-.1-.8 0 1 0-.4v-.9l.1-1.7v-.2c0-.5.2-1 .3-1.4 1.1-5.5 3-10.9 4.7-16.3l19.9-66.4 5-16.7 2.5-8.4.7-2.1a9.6 9.6 0 0 1 .5-2s-.5 1 0 .3c2.8-3.8 5.4-7.8 8-11.7l.8-1-2.6 2a187.4 187.4 0 0 1 27.6-7.4l7-1.2 1.7-.2c.7-.1-.6 0 .2 0l.8-.1 3.7-.4q7-.8 14.2-1a194 194 0 0 1 28.5 1.1l3.5.4 1 .2 1.7.2 7.2 1.3c4.7.9 9.4 2 14 3.2q7.6 2 15 4.7l7.5 2.9.8.3c1.3.5-.3-.1.4.2l1.8.7 4 1.8c2 1 4.6.6 5.8-1.6 1-1.8.7-4.8-1.5-5.8zm127.5 3.7a193.1 193.1 0 0 1 143.9-7.2l9 13.1L750 661c1.3 4.2 2.6 9 1 13a17.9 17.9 0 0 1-4 5.8 71.8 71.8 0 0 1-69.8 19.8c-3.5-1-7.1-2.2-10.5-1.1-10.3 3.2-7 21.6-16.7 26.5-3.3-15.8-10.7-32.3-25.1-39.2-10.2-4.8-21.8-3.8-33.2-3.7a20.3 20.3 0 0 1 2.3-4.4 26 26 0 0 1-23.1-17.3 26.4 26.4 0 0 1 7.9-28c-10.8 0-20.8-9-22-19.8s6.5-22 17-24.4c-7.6-.5-15.3-3.5-20.2-9.3s-6.4-14.9-2.4-21.5c3-5 8.3-7.8 13.6-10.3z"/><path d="m567 550.8 3.1-1.4 1.6-.7.8-.4.4-.1c-.3 0-.3 0 0 0l6.7-2.7q6.7-2.5 13.6-4.5t13.8-3.4l7-1.3 3.4-.6 1.5-.2.9-.1h.6a196.8 196.8 0 0 1 28.5-1.7q7 0 14.2.7l6.9.7 1 .2 1.7.2 3.8.6a187.5 187.5 0 0 1 31 8l-2.5-2 7.4 10.7 1.5 2c.5.6 0 0-.1-.2.2.1.4 1.6.5 1.9l.8 2.4 5 16.7 20 66.4 5 16.7c.7 2.6 1.6 5.3 2.1 8l.2.9c0 .3.1 1 0 .4l.2 1.7c0 .3-.2 1.8 0 1a10.3 10.3 0 0 1-.6 2.3c.3-.6 0 0 0 .1l-.5.7-.4.7s-.8 1-.4.6l-.3.3-.6.7-1.3 1.4a67.3 67.3 0 0 1-4.9 4.5l-1.2 1c0 .2-1.2 1-.6.5l-2.7 2q-2.8 2-5.8 3.6-2.8 1.6-5.8 3l-.7.2-.2.1-1.4.6-3.2 1.1a81.2 81.2 0 0 1-12.9 3c-.7.2.7 0 0 0l-1 .2-1.4.1-3.4.3h-6.6a67.8 67.8 0 0 1-3.2-.3l-1.5-.1-.8-.1h-.3l-6.3-1.3c-5.4-1.4-10.8-3.1-16-.5a15.2 15.2 0 0 0-6.7 7.3 72.4 72.4 0 0 0-3.4 9.7l-.7 2a22.3 22.3 0 0 0-.9 2.3l-.1.3-.5 1-.6.9-.2.4c-.6.8 0-.1 0 0l-1.3 1.3c-.8.8.5-.2-.1.1l-1.1.7 6.3 2.5a72.8 72.8 0 0 0-12-28.8 43.9 43.9 0 0 0-11.6-11 42.6 42.6 0 0 0-17.6-5.8c-7-.9-14.1-.5-21.2-.4l4.1 5.4c.5-1.2-.4.7.2-.5l.5-1a22.9 22.9 0 0 1 1.2-2c2-2.7-.7-6.2-3.7-6.3l-1.4-.1c-.2 0-.9-.1 0 0l-.5-.1a21.8 21.8 0 0 1-3-.7 29 29 0 0 1-2.4-.8c.9.3-.3-.2-.6-.4l-1.4-.7-2.3-1.5-.6-.4c.2.1.7.5 0 0l-1-1a26.6 26.6 0 0 1-2-1.9l-.9-1c-.3-.4.1 0 .1 0l-.6-.8-1.3-2.2-.6-1.3c-.1-.1-.4-.7 0 0l-.4-.8a23.6 23.6 0 0 1-.7-2.6l-.3-1.4-.1-.5c-.1-.6 0 .7 0-.2a30.9 30.9 0 0 1 0-5.7c0 .8 0-.2.1-.5l.3-1.3a27.9 27.9 0 0 1 .9-3l.1-.5s.6-1.2.2-.3l.6-1.3a27 27 0 0 1 1.6-2.8l.4-.6c.1 0 .7-.9.4-.4s0-.1 0-.2l.8-.8a25 25 0 0 1 2.3-2.2 4.3 4.3 0 0 0-3-7.3h-1.4l-.7-.1h.1a24.6 24.6 0 0 1-3-.8l-1.3-.5-.6-.2a23 23 0 0 1-2.7-1.6l-1.2-.8c.7.5-.3-.3-.5-.5a24.6 24.6 0 0 1-2.1-2c-.2-.3-1.1-1.5-.6-.7l-.8-1.1a22.2 22.2 0 0 1-1.5-2.6l-.3-.7c-.2-.5.3.7 0 0l-.4-1.2a26 26 0 0 1-.7-3c-.2-1 0 .7 0 0V608c0-.5-.2.8 0 0l.6-2.8.4-1.3.3-.7c-.3 1 0-.1.1-.2a23.8 23.8 0 0 1 1.4-2.5l.7-1.2.5-.6c-.6.8 0-.1.2-.2a23.6 23.6 0 0 1 2.2-2.3l1.3-1.2c-.7.6.5-.3.7-.4a22.9 22.9 0 0 1 3-1.6c.6-.4 0 0-.1 0l1-.4a25 25 0 0 1 1.7-.5 4.3 4.3 0 0 0 3-4.6 4.3 4.3 0 0 0-4.2-3.8h-1.5l-.6-.1c-.7-.1.6 0 0 0l-2.9-.6c-.9-.2-1.9-.5-2.8-.9l-1.3-.4c.8.3-.5-.3-.7-.4a27.2 27.2 0 0 1-2.6-1.4l-1.1-.7-.6-.5c.5.4 0 0-.2-.1a24.5 24.5 0 0 1-2-1.9l-1-1c-.5-.6 0-.1 0 0l-.5-.7a19.4 19.4 0 0 1-1.3-2.3l-.2-.5-.6-1.6a22.9 22.9 0 0 1-.6-2.7s-.1-.7 0-.2v-.3l-.1-1.5v-2c0 .2-.1.9 0 0a17.5 17.5 0 0 1 .8-2.6c0-.2.3-.9 0-.4l.1-.2.7-1.3c.2-.5.6-.7.8-1 .4-.7-.4.3 0-.2l.6-.7a21.8 21.8 0 0 1 2.3-2.1c.7-.5.2-.2 0 0l.9-.6 1.3-.9a59.1 59.1 0 0 1 6.2-3.2c2-1 2.7-4 1.5-5.8a4.4 4.4 0 0 0-5.8-1.6 41 41 0 0 0-11.9 7.7 21.1 21.1 0 0 0-6 13.3c-1 9.8 5 19 13.4 23.6a36.8 36.8 0 0 0 15.7 4.4l-1.2-8.4a27.8 27.8 0 0 0-19.7 20.4 26.4 26.4 0 0 0 10.3 27 26.1 26.1 0 0 0 15.4 5.3l-3-7.3a30.6 30.6 0 0 0-10.3 24.6 30 30 0 0 0 28.6 27.9l-3.7-6.4a26.7 26.7 0 0 0-2.7 5.5c-1 2.6 1.5 5.4 4 5.4 6-.1 12-.4 18 0a37.6 37.6 0 0 1 15 4l2.8 1.7.8.7c.2 0 .7.5 0 0l1.5 1.2a44.6 44.6 0 0 1 4.8 5c.7.9-.3-.4.1.1l.6.8 1 1.5 1.9 3a64.6 64.6 0 0 1 3.2 6.5c.3.7-.4-1 0 .2l.5 1 .7 1.9a94 94 0 0 1 3.3 12c.6 2.7 4 3.8 6.3 2.6 5-2.6 7.3-7.7 9-12.7l2-6.9.7-1.6s.3-.4 0 0a9.8 9.8 0 0 0 .4-.9 14 14 0 0 1 .7-1.3l.4-.6c0-.2.2-.3.3-.4.3-.5-.2.3-.3.3.1 0 .8-1 1-1s.9-.7.3-.3l.3-.2c.1-.2.4-.2.6-.3.7-.4.3 0 0 0a5 5 0 0 0 1-.4c.5-.1.1 0 0 0a6.5 6.5 0 0 1 .9 0h2.1l2.9.8c1.7.5 3.5 1 5.2 1.3A73.2 73.2 0 0 0 700 706a77.4 77.4 0 0 0 38.6-13.3 78.2 78.2 0 0 0 8.3-6.6 36 36 0 0 0 7.3-8.4c4.4-8 .3-17.4-2-25.3l-15-50-7.5-25c-2.5-8.4-4.9-16.8-7.6-25.1a12.7 12.7 0 0 0-2-3.5l-3.4-5-3.2-4.7-1-1.2c-1-1.6-2.5-2.1-4.2-2.7a193.5 193.5 0 0 0-44.8-9.4 199.7 199.7 0 0 0-46 1.3 191.7 191.7 0 0 0-43.9 11.7q-5.5 2.2-10.8 4.6c-2 1-2.7 4-1.5 5.9a4.4 4.4 0 0 0 5.8 1.5z"/></g><path d="M321 97.5v600.4a38.8 38.8 0 0 0 38.6 39.1h280.8a38.8 38.8 0 0 0 38.7-39V97.4a38.8 38.8 0 0 0-38.7-39.1H359.6a38.8 38.8 0 0 0-38.6 39z" fill="#6c77c1"/><path d="M309.6 97.5v590.8c0 4.1-.2 8.3 0 12.4 1.3 18 11.8 35 28.4 42.7a55.8 55.8 0 0 0 23.7 5h266.6c13 0 25.4.1 37.3-6.8a51.2 51.2 0 0 0 24.8-43.7V99.6a60.2 60.2 0 0 0-.2-6.8 51.1 51.1 0 0 0-31.7-42.3C648.2 46.2 637 47 626.2 47H361a51.8 51.8 0 0 0-26.4 6.8 51.3 51.3 0 0 0-25 43.7c0 6 5.3 11.6 11.5 11.4a11.6 11.6 0 0 0 11.3-11.4l.1-2.9c.1-.9.5-2.6 0-.6.5-2 .8-3.9 1.5-5.8 0-.4 1-2.9.5-1.5s.5-1.1.7-1.5c1-1.9 2.1-3.5 3.3-5.3.7-1-.4.5-.5.6l.9-1 1.8-2 2-1.7 1-.8-.3.2a49.3 49.3 0 0 1 4.6-2.8c.9-.4 2.3-1 .5-.3l2.9-1a46 46 0 0 1 4.2-1l1.7-.2h286c1.2.1 2.6.6.6 0 2 .6 4.1.9 6.1 1.6 1 .3 2.4 1 .6.2l2.4 1.1 2.3 1.4 1 .7c.3.2 1.9 1.3.7.4s.9.8 1.2 1l1.9 2c.6.5 1.1 1.3 1.8 2 .9.7-.4-.5-.5-.7l1 1.5a38.8 38.8 0 0 1 2.7 4.5c.5 1 1 2.4.3.6.4 1.1.9 2.2 1.2 3.4l.7 2.6c.2 1 .4 2.7.2.6l.2 4.7v602.3l-.2 2.8c.2-2 0-.4-.2.6-.4 2-1.2 3.7-1.7 5.6-.3 1.2.3-.5.3-.6l-.5 1.2-1.3 2.3-1.4 2.3c-.5.8-2 2.4-.5.9l-3.7 3.8-2 1.7c1.7-1.5 0 0-.8.5l-5 2.8c1.7-1 .4-.2-.6.2l-3 .9c-1 .3-1.8.3-2.7.5-1.2.4.7 0 .8 0l-1.4.1-3.3.2H357.7c-1 0-1.8-.2-2.8-.3 2 .3.5 0-.5-.2-2-.4-3.7-1.1-5.6-1.7-1.2-.3.6.3.7.3l-1.2-.5-2.3-1.3-2.3-1.4-1-.8c.7.5 1.2 1 .2.2a61.4 61.4 0 0 1-4-4l-1-1c.2 0 1.2 1.6.5.6l-1.7-2.6a50.3 50.3 0 0 1-2.5-4.7c.8 1.8.2.4-.2-.6l-.9-3-.6-2.7c-.3-1.2.1.6.1.8a65.4 65.4 0 0 1-.3-4.7V97.5c0-6-5.2-11.7-11.3-11.4s-11.4 5-11.4 11.4z" fill="#6c77c1"/><path d="M321 75.7V676a38.8 38.8 0 0 0 38.6 39h280.8a38.8 38.8 0 0 0 38.7-39V75.6a38.9 38.9 0 0 0-38.7-39H359.6a38.9 38.9 0 0 0-38.6 39z" fill="#9fbdff"/><path d="M316.7 75.7v590.8c0 4.1-.2 8.3 0 12.4a43.6 43.6 0 0 0 24.9 36.5 47.5 47.5 0 0 0 20 4h266.6c11.8 0 23 .4 33.7-5.8a44 44 0 0 0 21.4-37.5V77.8c0-18.3-9.4-35-26.7-42.3-9.7-4-20.1-3.2-30.4-3.2H361a44.6 44.6 0 0 0-22.9 5.9 44 44 0 0 0-21.3 37.4c-.1 5.5 8.4 5.5 8.5 0a35 35 0 0 1 24.2-33.2 44.1 44.1 0 0 1 13.3-1.5h276.4c8 0 15.7 2 22.1 7a35.4 35.4 0 0 1 13.6 27.9V678a35 35 0 0 1-26 31.8c-7.7 2-16.8 1-24.8 1H360.7a35 35 0 0 1-35.5-35V75.7c0-5.6-8.5-5.6-8.5 0z" fill="#9fbdff"/><rect fill="#6c77c1" height="77.1" rx="17.3" width="277.1" x="361.4" y="201.8"/><path d="M621.3 274.6H377.2c-.2 0-.8-.2 0 0l-1-.2a15.5 15.5 0 0 1-1.7-.5l-.9-.3c1 .3-.1 0-.3-.2l-1.6-.8-.7-.5c-.2-.2-.8-.7-.2-.1a19 19 0 0 1-2-1.9l-.3-.4a20 20 0 0 1-1.7-2.9c-.1-.2-.4-1-.1-.1l-.3-1a16.6 16.6 0 0 1-.5-2s-.2-1.3-.1-.3v-46.6a15.8 15.8 0 0 1 .6-1.8l.3-.9c0-.6-.5.9 0-.1.3-.6.5-1.1.9-1.6l.3-.7c.1 0 .9-1 .5-.7s.4-.4.4-.4l.6-.6 1.2-1.1c.8-.8-.7.4.3-.3l.6-.4a19.5 19.5 0 0 1 1.8-1l.5-.3.5-.1a18 18 0 0 1 1.8-.5l.7-.2c1.2-.2-.8 0 .4 0h246c-.9 0-.2 0 0 0l1 .3 1.8.5c.2 0 .8.3 0 0l1.2.6 1.4.8.9.6c-.7-.5-.2 0 0 0l1.3 1.2.7.8c.6.7-.3-.5.2.3a18.7 18.7 0 0 1 1.8 3.2c0-.2-.3-.8 0 0l.3 1 .5 2c.2.7 0-1 0 .2v45.3c0 .2-.2 1 0 .1l-.2 1a15.2 15.2 0 0 1-.4 1.6l-.4 1c.3-.8.1-.2 0 0a20.2 20.2 0 0 1-1.8 3c.6-.7-.2.2-.2.3l-.5.6-1.3 1.2c-.9.8.4-.3-.2.1l-.7.5-1.6 1-.6.2c-1 .6.8-.2-.3.2l-1.8.5-.7.2h-2.3a4.3 4.3 0 0 0 0 8.6 21.9 21.9 0 0 0 21.6-21.6v-35.1c0-5.8.3-11.5-2.3-16.9a21.8 21.8 0 0 0-19.6-11.9H379.4a21.6 21.6 0 0 0-22.3 21.7v41.7a22 22 0 0 0 15.7 21.4 27.9 27.9 0 0 0 7.9.9h240.6a4.3 4.3 0 1 0 0-8.6z" fill="#6c77c1"/><rect fill="#cfe0ff" height="77.1" rx="17.3" width="277.1" x="361.4" y="196.4"/><path d="M621.3 269.2H377.2c-.2 0-.8-.2 0 0l-1-.2a15.6 15.6 0 0 1-1.7-.5l-.9-.3c1 .3-.1-.1-.3-.2l-1.6-.9-.7-.5c-.2 0-.8-.6-.2 0a16.8 16.8 0 0 1-1.3-1.2l-.6-.7-.4-.4a20 20 0 0 1-1.7-3c-.1-.1-.4-1-.1 0l-.3-1a16.3 16.3 0 0 1-.5-2s-.2-1.3-.1-.3v-46.6a15.8 15.8 0 0 1 .6-1.8 9 9 0 0 0 .3-.9c0-.6-.5.9 0-.1.3-.6.5-1.1.9-1.6l.3-.6c.1-.2.9-1.2.5-.8l.4-.4.6-.6 1.2-1.2c.8-.7-.7.5.3-.2l.6-.4a19.5 19.5 0 0 1 1.8-1l.5-.3.5-.1a18 18 0 0 1 1.8-.5l.7-.2c1.2-.2-.8 0 .4 0h246c-.9 0-.2 0 0 0l1 .3 1.8.5c.2 0 .8.3 0 0l1.2.6 1.4.8.9.6c-.7-.5-.2-.1 0 0l1.3 1.2.7.8c.6.7-.3-.5.2.3a19.2 19.2 0 0 1 1.8 3.1c0-.1-.3-.7 0 0l.3 1 .5 2c.2.6 0-1 0 .2v45.3c0 .2-.2 1 0 .2l-.2 1a15.2 15.2 0 0 1-.4 1.5l-.4 1c.3-.7.1-.2 0 0a19.9 19.9 0 0 1-1.8 3.1l-.2.3-.5.5-1.3 1.2c-.9.8.4-.3-.2.1l-.7.6a16.2 16.2 0 0 1-1.6.9l-.6.3c-1 .5.8-.2-.3.1l-1.8.5-.7.2-.6.1h-1.7a4.3 4.3 0 0 0 0 8.6 21.9 21.9 0 0 0 21.6-21.7v-35c0-5.9.3-11.5-2.3-17a21.8 21.8 0 0 0-19.6-11.8H379.4a21.6 21.6 0 0 0-22.3 21.7v41.7a22 22 0 0 0 15.7 21.4 28.2 28.2 0 0 0 7.9.9h240.6a4.3 4.3 0 1 0 0-8.6z" fill="#cfe0ff"/><rect fill="#6c77c1" height="77.1" rx="17.3" width="277.1" x="366.8" y="301.5"/><path d="M626.6 374.3H384.1l-1.5-.1c-.2 0-.9-.1 0 0l-1-.2a16.3 16.3 0 0 1-1.7-.5l-.9-.3-.3-.1-1.6-.9-.8-.5c-.1-.1-.7-.6 0 0a16.8 16.8 0 0 1-1.4-1.3l-.6-.6c-.2-.2-1-1.2-.4-.4a20 20 0 0 1-1.8-3c0-.2-.3-1 0-.1l-.3-.9a16.3 16.3 0 0 1-.6-2v-.3l-.1-.8v-45.5c0 1 .1-.2.2-.4a15.8 15.8 0 0 1 .4-1.8c.1-.2.3-.5.3-.8.1-.7-.4.8 0-.2l1-1.6.3-.6.5-.7.4-.4.6-.7 1.2-1c.8-.9-.7.3.2-.3l.6-.4a18.2 18.2 0 0 1 1.9-1l.5-.3.5-.2a18 18 0 0 1 1.8-.5l.7-.1c1.2-.3-.8 0 .4 0l1.5-.1h242.5l2 .1c-.9 0-.3 0 0 0l1 .2 1.8.6c.2 0 .8.3 0 0l1.1.5 1.4.8 1 .7c-.7-.5-.2-.2 0 0l1.2 1.2.7.8c.7.6-.3-.6.3.3a19.4 19.4 0 0 1 1.8 3c-.1 0-.3-.7 0 0 0 .4.2.8.3 1l.5 2c.2.7-.1-1 0 .3v45.3c0 .2-.2 1 0 .1l-.2 1a15.2 15.2 0 0 1-.4 1.6l-.4 1c.2-.8 0-.2 0 0a19.9 19.9 0 0 1-1.8 3c.5-.7-.2.2-.3.3l-.5.6-1.3 1.2c-.8.8.5-.3-.1 0l-.7.6-1.6 1-.7.2c-1 .5.8-.2-.3.2l-1.7.5-.8.1-.5.1H626.7a4.3 4.3 0 0 0 0 8.6 21.9 21.9 0 0 0 21.5-21.6v-35c0-5.9.4-11.5-2.3-17a21.8 21.8 0 0 0-19.5-11.8H384.8a21.6 21.6 0 0 0-22.3 21.6v41.7a22 22 0 0 0 15.6 21.5 27.8 27.8 0 0 0 8 .8h240.5a4.3 4.3 0 0 0 0-8.5z" fill="#6c77c1"/><rect fill="#cfe0ff" height="77.1" rx="17.3" width="277.1" x="366.8" y="296.1"/><path d="M626.6 368.8h-244c-.2 0-.9-.2 0 0l-1-.2a19 19 0 0 1-1.7-.5l-.9-.3-.3-.1-1.6-1-.8-.4c-.1-.1-.7-.6 0-.1a16.8 16.8 0 0 1-1.4-1.2l-.6-.7c-.2-.2-1-1.1-.4-.3a19.3 19.3 0 0 1-1.8-3c0-.2-.3-1 0-.1l-.3-.9a16.3 16.3 0 0 1-.6-2v-.3l-.1-.8V311.4c0 1 .1-.2.2-.4a16.2 16.2 0 0 1 .4-1.8l.3-.8c.1-.7-.4.8 0-.2l1-1.6.3-.6.5-.8.4-.4.6-.6 1.2-1.1c.8-.8-.7.4.2-.2l.6-.4a18.2 18.2 0 0 1 1.9-1.1l.5-.2.5-.2a15.6 15.6 0 0 1 1.8-.5l.7-.1c1.2-.3-.8 0 .4 0l1.5-.1h244.5c-.9 0-.3 0 0 0 .3.2.7.2 1 .3l1.8.5c.2.1.8.3 0 0l1.1.6 1.4.8 1 .6c-.7-.5-.2 0 0 0l1.2 1.3.7.8c.7.6-.3-.6.3.2a20 20 0 0 1 1.8 3.2c-.1-.2-.3-.8 0 0l.3 1 .5 2c.2.7-.1-1 0 .2V357c0 .3-.2 1.1 0 .2l-.2 1a15.2 15.2 0 0 1-.4 1.6l-.4 1c.2-.8 0-.2 0 0a19.3 19.3 0 0 1-1.8 3c.5-.7-.2.2-.3.3l-.5.5-1.3 1.3c-.8.8.5-.3-.1 0l-.7.6a17.5 17.5 0 0 1-1.6.9l-.7.3c-1 .5.8-.2-.3.1l-1.7.6-.8.1-.5.1H626.7a4.3 4.3 0 0 0 0 8.6 21.9 21.9 0 0 0 21.5-21.6v-35c0-6 .4-11.5-2.3-17a21.8 21.8 0 0 0-19.5-11.8H384.8a21.6 21.6 0 0 0-22.3 21.6v41.7a22 22 0 0 0 15.6 21.4 28.1 28.1 0 0 0 8 .9h240.5a4.3 4.3 0 0 0 0-8.6z" fill="#cfe0ff"/><g stroke-miterlimit="10" stroke-width="2.9"><g fill="#cfe0ff" stroke="#cfe0ff"><rect height="27.5" rx="9.1" width="27.5" x="356" y="465"/><rect height="27.5" rx="9.1" width="27.5" x="399.4" y="465"/><rect height="27.5" rx="9.1" width="27.5" x="442.8" y="465"/><rect height="27.5" rx="9.1" width="27.5" x="486.2" y="465"/><rect height="27.5" rx="9.1" width="27.5" x="529.6" y="465"/><rect height="27.5" rx="9.1" width="27.5" x="573.1" y="465"/><rect height="27.5" rx="9.1" width="27.5" x="616.5" y="465"/><rect height="27.5" rx="9.1" width="27.5" x="356" y="504.4"/><rect height="27.5" rx="9.1" width="27.5" x="399.4" y="504.4"/><rect height="27.5" rx="9.1" width="27.5" x="442.8" y="504.4"/><rect height="27.5" rx="9.1" width="27.5" x="486.2" y="504.4"/><rect height="27.5" rx="9.1" width="27.5" x="529.6" y="504.4"/><rect height="27.5" rx="9.1" width="27.5" x="573.1" y="504.4"/><rect height="27.5" rx="9.1" width="27.5" x="616.5" y="504.4"/><rect height="27.5" rx="9.1" width="27.5" x="356" y="543.9"/><rect height="27.5" rx="9.1" width="27.5" x="399.4" y="543.9"/><rect height="27.5" rx="9.1" width="27.5" x="442.8" y="543.9"/><rect height="27.5" rx="9.1" width="27.5" x="486.2" y="543.9"/><rect height="27.5" rx="9.1" width="27.5" x="529.6" y="543.9"/><rect height="27.5" rx="9.1" width="27.5" x="573.1" y="543.9"/><rect height="27.5" rx="9.1" width="27.5" x="616.5" y="543.9"/></g><rect fill="#fff" height="27.5" rx="9.1" stroke="#fff" width="72.7" x="356" y="583.4"/><rect fill="#fff" height="27.5" rx="9.1" stroke="#fff" width="72.7" x="571.3" y="583.4"/><g fill="#cfe0ff" stroke="#cfe0ff"><rect height="27.5" rx="9.1" width="27.5" x="442.8" y="583.4"/><rect height="27.5" rx="9.1" width="27.5" x="486.2" y="583.4"/><rect height="27.5" rx="9.1" width="27.5" x="529.6" y="583.4"/><rect height="27.5" rx="9.1" width="27.5" x="356" y="622.8"/><rect height="27.5" rx="9.1" width="27.5" x="442.8" y="622.8"/><rect height="27.5" rx="9.1" width="27.5" x="486.2" y="622.8"/><rect height="27.5" rx="9.1" width="27.5" x="529.6" y="622.8"/><rect height="27.5" rx="9.1" width="27.5" x="573.1" y="622.8"/><rect height="27.5" rx="9.1" width="27.5" x="616.5" y="622.8"/></g><rect fill="#6c77c1" height="27.5" rx="9.1" stroke="#6c77c1" width="203.6" x="399.4" y="622.8"/></g><path d="M309.6 75.6v590.9c0 4.1-.2 8.3 0 12.4 1.3 18 11.8 35 28.4 42.7a55.6 55.6 0 0 0 23.7 5h266.6c13 0 25.4 0 37.3-6.9a51.2 51.2 0 0 0 24.8-43.6V77.8a60.2 60.2 0 0 0-.2-6.8 51.1 51.1 0 0 0-31.7-42.3c-10.3-4.3-21.4-3.5-32.3-3.5H361a51.8 51.8 0 0 0-26.4 6.8 51.3 51.3 0 0 0-25 43.6c0 6 5.3 11.7 11.5 11.4a11.6 11.6 0 0 0 11.3-11.4l.1-2.8c.1-1 .5-2.6 0-.7.5-1.9.8-3.8 1.5-5.7 0-.4 1-2.9.5-1.6s.5-1 .7-1.4a61.3 61.3 0 0 1 3.3-5.3c.7-1-.4.5-.5.6l.9-1 1.8-2 2-1.7 1-.9c-.7.6-1.3 1-.3.2a51.5 51.5 0 0 1 4.6-2.7c.9-.5 2.3-1 .5-.3l2.9-1a45.4 45.4 0 0 1 4.2-1l1.7-.2h286c1.2 0 2.6.5.6 0 2 .5 4.1.9 6.1 1.6 1 .3 2.4 1 .6.1L653 51l2.3 1.4 1 .7c.3.1 1.9 1.3.7.4s.9.8 1.2 1l1.9 1.9c.6.6 1.1 1.4 1.8 2 .9.8-.4-.5-.5-.6l1 1.4a38.8 38.8 0 0 1 2.7 4.6c.5 1 1 2.4.3.5.4 1.2.9 2.3 1.2 3.5l.7 2.6c.2 1 .4 2.6.2.6l.2 4.7V678l-.2 2.8c.2-2 0-.4-.2.6-.4 1.9-1.2 3.7-1.7 5.6-.3 1.2.3-.5.3-.7l-.5 1.3-1.3 2.3-1.4 2.3c-.5.8-2 2.4-.5.8-1.3 1.3-2.4 2.7-3.7 3.9l-2 1.7c1.7-1.5 0 0-.8.5l-5 2.8c1.7-1 .4-.2-.6.2l-3 .9c-1 .3-1.8.3-2.7.5-1.2.4.7 0 .8 0l-1.4.1-3.3.2H357.7c-1 0-1.8-.2-2.8-.3 2 .2.5 0-.5-.2-2-.4-3.7-1.1-5.6-1.7-1.2-.3.6.3.7.3l-1.2-.5-2.3-1.3-2.3-1.4-1-.8c.7.5 1.2 1 .2.2a56.8 56.8 0 0 1-4-4l-1-1c.2 0 1.2 1.6.5.5l-1.7-2.5a49.2 49.2 0 0 1-2.5-4.7c.8 1.8.2.3-.2-.6s-.6-2-.9-3l-.6-2.7c-.3-1.3.1.6.1.7l-.1-1.3-.2-3.4V75.6c0-6-5.2-11.6-11.3-11.4s-11.4 5-11.4 11.4z" fill="#6c77c1"/><path d="M133.2 768.2c28.2-107.3 60.3-171.6 71.2-194 8.6-17.9 16.1-37 31.8-49 12.6-9.7 28-15 43-20 22-7.5 44.1-15 67-18.7 4.3-.6 8.8-1.1 12.6.7 9 4.3 10 18.2 4.8 26.6-15.6 24.8-34 38.1-65.6 51.9 11 13.5-4.8 145.4-87.8 164.8" fill="#ff983b"/><path d="M137.3 769.4q8.2-31 17.9-61.4 8.1-25.3 17.5-50.2 4-10.6 8.2-21l3.9-9.5.9-2.2.1-.2.5-1.3 1.9-4.3q6.1-14.2 12.7-28.2l11.8-24.6a170.4 170.4 0 0 1 15.3-27c.3-.5 0-.2 0 0l.6-.8 1.2-1.5a62.7 62.7 0 0 1 4.7-5 60 60 0 0 1 11.1-8.3 140 140 0 0 1 27.3-12.1c10.3-3.6 20.6-7.1 31-10.4a351 351 0 0 1 32.4-8.7q4-.9 8.2-1.6a47.2 47.2 0 0 1 7-1h1.6c.2 0 1.5.2 1 0a11.4 11.4 0 0 1 1.9.5 4 4 0 0 1 1.1.4l1 .6.6.4c-.1 0-.6-.6-.1 0l.8.7c.3.2 1 1.4.5.5l1.2 2 .2.5.5 1.5a21.2 21.2 0 0 1 .6 2.5c.1.8 0-.7 0 .4v4.8c0-1 0-.3 0 0-.2.4-.2.8-.3 1.3a22.6 22.6 0 0 1-.8 2.7l-.2.5c-.2.6.3-.6 0 0l-.7 1.3a87.2 87.2 0 0 1-6.8 10l-.8 1c-.4.6.3-.4 0 0l-.4.5-1.9 2.4-4 4.4a105 105 0 0 1-8 8l-4.3 3.4c-.7.6-.2.2 0 0l-.6.5-1.2.9-2.5 1.8a164.2 164.2 0 0 1-21.6 12.5c-4.1 2-8.3 4-12.5 5.8a4 4 0 0 0-2 3 4.5 4.5 0 0 0 1.2 3.7c-1.1-1.5-.2-.2.1.4l.2.3-.2-.5c0 .3.2.6.3.8a27.3 27.3 0 0 1 1 4.4v.6c-.2-1.7 0-.7 0-.3l.2 1.4a75.6 75.6 0 0 1 .2 10 157.6 157.6 0 0 1-1.3 16.7c-.1 1.1.1-1 0 .2l-.1 1a208.6 208.6 0 0 1-1.2 7.3l-2 10c-1.7 7.2-3.6 14.2-6 21.1q-1.7 5.4-3.8 10.7l-1.1 2.7-.3.6-.6 1.5-2.4 5.3a164.2 164.2 0 0 1-11.4 20.5l-3.3 4.8-1.6 2.1-.9 1.2c-.5.8.5-.6.1 0l-.6.7c-2.4 3-5 6-7.7 8.8a106.3 106.3 0 0 1-8.4 7.8l-2.1 1.8-.6.4c.8-.6.4-.3.2-.1l-1.4 1q-2.3 1.7-4.7 3.2a87.6 87.6 0 0 1-10.2 5.7l-2.7 1.2c-.2 0-.7.3.2 0l-.6.2-1.6.6-5.6 2q-2.8 1-5.9 1.6a4.3 4.3 0 1 0 2.3 8.2 95.5 95.5 0 0 0 43-23.5c11.7-11 21-24.5 28.3-38.8a211.5 211.5 0 0 0 16.4-44.2 200.2 200.2 0 0 0 6-39 90.2 90.2 0 0 0-.2-13.8c-.4-3.6-1-7.3-2.6-10.5a12.1 12.1 0 0 0-1.4-2l-.9 6.7a169 169 0 0 0 45-26.8 114.7 114.7 0 0 0 16.2-18 73.5 73.5 0 0 0 6.8-10.2 27.3 27.3 0 0 0 3-12.3c0-8.6-4.6-17.7-13.6-19.9-5.5-1.3-11.2 0-16.7 1-5.6 1-11.3 2.2-16.8 3.6-11 2.8-21.9 6.2-32.7 9.7-10.3 3.5-20.8 6.8-31 10.8-10 4-19.5 8.7-28 15.4a78.4 78.4 0 0 0-18.1 22c-6.6 11.4-11.8 23.5-17.5 35.3q-6 12.6-11.8 25.3-8.2 18.5-15.6 37.4-9.4 23.8-17.6 48.2-10 29.6-18.3 59.8l-4.4 16.4a4.3 4.3 0 0 0 8.2 2.3z" fill="#ff983b"/><path d="M144.8 726.7a144.6 144.6 0 0 1 97.5 11.6 93.4 93.4 0 0 1 28 20.5 48 48 0 0 1 10.3 17.4 63.3 63.3 0 0 1 1.2 25.4 40 40 0 0 1-4.7 16.9c-5.3 8.6-16 12.5-26 12.2s-19.6-4.1-28.9-7.9" fill="#f96632"/><path d="M146 730.8q6.2-1.5 12.4-2.3l.3-.1h.5l1.5-.2 3-.4 6.3-.4a144.8 144.8 0 0 1 25 .8l.9.2h.8l.6.1 3.3.5 6.2 1.2q6.1 1.3 12.2 3.2c4 1.2 7.8 2.6 11.7 4.2l1.4.5.8.4 3 1.3 5.6 2.8a115.5 115.5 0 0 1 10.5 6.2 79 79 0 0 1 5 3.5c.4.3 0 0 0 0l.7.5 1.1 1 2.5 2a69.8 69.8 0 0 1 8.3 8.8c.4.6-.3-.4 0 .2l.5.5a52.7 52.7 0 0 1 4.7 7.8l.3.6a6 6 0 0 0 .3.6c-.2-.4 0 .3 0 .3l.4.8a33 33 0 0 1 2.2 10.4 80.2 80.2 0 0 1-.3 13.5l-.3 3.2-.2 1.5c0 .5 0 0 0 0l-.2 1a45.6 45.6 0 0 1-1.3 6.1l-.4 1.3-.3.8-.1.2-.2.5-.3.6-.8 1.5-.7 1.1c-.2.3-.8 1.1-.3.5a21.1 21.1 0 0 1-1.8 2l-1.9 1.6c-.3.4.2 0 .2 0l-.6.3a22.3 22.3 0 0 1-4.5 2.6l-.5.2c.6-.2.2 0-.2 0a32.2 32.2 0 0 1-5 1.6l-1.1.2-1 .1h-.8l-1.5.2a40.1 40.1 0 0 1-5.9-.2h-.9a40 40 0 0 1-5-1 97.3 97.3 0 0 1-12.5-4l-6.3-2.5c-2.1-.9-4.8 1-5.3 3a4.4 4.4 0 0 0 3 5.3c9 3.6 17.9 7 27.5 7.8a38 38 0 0 0 23-5 28.6 28.6 0 0 0 8.9-8.5 33.6 33.6 0 0 0 4.6-12.5c1.7-9.4 2.5-19.3.8-28.7-3.1-18-17.9-31.7-32.8-40.7a143 143 0 0 0-49.3-18.4 150.5 150.5 0 0 0-53.6.2l-6.4 1.4a4.3 4.3 0 0 0-3 5.2 4.4 4.4 0 0 0 5.3 3z" fill="#f96632"/><path d="M287.3 871c-2-5.7-4.8-11.4-4.4-17.3.3-5 2.9-9.7 4.3-14.5 6-19.2-5.2-39.8-19.2-54-33.8-34.7-74.3-49.4-120.9-58.9a11.3 11.3 0 0 0-12.7 7c-4.8 12.6-3.4 17.9-16.3 27.4-6.6 5-15 5-22.7 7.2-8 2.3-12.8 7.8-17 14.9-15.8 26.5-25.6 57.6-37.5 85.8-2.7 6.2-5.3 12.8-4 19.4 3.2 15.3 23.5 22 35.8 27.5q25 11.5 50.6 21.5a650.5 650.5 0 0 0 107.2 32.8c10.3 2 20.6 3.8 31 5 4.7.6 9.8 1 13.6-1.9 3.4-2.5 4.7-6.9 5.9-11 8.4-29.7 16.7-61.9 6.3-91z"/><path d="M291.4 869.8c-1.2-3.4-2.7-6.7-3.6-10.2l-.6-2.7c.2.9 0-.6 0-.6v-2.6s.1-1.5 0-.7a22.6 22.6 0 0 1 .5-2.6c1-3.4 2.5-6.7 3.6-10a41.8 41.8 0 0 0 1.7-10.2 60 60 0 0 0-13-37.2c-7.8-10.9-18-20-28.6-28.3a186 186 0 0 0-31.1-19.3 241.3 241.3 0 0 0-35-13.9 325.2 325.2 0 0 0-37.2-9.3 15.7 15.7 0 0 0-17.2 8.3c-2.2 4.5-3.2 9.5-5 14.2 0 .5-.3 1-.5 1.4.5-1.3 0 .3-.3.6a22.8 22.8 0 0 1-1.5 2.7c-.2.3-.6 1.2-1 1.3l.4-.4-.4.4-.5.7a36.6 36.6 0 0 1-2.8 2.8 28.2 28.2 0 0 1-7.4 5.2l-.4.2-1.2.4a44.1 44.1 0 0 1-7 1.8c-6.3 1.2-12.6 2.4-18 6.3s-8.9 9.2-12 14.8C66 795.5 60 809 54.5 822.3c-5.4 13.2-10.3 26.6-15.8 39.9-1.5 3.7-2.7 6.2-4.1 10.1a35.7 35.7 0 0 0-2.5 11.6c-.2 6.2 2.4 12 6.3 16.6 6.7 8 16.9 12.2 26.2 16.2 13 5.6 25.8 11.6 38.8 17a782.4 782.4 0 0 0 86.8 30.8c14.6 4.1 29.4 7.7 44.3 10.5q11.9 2.3 23.9 3.8c7 .9 14.7 1.7 20.3-3.5 2.6-2.4 4-5.7 5.2-8.9s1.9-6.6 2.8-9.9c2-7.2 3.8-14.3 5.4-21.6 3-14.5 5-29.4 3.6-44.2a88.4 88.4 0 0 0-4.5-20.9c-.8-2.1-3-3.7-5.3-3-2 .7-3.8 3-3 5.2a82.3 82.3 0 0 1 3 10.5q.5 2.4.8 4.9l.1.6.2 1.3c0 1 .2 1.8.3 2.7a116 116 0 0 1-.3 21.2 166.2 166.2 0 0 1-.7 5.7l-.2 1.4-.4 2.7a402.9 402.9 0 0 1-7.3 31.6c-1 3.3-1.8 6.5-2.9 9.7l-.3.9c0 .1-.5 1.2-.1.4a20.5 20.5 0 0 1-1 2l-.5.7c-.4.6.6-.6-.2.2l-.7.8c-.2.3-.4.3 0 0l-.7.4-1 .5c.7-.3.2 0 0 0a21.3 21.3 0 0 1-2.2.6c-1.2.3.8 0-.4 0H265c-3.4-.1-7.2-.7-10-1a438.2 438.2 0 0 1-44.4-8.8c-29-7.2-57.2-16.8-85-27.6a928.9 928.9 0 0 1-41.2-17.2c-5.4-2.4-10.8-4.9-16.3-7.2a133.7 133.7 0 0 1-13.2-6.4l-3.3-2-1.3-.9-.8-.5-.5-.4q.7.5.2.1a37.3 37.3 0 0 1-5-4.9c-.7-.8.5.8 0 0l-.5-.8a23.7 23.7 0 0 1-1.7-2.9 3.8 3.8 0 0 1-.3-.8l-.5-1.7-.3-1v-.6a19.6 19.6 0 0 1-.2-2.3l.1-1.4c.1-.4 0-.6 0-.2l.2-1a51.3 51.3 0 0 1 3.4-10.3l4-9.5L56 842c5.1-13.2 10-25.4 16-38a237.1 237.1 0 0 1 12-22.2l1.3-1.8.2-.3.7-.8a28.1 28.1 0 0 1 3-3l.6-.4c.8-.8-.8.4.2-.2l2-1.4 1.7-.8s1.2-.5.3-.2l1-.4a40 40 0 0 1 4.6-1.2c3-.7 6.2-1.2 9.2-2a34.8 34.8 0 0 0 9.6-3.7 44.5 44.5 0 0 0 7.7-6 32.5 32.5 0 0 0 8-12c.8-2 1.4-4 2-6l1-3.2.6-1.9.4-1 .3-.8.2-.5.6-1c.5-.9-.6.6.2-.2l.7-.7.4-.4.4-.3.8-.5.7-.3c-.5.2-.6.2-.1 0l1.7-.4c1-.3-.9 0 .2 0h1c.3 0 1.4.2.4 0l1.1.2 2.4.5c6.2 1.3 12.3 2.7 18.4 4.3a277.3 277.3 0 0 1 34.5 11.1l2.1.9 1 .4c-.6-.3 0 0 0 0l4.6 2 8 3.8c5.3 2.7 10.6 5.7 15.6 9q3.8 2.3 7.4 5 1.8 1.1 3.5 2.4l1.9 1.4.4.3 1 .8a179.5 179.5 0 0 1 14.2 12.5c2.2 2.2 4.4 4.4 6.5 6.8q1.6 1.7 3 3.6l.2.3.8 1 1.7 2.3a76.3 76.3 0 0 1 4.9 8.2 45.2 45.2 0 0 1 3.4 7.9 51.5 51.5 0 0 1 1.7 6.5c0 .4 0 .8.2 1.2s0 .5 0 .8c0-.5 0-.5 0 0a44.3 44.3 0 0 1 0 9c0 1.3.2-.9 0 .4l-.2 1.2-.4 2a45 45 0 0 1-1.6 4.9c-1.2 3.3-2.6 6.6-3.2 10.2-1 7.4 1.8 14 4.3 20.8.7 2.1 3 3.7 5.2 3 2.2-.6 3.9-3 3-5.2z"/><path d="m277.1 970.9-2.6-3.3c-10-11.7-23.1-20-36.4-27.7a544.1 544.1 0 0 0-149.7-59c-17.5-4-38-6.5-51.6 5.4l-.1.1.2 1.6c3.2 15.3 23.5 22 35.8 27.5q25 11.5 50.6 21.5a650.5 650.5 0 0 0 107.2 32.8c10.3 2 20.6 3.8 31 5 4.7.6 9.8 1 13.6-1.9a10.7 10.7 0 0 0 2-2z"/><path d="M280.8 968.7c-11-14.6-26.6-24.5-42.3-33.5a546.2 546.2 0 0 0-49.5-25 555.1 555.1 0 0 0-52-20.2 463 463 0 0 0-52.6-14.3c-15.2-3-33.2-4.7-46.8 4.6-2.1 1.4-5.1 3.2-5.2 6.1a16 16 0 0 0 1.2 5.6 28.2 28.2 0 0 0 5.5 9c4.4 5 10.4 8.5 16.2 11.4s12 5.3 17.9 8q13.6 6.2 27.5 12c18 7.5 36.2 14.6 54.6 20.9a622.2 622.2 0 0 0 55.4 16.4c9.6 2.3 19.2 4.4 28.8 6q7.3 1.4 14.5 2.4c4.6.6 9.4 1.5 14 1.3s9.2-1.9 12.2-5.6c1.3-1.7 1.8-4.4 0-6-1.6-1.4-4.6-1.9-6 0a14.4 14.4 0 0 1-1 1.1l-.6.5-1.2.7c-.5.4.6-.2 0 0l-.9.3-1.3.3-.5.1c.1 0 .8 0 0 0h-3a294.1 294.1 0 0 1-12.7-1.5c-9.6-1.4-19-3.1-28.3-5.2-18.3-4-36.4-9-54.2-14.8a848.8 848.8 0 0 1-78.8-29.9l-22.3-10a118.2 118.2 0 0 1-16.7-8.2l-1.9-1.2-.9-.6-.3-.3A38.5 38.5 0 0 1 46 896l-1.4-1.6c-.2-.1-.8-1-.4-.4l-.5-.7a22.8 22.8 0 0 1-1.5-2.7l-.3-.5c-.3-.7.2.6 0 0l-.7-2-.2-1c-.1-.3-.3-1.5-.2-.7l-1.2 3 .9-.7.3-.3.1-.1a34.1 34.1 0 0 1 4.7-2.9l1.2-.5.5-.2.2-.1a38.3 38.3 0 0 1 5.2-1.6l2.5-.5 1.3-.2.7-.1a64.3 64.3 0 0 1 11.3-.2l5.8.6h-.1l.7.1 1.4.2 2.9.5a317 317 0 0 1 24.7 5.8q13 3.5 25.9 7.6t25.4 8.7l12.8 5 6 2.5 1.6.7s.7.3.2 0l.6.3 3.2 1.4Q204.4 926 228 939c7.7 4.3 15.3 8.6 22.6 13.5 3.6 2.4 6.7 4.7 9.7 7.2a94.6 94.6 0 0 1 9.3 8.7l2 2.3 1 1.3.8 1c1.4 1.7 3.8 2.9 5.9 1.5 1.7-1.1 3-4 1.5-5.9z"/><path d="M866.8 768.2c-28.2-107.3-60.3-171.6-71.1-194-8.7-17.9-16.2-37-31.9-49a111.2 111.2 0 0 0-29.1-15.2c-9.7-3.6-19-6.6-29.5-5.2-11.8 1.6-23.2 6.9-34.4 10.9-12.3 4.4-25.3 8.2-37.1 13.8-8.4 4-16.6 11.4-10.6 21 15.7 25 47.9 13.2 78.9 15.1-11 13.6 4.8 145.5 87.8 165" fill="#ff983b"/><path d="M870.9 767q-8.3-31.5-18.3-62.6-8.3-25.7-17.8-51-7.7-20.2-16.3-40.1-6.2-14.2-12.8-28.2l-13.4-27.8c-4.2-8.8-8.9-17.3-15-24.9-6.4-8-14.6-14-23.6-18.8a147.9 147.9 0 0 0-15.3-6.7 117 117 0 0 0-15.4-5.2 49.3 49.3 0 0 0-16.8-1.3 82 82 0 0 0-16.7 3.9c-5.3 1.7-10.5 3.8-15.7 5.8s-10.4 3.7-15.6 5.5-10.6 3.6-15.8 5.6c-4.8 1.9-10 3.8-14.4 6.5a24.2 24.2 0 0 0-9.7 9.8 15.6 15.6 0 0 0 1 15 36.7 36.7 0 0 0 19 15.5c7.6 2.7 16 3.2 24 3 8.8-.1 17.6-1 26.4-1.3 4.4 0 8.8 0 13.2.2l-3-7.3a18.6 18.6 0 0 0-3.5 9 78.3 78.3 0 0 0-.8 13.6 186.7 186.7 0 0 0 5 37.7 217 217 0 0 0 15 44.1 147.9 147.9 0 0 0 27 40.1 98.2 98.2 0 0 0 41 26l6 1.5a4.3 4.3 0 1 0 2.3-8.2 88.7 88.7 0 0 1-11.6-3.6l-1.4-.6c-.1 0-.6-.3-.7-.2.2-.1.9.4 0 0a131.3 131.3 0 0 1-7.8-3.9 90.7 90.7 0 0 1-9.8-6.3l-1-.8c-.4-.3-.6-.7 0 0a3 3 0 0 0-.6-.4l-2.4-2a94.6 94.6 0 0 1-4.2-3.8 111.7 111.7 0 0 1-8-8.3l-3.8-4.5-.4-.6a44.3 44.3 0 0 1-2.6-3.5 154.8 154.8 0 0 1-12.1-20q-2.7-5.3-5-10.7l-.2-.5-.5-1.2-1.1-2.8a215 215 0 0 1-2.1-5.5A218.4 218.4 0 0 1 709 626c-1.7-6.6-3-13.3-4.1-20l-.4-2.4-.1-1.1v-.4c.2 1.5 0 .4 0 0-.3-1.4-.4-2.9-.6-4.3l-.7-8.4a95.5 95.5 0 0 1 .2-13.8l.1-1.3c0-.2.2-1.1 0-.1s0 0 0-.2l.5-2.4a19.5 19.5 0 0 1 .5-2l.3-.8-.2.6.2-.5c.3-.5 1.2-1.8 0-.3a4.4 4.4 0 0 0 1-4.7 4.3 4.3 0 0 0-4-2.6c-8.8-.5-17.6 0-26.5.5-8.1.5-16.3 1-24.4.2l-1.4-.2c-.6 0 .8.2.1 0h-.6l-2.8-.6a42.6 42.6 0 0 1-5.2-1.4 25 25 0 0 1-1.2-.5l-.6-.2c-.6-.2.6.3.1 0l-2.4-1.1a19.2 19.2 0 0 1-3.3-2.1l-.5-.4c.8.6 0 0-.2-.1a30.8 30.8 0 0 1-3.9-3.9l-.4-.5-.9-1.2a25.6 25.6 0 0 1-1.9-3c0-.2-.3-.8 0-.2l-.3-.8a12.7 12.7 0 0 1-.3-1.4V543c0 .6-.1.5 0 0a11.5 11.5 0 0 1 .3-1.1l.2-.7c-.3.9-.1.3 0 .1l.7-1.2.4-.6c.6-1-.6.6.2-.2a24.1 24.1 0 0 1 2-2.1l.7-.6 1.4-1a41.2 41.2 0 0 1 5.9-3.1c4.5-2 9.4-4 14.4-5.7 10.1-3.6 20.3-7 30.4-10.8 5-2 10.1-3.8 15.3-5.3a46.5 46.5 0 0 1 15.4-2 37.4 37.4 0 0 1 7 1 76.4 76.4 0 0 1 7.6 2.2c4.8 1.5 10 3.5 14.1 5.3 9.3 4 18.1 9 25 15.9a64 64 0 0 1 4.4 4.9l1 1.2c-.4-.5 0 0 .1.2l.5.6 2.2 3a122.8 122.8 0 0 1 7 11.9c5.3 10.2 10 20.7 15 31.1q6.1 12.7 11.8 25.6 1.9 4 3.6 8.2l1.8 4.1c.1.4.5 1.2.1.4l.5 1 1 2.5 7.9 19.6q9.4 23.6 17.4 47.6 9.7 29 17.9 58.6l4.3 15.8a4.3 4.3 0 0 0 8.2-2.3z" fill="#ff983b"/><path d="M855.2 726.7a144.6 144.6 0 0 0-97.5 11.6 93.4 93.4 0 0 0-28 20.5 48 48 0 0 0-10.3 17.4 63.3 63.3 0 0 0-1.2 25.4 40 40 0 0 0 4.7 16.9c5.3 8.6 16 12.5 26 12.2s19.6-4.1 28.9-7.9" fill="#f96632"/><path d="M856.3 722.5a149.2 149.2 0 0 0-103.8 13.6c-15.3 8.3-30.6 20.5-36.6 37.4-3.2 9-3 18.8-2 28 1 9 2.9 18.2 9.7 24.6 6 5.6 14 8.3 22 8.8 9.2.6 18.3-2.2 26.8-5.4l6.5-2.5c2.1-.8 3.8-3 3-5.3-.6-2-3-3.9-5.2-3a184 184 0 0 1-18.9 6.5l-3.1.6-1.6.3h-1.2a40.1 40.1 0 0 1-5.9.2c-.8 0-1.7 0-2.5-.2h-.5l-1.5-.3a33.3 33.3 0 0 1-5-1.5l-.4-.2-1.3-.6a28 28 0 0 1-3.6-2.2 24 24 0 0 1-2-1.8l-1.7-1.8.1.1-.4-.6-.8-1.3a21 21 0 0 1-1.4-2.6l-.3-.8-.5-1.6a45.5 45.5 0 0 1-1.3-6.1l-.1-.6-.2-1.5-.4-3.4-.4-6.8a66 66 0 0 1 .2-6.7l.1-1.6v-1a43.4 43.4 0 0 1 2-7.7l.3-.8a4.5 4.5 0 0 0 .2-.4l.2-.5a32.2 32.2 0 0 1 1-1.9c.4-1 1-1.9 1.5-2.8l1.6-2.5.9-1.2.3-.5c.8-1-.2.3.3-.3a78 78 0 0 1 10.5-10.7l1.2-1 .6-.5c.6-.4-.4.3.2 0a102.6 102.6 0 0 1 10.3-6.9c3.5-2 7.1-4 10.9-5.6l2.7-1.3.8-.3.3-.2.5-.2.8-.3 6-2.2a145.6 145.6 0 0 1 24.2-6.3l3-.5 1.5-.2c-.1 0-.6 0 0 0l1-.2 6.3-.6q6.1-.5 12.4-.4c4.2 0 8.4.2 12.6.6l3 .3 1.3.2.8.1h.4l6 1 6.2 1.4a4.3 4.3 0 1 0 2.2-8.3z" fill="#f96632"/><path d="M712.7 871c2-5.7 4.8-11.4 4.4-17.3-.3-5-2.9-9.7-4.3-14.5-6-19.2 5.2-39.8 19.2-54 33.8-34.7 74.3-49.4 120.9-58.9a11.3 11.3 0 0 1 12.7 7c4.8 12.6 3.4 17.9 16.3 27.4 6.6 5 15 5 22.7 7.2 8 2.3 12.9 7.8 17 14.9 15.8 26.5 25.6 57.6 37.6 85.8 2.6 6.2 5.2 12.8 3.9 19.4-3.2 15.3-23.5 22-35.7 27.5q-25 11.5-50.7 21.5a650.5 650.5 0 0 1-107.2 32.8c-10.3 2-20.6 3.8-31 5-4.6.6-9.8 1-13.6-1.9-3.3-2.5-4.7-6.9-5.8-11-8.4-29.7-16.8-61.9-6.4-91z"/><path d="M716.9 872c1.2-3.4 2.6-6.7 3.5-10.2a26.4 26.4 0 0 0 .6-11.5c-.7-3.4-2-6.5-3.2-9.8a43.3 43.3 0 0 1-1.5-4.8l-.4-2-.2-1.2-.1-.8a36.5 36.5 0 0 1-.2-4.3l.1-2.4.1-.7c0-.2.2-1.8 0-.9a48.9 48.9 0 0 1 2.3-9l.8-2.1.4-1.1.2-.5 2.2-4.4a76.5 76.5 0 0 1 5-8l1.4-2 .4-.5.5-.7a88.4 88.4 0 0 1 10-10.8A179.2 179.2 0 0 1 753 772l.2-.2 1-.7 1.8-1.5 3.9-2.7q3.6-2.6 7.4-4.9 7.6-4.8 15.7-8.8l7.9-3.8 3.9-1.7.4-.2 1-.4 2.5-1c5.5-2.2 11-4.2 16.7-6a364.5 364.5 0 0 1 36.3-9.3l2-.4c.1 0 1.4-.2.3-.1h2.1c-.8 0-.4-.1 0 0l1 .2c.3.2 1.5.6.5.1a16.6 16.6 0 0 1 1.8 1c.2.2.5.5 0 0l.8.7.7.8c-.7-.8 0 .2.1.3l.5 1c.5.7-.2-.7.2.3 1.5 4.3 2.7 8.8 4.4 13a32.5 32.5 0 0 0 8.2 12.2 41.4 41.4 0 0 0 7.9 6 36.6 36.6 0 0 0 9.3 3.4c3.2.8 6.4 1.3 9.6 2a36 36 0 0 1 4.1 1.2l.4.2.8.4 2 1 1.8 1.3c-.7-.5-.2-.2 0 0l.8.6a30.2 30.2 0 0 1 3 3l.7.9.2.3 1.3 1.8 2.5 4a304.5 304.5 0 0 1 17.7 37c5.3 12.9 10.2 26 15.4 38.9l2 4.9 2.1 5a41.7 41.7 0 0 1 3.2 10.3v3.3c0 .1-.1 1 0 .4a17.3 17.3 0 0 1-1 3.9c-.2.3-.1 1 0 0a3.6 3.6 0 0 1-.4.8 25.6 25.6 0 0 1-1.6 2.8l-.6.8-.2.3a29 29 0 0 1-2.3 2.4l-1.4 1.2-.5.4c-.1.1-1.2 1-.3.3a59.5 59.5 0 0 1-6.2 4 138.7 138.7 0 0 1-13.5 6.4l-16.6 7.4-20.2 8.7a791 791 0 0 1-84.3 30c-14.4 4.2-28.9 7.8-43.6 10.7q-11 2.2-22.3 3.8l-4.9.6-5 .5h-2l-1.2-.1c1 0-.3 0-.4-.1l-1.9-.5c-1-.3.6.4-.3-.2l-1.4-.8c.8.6-.1-.2-.2-.3l-.7-.8c0 .1.4.7 0 0a29.8 29.8 0 0 1-1.3-2.3l-.8-2.1-2.9-10c-1.8-6.9-3.6-13.8-5.1-20.8a134.5 134.5 0 0 1-3.2-44.1s.2-1.5 0-.7l.2-1.3 1-4.9a81.5 81.5 0 0 1 2.8-10 4.3 4.3 0 0 0-3-5.2 4.4 4.4 0 0 0-5.3 3c-10 28.5-3 59.4 4.7 87.6 1.8 6.3 3 14 8.3 18.4 6 4.9 13.7 3.8 20.8 2.9a434.6 434.6 0 0 0 46-8.6c29.8-7.2 58.8-17 87.3-28q21.8-8.5 43.3-18c5.6-2.5 11.2-5.1 16.9-7.5a130 130 0 0 0 13.7-6.7c9.8-5.6 19-14.7 18.2-26.9a39 39 0 0 0-2.8-11.5l-4.2-10-7.8-19.9a650.4 650.4 0 0 0-16.8-40.4c-3-6.4-6.3-12.8-9.9-19-3.2-5.5-7-10.7-12.3-14.5s-11.8-4.7-18.1-6a90.6 90.6 0 0 1-7.8-2.2l-.8-.4a27 27 0 0 1-7.1-5.3 34.7 34.7 0 0 1-2.5-2.5l-.5-.7c-.7-.7.5.8 0 0L876 749a26.7 26.7 0 0 1-1.3-2.5l-.4-.7c-.4-.8.4 1 0 .1l-.5-1.4c-1.7-4.8-2.7-10.1-5.1-14.6a15.3 15.3 0 0 0-7.1-6.6 16.9 16.9 0 0 0-10.7-1c-6.3 1.4-12.6 2.8-18.9 4.4a283.6 283.6 0 0 0-35.6 11.3 194 194 0 0 0-63.6 40.3 88.4 88.4 0 0 0-23 33.4A48 48 0 0 0 707 831a41.5 41.5 0 0 0 2 10.2c1 3.4 2.6 6.6 3.5 10a27 27 0 0 1 .3 1.6 17 17 0 0 1 0 2.6v1.4c-.1 1.3.2-.8 0 .6l-.7 2.6c-.9 3.3-2.3 6.5-3.5 9.8a4.3 4.3 0 0 0 3 5.2 4.4 4.4 0 0 0 5.3-3z"/><path d="m722.9 970.9 2.6-3.3c10-11.7 23.1-20 36.4-27.7a544.1 544.1 0 0 1 149.8-59c17.4-4 37.9-6.5 51.5 5.4l.1.1-.2 1.6c-3.2 15.3-23.5 22-35.8 27.5q-25 11.5-50.6 21.5a650.5 650.5 0 0 1-107.2 32.8c-10.3 2-20.6 3.8-31 5-4.7.6-9.8 1-13.6-1.9a10.7 10.7 0 0 1-2-2z"/><path d="m726.6 973 .1-.3.5-.5 1-1.3a72.6 72.6 0 0 1 11.6-11.3l2.4-1.9c.4-.3 0 0 0 0l.7-.5 1.4-1a226 226 0 0 1 21.7-13.7q23.4-13.4 48-24.4l6.3-2.8c2.1-1 3.5-1.5 5.5-2.3l12.4-5q12.6-4.9 25.4-9.1a505.4 505.4 0 0 1 51.4-14.3 159 159 0 0 1 9.7-1.9h.8c.7-.2-1 0 .2 0a82.3 82.3 0 0 1 11.4-.8c1.9 0 3.7.1 5.5.3l.8.1s.7.1.2 0l.9.2c1 .1 1.9.3 2.9.6a37.5 37.5 0 0 1 5 1.5c.1 0 .8.4.3.2h.2l1.2.6a32 32 0 0 1 4.7 2.8l.4.4c-.6-.5 0-.1 0 0l1 .8-1.2-3c0-.8 0 .4-.1.6l-.3 1a6.7 6.7 0 0 1-.7 2.3l.1-.4-.3.6a46.8 46.8 0 0 1-1.6 2.8l-.6.8c.5-.7.1-.1-.2.2l-1.5 1.7a38.5 38.5 0 0 1-3.4 3l-.3.2-.9.7-2 1.3a64.2 64.2 0 0 1-4.2 2.4c-2.7 1.5-5.6 2.8-8.5 4.1l-19.8 8.8a854.9 854.9 0 0 1-78.7 30.7c-17.8 6-35.9 11.2-54.2 15.5a466.7 466.7 0 0 1-41.4 7.6c-2 .2-4 .5-6.1.6h-3.4a15.8 15.8 0 0 1-1.7-.4 19.4 19.4 0 0 1-1.7-.8c-.4-.3 0 0 0 0a8.4 8.4 0 0 1-.6-.6 14.6 14.6 0 0 1-1.2-1.2c-1.4-1.8-4.6-1.6-6 0a4.4 4.4 0 0 0 0 6c6.4 8 18 5.4 26.6 4.2a403 403 0 0 0 29.1-5.2 570 570 0 0 0 56-15.1c18.4-6 36.6-12.7 54.5-19.9q14-5.6 28-11.7l22.2-10c11.9-5 25.7-11.4 30.3-24.5.7-1.8 1.5-4.5 1-6.4-.6-2.3-3.5-4-5.4-5.2a38.6 38.6 0 0 0-10.8-4.9 62.3 62.3 0 0 0-23.5-1.4 190.8 190.8 0 0 0-25.2 4.9q-13.4 3.3-26.6 7.3a545 545 0 0 0-52.2 18.7 556.8 556.8 0 0 0-50.4 24c-15.7 8.5-32 17.3-45 29.8a87.2 87.2 0 0 0-9.1 10.2c-1.4 1.8-.4 5 1.5 5.9 2.3 1.2 4.4.4 5.9-1.6z"/><path d="M463.1 265.2c17.3 14.3 35.2 29 56.8 35 2 .6 4.4 1 6.2 0a7.1 7.1 0 0 0 2.6-3.3 16.2 16.2 0 0 0 1.7-9.4 24.8 24.8 0 0 0-3.2-7.8l-21.5-39.2a9.6 9.6 0 0 0-3.1-4c-2.8-1.6-6.4 0-8.9 2s-4.6 4.8-7.6 5.8" fill="#f96632"/><path d="M460.1 268.2c17.1 14.2 35 28.8 56.6 35.5 3 .9 6 1.7 9.1 1 3.2-.6 5.5-3.2 6.8-6a21.3 21.3 0 0 0 2.2-9.7 22.8 22.8 0 0 0-2.9-9.5c-2.8-5.5-6-11-8.9-16.3l-9.2-16.8c-1.6-3-3.2-6.1-5-9.1-2-3.3-5-5.7-8.9-5.7a15 15 0 0 0-9.5 4.2l-3.1 2.9-.6.5c-1 .7.6-.4-.4.2l-.8.5c-.3.1-1.4.6-.5.3-2.1.8-3.8 3-3 5.3.6 2 3 3.8 5.2 3a21 21 0 0 0 7-4.6l2.3-2.1c.8-.7-.4.2.2-.2l.6-.4.9-.5c.6-.4-.2 0 .2-.2l.8-.2c.3-.1 1-.2.1-.1h.7c.7 0 .3 0 0 0a5 5 0 0 1 .7.4c-.6-.5 0 0 0 0 .4 1-.2-.3.3.4l4 7.4 16.8 30.5 2 3.8 1 1.6.3.8c.6 1.2-.2-.7.3.6a16.5 16.5 0 0 1 .5 1.7l.2.9c.3 1.3 0-.4 0 .3v2.2l-.1 1.1a18.9 18.9 0 0 1-.6 2l-.3.7-.1.2-.7 1.4c-.5.9.3-.1-.2.2-.3.2-.6.4-.1.1l-.3.1c-.5.2.5 0 0 0a5.3 5.3 0 0 0-.8 0c-.7 0 .9.2-.3 0s-2.4-.7-3.6-1c-9.3-2.9-17.7-7.3-26.3-13-2.3-1.4-4.6-3-6.8-4.7l-3.5-2.5-1.7-1.3-.2-.2-1-.7c-4.5-3.6-9-7.2-13.3-10.9-1.8-1.4-4.4-1.8-6 0-1.5 1.6-1.9 4.5 0 6z" fill="#f96632"/><path d="M474.3 274.3c12.5-7.6 25-15.3 37.2-23.2l-5.8-10.6a9.6 9.6 0 0 0-3.1-4c-2.8-1.6-6.4 0-8.9 2s-4.6 4.8-7.6 5.8l-23 20.9 11.2 9.1z"/><path d="M476.4 278c12.5-7.6 25-15.3 37.3-23.2a4.4 4.4 0 0 0 1.5-5.9c-2-3.8-4.1-7.7-6.3-11.5a11.5 11.5 0 0 0-4.7-4.8 10.4 10.4 0 0 0-7.1-.6c-4.1 1-6.9 4.1-10 6.8l-.5.4-1 .6-.6.4s-.6.3-.2 0c.7-.2-1 .5-.9.5l-.8.6-.5.4-16.6 15.1-5.9 5.4a4.3 4.3 0 0 0 0 6l11.2 9.1c1.7 1.4 4.3 1.9 6 0 1.4-1.5 1.8-4.5 0-6l-11.2-9v6l20.1-18.3 2.9-2.6-2 1.1a23.6 23.6 0 0 0 7.9-5.3l1.4-1.4c.6-.5-.2.1.2-.1l.9-.6.8-.5c.2-.2-.4.1.3-.1l1.1-.3c-.6.1-.2 0 .2 0s.9.2.1 0c.8.2-.2-.3.2 0s.6.5.2.1c0 0 .8.8.5.4l.3.6.6 1 1.1 2 4.9 8.9 1.5-5.9c-12.3 8-24.7 15.6-37.2 23.3a4.3 4.3 0 1 0 4.3 7.3z"/><path d="m343.3 307.7-26.4-30.3c-1.5-1.7-3.1-3.7-3-6 0-1.8 1.2-3.4 2.3-4.9a163.5 163.5 0 0 1 19.6-21.5l11.5 8a9.7 9.7 0 0 0 4.4 2.1c2.2.3 4.3-1 6.1-2.3l109.5-74.5c17.4-11.8 35.6-24 56.5-26.8 11.3-1.6 23-.3 33.7-4.3 4.6-1.6 9-4.2 13.8-4.4 11.3-.4 18.9 13.4 16.4 24.5s-11.4 19.4-20.1 26.7a807.3 807.3 0 0 1-94.5 64.2c-34.5 21.1-69.2 42-105.5 60-6.1 3-14 5.7-19.2 1.4" fill="#fff"/><path d="M346.3 304.7 324.9 280l-5.3-6a8.2 8.2 0 0 1-1.3-2c.3.6-.3-1.2-.2-.3v-.3s.2-.7 0-.2c.8-2 2.5-3.7 4-5.4q2.3-2.9 4.8-5.7a164.3 164.3 0 0 1 12-12.2l-5.2.7c4.2 3 8.3 6 12.6 8.8a10.7 10.7 0 0 0 8.3 1.6c2.4-.5 4.5-2 6.6-3.4l26.2-17.8L440 202l26.2-17.8c7.9-5.3 15.7-10.7 23.9-15.5a105.3 105.3 0 0 1 24.4-11l6.6-1.5a56.4 56.4 0 0 1 6.5-.9l14.4-.9a66.3 66.3 0 0 0 14.7-2.4 74.4 74.4 0 0 0 7-2.8l1-.3 1.5-.6a24.3 24.3 0 0 1 3.3-1l1-.2c-.2 0-.6 0 0 0h2.5c.6 0-.7-.1-.2 0 .2.2.5.2.7.2l1.1.3.6.3-.3-.2a23.3 23.3 0 0 1 2.2 1.2l.5.4-.2-.2.9.8a22.7 22.7 0 0 1 1.8 2l.2.2.7 1.2c.5.7.8 1.5 1.2 2.3.3.4 0-.2 0-.2l.2.6.4 1.2a23.2 23.2 0 0 1 .7 2.6l.1.8.1.9a23.4 23.4 0 0 1 0 2.6l-.1 1.2v.4a26 26 0 0 1-.9 3 16.8 16.8 0 0 1-.7 2c.2-.5 0 .1 0 .2a33.4 33.4 0 0 1-4 6.7l-.5.7c.3-.4 0 0-.2.1a71 71 0 0 1-4.2 4.8 127.2 127.2 0 0 1-10 8.8 560.1 560.1 0 0 1-47.6 34.5c-16.7 11-33.8 21.4-50.8 31.8-17.5 10.6-35.1 21.2-53 31.3q-13.4 7.7-27 15l-13.6 7-6.6 3.2-1.3.6-.6.3c.6-.3 0 0-.2 0l-3 1.1a25.6 25.6 0 0 1-2.8.7c-.6 0 0 0 0 0h-.7a12.7 12.7 0 0 1-1.4 0h-.6a11.7 11.7 0 0 1-1.3-.3l-.5-.2c.7.3 0 0 0 0s-1.3-.8-.8-.4c-1.8-1.4-4.3-1.8-6 0-1.5 1.5-1.8 4.6 0 6 4 3.3 8.7 4 13.8 3 4.5-.7 8.6-2.8 12.7-4.8q14-7 27.8-14.6c18.4-10 36.4-20.6 54.4-31.4 17.6-10.6 35.2-21.3 52.6-32.3 17.1-11 34-22.3 50.2-34.6 7.7-6 15.6-11.8 22.4-18.7a41.9 41.9 0 0 0 13-23.6 26.6 26.6 0 0 0-7.2-21.2 19 19 0 0 0-9.6-5.5 24 24 0 0 0-13.9 2c-2.5 1-4 1.8-6.6 2.7a46 46 0 0 1-7.2 1.7 40.6 40.6 0 0 1-6.4.6l-7.5.4c-9.8.6-19.3 2-28.5 5.6-18.4 7-34.5 18.8-50.6 29.8l-53.9 36.6-26.9 18.4-13.3 9-6.5 4.4-.8.5-.3.1c.3-.2-1.4.4-.5.2-.5.1-.6 0-.2 0a4 4 0 0 1-.9-.2c.1 0 .5.2 0 0l-1-.5c-4.3-2.8-8.4-6-12.6-8.9-1.6-1-3.8-.5-5.1.7q-6 5.5-11.6 11.6l-5.2 6.2a45 45 0 0 0-5.1 6.9 10 10 0 0 0-.3 9.3c1.2 2.4 3.2 4.5 5 6.5l11.6 13.3 13 15a4.3 4.3 0 1 0 6-6z" fill="#fff"/><path d="M423.6 238a240.3 240.3 0 0 0-37.3-32.4c-13-9.2-27.4-17.4-36.5-30.5-3.3-4.6-5.8-11.2-2.3-15.8 2-2.7 5.6-3.7 9-4.1 15.3-2 30 5.4 43.7 12.7l62.7 33.3c1.5.7 3 1.6 3.5 3.2.6 2-1 4-2.5 5.6a113.2 113.2 0 0 1-38.8 26" fill="#f96632"/><path d="M426.6 235a264.1 264.1 0 0 0-44.9-37.7c-3.7-2.5-7.4-5-11-7.7l-2.4-1.8-.1-.1-.7-.5-1.4-1.2-5-4.4a56.6 56.6 0 0 1-6.6-7.2l-.5-.7c-.3-.5-.6-1-1-1.3a28.2 28.2 0 0 1-1.5-2.8l-.4-.7c-.2-.3-.2-.7 0 0l-.5-1.7-.4-1.5c-.2-.5 0 .1 0 .2v-2.2c0 .8-.1.3 0 0l.2-.8c0-.1.4-.8.1-.3l.2-.3.2-.4c-.3.4.2-.1.3-.2l.5-.5c.4-.5-.5.2 0 0l1.5-.9c-.2.1-.8.3 0 0l.7-.2 1.3-.4 1.5-.3h.4l.7-.1a41.7 41.7 0 0 1 7 0l1.8.2h.2l.9.1 3.7.7c9.6 2.3 17.6 6.5 26.4 11.2l56.8 30.1 7 3.7c.2.2 1 .8.4.2l.5.5c-.6-.4-.2-.4-.1 0l-.2-.8c.2.6 0 .3 0 0-.2.8 0 .2 0 0a7.2 7.2 0 0 1-.5 1c-.4.5.3-.4-.1 0l-.6.7-1.2 1.2a102.2 102.2 0 0 1-7.7 7c-2 1.6-2.8 2.3-4.8 3.7l-5.8 4a112.2 112.2 0 0 1-12 6.6l-3 1.5-.6.2-.5.2-.5.2-1 .4c-2 .8-3.7 2.9-3 5.3.7 2 3 3.8 5.3 3a118.1 118.1 0 0 0 26.1-14.5A121.9 121.9 0 0 0 464 216c3.9-3.6 9.5-9.2 5.4-14.8-1.7-2.3-4.1-3.4-6.6-4.7l-7.4-4-15.2-8-30-16c-9.6-5-19.2-10.5-29.5-14.2a62.6 62.6 0 0 0-15.6-3.4 33 33 0 0 0-14.9 1.6 13.1 13.1 0 0 0-8.6 12.4c0 5 2.4 9.7 5.3 13.7 6 8 13.5 14.2 21.5 20s16.1 10.8 23.8 16.8c.7.5.4.2.3.1l.7.6 1.6 1.2a237.5 237.5 0 0 1 9 7.6q5.9 5.2 11.4 10.7l5.4 5.6a4.3 4.3 0 1 0 6-6z" fill="#f96632"/><g fill="#6c77c1"><path d="m528.2 162.2 11-6.3c1.7-1 3.3-1.9 5-2.7l.7-.3c-.4.2-.4.2 0 0l1.2-.4a17.2 17.2 0 0 1 3-.7c2.2-.3 3.6-3.2 3-5.2-.8-2.5-3-3.3-5.3-3a33 33 0 0 0-11.6 4.7l-11.3 6.5a4.3 4.3 0 0 0 4.3 7.4zM503 177.1a4.3 4.3 0 1 0-4.3-4.3 4.3 4.3 0 0 0 4.3 4.3zm-16 10a4.3 4.3 0 1 0-4.2-4.2 4.3 4.3 0 0 0 4.3 4.3zm-90.6 61.5a4.3 4.3 0 1 0-4.2-4.2 4.3 4.3 0 0 0 4.2 4.2zm-18 11.7a4.3 4.3 0 1 0-4.2-4.3 4.3 4.3 0 0 0 4.2 4.3zM442 41.4a29.4 29.4 0 0 1 15.7 9.2c2 2.3 3.7 5 6 7 6 5.3 15 5.4 23 5.2l41.9-1a10.5 10.5 0 0 0 4.4-.7 11.6 11.6 0 0 0 3.5-3.4 53.5 53.5 0 0 1 27.9-18"/><path d="M438.8 52.4a32.1 32.1 0 0 1 5 1.6l-2.7-1.2a31.3 31.3 0 0 1 6.6 3.8l-2.3-1.7a41.2 41.2 0 0 1 6.9 7.2 29 29 0 0 0 9 7.7c7.2 3.7 15.1 4.6 23 4.5 7.7-.1 15.2-.4 22.8-.6l11.4-.3c4 0 7.8 0 11.6-.3a24.1 24.1 0 0 0 5-.8 17.9 17.9 0 0 0 6.8-3.8 28 28 0 0 0 3.3-3.7 54.1 54.1 0 0 1 7.8-7.4l-2.3 1.7a55.7 55.7 0 0 1 12.1-7l-2.7 1.1a55.6 55.6 0 0 1 7.2-2.4 11.7 11.7 0 0 0 6.8-5.3 11.4 11.4 0 0 0-12.8-16.7 63.1 63.1 0 0 0-19.8 9 69 69 0 0 0-9.4 7.7l-3.1 3.3a25.8 25.8 0 0 1-3.2 3.6l2.3-1.8a7.6 7.6 0 0 1-1.3.8l2.7-1.2a9 9 0 0 1-2 .5l3-.4c-4.8.5-9.7.3-14.5.4l-14.4.3-14.5.4a76 76 0 0 1-11.8-.4l3 .4a28.3 28.3 0 0 1-6.6-1.7l2.7 1.1a20 20 0 0 1-4.2-2.4l2.3 1.8c-4-3.2-6.4-7.8-10.4-11a41.9 41.9 0 0 0-17.2-8.8 12 12 0 0 0-8.8 1.1 11.4 11.4 0 0 0-4.1 15.7 11.4 11.4 0 0 0 6.8 5.2zM41.3 875.5a70.5 70.5 0 0 1 7.4-4.4l3.8-1.9L56 868a69.6 69.6 0 0 1 8.3-2.4l4.2-.9.8-.1.7-.1h.7l1.3-.2a52.3 52.3 0 0 1 8.5-.3l.8.1c1.3.1-.7-.2.6 0l1.7.5a8.5 8.5 0 0 1 1 .4c-.6-.3 0 0 .1 0l1.1.7c.7.3-.5-.6.1 0l1 1 .5.5c-.2-.7-.4-.5 0 0l.7 1.1.3.7c.1.2.7 1.1.1.2a10.4 10.4 0 0 1 1 2.6l.8 3.5c1 4.3 2 8.8 4.4 12.6a18.1 18.1 0 0 0 12.3 8 33 33 0 0 0 15.1-1.5c5-1.6 9.6-4.2 14.4-6.4l1.9-.9.8-.3.5-.2c1.3-.6 2.6-1 4-1.4a35.7 35.7 0 0 1 3.8-1l.8-.2c1.2-.2-.5 0 .2 0l2.1-.1h2l.7.1c-1-.1-.1 0 .1 0a17.5 17.5 0 0 1 2.7.9l.4.2 1.6 1c.3.2.6.1-.1-.2a2.7 2.7 0 0 1 .5.5l1 1 .6.6c.2.3.8.6 0 0a8.8 8.8 0 0 1 1.5 2.3c.6.9 1 1.8 1.4 2.8.1.2.4.6 0-.2a4 4 0 0 1 .2.7 67.9 67.9 0 0 1 1.6 4.5 78 78 0 0 0 4.5 12 20.4 20.4 0 0 0 9.5 9.4c5.6 2.5 12 2.1 17.8.2 5.6-2 10.5-5.2 15.7-8l3.8-2a27.4 27.4 0 0 1 6.8-2c.3 0 1-.2 0 0l.8-.2h2a33 33 0 0 1 3.4.1c.7 0-1-.2 0 0l.7.1 2 .5a31.6 31.6 0 0 1 3.2 1c.2 0 1 .4.1 0l.6.3 1.9 1a28.4 28.4 0 0 1 2.7 1.7s1 .8.2.2l.5.4 1.6 1.4a27.1 27.1 0 0 1 2 2.3l.7.9a22 22 0 0 1 2 3.5l.4 1v.2l1.7 4.3a59.3 59.3 0 0 0 3.6 8.6c2.6 4.8 7.2 9 12.6 10.2a14 14 0 0 0 9-1c2-1 2.7-4 1.6-5.8a4.4 4.4 0 0 0-5.9-1.6c1-.4-.1 0-.3 0l-.6.2c.8-.2.2 0 0 0a8 8 0 0 1-.9 0h-.7c1.1.1 0 0-.2-.1l-.7-.2c-.3-.1-1-.4-.2 0a15 15 0 0 1-1.6-1l-.6-.3c-.2 0-1-.8-.4-.2a19 19 0 0 1-2.6-2.7c.6.7 0 0 0-.1l-.5-.8c-.4-.6-.8-1.2-1-1.9a25.3 25.3 0 0 1-1.5-3.3c-1-3-2-6-3.3-8.8a31.7 31.7 0 0 0-23.4-18.2 30.8 30.8 0 0 0-15.6 1.1c-5.6 2-10.6 5.3-15.8 8.1l-3.6 1.8-.8.4-.5.2-2 .6a32.4 32.4 0 0 1-4 1c.8-.2.1 0 0 0h-3.2a11.8 11.8 0 0 1-1.2 0c.2 0 .8.1 0 0l-1.9-.5-.7-.3-.5-.2-1.4-1c-.8-.4.5.5 0 .1l-.5-.4-1-1-.4-.5-.2-.2c.5.5 0-.2-.2-.2l-.4-.8a27.4 27.4 0 0 1-1.5-2.5l-.5-1.2c-.3-.6.4 1 0 0l-.3-.8c-.8-2-1.4-4-2-5.9-1.4-4-2.7-8.3-5-12A20.6 20.6 0 0 0 157 876c-5.5-1.6-11.4-.7-16.7 1.1s-10 4.5-15.1 6.9l-1.6.7h-.2l-.8.4a45.3 45.3 0 0 1-7 2.1l-1.7.3c.1 0 .9 0 0 0l-1 .1a22.3 22.3 0 0 1-3.3 0h-.7c-1-.1.7.2 0 0l-1.7-.4-1.5-.5c1 .3-.4-.3-.7-.4l-1.2-.8c-.4-.2.7.7 0 0l-.7-.7-.6-.7-.9-1.3a17 17 0 0 1-1-2c.5 1 0 0 0 0a51.9 51.9 0 0 1-1.7-6.3c-1-4.2-2-8.7-4.6-12.3a16 16 0 0 0-7-5.4 24 24 0 0 0-8.8-1.4 73.5 73.5 0 0 0-34 8.4A70.4 70.4 0 0 0 37 868c-1.8 1.3-2.9 3.9-1.5 5.9 1.1 1.8 3.8 2.9 5.8 1.5zm676.6 73.3 13.1-13.5c4.2-4.4 8.3-8.8 12.6-13l2.7-2.5.6-.5c-.6.5.1 0 .3-.1a23.1 23.1 0 0 1 3.1-1.9c-.7.4 0 0 .3 0a9.4 9.4 0 0 1 .9-.3l.7-.2c1.1-.3-.5 0 .2 0a15.2 15.2 0 0 1 2.3 0c-.1 0-.7-.2.2 0l.9.1a21.6 21.6 0 0 1 2 .6l1.8.7.4.2 1.2.5q4.3 2 8.7 3.8a144.7 144.7 0 0 0 16.8 5.5 27.2 27.2 0 0 0 9.2 1.3 15.5 15.5 0 0 0 8.7-3.8 35.6 35.6 0 0 0 5.6-6.4c1.6-2.2 3.1-4.6 4.5-7 3-4.8 5.5-9.8 8.7-14.4l2-2.9.5-.6a52.2 52.2 0 0 1 5.1-5.3l.7-.6.6-.5.5-.4.7-.4 1.4-1 1.5-.8.8-.4.7-.3.5-.2.7-.3a23.3 23.3 0 0 1 3.3-.8c.9-.2.2 0 0 0l1-.1a23 23 0 0 1 3 0l1.6.1h.6c1 .2-.7 0 .2 0a51 51 0 0 1 6.2 1.6c4.2 1.3 8.3 3 12.3 4.7 7.9 3.3 16.4 6.6 25 4.5a22.4 22.4 0 0 0 11.7-7.4 51 51 0 0 0 7.3-12.8c1-2.1 1.8-4.3 2.9-6.4l1.6-2.8 1-1.6.5-.6c.7-1-.6.7.2-.3a27.4 27.4 0 0 1 2.2-2.4l1.2-1c.4-.3-.9.5 0 0l1-.7 1.3-.7c.2-.1.9-.4 0 0l.6-.3a12.8 12.8 0 0 1 1.5-.4c.3 0 1-.2 0 0h2.7c1.3 0-.4-.2.3 0l1 .1 4.2 1.1a32.5 32.5 0 0 0 4.5.9l1.7.1h.9a3.3 3.3 0 0 1 .4 0h-.4a7.2 7.2 0 0 0 1.3.4c.8.2-.1-.1-.2-.1l.8.4c.9.4 1.7 1 2.5 1.5a17.6 17.6 0 0 0 5.3 2.4 8.4 8.4 0 0 0 7.6-2.1 4.3 4.3 0 0 0 0-6 4.4 4.4 0 0 0-6 0c-.8.6.5-.5 0 0-.1 0-.9.4.3-.2a2.6 2.6 0 0 1-.5.1c1-.2.8 0 .5 0-.8 0 .8.2.3 0l-.6-.2a2.3 2.3 0 0 0-.4-.2l.3.1h-.3l-4.9-3a16.8 16.8 0 0 0-7.3-1.7h-1.1l-2-.5-4.1-1.1a18.6 18.6 0 0 0-15.5 2.6 33 33 0 0 0-9.6 11.4c-2.2 4-3.7 8.5-5.8 12.6-.6 1-1 2-1.7 3l-1 1.4-.4.6c.6-.7 0 .1-.2.3a19.4 19.4 0 0 1-2.2 2.3l-.4.3-.5.3-1.5 1-1.4.7c.9-.4 0 0-.4.1a19.8 19.8 0 0 1-3 .7c-.8.2.3 0 .3 0l-.7.1h-1.4a8.7 8.7 0 0 1-3-.1c.7.3.7 0 .3 0l-.8-.2a31 31 0 0 1-4.5-1l-6-2.2c-8.2-3.3-16.2-7.3-25.2-8a32.4 32.4 0 0 0-26.4 12.1c-7.4 8.3-11.6 18.7-18 27.7l-.7.9s-.5.6-.1.2L801 917a29 29 0 0 1-1.9 2l-.6.5-.5.4-.6.4-.7.3-.2.1a9.7 9.7 0 0 1-1.1.3h-.2a15.4 15.4 0 0 1-2.2 0c.6 0-.3 0-.5-.2-.3 0-.7 0-1.1-.2l-2-.5-4.3-1.1q-4.3-1.3-8.5-2.8l-4-1.5-2.2-.9-.8-.3-.7-.3c-2.9-1.3-5.7-2.7-8.6-3.8a18.6 18.6 0 0 0-16.9 1.8c-4.7 3-8.5 7.4-12.3 11.4L718.4 936l-6.5 6.8a4.3 4.3 0 0 0 6 6zM102.1 836.5a4.3 4.3 0 1 0-4.3-4.3 4.3 4.3 0 0 0 4.3 4.3zm75.3 15.9a4.3 4.3 0 1 0-4.3-4.3 4.3 4.3 0 0 0 4.3 4.3zm73.1 22.2v-2.1a3.2 3.2 0 0 0-.3-1.7 3.1 3.1 0 0 0-1-1.3 3.3 3.3 0 0 0-1.3-1 3.2 3.2 0 0 0-1.6-.3l-1.2.2a4.2 4.2 0 0 0-1.8 1l-.7 1a4.3 4.3 0 0 0-.6 2v2.2a3.2 3.2 0 0 0 .4 1.6 3.2 3.2 0 0 0 .9 1.4 3 3 0 0 0 1.3.9 3.1 3.1 0 0 0 1.7.4l1.1-.2a4.2 4.2 0 0 0 1.9-1l.7-1a4.3 4.3 0 0 0 .5-2.1zm496 11.5 1-1a3.2 3.2 0 0 0 .9-1.4 3.9 3.9 0 0 0 0-3.3 3.2 3.2 0 0 0-1-1.4l-.8-.7a4.2 4.2 0 0 0-2.1-.5l-1.2.1a4.2 4.2 0 0 0-1.9 1.1l-1 1a3.1 3.1 0 0 0-.9 1.4 3.9 3.9 0 0 0 0 3.3 3.1 3.1 0 0 0 .9 1.4l.9.7a4.2 4.2 0 0 0 2.1.6l1.1-.2a4.2 4.2 0 0 0 2-1.1zm80.6-37a4.3 4.3 0 1 0-4.2-4.2 4.3 4.3 0 0 0 4.2 4.3zm84.8-20a4.3 4.3 0 1 0-4.2-4.3 4.3 4.3 0 0 0 4.2 4.3z"/></g><path d="M150.5 544a86.1 86.1 0 0 1 5-17.8l.3-.6.3-.7a46.3 46.3 0 0 1 3-6.2 90.9 90.9 0 0 1 4.8-7.8l2.6-3.7.7-1c-.5.7 0 0 .2-.2l1.5-1.8a97.3 97.3 0 0 1 13.1-13l.9-.6.3-.2 1.9-1.4a96 96 0 0 1 3.8-2.6 86.3 86.3 0 0 1 9-5.1q1.1-.6 2.3-1l1.1-.6h.2l.3-.2c1.7-.7 3.3-1.3 5-1.8a4.4 4.4 0 0 0 3-5.3c-.7-2.1-3-3.7-5.2-3a93.3 93.3 0 0 0-33.4 20 95.3 95.3 0 0 0-22.4 31.2 90 90 0 0 0-6.5 21c-.4 2.2.6 4.7 3 5.3 2 .5 4.8-.6 5.2-3zm-26.7-55.7 1-2.5c0-.2.4-1 .1-.4l.6-1.5a78.6 78.6 0 0 1 2.4-4.8 78.4 78.4 0 0 1 6-9.4l.7-1.1a2.3 2.3 0 0 1 .3-.4 79.3 79.3 0 0 1 5.5-6.2 82.5 82.5 0 0 1 8.2-7.5h.2l.5-.5 1.3-.9 2.4-1.6c1.7-1.2 3.6-2.3 5.4-3.4a4.3 4.3 0 0 0 1.6-5.8 4.4 4.4 0 0 0-5.9-1.5 85.1 85.1 0 0 0-32.9 32.8 86.7 86.7 0 0 0-5.7 12.5 4.3 4.3 0 0 0 3 5.2 4.4 4.4 0 0 0 5.3-3zm658-14.6q3.6 2.3 7 4.8l1 .7c-.2 0-.6-.4 0 .1l1.7 1.3 3.4 3a113.7 113.7 0 0 1 11.6 11.8l2.6 3.1a14.7 14.7 0 0 1 .9 1.2l1.4 1.8q2.4 3.4 4.6 7a119 119 0 0 1 7.8 15c.5 1-.2-.6 0 .1l.6 1.3.8 2.2q.9 2.1 1.6 4.3 1.5 4.6 2.6 9.4a4.3 4.3 0 0 0 5.3 3 4.3 4.3 0 0 0 3-5.3 118.7 118.7 0 0 0-51.5-72.2 4.3 4.3 0 0 0-5.9 1.6 4.4 4.4 0 0 0 1.5 5.8zm50-31.8h1.1c.8 0-.5-.2.3 0l1 .3c-.8-.2 0 .1.4.3l.9.6-.1-.1.4.3a20.7 20.7 0 0 1 1.9 2l.7.8.4.5-.1-.2 1.6 2.2 3.3 4.9q6.7 9.8 12.6 20l6.6 12a4.3 4.3 0 0 0 5.9 1.5 4.4 4.4 0 0 0 1.5-5.8q-6-11.2-12.7-22-3.3-5.3-6.8-10.4a86.8 86.8 0 0 0-7.3-9.9c-3-3.2-7-5.9-11.6-5.6-2.2.2-4.3 1.9-4.2 4.3 0 2.2 1.9 4.4 4.2 4.3zM293.6 234a61 61 0 0 0-22.7 24.8 46.4 46.4 0 0 0-3 32.9 39.6 39.6 0 0 0 9.5 16.3 4.3 4.3 0 0 0 6 0 4.4 4.4 0 0 0 0-6 27.9 27.9 0 0 1-1.8-2c-.1-.2-.8-1-.2-.3a33.5 33.5 0 0 1-2-3.1c-.7-1-1.2-2-1.7-3l-.4-.9c-.3-.6.4 1 0-.1l-.7-1.8a44.9 44.9 0 0 1-1.3-5l-.2-1-.1-.6a42 42 0 0 1-.3-7.1l.1-2 .1-.7c.1-1.2 0 .6 0-.2a41.9 41.9 0 0 1 2.3-8.8l.4-1c.4-1-.4.8.1-.3a49.6 49.6 0 0 1 3.6-6.6l2.1-3c0-.1.5-.7 0 0l.6-.9 1.4-1.6a58.7 58.7 0 0 1 6-6l1.6-1.2.5-.4.6-.5 3.7-2.5a4.3 4.3 0 0 0-4.3-7.4zm-53.8 54-.7-2.8a20.2 20.2 0 0 1-.3-1.7 37.6 37.6 0 0 1-.3-5l.1-2.6.2-1.5c-.2 1.1 0-.4 0-.6a38.6 38.6 0 0 1 1.2-5l.9-2.4c0-.2.6-1.6.2-.7l.5-1a37 37 0 0 1 2.6-4.8l1.5-2c-.6.7.2-.3.3-.5l.9-1a35.1 35.1 0 0 1 4-3.7c1.6-1.5 1.5-4.6 0-6a4.4 4.4 0 0 0-6.1 0 42.4 42.4 0 0 0-13.2 43.7 4.3 4.3 0 0 0 8.2-2.3z" fill="#ff983b"/><g fill="#f96632"><path d="M650 569.2c19.3 5.3 39.4 2.4 58.8-.5 2.3-.3 3.7-3.2 3-5.2-.7-2.5-2.8-3.4-5.2-3-4.8.7-8.9 1.3-13.4 1.8s-9.3 1-14 1.2a108 108 0 0 1-13.8-.2 70 70 0 0 1-13-2.4 4.3 4.3 0 1 0-2.3 8.2zm-364.8 6.4c26-7.6 51.6-20 69.6-40.8a97.3 97.3 0 0 0 12.8-18.4 4.3 4.3 0 0 0-7.4-4.3 92 92 0 0 1-23.1 28.2l-3.5 2.8c.6-.5-.5.3-.5.3l-.6.5a98 98 0 0 1-2.4 1.7 132 132 0 0 1-8 5.2 142.4 142.4 0 0 1-9 5l-4.4 2-2 1-1.2.6-.8.3-.2.1a194.4 194.4 0 0 1-21.6 7.5 4.3 4.3 0 0 0 2.3 8.3z"/><path d="M364.3 515.6a4.3 4.3 0 1 0-4.3-4.2 4.3 4.3 0 0 0 4.3 4.3z"/></g></svg>