<svg viewBox="0 0 1000 1000" width="1000" height="1000" xmlns="http://www.w3.org/2000/svg"><path d="M374.34 339.2h71.47v58.82h-71.47z" fill="#f4f4f4"/><path d="M374.34 339.2h71.47v58.82h-71.47z" fill="none" stroke="#000" stroke-miterlimit="10"/><path d="M403.34 339.2h13.47v16.68h-13.47z" fill="#fff"/><path d="M403.34 339.2h13.47v16.68h-13.47z" fill="none" stroke="#000" stroke-miterlimit="10"/><path d="M445.81 339.03h71.47v58.82h-71.47z" fill="#f4f4f4"/><path d="M445.81 339.03h71.47v58.82h-71.47z" fill="none" stroke="#000" stroke-miterlimit="10"/><path d="M474.81 339.03h13.47v16.68h-13.47z" fill="#fff"/><path d="M474.81 339.03h13.47v16.68h-13.47z" fill="none" stroke="#000" stroke-miterlimit="10"/><path d="M410.07 280.51h71.47v58.82h-71.47z" fill="#f4f4f4"/><path d="M410.07 280.51h71.47v58.82h-71.47z" fill="none" stroke="#000" stroke-miterlimit="10"/><path d="M439.07 280.51h13.47v16.68h-13.47z" fill="#fff"/><path d="M439.07 280.51h13.47v16.68h-13.47z" fill="none" stroke="#000" stroke-miterlimit="10"/><path d="M331.53 243.08h42.22a.5.5 0 000-1h-42.22a.5.5 0 000 1z"/><path d="M375 241.79c-2.73-3.44-5.75-7.25-5.95-11.84-.16-3.71 1.75-7.7 5.82-8.1a5 5 0 014.79 2l.86-.5c-4.48-6.13-.42-15.18 6-18a18.54 18.54 0 0113.26-.21 29 29 0 0111.55 7.61 85.61 85.61 0 019.77 13 .51.51 0 00.92-.39 5.27 5.27 0 012-4.88 6.48 6.48 0 015.37-1.48c4.17.74 7 4.47 8.33 8.24a43.66 43.66 0 011.74 7.5c.11.6.93.38 1-.13.24-2.23 2.83-3.15 4.78-3 2.7.18 4.88 2.41 6.82 4.07a24 24 0 0014.48 5.87 23.09 23.09 0 008.8-1.25c.6-.21.34-1.18-.27-1a22.73 22.73 0 01-16.62-.7 21.63 21.63 0 01-3.58-2 41.45 41.45 0 01-3.5-2.85c-1.93-1.63-4.18-3.29-6.84-3.17-2.37.11-4.8 1.49-5.07 4l1-.14c-.84-4.82-1.81-10.05-5.49-13.59a10.4 10.4 0 00-5.65-2.9 7.44 7.44 0 00-5.77 1.62 6.33 6.33 0 00-2.44 6l.91-.38c-5.4-8.25-11.34-17.13-21-20.76a20.12 20.12 0 00-14-.45 14.51 14.51 0 00-8.18 7.82c-1.7 3.86-1.79 8.5.78 12 .37.51 1.21.05.86-.5-2.09-3.29-7.06-3.25-9.78-.78-3.45 3.12-3.16 8.49-1.43 12.39a35.35 35.35 0 005 7.5c.4.5 1.1-.21.7-.71zM538.19 316.83h37.45a.5.5 0 000-1h-37.45a.5.5 0 000 1z"/><path d="M575.12 316.16a7.46 7.46 0 01-.24-8.75 5.43 5.43 0 018-.73.5.5 0 00.83-.22c.41-2.2.82-4.93 2.6-6.5 1.33-1.18 3.64-1.22 4.48.54.25.51 1.08.15.92-.39-2-6.71-3.06-16.57 4.11-20.7a6.91 6.91 0 014.25-1 8 8 0 014.54 2.66 50.68 50.68 0 017 9.26 61 61 0 015.65 12.12c.17.5 1 .46 1-.14-.22-3.15 2.57-5.42 5.56-5.51 3.68-.1 6 3.34 7.31 6.38a36.27 36.27 0 011.9 6.54c.12.58.94.41 1-.13a5.11 5.11 0 013.56-4.44 4.13 4.13 0 015.12 2c.68 1.18 1.08 2.5 1.7 3.71a7.29 7.29 0 002.63 3c2.38 1.51 5.45 1.7 8.18 2a89.68 89.68 0 0011.93.45c.64 0 .64-1 0-1a89.29 89.29 0 01-11.21-.37 48.39 48.39 0 01-5.08-.68 8.93 8.93 0 01-3.89-1.65c-2.31-1.88-2.35-5.21-4.39-7.28a5.17 5.17 0 00-5.51-1 6.15 6.15 0 00-4 5.32l1-.13c-.88-4.14-2.08-8.85-5.36-11.78a6.84 6.84 0 00-4.67-1.88 7.41 7.41 0 00-4.52 1.6 5.77 5.77 0 00-2.18 4.91l1-.13a59 59 0 00-12.62-21.51 9.85 9.85 0 00-4.78-3.14 7.46 7.46 0 00-4.47.47 11.94 11.94 0 00-6.52 7.92c-1.31 4.73-.49 9.81.9 14.43l.92-.39c-1-2.08-3.68-2.34-5.49-1.17-2.37 1.53-3 4.81-3.42 7.37l.83-.22a6.43 6.43 0 00-7.6-.88 7.62 7.62 0 00-3.36 7.38 8 8 0 001.77 4.4c.42.5 1.12-.22.71-.71zM219.61 339.59h18.91a.5.5 0 000-1h-18.91a.5.5 0 000 1z"/><path d="M238.07 338.24a5.63 5.63 0 118.25-7.28c.27.47 1.11.16.91-.39a8 8 0 012.62-8.81 7.29 7.29 0 019.36.48 7.56 7.56 0 012.66 5 .5.5 0 001 .14c.93-3 2.39-6.72 6.14-6.6s6.22 3.33 7.87 6.3c.93 1.65 1.74 3.37 2.78 5 .9 1.38 2.15 2.89 3.87 3.21a3.58 3.58 0 002.29-.4 5.16 5.16 0 011.4-.57 4.45 4.45 0 011.74.12c2.08.5 4.11 1.2 6.2 1.66a63.19 63.19 0 0014.25 1.44.5.5 0 000-1 61.69 61.69 0 01-13.28-1.25c-2.18-.46-4.3-1.09-6.45-1.69a5.65 5.65 0 00-3-.19c-.91.26-1.68 1-2.65.94-2-.09-3.3-2.35-4.18-3.85-1-1.7-1.82-3.49-2.86-5.16-1.77-2.84-4.6-5.51-8.17-5.52-4.15 0-5.87 4-6.93 7.33l1 .13a9 9 0 00-7.44-7.88 8.35 8.35 0 00-8.94 5.29 8.49 8.49 0 00-.23 6.19l.92-.39a7 7 0 00-7.78-3 6.37 6.37 0 00-4.4 7.06 6.5 6.5 0 002.36 4.4c.51.4 1.22-.31.71-.7z"/><path d="M287.09 397.34H645a30.85 30.85 0 0126.34 14.78l80.9 132.59 111.49 34.95a39.73 39.73 0 0127.79 39.79l-5.06 105.9H130.61v-67.9a254.78 254.78 0 0158.27-162.17l69.77-84.54a36.86 36.86 0 0128.44-13.4z" fill="#e9e9e9"/><path d="M866.56 634.63v17.47a17.11 17.11 0 0017.11 17.11h5.45l2.38-49.76v-1.93h-7.87a17.11 17.11 0 00-17.07 17.11z" fill="#ccc"/><path d="M866.56 634.63v17.47a17.11 17.11 0 0017.11 17.11" fill="none" stroke="#000" stroke-miterlimit="10"/><path d="M147.65 667v-24.72a10 10 0 00-10-10h-5.79q-1.25 12.5-1.26 25.16V677h7a10 10 0 0010.05-10z" fill="#ccc"/><path d="M752.22 544.71l-74.84-122.66H467.1v94.05a28.6 28.6 0 0028.6 28.61z" fill="#f4f4f4"/><path d="M741.47 544.71l-11.67-19.12a51 51 0 00-25-20.94l-9.8-3.83a3.48 3.48 0 00-4.54 2 4.14 4.14 0 001.6 5.31c3.15 2.11 1.24 6.94-.26 9.74a1.48 1.48 0 01-2.55.1l-17.82-27.74a1.48 1.48 0 00-2.72.67 1.49 1.49 0 00.22.92l18.9 30.36a1.48 1.48 0 01-.06 1.66 109.37 109.37 0 00-12 20.91z" fill="#ccc"/><path d="M672.05 496.83l15.76 25.31a1.48 1.48 0 01-.06 1.66 109.37 109.37 0 00-12 20.91h65.67l-11.62-19.12a51 51 0 00-25-20.94l-9.8-3.83a3.48 3.48 0 00-4.54 2 4.14 4.14 0 001.6 5.31c3.15 2.11 1.24 6.94-.26 9.74a1.48 1.48 0 01-2.55.1l-17.82-27.74" fill="none" stroke="#000" stroke-miterlimit="10"/><path d="M524.72 511.64c.51-10-.2-17.06-1.19-21.89a11.4 11.4 0 00-11.18-9h-13.58a11.36 11.36 0 00-10.09 6.06c-6.59 12.73-11.32 34.54-13.95 48.78a28.55 28.55 0 0021 9.16h31.72a128.12 128.12 0 01-2.73-33.11z" fill="#ccc"/><path d="M440.62 516.1v-94.05h-191.3l-60.44 73.23a255.31 255.31 0 00-32 49.43H412a28.6 28.6 0 0028.62-28.61z" fill="#f4f4f4"/><path d="M286.92 480.71h-13.57a11.34 11.34 0 00-10.09 6.06c-8.28 16-13.62 46.29-15.54 57.94h48a291.82 291.82 0 003.63-33.07c.51-10-.2-17.06-1.19-21.89a11.4 11.4 0 00-11.24-9.04z" fill="#ccc"/><g fill="none" stroke="#000" stroke-miterlimit="10"><path d="M524.72 511.64c.51-10-.2-17.06-1.19-21.89a11.4 11.4 0 00-11.18-9h-13.58a11.36 11.36 0 00-10.09 6.06c-6.59 12.73-11.32 34.54-13.95 48.78a28.55 28.55 0 0021 9.16h31.72a128.12 128.12 0 01-2.73-33.11zM286.92 480.71h-13.57a11.34 11.34 0 00-10.09 6.06c-8.28 16-13.62 46.29-15.54 57.94h48a291.82 291.82 0 003.63-33.07c.51-10-.2-17.06-1.19-21.89a11.4 11.4 0 00-11.24-9.04z"/><path d="M752.22 544.71l-74.84-122.66H467.1v94.05a28.6 28.6 0 0028.6 28.61zM440.62 516.1v-94.05h-191.3l-60.44 73.23a255.31 255.31 0 00-32 49.43H412a28.6 28.6 0 0028.62-28.61z"/></g><path d="M130.61 717.41h756.23v17.52a9 9 0 01-9 9h-734a13.19 13.19 0 01-13.19-13.19v-13.33z" fill="#f4f4f4"/><path d="M863.71 579.66l-111.49-34.95-80.9-132.59A30.85 30.85 0 00645 397.34H287.09a36.86 36.86 0 00-28.44 13.4l-69.77 84.54a254.78 254.78 0 00-58.27 162.17v73.29a13.19 13.19 0 0013.19 13.19h734a9 9 0 009-9v-17.52l4.68-98a39.73 39.73 0 00-27.77-39.75z" fill="none" stroke="#000" stroke-miterlimit="10"/><path d="M331.71 724.55h-32a55.94 55.94 0 00-111.87 0h-32a87.94 87.94 0 01175.87 0z" fill="#f4f4f4"/><circle cx="243.78" cy="724.55" r="71.93" stroke="#000" stroke-miterlimit="10"/><circle cx="243.78" cy="724.55" fill="#ccc" r="35.97"/><circle cx="243.78" cy="724.55" fill="#e9e9e9" r="25.17"/><path d="M862.46 724.55h-32a55.94 55.94 0 00-111.87 0h-32a87.94 87.94 0 01175.87 0z" fill="#f4f4f4"/><circle cx="774.53" cy="724.55" r="71.93" stroke="#000" stroke-miterlimit="10"/><circle cx="774.53" cy="724.55" fill="#ccc" r="35.97"/><circle cx="774.53" cy="724.55" fill="#e9e9e9" r="25.17"/><rect fill="#fff" height="7.82" rx="2.86" width="24.37" x="298.77" y="573.86"/><path d="M320.28 581.68h-18.65" fill="none" stroke="#000" stroke-miterlimit="10"/><rect fill="#fff" height="7.82" rx="2.86" width="24.37" x="493.6" y="573.86"/><path d="M515.11 581.68h-18.66" fill="none" stroke="#000" stroke-miterlimit="10"/><path d="M566.26 445.87a1.14 1.14 0 00-.38.23 1 1 0 00-.2.25 1.2 1.2 0 00-.14.69 1 1 0 00.4.81.6.6 0 00.62 0 .62.62 0 00.29-.54 2.63 2.63 0 00-.06-.39l-.07-.33a.5.5 0 00-.92-.12.59.59 0 000 .39 5.17 5.17 0 01.11.54v-.31l.08-.1.1-.08.12-.05h.26l.11.05.1.08.08.1a.35.35 0 01-.05-.08l.05.12a1.25 1.25 0 01-.07-.26v.13a.67.67 0 010-.2v.13a1.21 1.21 0 01.05-.18l-.05.12a1 1 0 01.08-.14l-.08.1a.43.43 0 01.1-.09l-.1.07.11-.06h-.12a.46.46 0 00.17-.09.43.43 0 00.13-.14.53.53 0 000-.39.5.5 0 00-.23-.3.46.46 0 00-.38-.05zM551.93 451.89a6.61 6.61 0 01-3.4-1.53 5.48 5.48 0 01-2-3.54 2.19 2.19 0 012.16-2.49 3.34 3.34 0 012.88 2.06c.28.57 1.15.07.86-.51a4.58 4.58 0 00-2.72-2.42 3.36 3.36 0 00-3.31.81c-2 2.13-.25 5.43 1.65 7a7.71 7.71 0 003.91 1.67c.27 0 .49-.25.5-.5a.52.52 0 00-.5-.5z"/><path d="M548.26 446.79a.7.7 0 01.91-.16 2.57 2.57 0 01.83.81 6.64 6.64 0 011.08 2.14.13.13 0 00.25-.06A7.31 7.31 0 00550 447a1.87 1.87 0 00-1-.73.91.91 0 00-.93.36c-.09.14.12.26.21.13z"/><path d="M549.59 448a.25.25 0 01.11-.18.31.31 0 01.23-.06.76.76 0 01.49.32.14.14 0 00.18 0 .13.13 0 000-.18 1 1 0 00-.7-.39.54.54 0 00-.55.42.12.12 0 00.08.15.13.13 0 00.16-.08zM564.85 443.56a3.87 3.87 0 01.41-.4l.07-.05.12-.09.26-.15.24-.12h.06l.14-.05a3 3 0 01.57-.14.5.5 0 00.3-.23.51.51 0 000-.38.47.47 0 00-.23-.3.51.51 0 00-.38 0 3.79 3.79 0 00-2.27 1.25.51.51 0 000 .71.5.5 0 00.7 0z"/><path d="M566.81 431.79c1.73 5 3.5 9.57 4.27 14.91a15.68 15.68 0 001.73 4.9.94.94 0 01-.3 1.37h-.08a1.65 1.65 0 00-.84 1.4c-.12 4.25 1.13 8.37-2.17 11-3.72 3-9.54.88-13.46-1.62" fill="none" stroke="#000" stroke-miterlimit="10"/><path d="M542.2 465.26c1-2.5 1.33-5.29 2-7.9a6.68 6.68 0 011.55-3.36 14.39 14.39 0 001.09-1 3.68 3.68 0 00.75-1.74c.12-.62-.84-.89-1-.26a2.68 2.68 0 01-.79 1.6 13.82 13.82 0 00-1.14 1 8.59 8.59 0 00-1.46 3.46c-.67 2.61-1 5.4-2 7.89-.25.59.72.85 1 .27zM432.88 427.52a.13.13 0 000-.25.13.13 0 000 .25z"/><path d="M432.88 427.52a.13.13 0 000-.25.13.13 0 000 .25zM335.34 445.87a1.14 1.14 0 00-.38.23 1.22 1.22 0 00-.2.25 1.28 1.28 0 00-.14.69 1.06 1.06 0 00.4.81.62.62 0 00.63 0 .64.64 0 00.28-.54 1.76 1.76 0 00-.06-.39l-.07-.33a.5.5 0 00-.23-.3.5.5 0 00-.68.18.53.53 0 00-.05.39c0 .18.08.36.11.54v-.14.09-.14l.05-.12.08-.1.1-.08.12-.05h.27l.12.05.1.08.08.1a.35.35 0 01-.05-.08l.05.12a1.22 1.22 0 01-.06-.26v.13a1.34 1.34 0 010-.2v.2a.58.58 0 010-.18v.12l.08-.14-.07.1a.43.43 0 01.1-.09l-.11.07.11-.06h-.12a.56.56 0 00.17-.09.86.86 0 00.13-.14.59.59 0 000-.39.53.53 0 00-.23-.3.49.49 0 00-.39-.05zM321 451.89a6.64 6.64 0 01-3.4-1.53 5.52 5.52 0 01-2-3.54 2.19 2.19 0 012.16-2.49 3.33 3.33 0 012.88 2.06c.29.57 1.15.07.86-.51a4.56 4.56 0 00-2.71-2.42 3.37 3.37 0 00-3.32.81c-2 2.13-.25 5.43 1.65 7a7.78 7.78 0 003.91 1.67c.27 0 .5-.25.5-.5a.51.51 0 00-.5-.5z"/><path d="M317.34 446.79a.71.71 0 01.91-.16 2.47 2.47 0 01.83.81 6.67 6.67 0 011.09 2.14c0 .16.29.09.24-.06a7 7 0 00-1.33-2.49 1.85 1.85 0 00-1-.73.91.91 0 00-.94.36c-.09.14.13.26.21.13z"/><path d="M318.67 448a.25.25 0 01.11-.18.32.32 0 01.23-.06.78.78 0 01.5.32.13.13 0 00.18-.18 1 1 0 00-.71-.39.55.55 0 00-.55.42.13.13 0 00.09.15.12.12 0 00.15-.08zM333.94 443.56a3.11 3.11 0 01.41-.4l.06-.05s-.08.06 0 0l.12-.09.25-.15.25-.12h.07l.13-.05a2.89 2.89 0 01.58-.14.48.48 0 00.29-.23.46.46 0 00.05-.38.46.46 0 00-.22-.3.53.53 0 00-.39 0 3.79 3.79 0 00-2.27 1.25.5.5 0 00.71.71z"/><path d="M335.9 431.79c1.73 5 3.49 9.57 4.27 14.91a16 16 0 001.73 4.9.94.94 0 01-.3 1.37h-.07a1.64 1.64 0 00-.85 1.4c-.11 4.25 1.14 8.37-2.17 11-3.72 3-10.07 1.66-14-.85" fill="none" stroke="#000" stroke-miterlimit="10"/><path d="M336.8 453.86q-.32-.09-.63-.21h-.07l-.15-.07-.32-.16a5.7 5.7 0 01-.57-.34l-.27-.19-.15-.11a.49.49 0 00-.7.7 7.1 7.1 0 002.65 1.42.5.5 0 00.62-.34.52.52 0 00-.35-.62zM326.64 465.83a7.24 7.24 0 00-.31 1.3c-.12.66-.21 1.31-.31 2-.16 1.1-.28 2.21-.47 3.31-.12.63.85.9 1 .27.2-1.1.31-2.21.47-3.31.1-.66.2-1.32.32-2a7.24 7.24 0 01.31-1.3.51.51 0 00-.35-.62.52.52 0 00-.62.35zM310.6 470.85a47.72 47.72 0 001.95-6.57 49.21 49.21 0 012.12-6.91 28.43 28.43 0 002-6.09c.11-.63-.85-.9-1-.26a33.25 33.25 0 01-2.3 6.78 33.89 33.89 0 00-1.18 3.79c-.45 1.64-.87 3.29-1.31 4.94a32.39 32.39 0 01-1.18 3.82c-.25.58.61 1.09.86.5z"/><path d="M325.1 465.12s.53 2.8 1 3 .83-1.36.83-1.36l-.67-1.27M320.29 445s.25 2.81 1.87 2.83 9.45-8 10-12.76c0 0 5.22 7.33 13.2 4.15v-4.72s-2.69.49-3.3 0c0 0 3-.82 3.7-2.12l-7.57-10.34s-3.5 4.56-8.39 4-7.82 1.06-8.06 2.85a15.71 15.71 0 00-9.8 2.17c-4.46 2.93-10.43 15.64-6.3 22s5.44 9.59 6.63 10.24 6.81-12 5.77-12-5-4.44-2.29-6.65a3 3 0 014.54.35zM572.44 453s6.28 12.2-.39 15.86-20.12 2-17.35-13c0 0-1.66-8.56-3.88-10.51s-4.44-1-4.83 1.4 2.76 4.79 2.76 4.79-2.29 5.22-3.91 6.33A2.31 2.31 0 01541 456c-.11-2.28-5.08-6.68-5.48-12 0 0-3.75 2.42-3.59-1.89s4.73-4.56 4.73-4.56-4.48 2-3.83-1.38 8.47-3.1 8.47-3.1-.65-.57-.57-3.91 3.24-5.48 5.22-6.68c4.3-2.6 3 5.13 3 5.13s-.48-5 8.89-7.14 13.82 1.28 15.12 4.13-8.23 1.47-7.84 1.3 9.42-4.8 10.56-.4-4.9 9.44-12.31 11c0 0 2.11.82 0 2.93a10 10 0 01-2.48 1.68 7.82 7.82 0 00-3.93 9.34c.66 2 1.51 3.64 2.51 3.29 2.53-.94 4.35-5.63 12.97-.74z"/><path d="M570.91 430.68c.24 0 4.15.16 3.82 3.91s-5.19 5.3-5.19 5.3-1.18-6.41-2-7.26M560.2 471a51.74 51.74 0 002.29-5.17.5.5 0 00-1-.26 49.12 49.12 0 01-2.19 4.92c-.3.57.56 1.08.86.51z"/><path d="M526.65 544.72c-1-10.53-1.9-21.14-1.17-31.72a80.16 80.16 0 012.52-15.62c1.2-4.41 3.41-8.39 5.35-12.5 1.81-3.86 3.63-8.1 3.38-12.46-.14-2.35-1.08-5 .64-7l.11-.11c-.06 0 0 0 0 0h.16a7.52 7.52 0 01.75.08 57.47 57.47 0 016.2 1.45c2.75.75 5.49 1.57 8.2 2.44 2.28.72 4.57 1.47 6.8 2.35a13.72 13.72 0 011.79.82l.11.07c.09.05 0 0 0 0l.07.06a1.12 1.12 0 00-.11-.26 1.82 1.82 0 000 .57v2.38a.5.5 0 001 0 24.86 24.86 0 000-3c-.07-.53-.68-.78-1.11-1a52.93 52.93 0 00-5.86-2.2 138.13 138.13 0 00-15.69-4.47 12.58 12.58 0 00-2.13-.32c-1.11 0-1.73 1.15-2.06 2.09-.8 2.37.2 4.9.1 7.31a21.08 21.08 0 01-1.47 6.45c-1.64 4.41-4.07 8.48-5.86 12.82a58.14 58.14 0 00-3.37 15.14c-1.33 10.85-.62 21.82.34 32.66.11 1.33.24 2.65.36 4 .06.64 1.06.64 1 0z"/><path d="M547.11 474.49s18.09-5.54 36.66 16.13 24.44 21.43 24.44 21.43 30.61-24.58 33.22-24.71 11.56 7.79 9.85 15.42c0 0-19.94 25.85-35.25 33.9s-54-23.07-54-23.07" fill="none" stroke="#000" stroke-miterlimit="10"/><path d="M584.71 529s-1 8.89 0 11.66 1.35 4.08 1.35 4.08" fill="none" stroke="#000" stroke-miterlimit="10"/><path d="M660.85 484l-1.54 1.28a.52.52 0 00-.14.35.48.48 0 00.5.5.57.57 0 00.33-.13l1.54-1.28a.49.49 0 00.15-.36.53.53 0 00-.15-.35.51.51 0 00-.35-.15.61.61 0 00-.36.15z"/><path d="M567.72 453.86a5.81 5.81 0 01-.63-.21h-.08l-.15-.07-.32-.16a4.08 4.08 0 01-.57-.34l-.27-.19-.14-.11a.5.5 0 10-.71.7 7.14 7.14 0 002.66 1.42.5.5 0 00.62-.34.52.52 0 00-.35-.62z" fill="#fff"/><path d="M308.71 440.05s1.88-17.69-14.7-18.48-26.01-4.94-26.01-4.94-2.56 12.48-1 16.31a60.77 60.77 0 009.27.85l-8.88 2s2 9.25 7.9 15.38c0 0 12.43-12.22 21.31-11.63s12.2 4.54 12.2 4.54"/><g fill="none" stroke="#000" stroke-miterlimit="10"><path d="M308.78 473.74s-8.75 21.07-10 42.35-3 28.62-3 28.62M307.72 470.6c.44-.34 18.35.21 21.29 4.11l-1 5.11s16 4.34 19.44 24.54 12.38 40.35 12.38 40.35M310.17 507.61c-.28 1.31 5.3 2.62 4.9 11.09s0 26 0 26"/></g><rect height="54.57" rx="3.58" transform="rotate(12.88 661.16 488.424)" width="7.17" x="657.62" y="461.19"/><path d="M659.17 480s-3.08 3.75.24 3.43 8-1.88 8-1.13 2.64 16.84-4 16.45-9.62.78-9.62.78" fill="#f4f4f4"/><path d="M644.66 489.25a13.21 13.21 0 004-3.33c1.23-1.37 2.4-2.79 3.71-4.09 2.53-2.5 6-4.71 9.72-3.76a.5.5 0 00.27-1c-3.66-.93-7.25.87-9.91 3.28a52 52 0 00-4 4.27 14 14 0 01-4.31 3.73c-.58.28-.07 1.14.51.87zM658.12 484.09l6.25-.85a16.75 16.75 0 005.42-1.31c.57-.29.07-1.15-.51-.86a17.14 17.14 0 01-5.4 1.24l-6 .82c-.63.09-.36 1.05.27 1zM666.36 496.39c-2.44 1.26-5.27 1.47-7.94 1.84-2.35.33-5.18.33-7 2-.48.42.22 1.13.7.7a6.36 6.36 0 013.31-1.27c1.33-.21 2.67-.38 4-.56a22.88 22.88 0 007.48-1.84c.57-.3.06-1.16-.51-.87zM665.93 493.31l1.62-.41a.5.5 0 00.35-.62.51.51 0 00-.61-.35l-1.63.41a.51.51 0 00-.35.62.52.52 0 00.62.35zM666.36 488.35a4.27 4.27 0 00.94-.21 4.61 4.61 0 00.87-.41.5.5 0 00-.51-.87 3.6 3.6 0 01-.55.29h.12a4.11 4.11 0 01-1 .27h.13a.56.56 0 00-.35.15.5.5 0 000 .71.46.46 0 00.35.14z"/><path d="M510 452.39h4.2a2.71 2.71 0 012.71 2.71v16a2.71 2.71 0 01-2.71 2.71h-11.8a6.91 6.91 0 01-6.91-6.91A14.55 14.55 0 01510 452.39z" fill="#ccc"/><path d="M510 452.39h4.2a2.71 2.71 0 012.71 2.71v16a2.71 2.71 0 01-2.71 2.71h-11.8a6.91 6.91 0 01-6.91-6.91A14.55 14.55 0 01510 452.39zM507.05 479.66v-5.54" fill="none" stroke="#000" stroke-miterlimit="10"/><path d="M284.59 452.39h4.2a2.71 2.71 0 012.71 2.71v16a2.71 2.71 0 01-2.71 2.71H277a6.91 6.91 0 01-6.91-6.91 14.55 14.55 0 0114.5-14.51z" fill="#ccc"/><path d="M284.59 452.39h4.2a2.71 2.71 0 012.71 2.71v16a2.71 2.71 0 01-2.71 2.71H277a6.91 6.91 0 01-6.91-6.91 14.55 14.55 0 0114.5-14.51zM281.6 479.66v-5.54" fill="none" stroke="#000" stroke-miterlimit="10"/><path d="M586.06 529.73c0-.35-8.9-5.34-8.9-5.34s-12.28 20.32-13.58 20.32h16.18s6.59-12.65 6.3-14.98zM298.11 489.75s3.5.41 5.13 1.55c.64.45-.4.7-.4.7l-3 14.54-.7-11.54zM313.35 511.38s-.55 16.79-1.69 20.7-11.57 12.63-11.57 12.63h12.54s3.34 1.46 2.86-1.14 1.09-30.66-2.14-32.19zM348.4 509.22s-3.19 8.93-6.32 11.7c0 0 .45 23.62.77 23s9.94-21.66 10.1-24.43-1.11-12.84-4.55-10.27z"/><path d="M564.33 515.39s8.38 11.78 10.49 18.62 9.89 6.62 9.89 6.62l-.45-7.82s-2.52-5.82-4.81-7.12-15.12-10.3-15.12-10.3zM379.3 391.33h9.12v9.12h-9.12z"/><path d="M383.86 395.89v-22.53h-19.05" fill="none" stroke="#000" stroke-miterlimit="10"/><path d="M531.38 400.45h-9.12v-9.12h9.12z"/><path d="M526.82 395.89v-22.53h19.04" fill="none" stroke="#000" stroke-miterlimit="10"/><path d="M607.71 512.4a4.75 4.75 0 001.69.52 7.31 7.31 0 00.81 0h.39c.06 0 .07 0 0 0h.11l.21.07a.5.5 0 00.61-.35.51.51 0 00-.35-.62 5.35 5.35 0 00-1.65-.15h-.3l-.38-.09a3.35 3.35 0 01-.67-.27.5.5 0 10-.5.86zM341.66 515.22l.22 12.45a83.54 83.54 0 00.74 12c.11.63 1.07.36 1-.27a83.24 83.24 0 01-.71-12l-.22-12.2a.5.5 0 00-1 0zM306.5 483.74a4.28 4.28 0 012.88 2.82 6.25 6.25 0 01.12 4.54 6.55 6.55 0 01-2.66 2.61 5.05 5.05 0 01-4.16 1c-.16-.05-.22.19-.07.24a5.19 5.19 0 004.28-.92 5.52 5.52 0 002.59-7.85 4.47 4.47 0 00-2.92-2.64.13.13 0 00-.06.25zM309.74 475.24a7.29 7.29 0 005.58-.24 4.48 4.48 0 002.44-3.79c0-.16-.24-.16-.25 0a4.26 4.26 0 01-2.42 3.63 7.16 7.16 0 01-5.29.16c-.15-.05-.22.19-.06.24zM324 487c-2.54.08-4.56 2.68-4.66 5.1-.1 2.59 2.14 4.85 4.2 6.09a6.51 6.51 0 007 .19 5 5 0 001.63-6.29 11.63 11.63 0 00-2.84-3.9 4 4 0 00-3.84-1.22c-.15 0-.09.29.07.24 2.57-.73 4.8 2.12 5.93 4.07 1.21 2.1 1.4 4.87-.62 6.55a5.93 5.93 0 01-6.28.61 8.85 8.85 0 01-4.8-5c-.76-2.65 1.39-6.09 4.25-6.18a.13.13 0 000-.25zM344.59 496.72a11.85 11.85 0 00-3.45 3.46 6 6 0 00-.42 4.57 7.84 7.84 0 002.28 3.65 7.6 7.6 0 001.79 1.23c.86.42 1.82.58 2.65 1.06.13.08.26-.14.12-.22a14.06 14.06 0 00-2.1-.82 7.25 7.25 0 01-1.94-1.13 7.69 7.69 0 01-2.44-3.5 5.88 5.88 0 01.29-4.72 11.82 11.82 0 013.36-3.36c.13-.1 0-.32-.12-.22zM315.55 515.32c1.88-.85 4.16.39 5.54 1.66a5.28 5.28 0 011.76 4.9c-.6 3.25-4.74 7.71-8.29 5.66a.12.12 0 10-.12.21c3 1.74 6.38-1.07 7.82-3.59a6.18 6.18 0 00.79-4.46 6.28 6.28 0 00-2.55-3.52c-1.42-1-3.36-1.86-5.08-1.08-.14.07 0 .29.13.22z"/><path d="M336.65 520a6 6 0 00-5.8 3.93 7.14 7.14 0 00-.65 3.69 4.37 4.37 0 002 2.89c2 1.53 4.74 2.94 7.25 1.73 2.11-1 2.87-3.6 2.89-5.78a8.2 8.2 0 00-3.11-6.82c-.13-.09-.26.13-.13.22a7.57 7.57 0 012.94 5.58c.19 2-.17 4.42-1.71 5.88-1.94 1.84-4.79 1.1-6.81-.19a7.16 7.16 0 01-2.7-2.45 5.09 5.09 0 010-3.8c.81-2.59 3-4.88 5.88-4.63.16 0 .16-.23 0-.25zM314.89 540.4a5.38 5.38 0 013.08-.83 11.42 11.42 0 013.25.21 4.78 4.78 0 012.59 2.05c.67.94 1.27 1.93 1.9 2.9.09.13.3 0 .21-.13-.7-1.09-1.36-2.23-2.15-3.26a4.77 4.77 0 00-2.48-1.8 11.4 11.4 0 00-3.4-.21 5.41 5.41 0 00-3.12.86c-.13.09 0 .31.12.21zM337.58 544.28a7.92 7.92 0 013.06-2.88c.14-.07 0-.29-.13-.21a8.12 8.12 0 00-3.14 3 .12.12 0 00.21.13zM353.43 531.7c-1.64 2.17-2.87 4.89-2.17 7.66a4.81 4.81 0 005.16 3.77c.16 0 .09-.26-.06-.24-2.56.36-4.58-1.76-5-4.14-.41-2.54.76-5 2.25-6.92.1-.13-.12-.26-.21-.13zM299.8 515.07a8 8 0 016.25 8.38 8.19 8.19 0 01-2.52 5.12c-1.64 1.54-3.87 2.09-6 2.59-.16 0-.09.28.07.25a14.91 14.91 0 005.23-2 8.22 8.22 0 002.85-3.56 8 8 0 00-1.37-8.42 8.27 8.27 0 00-4.44-2.64c-.16 0-.23.21-.07.24zM298.51 544.25c.58-2.4 1.84-4.92 4.33-5.79s5 .49 6.86 2.1c.12.1.3-.07.17-.18-1.89-1.67-4.54-3-7.1-2.16s-3.9 3.47-4.51 6c0 .16.21.23.25.07zM633.81 511.28a2 2 0 00-.48 1.1.85.85 0 00.54.78c.36.13.65-.13.8-.45a2.06 2.06 0 00.25-1.24.84.84 0 00-.79-.71.13.13 0 000 .25.58.58 0 01.54.47 1.52 1.52 0 01-.15 1c-.09.22-.24.57-.53.49a.58.58 0 01-.41-.55 1.77 1.77 0 01.45-1c.09-.13-.12-.25-.22-.12zM639.46 505.83a2 2 0 00-.48 1.1.83.83 0 00.54.77c.36.14.65-.12.8-.44a2.15 2.15 0 00.26-1.24.88.88 0 00-.8-.72c-.16 0-.16.26 0 .25a.6.6 0 01.54.48 1.53 1.53 0 01-.15 1c-.09.22-.24.57-.53.49a.58.58 0 01-.41-.55 1.77 1.77 0 01.45-1c.09-.13-.12-.25-.22-.12zM645.11 500.38a2 2 0 00-.48 1.1.83.83 0 00.54.77c.36.14.65-.13.8-.44a2.07 2.07 0 00.26-1.24.87.87 0 00-.8-.72.13.13 0 000 .25.6.6 0 01.54.48 1.53 1.53 0 01-.15 1c-.09.22-.24.56-.53.49a.58.58 0 01-.41-.55 1.77 1.77 0 01.45-1c.09-.13-.12-.25-.22-.12z"/><g fill="none" stroke="#000" stroke-miterlimit="10"><path d="M385.12 378.39h141.7M385.12 387.76h141.7M454.76 570.63v173.3"/></g><rect fill="#ff6679" height="45.12" rx="22.56" width="45.12" x="137.13" y="519.79"/><path d="M433.13 755.9V736a4 4 0 00-2-3.51l-17.28-10a4 4 0 00-4.05 0l-17.27 10a4 4 0 00-2 3.51v19.9a4 4 0 002 3.51l17.27 10a4.07 4.07 0 004.05 0l17.28-10a4 4 0 002-3.51z" fill="#ffa766"/><rect fill="#8f8fef" height="37.32" rx="3.2" transform="rotate(38.64 180.446 419.774)" width="37.32" x="161.79" y="401.11"/><path d="M340.07 611L368 640a2.3 2.3 0 003.86-.91L383.4 602a2.3 2.3 0 00-2.66-2.94l-39.48 8.11a2.3 2.3 0 00-1.19 3.83z" fill="#60d8d2"/><path d="M108.06 469.53h86.88a.13.13 0 000-.25h-86.88a.13.13 0 000 .25zM149.76 493.86h14.34a.13.13 0 000-.25h-14.34a.13.13 0 000 .25zM229.91 377.23h89.27a.13.13 0 000-.25h-89.27a.13.13 0 000 .25zM583.07 369.41h34.2a.13.13 0 100-.25h-34.2a.13.13 0 000 .25zM427.66 642.09h204.28a.13.13 0 000-.25H427.66a.13.13 0 000 .25zM397.37 681.19h127a.13.13 0 100-.25h-127a.13.13 0 100 .25zM115.88 605.93h79.17a.13.13 0 000-.25h-79.17a.13.13 0 000 .25z"/><rect fill="#ccc" height="120.89" rx="36.29" width="177.11" x="693.12" y="271.99"/><rect fill="none" height="120.89" rx="36.29" stroke="#000" stroke-miterlimit="10" width="177.11" x="693.12" y="271.99"/><path d="M728.17 383.08l-11.01 23.6 29.28-16.43" fill="#ccc"/><path d="M724.11 391.8l-6.95 14.88 25.83-14.49" fill="none" stroke="#000" stroke-miterlimit="10"/><path d="M803.64 327.35h-16.3l3.69-31.73-31.32 41.9h16.31l-3.7 31.73z" fill="#ffa766"/><g fill="none" stroke="#000" stroke-miterlimit="10"><path d="M787.34 327.35l3.69-31.73-31.32 41.9M776.02 337.52l-3.7 31.73 31.32-41.9M592.86 500.58s4.76 3.35 9.32 2.71 29.76-19.68 29.76-19.68a2.23 2.23 0 013.25 0 20.41 20.41 0 013.1 5.21"/></g><path d="M653.18 473.38a39 39 0 00-9.74 4.23 37.89 37.89 0 00-7.68 5.7c-.46.45.25 1.16.71.7a37.59 37.59 0 017.47-5.54 38.08 38.08 0 019.51-4.13.5.5 0 00-.27-1zM643.55 482.82a5.66 5.66 0 013 .3c.5.17 1 .36 1.47.57.28.11.77.27.9.58l.91-.38-.05-.1a.5.5 0 00-.87.5l.06.1c.27.48 1.14.15.91-.38a2 2 0 00-1.09-1.07c-.57-.27-1.17-.5-1.76-.71a6.81 6.81 0 00-3.76-.37c-.63.14-.36 1.11.26 1zM649.19 479.43a2.8 2.8 0 01.4.27l-.1-.08a3.64 3.64 0 01.65.65l-.07-.1a4.48 4.48 0 01.42.7.48.48 0 00.29.23.53.53 0 00.39-.05.5.5 0 00.23-.3.55.55 0 000-.38 4 4 0 00-1.66-1.8.5.5 0 10-.5.86z"/></svg>