<svg viewBox="0 0 1000 1000" width="1000" height="1000" xmlns="http://www.w3.org/2000/svg"><rect fill="#ffd3b3" height="950" rx="475" width="950" x="25" y="25"/><path d="m453.8 230.4-1.6-36-.1-4V188l.3-1.3c.1-.3.5-.7 0 0l.3-.5.5-.7c.2-.5-.6.4-.1.1a7 7 0 0 0 1-1l-.2.2.8-.5 1.2-.6c-1 .5.5-.2.8-.3a21.7 21.7 0 0 1 3-.7l.7-.2s1-.2.4 0 .4 0 .5 0l.6-.2 3.4-.2 36-2 17.7-1 8.9-.5h2a9 9 0 0 1 1 0c-.3 0-.6-.3 0 0-.4-.2 0-.3.1 0-.4-.7-.3.1 0 0l-.3-.2a4.2 4.2 0 0 1 .3.4c.2.4-.2-.6 0 .2a172.2 172.2 0 0 1 2.6 18.4q1 10 1.2 20a4.3 4.3 0 0 0 8.6 0 272.6 272.6 0 0 0-3.7-38.3c-.5-3-1.6-6.2-4.4-7.9s-6.3-1.3-9.5-1l-19.2 1-38 2c-5 .2-10.3.2-15 2a16.5 16.5 0 0 0-6.5 4 13.9 13.9 0 0 0-3.5 8.3c-.4 3.4 0 7 .2 10.5l.5 10.3 1 21.7a4.3 4.3 0 0 0 8.5 0z" fill="#6c77c1"/><path d="M278 274.6a119.3 119.3 0 0 1 .2-16c0-1.4.2-2.6.3-4l.2-1.9s.2-.8 0-.3l.2-1.2a82.7 82.7 0 0 1 1-5l.2-.8.2-.4c0 .2-.4.5.1 0-.1.1-.7.4 0 0l.7-.4c-.2.1-.8.3 0 0a29.5 29.5 0 0 1 3-.7l8.3-1.8L308 239l31.8-6.3a87 87 0 0 1 15.2-2l3.9.1 2 .2h.8c-.6 0-.1 0 .2.1l.8.2.4.1.3.2c.5.2-.3-.4 0 0l.3.3c-.3-.4 0 .1 0 .2l.4.6c-.4-.7 0 .2.1.4a50.4 50.4 0 0 1 1.5 8l.2 1.7a76.4 76.4 0 0 1 .7 6.8 136 136 0 0 1 .1 18 4.3 4.3 0 0 0 4.3 4.3 4.4 4.4 0 0 0 4.3-4.3 135.6 135.6 0 0 0-2.3-34.7 14 14 0 0 0-3.4-7.2c-2.3-2.3-5.3-3-8.3-3.2a67.3 67.3 0 0 0-17.5.8c-11.4 1.8-22.7 4.3-34 6.6l-17.2 3.5-8.5 1.8c-2.6.6-5.4 1-7.8 2.3-3 1.7-4.5 4.6-5.2 7.9s-1 6.6-1.4 9.9a118 118 0 0 0-.4 19.4 4.3 4.3 0 0 0 4.3 4.3c2.2-.1 4.4-2 4.3-4.3zm147 146.6a1022.8 1022.8 0 0 1-10.7-161.8c.1-8.5.5-17.5 5-24.7 7.8-12 24.2-14.4 38.5-15.6l62.4-5.3c16.9-1.4 35.5-2.3 49 7.8 13.9 10.4 18 29 20.8 46.2a868.8 868.8 0 0 1 10.7 150.7 18.6 18.6 0 0 1-.7 5.6c-1.1 3.4-4 5.7-7 7.6-12.2 7.6-27.4 8.6-41.7 7.1s-28.2-5.3-42.5-6.6"/><path d="M429 420c-3.2-22-5.7-44.8-7.5-67.4q-2.6-34.3-3-68.8v-17c0-5.2 0-10.5.5-15.8l.1-1.7.1-.8v-.2l.7-3.7a34 34 0 0 1 1-3.5 17.1 17.1 0 0 1 1.4-2.8 29 29 0 0 1 1.6-2.6c.5-.6 0 0 0 0l.4-.5 1.2-1.3a25.8 25.8 0 0 1 2-2l.3-.1.3-.2 1.3-1 2.5-1.5 1.3-.6.8-.4a47.5 47.5 0 0 1 5.7-2c2-.5 4.1-1 6.2-1.3l3-.5.7-.1 1.8-.3c10.6-1.2 21.3-1.8 32-2.7l34.5-3c9.5-.7 19-1.6 28.6-.5l1.6.1c-1 0 .6.1.8.2l3.5.6a48 48 0 0 1 6.5 2l.7.3c.6.2-.6-.3 0 0l1.6.7a51.5 51.5 0 0 1 5.6 3.4l.7.5c-.7-.5-.2-.1 0 0l1.3 1.1a48.6 48.6 0 0 1 4.4 4.7c.4.5-.6-.8 0 .1l.5.6a31.7 31.7 0 0 1 2.6 4c1 1.8 2 3.7 2.9 5.7.2.6-.3-.7 0 0l.2.6.6 1.6 1.2 3.2c2.8 8.6 4.2 17.6 5.6 26.6 1.7 11.4 3.1 22 4.4 33.5q3.8 34.1 5 68.4.5 17.1.4 34.2l-.1 8.7v1.7c0 .2-.2 1.8 0 1l-.6 1.9c-.2.7.4-.5 0 0l-.4.8-.4.6c.4-.6 0 0-.2.2l-1.1 1.1-.8.7c-.3.2-.6.4 0 0l-1.5 1a42.6 42.6 0 0 1-6.4 3.4c.6-.2 0 0-.2 0l-.7.3a37 37 0 0 1-5.4 1.8l-3.5.8-1.6.3-.9.1h-.5a80.6 80.6 0 0 1-14.7.6 113.3 113.3 0 0 1-15-1.7l-16.7-3c-5.6-1-11.3-1.9-17-2.4a4.3 4.3 0 0 0-4.2 4.3 4.4 4.4 0 0 0 4.3 4.3c5.6.5 10.7 1.3 16.5 2.4l17 3a106 106 0 0 0 32.6.7 58.8 58.8 0 0 0 15-4.5c4.8-2 9.5-5 12.4-9.2 3.4-4.8 2.6-11.3 2.7-16.8v-17.7q-.4-35.1-3.6-70.2-1.7-17.5-4-35c-1.4-10.8-2.8-21.7-5-32.4-1.8-8.9-4.5-17.9-9.2-25.7a43.7 43.7 0 0 0-21.3-18.3c-9-3.7-19-4.3-28.6-4-10.8.3-21.6 1.5-32.4 2.4l-35.5 3c-9.5.8-19.2 1.3-28.4 4a36 36 0 0 0-21.5 14.7c-5.7 9.3-5.4 20.8-5.5 31.3q-.4 35.2 1.8 70.5 2 35 6.6 70 1.1 8.9 2.4 17.7c.3 2.2 3.2 3.6 5.3 3 2.4-.8 3.3-2.9 3-5.3z"/><path d="m463.7 284.5 3.8 68.1c.4 6.3.5 12.7 3.3 18.5a4.3 4.3 0 0 0 5.9 1.5 4.4 4.4 0 0 0 1.5-5.8 14 14 0 0 1-.4-1l-.6-1.7-.3-1.7-.2-.8c-.2-1.5 0 .7 0-.7l-.6-7.5-1-16.7-1.8-33.3-1-19a4.3 4.3 0 0 0-4.2-4.2c-2.2.1-4.4 1.9-4.3 4.3zm29 0 3.7 68.1c.4 6.3.5 12.7 3.3 18.5a4.3 4.3 0 0 0 5.8 1.5 4.4 4.4 0 0 0 1.6-5.8 28.4 28.4 0 0 1-.5-1l-.5-1.7-.4-1.7-.1-.8c-.2-1.5 0 .7 0-.7l-.6-7.5-1-16.7-1.8-33.3-1-19a4.3 4.3 0 0 0-4.3-4.2c-2.2.1-4.4 1.9-4.3 4.3zm28.8 0 3.8 68.1c.3 6.3.5 12.7 3.3 18.5a4.3 4.3 0 0 0 5.8 1.5 4.4 4.4 0 0 0 1.6-5.8l-.4-.8c.2.5 0-.1 0-.2l-.6-1.7-.4-1.7-.1-.8c-.2-1.5 0 .7 0-.7-.4-2.5-.5-5-.6-7.5l-.9-16.7-1.9-33.3-1-19a4.3 4.3 0 0 0-4.3-4.2c-2.2.1-4.4 1.9-4.2 4.3z" fill="#9fbdff"/><path d="M220.3 406.5q-.7-41.5.7-83c.5-14.3 2.1-30.6 13.5-39.3 6.6-5 15-6.4 23.2-7.7 45.9-7.1 92-14.2 138.5-14.3 13 0 28.3 1.7 35.1 12.9 3.4 5.5 4 12.3 4.3 18.9l5.3 83.4c.4 7.6.9 15.4-1.9 22.5s-9.6 13-17.1 12.3" fill="#ff983b"/><path d="M224.6 406.5q-.4-25.5 0-51 .1-12.7.5-25.5c0-3.7.2-7.3.4-11a126.4 126.4 0 0 1 .5-7l.2-1.3v-.5a61 61 0 0 1 2-9l.8-2 .4-1.2.2-.4c-.1.3-.2.4 0 0a36 36 0 0 1 2-3.8l1.3-1.9c.5-.6-.4.4.1-.2l.8-1a28 28 0 0 1 3.3-3.1c.4-.3 0 0-.1 0l.5-.3 1-.7a28.7 28.7 0 0 1 3.6-1.9l.5-.2s-.5.2 0 0l2.4-1c7.2-2.3 14.9-3 22.3-4.2l25-3.8c16.6-2.4 32.7-4.5 49.5-6.1s33.6-2.7 50.4-2.9c3.4 0 6.8 0 10.2.2l4.5.3 1 .1c.5.1-.2 0-.2 0l.7.1 2.3.4a47.7 47.7 0 0 1 6.4 1.7l1 .4c.3 0 1 .5.3.1a38.3 38.3 0 0 1 3.8 2l1.6 1.2c-.6-.5-.1-.1.2.1l1 .9a18.4 18.4 0 0 1 1.3 1.4c.3.3.6.8.2.2l.7 1a22.9 22.9 0 0 1 1.3 2.2l.5 1.1.3.8a32.5 32.5 0 0 1 1.3 5.3l.2 1.3v-.1l.1.6.3 2.8 1.6 25 3.1 51c.5 8 1.6 16.3.9 24.3l-.2 1.4c0 .4 0 0 0 0v.6l-.8 3.1a26.7 26.7 0 0 1-.8 2.6l-.2.5s.3-.6 0-.1l-.5 1.1a20.6 20.6 0 0 1-1.3 2c0 .2-.7 1-.4.7l-.1.1-.5.6-1.6 1.6-.7.6c.3-.2-.1 0-.2 0l-.6.5a17.5 17.5 0 0 1-1.9 1c-.7.4.5-.1-.2.2-.4 0-.7.2-1 .3l-1.3.3h-.5.3-2.4a4.3 4.3 0 0 0-4.2 4.3 4.4 4.4 0 0 0 4.2 4.3c7.7.6 14.5-4.2 18.6-10.3a39 39 0 0 0 5-23.3c-.3-8.7-1-17.4-1.6-26.1l-1.7-26.3-1.6-26.4-.8-12.7a54.7 54.7 0 0 0-1.9-11.9 26.8 26.8 0 0 0-13-16c-5.8-3.2-12.5-4.6-19.2-5.2a186.6 186.6 0 0 0-22.3-.2q-13 .4-26 1.4a873 873 0 0 0-52.5 5.7c-17.2 2.4-34.3 4.9-51.4 7.7-7.3 1.2-14.9 3-20.9 7.5a35 35 0 0 0-12 16.5 73.4 73.4 0 0 0-3.5 19.8c-.6 8-.7 16-.9 24q-.6 26.4-.3 52.7l.2 13a4.3 4.3 0 0 0 8.5 0z" fill="#ff983b"/><path d="M582.2 430.8a307 307 0 0 1-5.3-98.5c.5-5 1.2-10 3.9-14.1 4.2-6.6 12.4-9.4 20-11.6a388.5 388.5 0 0 1 110-14.1c4.7 0 9.6.3 13 3.3s4.6 7.5 5.5 11.8a334.6 334.6 0 0 1 3 117.7" fill="#fff"/><path d="M586.4 429.7a301.1 301.1 0 0 1-6.7-78.1q.4-10 1.5-19.7l.3-2.1c0 .1-.1.7 0-.2l.1-1a33.7 33.7 0 0 1 1-4.3l.4-1.2c0-.1.3-.8 0-.2a16.3 16.3 0 0 1 1-1.8l1-1.7c-.4.7 0 .2 0 0l.9-1 1.3-1.1.7-.6c-.6.5-.2 0 0 0a31.8 31.8 0 0 1 3.4-2.1l1.7-.9.6-.3a61.2 61.2 0 0 1 4-1.5c5.9-1.8 11.8-3.2 17.7-4.6a378 378 0 0 1 77.3-10.4 331.5 331.5 0 0 1 23.2.1c.7 0-1-.2.2 0l1 .2a18.6 18.6 0 0 1 2 .6c1.2.3-.6-.4.5.1l.6.4.9.5.2.2.6.7c.2.3.7.8.2.1a13.3 13.3 0 0 1 1.2 1.9l.3.7c.5 1-.1-.5 0 .2s.5 1.2.7 1.8l1 4q1 4.7 1.8 9.5c1.2 6.5 2 12.4 2.7 18.6a334.8 334.8 0 0 1-.2 78.8l-1.2 8.8c-.3 2.2.6 4.7 3 5.3 2 .5 5-.6 5.3-3a340.2 340.2 0 0 0 2.5-81.7q-1-10.6-2.5-21c-1-6.6-2-13.2-3.6-19.6a26 26 0 0 0-3.2-8 16.2 16.2 0 0 0-7.7-6.4c-5.7-2.2-12.4-1.7-18.4-1.7a395 395 0 0 0-81.2 8.8q-10 2.1-19.8 4.8c-5.6 1.5-11.2 3-16.3 5.8a24.8 24.8 0 0 0-11.6 13.3 42.1 42.1 0 0 0-2 9.4l-1 9.8a311 311 0 0 0 4.2 82 372.5 372.5 0 0 0 2 10 4.3 4.3 0 0 0 5.3 3 4.4 4.4 0 0 0 3-5.3z" fill="#fff"/><path d="m266.6 417.9.6-7.2.4-3.8.2-1.4.2-1.6q1-7 2.6-14 1.6-7.6 3.8-15a195.6 195.6 0 0 1 3-9.2c.6-1.6.2-.4 0 0l.8-1.8a24 24 0 0 1 1.4-2.2c-1 1.4.6-.6 1.1-1-1.5 1.2 1.3-.5.6-.2-.9.4.7-.2 1-.2a19.4 19.4 0 0 1 2-.5c-1.7.3 1.5 0 1.8 0l3-.1 8-.2 31.7-.6 125.4-2.4 125.4-2.4 63-1.2c20.8-.4 41.6-1 62.5-.3 10.2.3 20.5 1 30.8 2.1l1.7.3c-.3 0-1.7-.3 0 0l2.6.5a17 17 0 0 1 2.5.8c-1.5-.7-.3 0 0 .1 1.7 1-.4-.7.3.2.2.1 1.2 1.3.6.5s.3.7.4.8c.5.8 0 0 0-.2 0 .5.3 1 .4 1.5.3 1 .4 2.2.6 3.2 0-.3-.2-1.5 0 .2l.3 2 7.4 62.3 1.9 15.5c.5 4.4 3.5 8.7 8.5 8.5 4.2-.2 9.1-3.8 8.6-8.5q-4-32.4-7.8-64.9l-1.9-15.7a29.5 29.5 0 0 0-5.6-15.9c-6.7-8.3-19.2-8.3-29-9.1a604.6 604.6 0 0 0-64.2-1.4l-65.4 1.3L468 339l-130.4 2.5-32.7.7-16.2.3c-5.3.1-10.7.6-15.6 3-9.4 4.7-12.5 15.9-15.2 25.2a210.7 210.7 0 0 0-6.5 30.4c-.8 5.6-1.4 11-1.8 16.6-.3 4.5 4.2 8.8 8.6 8.6a8.8 8.8 0 0 0 8.5-8.6z" fill="#6c77c1"/><path d="M118.5 481.8h23m-23 4.2h23a4.3 4.3 0 0 0 0-8.6h-23a4.3 4.3 0 0 0 0 8.6zm-8.9 34h23m-23 4.3h23a4.3 4.3 0 1 0 0-8.6h-23a4.3 4.3 0 0 0 0 8.6zm-8.8 34h23m-23 4.2h23a4.3 4.3 0 1 0 0-8.5h-23a4.3 4.3 0 1 0 0 8.5zm-6 34h23m-23 4.3h23a4.3 4.3 0 0 0 0-8.6h-23a4.3 4.3 0 0 0 0 8.6zm-7 34h23m-23 4.2h23a4.3 4.3 0 1 0 0-8.6h-23a4.3 4.3 0 0 0 0 8.6zm-6 34h23m-23 4.3h23a4.3 4.3 0 0 0 0-8.6h-23a4.3 4.3 0 1 0 0 8.6zm-6 34h23m-23 4.2h23a4.3 4.3 0 1 0 0-8.5h-23a4.3 4.3 0 0 0 0 8.5z" fill="#f96632"/><path d="M160.9 434.4a126.5 126.5 0 0 0-19.7 3.3 88.3 88.3 0 0 0-17.5 6 19 19 0 0 0-7.2 5.8 21.6 21.6 0 0 0-3.3 8.3c-1.3 6.4-2.3 13-3.5 19.4q-7 40-13.8 80.2-6.8 40-13.3 80L76.2 678l-3.2 20c-1 6.6-2.2 13.3-3 20-.7 6 .3 12.3 5.1 16.4 4.4 3.8 10.2 5.3 15.6 7l38.7 12.2 9.5 3a4.3 4.3 0 0 0 2.2-8.3l-37.4-11.8c-5.8-1.8-11.8-3.5-17.5-5.6a18.9 18.9 0 0 1-5.2-2.7 7.2 7.2 0 0 1-2.6-4.7 28 28 0 0 1 .5-7.8l1.6-10 3-19 6.1-38.9 12.8-77.6q6.5-38.8 13.4-77.8l3.4-19.3 1.7-9.6a34.6 34.6 0 0 1 1.8-7.5 9 9 0 0 1 4.4-4.5 45.8 45.8 0 0 1 7.4-2.9 117.2 117.2 0 0 1 18-4.5c2.8-.4 5.6-.8 8.4-1a4.4 4.4 0 0 0 4.3-4.3c0-2.2-2-4.5-4.3-4.3z" fill="#ff983b"/><path d="M25 847h950v128H25z" fill="#6c77c1"/><path d="M975 970.7H63.6c-12.2 0-24.8-.9-37 0H25l4.3 4.3V847l-4.3 4.2h911.4c12.2 0 24.8.9 37 0h1.6l-4.3-4.3V975c0 5.5 8.6 5.5 8.6 0V847a4.3 4.3 0 0 0-4.3-4.4H63.6c-12.3 0-24.7-.2-37 0H25a4.3 4.3 0 0 0-4.3 4.3V975a4.3 4.3 0 0 0 4.3 4.3h911.4c12.3 0 24.7.2 37 0h1.6c5.5 0 5.5-8.6 0-8.6z" fill="#6c77c1"/><path d="M869.2 782.4H114.5a19.3 19.3 0 0 1-19-22.2l42.4-269.3a112.5 112.5 0 0 1 111.1-95h542.8a42.8 42.8 0 0 1 40.8 29.7l60 187.2a35 35 0 0 0 17 20.2l1.2.7a35 35 0 0 1 16.7 42.2l-29.3 85.8a30.6 30.6 0 0 1-29 20.7z" fill="#f96632"/><path d="M869.2 778.1h-754c-7.4 0-14.1-4.6-15.5-12.3-.6-3.2.2-6.4.7-9.6l16.8-106.7 20.6-130.7c1.4-8.9 2.7-17.8 4.2-26.6 5-30.8 22.5-58.4 49-75.2a111 111 0 0 1 60-16.9h540.7a39 39 0 0 1 33.4 19.1c2.4 4.3 3.8 8.9 5.2 13.5l6.3 19.4 20.2 63c10.5 33 20.6 66 31.6 98.7a40.8 40.8 0 0 0 10.1 16.5c6.1 6 14.5 8.4 19.9 15.2 7.5 9.4 7.8 21 4 31.9l-20 58.6-7.7 22.6a27.2 27.2 0 0 1-25.5 19.6c-5.5 0-5.5 8.6 0 8.5a35.6 35.6 0 0 0 33.2-24.4l7-20.5 20.8-60.8a43 43 0 0 0 .5-31 39.6 39.6 0 0 0-15.8-18.8c-3.2-2-6.6-3.5-9.4-6.1a31 31 0 0 1-8.4-12.3c-3.7-10-6.6-20.4-9.9-30.5L845.6 452c-3.5-10.8-6.2-22.1-10.8-32.5a47.4 47.4 0 0 0-40.6-28H251c-21.8 0-43.2 5.3-62 16.6a117.7 117.7 0 0 0-55.3 81.5c-4.4 27.3-8.6 54.6-12.8 81.8l-22 139.8-6.7 42.3c-.5 3.2-1.3 6.7-1.3 10 .3 13 11 22.8 23.7 23 13.6.4 27.2 0 40.7 0h713.9c5.5 0 5.5-8.5 0-8.5z" fill="#f96632"/><path d="M892.6 612.8 846 467.5H730.9l19.6 149H894a35.7 35.7 0 0 1-1.4-3.7z"/><path d="m896.7 611.6-4.6-14.4-11.2-34.8-13.4-42-11.6-36.1c-2-6-3.7-11.9-5.7-17.7v-.3a4.4 4.4 0 0 0-4.2-3H731c-2.1 0-4.6 2-4.3 4.2l2 14.8 4.6 35.5 5.7 43 4.9 37.3 2.4 18v.3c.3 2.3 1.7 4.3 4.3 4.3h125.8c5.8 0 11.6.2 17.4 0h.3a4.3 4.3 0 0 0 3.7-2 4.5 4.5 0 0 0 0-4.4c-.2-.5-.2-.5 0-.2l-.4-.8-.6-1.6a4.3 4.3 0 1 0-8.2 2.2 49.4 49.4 0 0 0 1.8 4.7l3.7-6.4H768.2c-5.8 0-11.7-.3-17.5 0h-.2l4.3 4.2-2-14.8-4.7-35.5-5.6-43-5-37.2-1.5-12.4c-.3-1.9-.4-3.9-.8-5.8v-.3l-4.2 4.3h115l-4.1-3.1 4.6 14.5 11.2 34.7 13.4 42 11.6 36.2 5.7 17.7v.2a4.3 4.3 0 1 0 8.3-2.3z"/><g fill="#f96632"><path d="M839.5 604.7a55.8 55.8 0 0 0-12.2-30c-8.9-9.4-23-12.4-35.7-10.2s-24.1 8.9-34.4 16.7q-5.3 4-10.2 8.4l3.5 26.8h90.4c-.3-3.9-.8-7.8-1.4-11.7z"/><path d="M843.6 603.5c-2.1-12.4-5.7-25.8-15.8-34.2s-23.2-11-35.8-9.2a81 81 0 0 0-36.3 16.9l-8.9 7.1c-1.9 1.6-4.3 3.2-4 6 .2 2.5.6 5 1 7.5l2.4 18.9c.3 2.3 1.7 4.3 4.3 4.3H841c2.1 0 4.4-2 4.2-4.3-.3-4.3-.9-8.6-1.6-13-.4-2.1-3.2-3.5-5.3-3a4.4 4.4 0 0 0-3 5.4c.6 3.7 1 6.6 1.4 10.6l4.2-4.3h-79.3c-3.6 0-7.3-.2-11 0h-.1l4.2 4.3-3-23.5-.5-3.4-1.3 3a134.5 134.5 0 0 1 20.3-15.2 147.8 147.8 0 0 1 8-4.2l1.3-.6.8-.4c-.4.2 0 0 .1 0a60.4 60.4 0 0 1 11.7-3.5l1.4-.2.7-.2s-.7.1-.2 0l2.9-.2a44.5 44.5 0 0 1 5.5 0l2.5.2c.9.1.1 0 0 0l.5.1 1.5.3a42.1 42.1 0 0 1 5.3 1.4c.9.2 1.7.5 2.5.9l.5.2 1.4.7a45.1 45.1 0 0 1 4.4 2.8c.6.3-.5-.4 0 0l.5.3a25.2 25.2 0 0 1 3 2.9l.9 1 .4.6 1.7 2.4a51.8 51.8 0 0 1 3 5.6c.2.5 0 0 0 0l.4.8a91.2 91.2 0 0 1 1.6 4.6 102.8 102.8 0 0 1 2.8 12.9c.4 2.2 3.2 3.6 5.3 3a4.4 4.4 0 0 0 3-5.3zm20.6-88a182.7 182.7 0 0 1 20.7 17.7 39.4 39.4 0 0 1-8.8 4.9L852 549"/><path d="M862 519.3c2 1.4 3.5 2.5 5 3.8l5 4q5.1 4.4 9.9 9v-6l-.4.3-.9.6a31.6 31.6 0 0 1-5.2 2.7l-8.5 3.9-17 7.7c-2 1-2.8 4-1.6 5.8a4.4 4.4 0 0 0 5.8 1.6l17.6-8c5.6-2.5 11.4-4.7 16.2-8.5 1.8-1.5 1.5-4.6 0-6.1a192.7 192.7 0 0 0-21.5-18.3c-1.8-1.3-4.9-.3-5.9 1.6a4.4 4.4 0 0 0 1.6 5.8z"/></g><path d="M815 491.4c-1.9-3.9-5.2-6.8-8.2-9.9s-6-6.4-7-10.6.8-9.3 4.9-10.8c4.6-1.7 9.4 1.8 12.6 5.5-1.2-2.8-2.4-5.7-2.4-8.8s1.5-6.3 4.3-7.4 6.3.2 8.4 2.5 3.2 5.3 4.2 8.2c1.6-4.4-1.5-10.1 1.7-13.5 2.4-2.5 7-1.4 9.2 1.3s2.7 6.3 3.1 9.8a15.6 15.6 0 0 1 2.2-9c.8-1.2 2-2.5 3.5-2.2 1.2.3 1.8 1.6 2.3 2.8a66 66 0 0 1-2.8 52" fill="#ff983b"/><path d="M818.7 489.2c-2.1-4.2-5.6-7.4-8.8-10.7a52.8 52.8 0 0 1-3.4-3.7l-.6-.8-.8-1.4-.4-.9a12.6 12.6 0 0 1-.6-1.5c0-.2-.2-1.5-.2-.9v-.7c0-.1.2-1.7 0-.6a11.7 11.7 0 0 1 .3-1.3l.2-.5.6-1.1c.2-.4.2-.4 0 0l.3-.4a6.3 6.3 0 0 1 .5-.4c-.4.3-.5.3 0 0a6.4 6.4 0 0 1 .5-.2c-.6.2-.6.2 0 0a5.9 5.9 0 0 1 .7-.2c-.5 0-.5 0 0 0h.8c-.5 0-.5 0 0 0s1 .3 1.5.5c-.9-.3.6.3.7.4a16 16 0 0 1 1.4.9c.4.3.4.3.1 0l.6.6a25.1 25.1 0 0 1 2.3 2.3 4.3 4.3 0 0 0 5.6.4c1.9-1.4 2-3.6 1.1-5.6l-.1-.4a47.8 47.8 0 0 1-1.6-4.8 11.7 11.7 0 0 1 0-2c0-1.1-.3.8 0-.3l.1-.7c.1-.3.5-1 0-.2l.4-.6c.2-.2.7-1 0-.3l.5-.5c.6-.6-.6.3.2-.1l.4-.2.5-.1c-.6.1-.3 0 .1 0s.9.2.2 0a7.3 7.3 0 0 0 .8.2c.6.1-.7-.4.2.1l.8.5c.2.2.8.6.2 0l.7.7a8.3 8.3 0 0 1 .7.8c-.3-.4 0 .2.2.3a18.3 18.3 0 0 1 1 1.9l.4 1c-.2-.6 0 .1.2.3l.8 2.2a4.3 4.3 0 0 0 8.2 0c1-2.8.6-5.7.4-8.6V451c0-.3.2-1.2 0-.2a3.8 3.8 0 0 0 .2-.8c0-.5-.2.8 0 0s-.4.6.1-.2c.4-.6-.3.2 0 0a3.3 3.3 0 0 1 .4-.2l-.3.1a3.7 3.7 0 0 1 .4-.1h-.5a3.9 3.9 0 0 1 1 0c-.2-.1-.8-.1 0 0l.8.3c-.8-.2-.1 0 .2.1.1 0 .9.6.4.2l.3.4c.1 0 .7.8.3.2a11 11 0 0 1 1 1.7 25.2 25.2 0 0 1 1 4.8 3.3 3.3 0 0 1 .1.5c.3 2.2 1.8 4.4 4.3 4.3a4.3 4.3 0 0 0 4.3-4.3 16 16 0 0 1 0-1.7v-.6c0-.7-.2.5 0-.1l.3-1.5.2-.8.3-.7.1-.3.4-.7.4-.7c0 .2-.5.6 0 0 .2-.1.5-.2.1-.1a2.4 2.4 0 0 1-1 .2 1.8 1.8 0 0 1-1-.2c-.3 0-.7-.7-.6-.4l.2.3c-.3-.5 0 .2.1.3l.5 1.4a64 64 0 0 1 2.4 9.5l.3 1.6.1.9v-.1l.4 3.4q.2 3.3.1 6.6c0 2-.2 4.2-.5 6.3 0 .1-.1.8 0 .1v.7c-.2.5-.2 1-.3 1.6l-.7 3.2a65.3 65.3 0 0 1-2 7.1l-.6 1.6-.4.8c0 .3-.3.9 0 .3-.6 1.2-1 2.4-1.7 3.5-1 2-.6 4.7 1.5 5.9 2 1 4.8.6 5.9-1.6a70.4 70.4 0 0 0 5.7-46.7 64.1 64.1 0 0 0-2-7.4c-1-2.9-2.4-6.1-5.8-7-8-1.9-11.3 9.4-11 15.3h8.6c-.5-4-1-8.2-3.5-11.6a11.7 11.7 0 0 0-11-5c-4.6.6-7.4 4.4-7.8 9a27.1 27.1 0 0 0 .1 4.7 21.6 21.6 0 0 1 .1 2.5c0 .3-.2 1.3 0 .3a13.2 13.2 0 0 1-.4 1.4h8.1c-1.4-4-3-8.1-6.1-10.9s-8-4.4-12.3-2.6a11.6 11.6 0 0 0-6.7 8.9c-.8 4.8 1 9 2.8 13.4l6.7-5.2a20 20 0 0 0-10.8-7 11.6 11.6 0 0 0-12 5.2 14.8 14.8 0 0 0-1.7 11.6c1.2 4.4 4 8 7 11.2l4.8 4.8 1.2 1.4.4.5.2.2a22.4 22.4 0 0 1 1.9 3 4.3 4.3 0 0 0 5.8 1.6 4.4 4.4 0 0 0 1.6-5.9z" fill="#ff983b"/><path d="M655.4 467.4H438.7l19.6 149h215.8z"/><path d="M655.4 463.2H438.7c-2 0-4.6 2-4.2 4.3l1.9 14.7 4.7 35.6 5.6 43 5 37.2 2.3 18.1v.3c.3 2.3 1.8 4.3 4.3 4.3h215.8c2.1 0 4.6-2 4.3-4.3l-1.9-14.8-4.4-35.6-5.5-43-4.7-37.2-2.3-18v-.4c-.2-2.2-1.7-4.3-4.2-4.2-2.1 0-4.6 1.9-4.3 4.2l1.9 14.8 4.5 35.6 5.4 43 4.7 37.2 1.5 12.3c.3 2 .4 4 .8 5.8v.3l4.2-4.3H458.4l4.3 4.3-2-14.8-4.7-35.5-5.7-43-4.9-37.2-1.6-12.3c-.2-2-.4-4-.8-5.9a2.6 2.6 0 0 1 0-.2l-4.2 4.3h216.6a4.3 4.3 0 0 0 0-8.6zm-272 4.3c-32.6 0-157.3-3-237.6-4a112.6 112.6 0 0 0-8 27.4l-19.7 125.5h284z"/><path d="m383.3 463.2-28.7-.3-43.3-.8-52.6-1-55.1-1-51.9-.7-6-.1a4.2 4.2 0 0 0-3.6 2.1 119 119 0 0 0-8.4 28.5l-.9 5.5-4.3 27.9-6.2 38.8-5.5 35.3L114 615v.3c-.4 2.7 1.1 5.4 4.1 5.4h284c2.1 0 4.6-2 4.3-4.3l-1.9-14.8-4.4-35.6-5.5-43-4.7-37.2-2.3-18v-.3c-.2-2.3-1.7-4.4-4.2-4.3-2.1 0-4.6 1.9-4.3 4.3l1.9 14.8 4.5 35.6 5.4 43 4.7 37.2 1.5 12.2c.3 2 .4 4 .8 5.8a2.1 2.1 0 0 1 0 .3l4.2-4.3h-284l4.1 5.4 2.3-14.4 5.3-33.8 6.1-39 4.8-30.1c1.4-9 2.9-18 5.8-26.7.9-2.6 2-5.6 3-7.8l-3.7 2 51.2.8 55 1 53.2 1 44.9.8 30.7.4h2.6a4.3 4.3 0 1 0 0-8.6z"/><path d="M365.3 616.4c-1.4-6.6-3-13.1-4.9-19.6-3.7-13.5-8-27-14.9-39.3s-16.5-23.3-29-29.7c-21-10.7-46.2-7.3-68.8-1a83.1 83.1 0 0 0-26 11.1 70.6 70.6 0 0 0-18 20 126.2 126.2 0 0 0-19.1 58.5z" fill="#6c77c1"/><path d="M369.4 615.3a330.7 330.7 0 0 0-8-30.6 152.7 152.7 0 0 0-12-29 73.4 73.4 0 0 0-41.1-35.9c-18.8-5.8-39.3-3-58 1.9-9.5 2.5-19.2 5.4-27.7 10.5s-15.3 12.7-20.8 21a130 130 0 0 0-20.7 56c-.3 2.4-.6 4.8-.7 7.2a4.3 4.3 0 0 0 4.2 4.3h180.6a4.3 4.3 0 1 0 0-8.5H184.6l4.3 4.2.7-7.2c0-.5 0 0 0 0l.1-.9.3-1.7.6-3.7a127.4 127.4 0 0 1 3.5-13.9 121.7 121.7 0 0 1 3.5-10l.7-1.6v-.2l.4-.8a124 124 0 0 1 6.6-12.9l3.7-5.9 2-2.8.8-1.1.5-.7.3-.3a64.4 64.4 0 0 1 9.6-9.8l.4-.4.4-.3 1.2-.9 3.3-2a62.6 62.6 0 0 1 6.2-3.2l.8-.4s.8-.3.2 0l1.4-.7a73.4 73.4 0 0 1 10.2-3.4c4.5-1.3 9-2.5 13.6-3.5l7-1.4 3.3-.5.8-.1h.5l.5-.1 1-.2a104.1 104.1 0 0 1 14-.7q3.4 0 6.7.4l1.7.2c.7.1-.6 0 .1 0l.9.1 3.5.7a62.3 62.3 0 0 1 6.4 1.7 50.8 50.8 0 0 1 5.7 2.1 57.8 57.8 0 0 1 6 3.2 59.3 59.3 0 0 1 3.7 2.5l.7.5.5.4.3.2.6.5 1.3 1 2.5 2.3q2.3 2.2 4.4 4.6l2 2.4 1 1c.3.6-.4-.4 0 .2l.6.8a91.5 91.5 0 0 1 3.7 5.4 106.3 106.3 0 0 1 6.7 12.5l1.4 3.1c.3.7-.2-.4 0 .3l.4.8.8 2 2.5 6.8a315 315 0 0 1 8.4 29.2l1.6 7.6a4.3 4.3 0 0 0 5.3 3 4.4 4.4 0 0 0 3-5.3z" fill="#6c77c1"/><path d="M326 527a154.3 154.3 0 0 1-72 54.4c-9.1 3.3-19.2 5.7-28.4 2.8-11.8-3.8-19.4-15.5-22.6-27.5s-3-24.4-4.6-36.7"/><path d="m322.3 524.9-2.7 3.5-.3.4-.7 1-1.5 1.8-5.9 6.7a152.4 152.4 0 0 1-13 12.5l-3.4 2.8-1.5 1.2-.4.4-1.3 1q-3.5 2.6-7.2 5a156.7 156.7 0 0 1-15.6 9.2l-8.4 4-.7.2a3.7 3.7 0 0 1-.5.2l-1.8.8-4.5 1.7a81 81 0 0 1-10 3 51.3 51.3 0 0 1-3.8.7h-.2a39.1 39.1 0 0 1-5.4.3l-2.2-.2c-1.4 0 .7.2-.7 0l-1.3-.3a27 27 0 0 1-2.2-.6l-1.1-.3-.9-.3-.4-.2-1-.5a21.7 21.7 0 0 1-3.4-2l-.6-.5-.5-.4a32.5 32.5 0 0 1-3-2.8l-1.1-1.4-.7-.8c.5.7-.1-.1-.3-.3a44.3 44.3 0 0 1-4.3-7.3l-.4-.9c0-.3-.6-1.4-.2-.5l-.8-2.1c-.6-1.5-1-3.1-1.5-4.7a80.4 80.4 0 0 1-2-11c-1-8-1.2-16.1-2.2-24.2-.3-2.2-1.8-4.3-4.3-4.2-2 0-4.6 1.9-4.3 4.2 1.8 14.4 1.1 29.5 6.4 43.2 4.5 11.6 13 22.5 25.6 25.6 14 3.5 29-2.6 41.5-8.4a159.3 159.3 0 0 0 32.5-20.1 157.6 157.6 0 0 0 29.6-31.1c1.3-1.8.3-4.8-1.6-5.9a4.4 4.4 0 0 0-5.8 1.6z"/><path d="m750 572 30.4-46c8-12 16.3-24.3 28.3-32.2s29-10.2 40.5-1.7c8.2 6.1 12.3 16.5 13 26.7s-1.5 20.3-3.6 30.3l-7 31.8c-1.7 7.5-5.8 16.8-13.4 15.9-5.7-.7-8.7-7.5-8.2-13.2a12.7 12.7 0 0 1-24.6-6.7c-.8 6.5-6.6 12.5-13.2 12s-11.6-8.6-8-14.2c-1.8 4.7-5.5 9.3-10.5 9.5s-9-6.9-5.2-10a20.4 20.4 0 0 1-16.3 5.3" fill="#fff"/><path d="M753.6 574.1c11.3-17 22.4-34.1 33.9-51a315.7 315.7 0 0 1 5.7-8l.8-1.2.3-.4.5-.5a88 88 0 0 1 8.7-9.7 55.5 55.5 0 0 1 3.4-3l.7-.5.3-.2a49.5 49.5 0 0 1 5.3-3.5 41 41 0 0 1 2.3-1.3l1.4-.6.7-.3.3-.1a43.6 43.6 0 0 1 5.6-1.8l2.8-.6.8-.1c.6-.1-.7 0 0 0l1.7-.2a36.5 36.5 0 0 1 5.8 0l1.3.2c-1-.2.4 0 .7 0l2.9.8 2.6.8c.6.3-.6-.2 0 0l.6.3 1.5.8a24.2 24.2 0 0 1 2.4 1.5l.5.3c-.6-.4-.1 0 0 0l1.3 1.2a27.2 27.2 0 0 1 2 2l1 1.1s-.4-.5 0-.1l.5.8a33.7 33.7 0 0 1 3 5.2c0 .3.2.5.3.7 0 0-.2-.6 0-.1l.5 1.4 1 3a41.7 41.7 0 0 1 1.1 5.8l.1.8a90.5 90.5 0 0 1 .3 5.5 72.2 72.2 0 0 1-.5 7.5l-1 6.8c-1.8 10.2-4.3 20.2-6.5 30.3-1 4.7-1.9 9.4-3.1 14a46.8 46.8 0 0 1-1.2 3.6l-.2.6c-.2.5.3-.7 0 0a24.2 24.2 0 0 1-1.8 3.4c-.2.3-1 1.4-.3.5a16 16 0 0 1-1.4 1.6 2.9 2.9 0 0 1-.5.3l.2-.1-1 .7c-.9.4.5-.2-.2 0l-1.1.3h.3-.6a3.5 3.5 0 0 0-.5 0c-.4 0 .8.1 0 0-.2-.2-1-.2-1.1-.4 0 0 .9.5.2 0l-.4-.2-.5-.3c-.5-.3.4.5.1 0a10 10 0 0 0-1-1c-.5-.5.4.7-.1-.2l-.6-1c-.2-.3-.6-1.3-.3-.4l-.4-1.4-.3-1.1-.1-.7c.2 1 0 .4 0 .2a20.4 20.4 0 0 1 0-2.6 4.3 4.3 0 0 0-3.7-4.2 4.3 4.3 0 0 0-4.7 3l-.2.7c.2-.4.2-.5 0-.2l-.5 1-.6.8c.4-.6 0-.1-.2.2a13.7 13.7 0 0 1-1.5 1.3l-.3.2-.9.5c-.3.1-1.3.6-.4.3l-1 .3a16 16 0 0 1-2 .5c1.2-.2 0 0-.3 0h-1c-.3 0-1.4-.3-.4 0l-1-.3c-.4 0-.6-.2-1-.3 1 .3 0 0-.2 0l-.9-.6s-1-.8-.6-.4l-.6-.6-.7-.7c-.2-.3-.7-1-.2-.2l-.5-.8-.6-.9-.3-.6.1.2a15.2 15.2 0 0 1-.6-2v-.2l-.1-1v-1 .1l.1-.7-8.2-2.2a14.2 14.2 0 0 1-.5 2.4l-.4 1-.3.6a14 14 0 0 1-1.2 1.7l-.3.4a11.9 11.9 0 0 1-1 .9s-1 .7-.1.2l-1 .6-1.1.6c-1 .5.8-.2-.2.1l-1.2.3c-1.1.3.5 0-.4.1H792c.6.1.7.1.4 0l-1-.3h-.3a4 4 0 0 0 .2 0l-.8-.4c-.2-.1-1.3-1-.4-.2l-1.3-1.3c-.4-.4-.3-.3 0 .2 0-.2-.2-.4-.3-.5l-.5-.8a2.8 2.8 0 0 1-.4-.8c.2.5.3.6.1.1l-.2-.5-.2-.9c-.2-1 0 1 0 0a5 5 0 0 0 0-1v.4-.6l.3-.8q-.3.8 0 .2a5.5 5.5 0 0 1 .3-.5l-7.8-3.3c-.4 1 .2-.5 0 .1l-.5.9-1 1.6c0 .3-.3.5-.4.8l-.1.1a15.8 15.8 0 0 1-1.3 1.4l-.5.4c.6-.5 0 0-.2.1l-.7.5c-.7.4.3-.1-.1 0l-.9.3-.4.1h-.5c-.7 0 .5.2.2 0a3.8 3.8 0 0 0-.7-.2c-.7-.2.3 0 .2.1a6.4 6.4 0 0 1-.6-.3c-.7-.5 0 0 0 0a4.7 4.7 0 0 1-1-1c0 .2.6.8.2.1l-.4-.6c-.3-.7.1.6 0 .1a5.3 5.3 0 0 0-.1-.6c-.2-.7.1.2 0 .3v-.8c.1.2-.2 1 0 .4v-.2c-.1.4-.1.4 0 .1l-.4.4.6-.5-6-6-.9.7c-.3.2-.4.4 0 .1a21.4 21.4 0 0 1-1.8 1.2l-1.8.9c-.4.2.5-.2-.2 0l-1.1.5-2 .5c-.2 0-.6 0-1 .2h-.1a23 23 0 0 1-4.4 0c-2.2-.3-4.3 2.1-4.2 4.2 0 2.6 1.9 4 4.2 4.3a24.7 24.7 0 0 0 19.3-6.6 4.3 4.3 0 0 0 0-6 4.4 4.4 0 0 0-6 0c-6 5.3-1.2 14.9 5.4 17 3.9 1.2 8-.4 11.1-2.9a21.4 21.4 0 0 0 6.3-9.3c.8-2-.7-4.3-2.5-5a4.3 4.3 0 0 0-5.3 1.7c-3.8 6.2-.9 14 4.6 18 6 4.5 14 2.7 19.1-2.2a18.6 18.6 0 0 0 5.5-10.5c.3-2.2-.5-4.7-3-5.3-2-.5-4.7.7-5.2 3-1.7 8.6 3.4 18 12 20.3s17.9-3 20.8-11.3l-8.4-1.1c-.7 8.3 5 18.5 14.6 17.5 8.8-1 13.1-10.1 15-17.8 1.4-5.2 2.4-10.4 3.5-15.7l3.5-15.9c2.4-10.8 5-21.8 4.1-32.9-.6-9.3-3.7-18.4-9.8-25.6s-15-10.5-24.2-10.7a46.4 46.4 0 0 0-25.8 7.5 82.5 82.5 0 0 0-20.6 20.3c-6 8-11.4 16.6-17 25L750.8 563l-4.6 6.8a4.3 4.3 0 0 0 1.5 5.9 4.4 4.4 0 0 0 5.9-1.5z" fill="#fff"/><path d="M611.4 481.3c-1.6-9-9-19.1-17.8-16.7-3.3.9-5.9 3.4-8.1 5.9-8.7 9.8-16.9 23.3-30 23.4-11 0-19.6-9.8-30.2-12.9-16.2-4.7-33.8 8.8-37.5 25.2s3.6 33.8 14.7 46.5c0 0 13 18.1-.2 32s-22.2 19.5-25.4 31.7h82.7c.4-12-9.7-25-13.3-36.7a34.2 34.2 0 0 1 16.4-39.1c6.1-3.2 13.1-4.4 19.5-7 20-8 32.9-31 29.2-52.3z" fill="#ff983b"/><path d="M615.5 480.2c-1.7-9.5-9.5-21.4-20.6-20.1-6.3.7-10.6 5.1-14.5 9.8-3.2 3.8-6.2 7.7-9.6 11.3a53 53 0 0 1-3.6 3.3l-.8.7c-.1 0-1 .8-.2.2-1 .6-1.8 1.3-2.8 1.8l-1.4.8-.6.3c-.8.4.7-.2-.3.1a22.7 22.7 0 0 1-3 1l-1 .1s.9 0 0 0h-3.8c.8 0 .2 0 0 0l-1-.2a24.6 24.6 0 0 1-3.5-1l-.3-.1-.7-.3a57.9 57.9 0 0 1-5.3-2.8l-6.5-4a37.4 37.4 0 0 0-15.4-5.2 34.8 34.8 0 0 0-27.2 11.5 40.2 40.2 0 0 0-10.9 29.3 60.9 60.9 0 0 0 14.6 36.2l1.3 1.6.5.7c.6.7 0 0-.1-.3.2.5.6 1 1 1.5a34 34 0 0 1 1.7 3.3 5.4 5.4 0 0 1 .5 1c-.2-1-.3-.5-.1-.1l.2.6a35.4 35.4 0 0 1 1.6 5.3l.1.9c.1.8 0-.2 0-.2a7 7 0 0 1 .2 1.8 22.2 22.2 0 0 1 0 3.2l-.1.6v.1l-.5 1.8-.4 1.5c-.4 1 .4-.8-.1.3l-.4.6a18.3 18.3 0 0 1-.9 1.6l-.5.8-.4.6a85.2 85.2 0 0 1-6.3 6.5c-6.8 6.8-14.8 13.3-19 22.1a38.5 38.5 0 0 0-2.6 6.6 4.3 4.3 0 0 0 4.2 5.4h82.7a4.3 4.3 0 0 0 4.2-4.2c.2-6.5-2-12.7-4.6-18.5l-4.1-8.4a505 505 0 0 0-2-4l-.8-2-.5-1-.3-.8a37.4 37.4 0 0 1-2.1-7.6c.1 1.1 0 0 0-.2l-.1-1-.1-1.7a33.4 33.4 0 0 1 .2-4.1s.1-1.2 0-.5v-.4l.5-2a35.3 35.3 0 0 1 1-3.7l.8-2 .4-.8a34.5 34.5 0 0 1 2-3.6l1-1.4.6-.9c-.6.8 0 0 .2-.2a35.1 35.1 0 0 1 2.7-2.9l1.4-1.3.8-.6c-.2 0-.7.5 0 0a32.6 32.6 0 0 1 3.4-2.2 43.5 43.5 0 0 1 8.8-3.5c3.1-1 6.3-1.9 9.4-3a52.2 52.2 0 0 0 25.6-21.4 52.7 52.7 0 0 0 7.4-36.5c-.4-2.2-3.2-3.7-5.3-3a4.4 4.4 0 0 0-3 5.2l.2 1c.2 1.2 0-.9 0 .3l.2 1.7a45 45 0 0 1-.2 8v.8c-.2 1.1.1-1 0 .2l-.4 2a49.3 49.3 0 0 1-2.2 7.8l-.6 1.7c.4-1 0 .1-.2.2l-.4 1a50.7 50.7 0 0 1-3.8 6.8l-1 1.4-.6.8c-.2.2-.3.4 0 0l-.4.6a49.1 49.1 0 0 1-5.3 5.6l-1.6 1.4-.6.4c-.9.7.7-.5-.2.2a54.2 54.2 0 0 1-8.4 5l-.4.2-1 .4c-6.5 2.5-13.5 3.8-19.7 7a36.6 36.6 0 0 0-12.6 11 38.4 38.4 0 0 0-6 31.9c1.7 6.6 5.2 12.7 8.1 18.8l2.3 5 .1.2.5 1.3.8 2.3a37.2 37.2 0 0 1 1.3 4.9c0 .1.2 1.4 0 .3l.2 1.2a24.7 24.7 0 0 1 0 2.5l4.3-4.2H477l4.1 5.4 1-3 .2-.6c.4-1-.4.8 0-.2l.8-1.3a37 37 0 0 1 3.2-5.2c.6-.8-.4.5 0 0l.5-.6 1-1.2a73.8 73.8 0 0 1 7.4-7.6c4.2-4.2 9-8.2 12.6-13a24.5 24.5 0 0 0 4.9-14.4 35.3 35.3 0 0 0-6-19.4 35 35 0 0 0-2.4-3l-1.3-1.6c.5.5 0-.2-.2-.3l-.6-.8a79.2 79.2 0 0 1-2.3-3.5 66 66 0 0 1-4-7.2l-.9-1.9c.3.7 0 0 0 0l-.4-1.2a58.6 58.6 0 0 1-2.7-9.6l-.2-1s-.2-1.4 0-.4a44.8 44.8 0 0 1-.4-8l.2-2c0-.2.1-.9 0-.1l.2-1a34 34 0 0 1 .8-3.9l1.1-3.1c.3-.7-.4.9 0-.1l.4-.7 1-1.9a31.5 31.5 0 0 1 2.6-4.1c.7-1-.3.4.1-.1l.8-1a37.5 37.5 0 0 1 5-4.8c-.6.6.5-.3.8-.5l1.3-.9a32.5 32.5 0 0 1 3.3-1.8l1.2-.6.9-.3a28.9 28.9 0 0 1 3.4-1l1.5-.3c1.1-.2-1 0 .2 0h.7a26.1 26.1 0 0 1 3.5 0h1.5c-1.1 0 .6.2 1 .3a25.3 25.3 0 0 1 3.4 1l1 .4c-.2 0-.8-.4 0 0a37.5 37.5 0 0 1 5 2.6c2.2 1.2 4.3 2.6 6.5 3.9 4.7 2.7 9.7 5 15.1 5.4a24 24 0 0 0 14.4-3.6c8.4-5 13.9-13.5 20.2-20.7l2.5-2.6 1-.8c0-.1.6-.5 0-.1l2-1.2c.6-.4-.9.3.2-.1l.8-.2 1-.3c-.1 0-1 .1-.2 0 .3 0 1.4-.1 1.6 0-.1-.1-.8-.1-.2 0l1 .3.8.2c-.8-.2-.4-.2-.2 0l1.4.7.7.5c.5.3-.8-.7 0 0l1.3 1.2 1 1.2c.8.8-.5-.7.2.2l.4.6a25.5 25.5 0 0 1 1.8 3l.4 1s-.3-.7 0 0l.6 1.7a26 26 0 0 1 .9 3.4 4.3 4.3 0 0 0 5.2 3 4.4 4.4 0 0 0 3-5.2z" fill="#ff983b"/><path d="M197.5 453.8c-4.5-6-9.2-12.5-9.9-20s4.3-16 11.8-16.1c8.2-.2 13.2 8.5 16.4 16A72 72 0 0 1 251 419c-1.7-4.9-3-10.1-1.8-15.2s5.3-9.6 10.4-9.9c9.3-.4 13.3 11.4 14.5 20.5a337.4 337.4 0 0 0 71.4-23.4 25.3 25.3 0 0 1 6.6-25.7 4.2 4.2 0 0 1 2.2-1.3c1.5-.2 2.8 1.1 3.7 2.3q12.3 15 23.2 31.2a94.7 94.7 0 0 1 16.6 35c3.8 21.4-5.9 43.4-20.8 59.2s-34.4 26.3-53.8 35.9c-17 8.3-34.2 16.2-52.4 21.1a77.3 77.3 0 0 1-31.6 3 64 64 0 0 1-42.3-29.8c-11.8-18.2-15.8-43-4.6-61.6" fill="#6c77c1"/><path d="M201.2 451.6a114 114 0 0 1-7.2-11l-.4-.8c-.3-.7 0 0-.1-.4a24.6 24.6 0 0 1-1.2-3.3l-.4-1.9c-.2-.6 0 .6 0-.1v-.9a14.6 14.6 0 0 1 0-1.4c0-.4.2-1.8 0-.7a22.5 22.5 0 0 1 .7-3l.2-.5.6-1.3.8-1.2c.1-.2.5-.7 0 0l.6-.7.9-.9.4-.4c-.6.6-.3.2 0 .1l1.1-.7.2-.1.5-.2a4.5 4.5 0 0 1 1.4-.3h-.2.7c.4 0 1.4.2.5 0a12 12 0 0 1 1.5.4l.6.2c-1-.3-.3-.1 0 0l1.1.6c.4.2 1.3 1 .6.4l1.2 1a16.9 16.9 0 0 1 1.2 1.3l.4.5c.6.7-.4-.6.2.2l2 3a59.6 59.6 0 0 1 3 6.3 4 4 0 0 0 3.2 2 4.5 4.5 0 0 0 3.6-1.2l.5-.4.8-.6 2-1.3 4-2.5 4-2.2 2-1 1-.4.7-.2c-.3 0-.3 0 0 0a72.6 72.6 0 0 1 8.7-3c1.5-.5 3-.8 4.6-1.1l2-.4 1.3-.2.6-.1a4.5 4.5 0 0 0 3.4-1.7 4 4 0 0 0 .7-3.7 44.6 44.6 0 0 1-1.8-6.6l-.2-1a28 28 0 0 1-.1-1.8V407l.1-.9c.1-.3.1-.7 0-.2a21.9 21.9 0 0 1 .8-2.7c.2-.6-.4.5 0 0l.2-.5.8-1.4.3-.4c-.4.6-.1.1 0 0l.9-1c.3-.2 1-.8.3-.3a12.1 12.1 0 0 1 1.3-.8l.4-.2a11.6 11.6 0 0 1 1.1-.4H261.1s-.8-.3-.3 0h.4l1 .3.2.1 1 .6c.9.5-.4-.5.1 0l.8.8.7.7.3.4c0-.5-.4-.6 0 0a27.1 27.1 0 0 1 2.3 4.2l.2.5.5 1.2a36.3 36.3 0 0 1 1.6 6.7l.1.7c.4 2.9 2.4 4.8 5.4 4.2a337 337 0 0 0 56.4-17q8.1-3.2 16-6.9a4.3 4.3 0 0 0 2-4.8 27.5 27.5 0 0 1-.7-3.2l-.1-.6c-.1-.6 0 .7 0 0a35.4 35.4 0 0 1 0-4.8v-.7a32.4 32.4 0 0 1 .7-3l.8-2.2s.2-.7 0-.2l.2-.3.6-1.2a20.5 20.5 0 0 1 1.1-2l.6-.9s.4-.5.2-.1.1-.3.2-.3l1.5-1.7.5-.5c-.2.3.2-.1.2-.1a6.4 6.4 0 0 1-.8.2l-.6-.2c-.6 0 .3.3 0 0l.5.6 1.8 2.1 3.7 4.7c4.7 6 9.6 12.7 14.2 19.2a205.2 205.2 0 0 1 12.2 19.2 93.5 93.5 0 0 1 3.6 7.5l.3.6.5 1.4a59.2 59.2 0 0 1 3 10.7l.2 1.2v.5c0 .9.2 1.7.3 2.6a56.5 56.5 0 0 1-.3 10.2c0 .2-.1 1.2 0 .4l-.2 1.2-.5 2.8a66.7 66.7 0 0 1-2.8 9.7l-1 2.4c-.2.5 0 0 0 0l-.2.5-.6 1.3q-1 2.4-2.3 4.6a82.8 82.8 0 0 1-5.5 8.9l-1.5 2-.3.4-1 1.3-3.4 3.8a107.5 107.5 0 0 1-7.8 7.6l-4 3.5-1 .8-.8.6-2.2 1.6a182.2 182.2 0 0 1-18.3 11.7 438.2 438.2 0 0 1-41 20.2 258.3 258.3 0 0 1-21.6 8.3 151.6 151.6 0 0 1-20.2 5l-1.4.2c-.5 0-.2 0 0 0l-1.3.2a64.4 64.4 0 0 1-11.8.2 34.6 34.6 0 0 1-5-.6 52.8 52.8 0 0 1-9.2-2.8c-.8-.3.3.2-.4-.1l-1-.5-2.2-1.1a61.8 61.8 0 0 1-8.3-5.1l-1-.7c.6.4-.1-.1-.3-.3a49.6 49.6 0 0 1-5.6-5 72.2 72.2 0 0 1-3.3-3.5l-1.5-1.7-.7-1-.4-.4s-.5-.7-.3-.3l-.1-.2-.5-.6-.6-1-1.5-2a68.7 68.7 0 0 1-5-8.7l-1-2.2-.2-.5-.5-1.3a70.2 70.2 0 0 1-3-9.7 100 100 0 0 1-1.2-5.7v-.8l-.3-2.7a55.8 55.8 0 0 1 .1-9.8l.1-.6.2-1.1.5-2.5a44 44 0 0 1 1.2-4.6l.8-2.2.2-.6.2-.4.3-.7a44.7 44.7 0 0 1 2.3-4.3 4.3 4.3 0 0 0-7.4-4.3 57.2 57.2 0 0 0-5.4 42.6A77.5 77.5 0 0 0 205 538a62.5 62.5 0 0 0 64.5 15.5 191.8 191.8 0 0 0 23.6-7.7 430.4 430.4 0 0 0 44.9-20.9 169.6 169.6 0 0 0 38.4-26.4 87.8 87.8 0 0 0 23.8-37.7 63.8 63.8 0 0 0 2.7-22 66 66 0 0 0-6.2-23.3 139.3 139.3 0 0 0-11.8-20.4q-7.2-10.6-15-20.8-4.1-5.3-8.3-10.4a10.4 10.4 0 0 0-5-3.9c-2.8-.8-5.3.4-7.3 2.2-5.5 5-8.5 12.4-9 19.7a28 28 0 0 0 1.2 10.3l2-4.9a335.9 335.9 0 0 1-54.2 19.2q-8 2.1-16.2 3.8l5.4 4.1c-1-8-3.4-17.3-10.4-22.3a13.6 13.6 0 0 0-12.5-1.6 17.4 17.4 0 0 0-10 10.8c-2 6.1-.6 13 1.4 18.8l4.2-5.4a78.2 78.2 0 0 0-38.2 16l6.7.8c-4-9.1-11-19.7-22.3-17.9-5 .8-9.2 4.5-11.5 9a22.1 22.1 0 0 0-1.5 16.1c1.7 6.4 5.7 12 9.6 17.2 1.4 1.8 3.8 2.9 5.9 1.5 1.7-1.1 3-4 1.5-5.8z" fill="#6c77c1"/><path d="M611.4 481.3c-1.6-9-9-19.1-17.8-16.7-3.3.9-5.9 3.4-8.1 5.9-7.7 8.7-15 20.1-25.5 22.8a31 31 0 0 1-3.1 13.8c-2.3 4.7-5.8 8.9-6.8 14-1.6 7.5 2.8 15.1 9 19.7l1.5 1 2.2-1.2c6.1-3.2 13-4.3 19.5-7 20-8 32.8-31 29-52.3z" fill="#f96632"/><path d="M615.5 480.2c-1.7-9.4-9.3-21-20.1-20.2-6.3.5-10.7 4.8-14.5 9.3-3.4 4-6.5 8-10 11.8a52.7 52.7 0 0 1-4.6 4.2c-.1.1-.8.6 0 0l-1 .7a26.3 26.3 0 0 1-3.3 2l-.9.5c.7-.3 0 0-.3 0a19.7 19.7 0 0 1-2 .7 4.3 4.3 0 0 0-3.1 4.1l-.1 2.9-.1 1v.3l-.3 1.1a29.6 29.6 0 0 1-1.5 5.2c-1.2 3-3.7 6.4-5.3 9.6a22.8 22.8 0 0 0-3 11.5 23.8 23.8 0 0 0 3.5 11 30.3 30.3 0 0 0 9.5 9.7 4.2 4.2 0 0 0 4.3 0 35.5 35.5 0 0 1 9-4l10-3.1a51.2 51.2 0 0 0 15.7-9.2 54.4 54.4 0 0 0 17.6-29.1 51.3 51.3 0 0 0 .5-20c-.4-2.2-3.2-3.6-5.2-3a4.4 4.4 0 0 0-3 5.3l.1 1c.2 1.1 0-1 0 .2l.2 1.8a45 45 0 0 1-.1 8l-.1.7c-.1 1.2.2-1 0 .2l-.4 2.1a49.3 49.3 0 0 1-2.2 7.7l-.6 1.7-.1.3-.5 1a50.7 50.7 0 0 1-4.8 8.3l-.6.7c-.3.3-.2.3 0 0l-.4.5a49.1 49.1 0 0 1-5.3 5.6l-1.6 1.4-.5.4c-1 .8.7-.5-.3.2a54.2 54.2 0 0 1-6.6 4.2l-1.8.8-.2.1-1.2.5c-7.3 2.8-15.1 4.1-21.8 8.3h4.3l-1.2-.8-.3-.2c.4.3-.1-.1-.1-.2l-2-1.7-1.5-1.7c-.3-.4 0 0 0 0l-.3-.4-.8-1.1a22.4 22.4 0 0 1-1.1-2l-.2-.4-.5-1.3a16.6 16.6 0 0 1-.6-2.2v-.5.2l-.2-1.4v-1.1c0-.4.1-1.1 0-.4a14.8 14.8 0 0 1 .6-2.5l.5-1.4c-.2.7.1-.2.2-.4l1.3-2.4a87.7 87.7 0 0 0 5.2-9.9 35 35 0 0 0 2.5-13l-3.2 4c9.7-2.5 16.4-10.6 22.5-18a346.2 346.2 0 0 1 7.2-8.2l1.2-1c-.6.4.2-.2.3-.3a11 11 0 0 1 1-.6c.2 0 1-.5.3-.2a7 7 0 0 1 .7-.2l.7-.2.4-.1c-.8.2.4 0 .4 0h.7a2.8 2.8 0 0 1 .6 0c-.6-.1-.7-.1-.2 0h.3l1.5.5c-.9-.2-.5-.2-.2-.1l.7.4 1.2.7c.6.4 0 0 0 0l.7.6 1.3 1.3.5.6c.6.7-.3-.5.2.3a30.2 30.2 0 0 1 1.9 3l.5 1 .1.3c.3.5.5 1 .6 1.6a26.2 26.2 0 0 1 1 3.7 4.3 4.3 0 0 0 5.3 3 4.4 4.4 0 0 0 3-5.3z" fill="#f96632"/><path d="M526.6 498.8a8.7 8.7 0 0 0-.2 1.7 3.6 3.6 0 0 0 0 .7 9.5 9.5 0 0 0 .2 1.7l.6 1.3a2.2 2.2 0 0 0 .1.3 6.4 6.4 0 0 0 .5.7 4.5 4.5 0 0 0 .5.6h.1l.9.7.1.1a5 5 0 0 0 1.2.5 5 5 0 0 0 2.5 0 4.3 4.3 0 0 0 1.2-.5 4.8 4.8 0 0 0 2.3-2.8 3.3 3.3 0 0 0 0-1.7 4.4 4.4 0 0 0-3-3.6l-1.2-.1a4.3 4.3 0 0 0-2.1.5l-.9.7a4.2 4.2 0 0 0-1 1.9l.3-1a.5.5 0 0 1 0 .2l.7-1-.1.2.8-.7h-.1l1-.4h-.1 1-.1 1.1-.1l1 .5-.2-.2.8.7a1.7 1.7 0 0 1-.2-.3l.6 1a2.3 2.3 0 0 1-.3-.6l.5 1a2.8 2.8 0 0 1-.2-.8l.1 1.1a3.4 3.4 0 0 1 0-.7l-.1 1.1a4.9 4.9 0 0 1 0-.5 3.2 3.2 0 0 0 .2-1.7 3.3 3.3 0 0 0-.6-1.6 4.8 4.8 0 0 0-2.5-2l-1.1-.2a4.3 4.3 0 0 0-2.2.6l-.9.7a4.3 4.3 0 0 0-1 1.9zm-263.6-52a5.4 5.4 0 0 0-1.3-5.2 5.9 5.9 0 0 0-4.1-1.8 6.5 6.5 0 0 0-6 4 10.4 10.4 0 0 0-.8 3 8.6 8.6 0 0 0 0 2 10 10 0 0 0 .4 2.5 8.9 8.9 0 0 0 1 2.2 8 8 0 0 0 2.5 2.5 7.5 7.5 0 0 0 3.5 1 4.2 4.2 0 0 0 3.8-2.2 6.7 6.7 0 0 0 .8-3.6 6.9 6.9 0 0 0-.7-2.8 7.5 7.5 0 0 0-1.1-1.5 4.3 4.3 0 0 0-3-1.2 4.3 4.3 0 0 0-4.3 4.2l.2 1.2a4.3 4.3 0 0 0 1 1.9h.1l-.6-.8a2.6 2.6 0 0 1 .3.5l-.4-1a4.1 4.1 0 0 1 .1.6l-.1-1.1a3.1 3.1 0 0 1 0 .7l.1-1a2.6 2.6 0 0 1-.1.5l.4-1v.1l3.7-2h-.3 1.1a3 3 0 0 1-.7-.1l1 .4a3.4 3.4 0 0 1-.6-.4l.8.7a3.7 3.7 0 0 1-.6-.6l.7.9a4.8 4.8 0 0 1-.6-1l.4 1a5.9 5.9 0 0 1-.4-1.5l.2 1.1a6.7 6.7 0 0 1 0-1.7l-.2 1.2a5.3 5.3 0 0 1 .4-1.4l-.4 1a4.7 4.7 0 0 1 .5-1l-.7.9a3 3 0 0 1 .5-.5l-.9.7a2.4 2.4 0 0 1 .5-.3l-1 .5a1.8 1.8 0 0 1 .4-.2l-1.1.2h.3l-1.2-.2a2 2 0 0 1 .5.1l-1-.4a2.5 2.5 0 0 1 .4.2l-1-.6a2.1 2.1 0 0 1 .4.3l-.7-1a1.4 1.4 0 0 1 .2.4l-.5-1a.9.9 0 0 1 .1.2l-.1-1a1.3 1.3 0 0 1 0 .1l.1-1.1a1.2 1.2 0 0 1 0 .2 4.3 4.3 0 0 0 3 5.2 4.3 4.3 0 0 0 3.3-.4 4.5 4.5 0 0 0 2-2.5zm35.2-11.3a5.4 5.4 0 0 0-1.3-5.2 6 6 0 0 0-4.1-1.8 6.5 6.5 0 0 0-6 4 10.5 10.5 0 0 0-.8 3 8.7 8.7 0 0 0 0 2 11 11 0 0 0 .4 2.5 9 9 0 0 0 1 2.2 8.1 8.1 0 0 0 2.5 2.4 7.5 7.5 0 0 0 3.6 1 4.2 4.2 0 0 0 3.6-2 6.8 6.8 0 0 0 .9-3.7 7.1 7.1 0 0 0-.8-2.8 7.5 7.5 0 0 0-1-1.5 4.3 4.3 0 0 0-3-1.2 4.4 4.4 0 0 0-3 1.2 4.4 4.4 0 0 0-1.3 3l.1 1.1a4.3 4.3 0 0 0 1.1 2h.1l-.6-.8a3.6 3.6 0 0 1 .3.5l-.5-1a3.3 3.3 0 0 1 .2.6l-.1-1.1a3.1 3.1 0 0 1 0 .7l.1-1.1a3.2 3.2 0 0 1-.2.6l.5-1v.1l3.6-2.1h-.3l1.1.2a2.7 2.7 0 0 1-.7-.2l1 .4a3.7 3.7 0 0 1-.6-.4l.8.7a3.3 3.3 0 0 1-.6-.6l.7.9a4.8 4.8 0 0 1-.6-1l.5 1a6.5 6.5 0 0 1-.5-1.5l.2 1.1a6.8 6.8 0 0 1 0-1.7l-.2 1.2a6.3 6.3 0 0 1 .4-1.4l-.4 1a5.2 5.2 0 0 1 .5-1l-.6.9a3 3 0 0 1 .5-.5l-.9.6a2.8 2.8 0 0 1 .4-.2l-1 .4a1.6 1.6 0 0 1 .5-.1l-1.2.2h.3l-1-.2a2 2 0 0 1 .3.1l-1-.4a3.4 3.4 0 0 1 .4.2l-.9-.7a1.7 1.7 0 0 1 .3.3l-.6-.8a3 3 0 0 1 .1.2l-.4-1a2.5 2.5 0 0 1 0 .3V434a.7.7 0 0 1 0 .2V433a.8.8 0 0 1 0 .2 4.3 4.3 0 0 0 3 5.3 4.3 4.3 0 0 0 3.2-.5 4.6 4.6 0 0 0 2-2.5zm549.6 77.3a14 14 0 0 0-.9 1.9 6.4 6.4 0 0 0-.3 1 9.5 9.5 0 0 0 0 4.3 4.3 4.3 0 0 0 3 3 5.2 5.2 0 0 0 2.6 0 4.2 4.2 0 0 0 1.7-1 4.1 4.1 0 0 0 .6-.4 7.3 7.3 0 0 0 .7-1 5 5 0 0 0 .7-2.5 3.2 3.2 0 0 0-.4-1.6 3.3 3.3 0 0 0-.9-1.4 3 3 0 0 0-1.3-.9 3.2 3.2 0 0 0-1.7-.3l-1.1.1a4.2 4.2 0 0 0-1.9 1.1l-.7.9a4.3 4.3 0 0 0-.6 2.1.4.4 0 0 1 0 .2l.2-1.2a.7.7 0 0 1 0 .2l.4-1a.5.5 0 0 1 0 .1l.6-.8-.1.1.8-.7a.8.8 0 0 1-.2.1l1-.4a.7.7 0 0 1-.2 0l1.2-.1h-.2l1.2.1 3 3v-.2l.1 1.2a6.2 6.2 0 0 1 0-1.6l-.1 1.1a6 6 0 0 1 .4-1.5l-.5 1a6.2 6.2 0 0 1 .4-.7 3.1 3.1 0 0 0 .5-1.6 3.2 3.2 0 0 0 0-1.7 3.3 3.3 0 0 0-.8-1.4 3.2 3.2 0 0 0-1.2-1.1l-1-.5a4.2 4.2 0 0 0-2.3 0l-1 .5a4.3 4.3 0 0 0-1.5 1.5zM302 483.5a36.4 36.4 0 0 0 29 3.7 4.3 4.3 0 0 0-2.2-8.2 31.7 31.7 0 0 1-3.2.8l-.9.2-1.6.1a31.8 31.8 0 0 1-6.1-.1l-.9-.1a29 29 0 0 1-4.4-1.2l-1.5-.5-.2-.1-.7-.3a32.3 32.3 0 0 1-2.9-1.6 4.3 4.3 0 1 0-4.3 7.4zm255.3 36.8a22 22 0 0 0 18.8 2 4.6 4.6 0 0 0 2.5-2 4.4 4.4 0 0 0 .4-3.3c-.7-2-3-3.8-5.3-3a18 18 0 0 1-1.9.6l-1 .2h-.5.7a13.8 13.8 0 0 1-4 0c-1-.1.9.2 0 0l-1-.2a16.5 16.5 0 0 1-1.8-.5c-.3 0-.5-.2-.8-.3l.3.2-.5-.3a19 19 0 0 1-1.7-1 4.3 4.3 0 0 0-5.9 1.6 4.4 4.4 0 0 0 1.6 5.8zm-292.4 208a63.6 63.6 0 0 0-66-13.3l2.2.9a80.6 80.6 0 0 0-60.8 61.5C128.9 834.1 187 886.7 241 857.8a91.3 91.3 0 0 0 45.3-64.3c3.5-23.4-4.1-48.8-21.4-65.1z"/><path d="M268 725.4a69.2 69.2 0 0 0-54-18.5 60.5 60.5 0 0 0-16.2 4c-1.7.7-3.3 2.1-3.2 4.1a4.5 4.5 0 0 0 3.2 4.2l2.2.8v-8.2a82.8 82.8 0 0 0-37 19 85.5 85.5 0 0 0-23.6 34.5 78 78 0 0 0-3.5 40 80.6 80.6 0 0 0 43.5 58A69 69 0 0 0 216 870a77 77 0 0 0 39.1-16.3 96 96 0 0 0 27.6-34.6c6.4-13.6 9.6-28.5 8.4-43.5s-6.4-29.7-15.6-41.7a72.6 72.6 0 0 0-7.5-8.5 4.3 4.3 0 0 0-6 6 64.2 64.2 0 0 1 5.2 5.7l.9 1 .4.5c-.4-.5 0 0 .1.2a69.8 69.8 0 0 1 5.6 8.7l2.3 4.7.6 1.2c.2.4 0 0 0-.1a35.4 35.4 0 0 1 1.2 3.2 75.8 75.8 0 0 1 2.9 10l1 5.2v.5c-.1-.8 0 0 0 0l.1 1.2.3 2.7a79.2 79.2 0 0 1 0 10.7 82.4 82.4 0 0 1-.4 5.2c0-.8 0 .3-.1.6l-.2 1-.5 2.7a82.5 82.5 0 0 1-2.7 10.1l-1.9 4.9-.2.5c0-.2.3-.7 0 0l-.5 1-1.1 2.5a92.9 92.9 0 0 1-5.2 9.4l-3 4.4-1.4 2-.4.4c.1-.1.5-.6 0 .1l-.9 1a94.3 94.3 0 0 1-7.2 8 85.6 85.6 0 0 1-3.8 3.5l-2 1.7-.8.7-.6.5a81.7 81.7 0 0 1-8.7 5.8 73.4 73.4 0 0 1-4.5 2.4l-2.2 1-1 .4c-.6.3.6-.2 0 0l-.6.3a67.1 67.1 0 0 1-9.2 3 65.2 65.2 0 0 1-6.7 1.3c.8-.1.3 0-.1 0l-1.4.1a64.6 64.6 0 0 1-8.8.2 67.3 67.3 0 0 1-4.6-.3l-1-.2c-.8 0-1.5-.2-2.3-.4a63.8 63.8 0 0 1-8.3-2.1l-4.1-1.5-.5-.2h.3l-1-.3-2-1a70.8 70.8 0 0 1-7.4-4.2l-3.7-2.5-.7-.6c-.6-.5.5.5-.3-.2a76 76 0 0 1-1.7-1.4 73.2 73.2 0 0 1-6.3-6l-3-3.1-1.3-1.8-.6-.7-.4-.5a77.1 77.1 0 0 1-8.8-15.2l-.2-.5.1.3-.4-1a55.4 55.4 0 0 1-2.2-6.4 74.6 74.6 0 0 1-2.1-8.7 29.8 29.8 0 0 1-.3-2.4l-.2-1.3-.3-4.5a73.2 73.2 0 0 1 .2-9.3l.3-2.4v-.3a77.3 77.3 0 0 1 1.1-6.1 75.2 75.2 0 0 1 2.8-9.3l.8-2.1.3-.7v.2l.5-1.3 2.1-4.4a80.4 80.4 0 0 1 5.1-8.3l1.5-2 .6-.8.5-.6 3.1-3.7a84.3 84.3 0 0 1 7-6.8l1.7-1.5 1-.8.4-.4.5-.3.5-.4 1-.8 2.1-1.4a78.6 78.6 0 0 1 8.3-5l4.6-2.1a2.9 2.9 0 0 1 .3-.1l1.2-.5a67 67 0 0 1 2.3-.9 74.8 74.8 0 0 1 9.2-2.6 4.3 4.3 0 0 0 3.1-4 4.5 4.5 0 0 0-3.1-4.2l-2.2-.9v8.3a59.1 59.1 0 0 1 13-3.6c1.2-.2-.6 0 .2 0h.7l1.7-.2a54 54 0 0 1 3.3-.2 63.1 63.1 0 0 1 6.8.2l1.7.1.9.1c.2 0 .8.1 0 0l3.3.6a65.3 65.3 0 0 1 6.6 1.6l3.2 1 1.5.6.7.3.3.1a66.4 66.4 0 0 1 6.1 3 63.9 63.9 0 0 1 6.4 4l.8.6a7.7 7.7 0 0 0 .6.4l.3.3.9.7 3 2.6a4.3 4.3 0 0 0 6-6z"/><path d="M230.8 767.8c-5.9-5.7-15.1-7.8-22.7-4.6l.8.2a27.8 27.8 0 0 0-21 21.2c-3.9 19.5 16.1 37.6 34.7 27.7a31.4 31.4 0 0 0 15.6-22.1 26 26 0 0 0-7.4-22.5z" fill="#ff983b"/><path d="M233.9 764.7c-7-6.5-17.8-9.3-27-5.7a4.4 4.4 0 0 0-3 4.1 4.5 4.5 0 0 0 3 4.2l.8.3v-8.3a32.2 32.2 0 0 0-22.8 20.4 29.8 29.8 0 0 0 4.3 27.8 28.2 28.2 0 0 0 25 11.7c11-1.2 20.5-9 25.2-18.9a32.7 32.7 0 0 0 2.9-19.1 29 29 0 0 0-8.4-16.5 4.3 4.3 0 1 0-6 6l1.1 1.3.6.7c.2.3.5.6 0 0a23 23 0 0 1 2 3l.8 1.5c0 .2.3.8 0 0l.2.7a26.8 26.8 0 0 1 1 3.5l.3 1.7.1.8a26 26 0 0 1 0 3.8l-.1 1.6c0-.9 0-.2 0 0l-.2.9a28 28 0 0 1-1 3.5c0 .4-.3 1-.5 1.4-.4 1.1.3-.4 0 .2l-.5.9a31.2 31.2 0 0 1-1.7 3l-1 1.5-.5.7c0-.1.5-.5 0 0a33.5 33.5 0 0 1-2.4 2.7l-2.6 2.3c.6-.5.1 0 0 0l-.7.5-1.6 1-1.5.8c-.3.2-1.5.7-.7.4a24.4 24.4 0 0 1-3.3 1l-1.3.3-.7.1c1-.1.3 0 0 0a24.5 24.5 0 0 1-3 .1h-1.4c-1-.2.7 0 0 0l-.6-.2a22.6 22.6 0 0 1-2.9-.8l-1.3-.4c-.4-.1.6.3.1 0l-.7-.3a24 24 0 0 1-2.5-1.4l-1.1-.8c-.2-.2-.8-.6 0 0l-.5-.4a27.7 27.7 0 0 1-2.1-2l-1.1-1.2-.3-.4-1.7-2.6-1.3-2.4s.2.6 0 0l-.2-.6-.6-1.7a25.7 25.7 0 0 1-.6-2.8l-.1-.6c-.2-.7 0 1 0 0l-.2-1.7a25.7 25.7 0 0 1 .1-3l.1-.8c0 .2-.2 1 0 .1l.3-1.7a33.6 33.6 0 0 1 1-3.4c.4-1.1-.2.5 0-.2l.4-.8 1-1.7.9-1.5.5-.8.3-.4.3-.4a25.2 25.2 0 0 1 2-2.1l1.3-1.2.5-.5c.1 0 1-.8.3-.2a35 35 0 0 1 3-2l1.6-.8s1-.5.4-.3l.5-.1a25.8 25.8 0 0 1 3.8-1.2 4.3 4.3 0 0 0 3.1-4 4.5 4.5 0 0 0-3.1-4.2l-.8-.3v8.2a20.3 20.3 0 0 1 2.9-.9l1.5-.3c-1 .2 0 0 .3 0a21.5 21.5 0 0 1 3 0c.2 0 1.8.2.7 0l1.3.3a21.5 21.5 0 0 1 2.8.8c.1 0 1.6.6.7.2l1.2.6a21.3 21.3 0 0 1 2.4 1.4l.6.5q-.5-.5 0 0l1.2 1a4.3 4.3 0 0 0 6-6z" fill="#ff983b"/><path d="M467.2 728.4a63.6 63.6 0 0 0-66-13.4l2.1.9a80.6 80.6 0 0 0-60.8 61.5c-11.3 56.7 46.8 109.3 100.7 80.4a91.3 91.3 0 0 0 45.3-64.3c3.5-23.5-4-48.8-21.3-65.1z"/><path d="M470.2 725.4a69.2 69.2 0 0 0-54-18.5 60.5 60.5 0 0 0-16.2 4c-1.7.7-3.3 2.1-3.2 4.1a4.5 4.5 0 0 0 3.2 4.2l2.2.8v-8.2a82.9 82.9 0 0 0-37 19 85.6 85.6 0 0 0-23.7 34.5 78 78 0 0 0-3.5 40 80.6 80.6 0 0 0 43.5 58 69 69 0 0 0 36.7 6.6 77 77 0 0 0 39.2-16.3 96 96 0 0 0 27.5-34.6c6.4-13.6 9.7-28.5 8.4-43.5s-6.4-29.7-15.6-41.7a72.6 72.6 0 0 0-7.5-8.5 4.3 4.3 0 0 0-6 6 64.2 64.2 0 0 1 5.3 5.7l.8 1 .4.5.2.2a71 71 0 0 1 5.6 8.7l2.3 4.7.5 1.2c.1.4 0 0 0-.1l.2.5 1 2.7a77.4 77.4 0 0 1 3 10l.9 5.2v.5c0-.8 0 0 0 0l.2 1.2.2 2.7a79.2 79.2 0 0 1 .1 10.7 82.4 82.4 0 0 1-.5 5.2v.6l-.2 1-.5 2.7a82.5 82.5 0 0 1-2.8 10.1l-1.8 4.9-.2.5c0-.2.3-.7 0 0l-.5 1-1.1 2.5a97 97 0 0 1-5.3 9.4l-2.9 4.4-1.5 2-.3.4c0-.1.4-.6-.1.1l-.8 1a94.3 94.3 0 0 1-7.2 8 91.4 91.4 0 0 1-3.9 3.5l-1.9 1.7-.9.7-.6.5a81.7 81.7 0 0 1-8.7 5.8 73.4 73.4 0 0 1-4.5 2.4l-2.1 1-1 .4c-.6.3.6-.2 0 0l-.7.3a67.6 67.6 0 0 1-9.2 3 65.2 65.2 0 0 1-6.6 1.3c.8-.1.2 0-.2 0l-1.3.1a64.6 64.6 0 0 1-8.8.2 67.3 67.3 0 0 1-4.6-.3l-1.1-.2c-.8 0-1.5-.2-2.2-.4a63.8 63.8 0 0 1-8.3-2.1l-4.2-1.5-.4-.2h.3l-1-.3-2-1a70.8 70.8 0 0 1-7.4-4.2l-3.7-2.5-.8-.6-.2-.2a76 76 0 0 1-1.8-1.4 73.2 73.2 0 0 1-6.3-6l-2.9-3.1-1.4-1.8-.6-.7c.6.7 0-.2-.3-.5a76.3 76.3 0 0 1-4.8-7.2 78.8 78.8 0 0 1-4-8l-.3-.5s.3.7.2.3l-.5-1a55.4 55.4 0 0 1-2.2-6.4 74.6 74.6 0 0 1-2-9 29.8 29.8 0 0 1-.3-1.7v-.6c-.2-.4-.2-.9-.2-1.3l-.4-4.5a73.2 73.2 0 0 1 .3-9.3l.2-2.4c0-.4.2-1 0-.3l.2-1.4 1-4.7a73.5 73.5 0 0 1 2.7-9.3l.9-2.2.2-.6v.2l.5-1.3 2.2-4.4a80.4 80.4 0 0 1 5-8.3l1.5-2 .7-.8.4-.6c1-1.2 2-2.5 3.2-3.7a84.3 84.3 0 0 1 6.9-6.8l1.8-1.5 1-.8.4-.4.4-.3.6-.4 1-.8 2-1.4a79.5 79.5 0 0 1 8.4-5l4.6-2.1a2.9 2.9 0 0 1 .3-.1l1.1-.5a67 67 0 0 1 2.4-.9 74.8 74.8 0 0 1 9.2-2.6 4.3 4.3 0 0 0 3.1-4 4.5 4.5 0 0 0-3.1-4.2l-2.2-.9v8.3a59.1 59.1 0 0 1 13-3.6c1.2-.2-.6 0 .1 0h.8l1.6-.2a54 54 0 0 1 3.4-.2 63.1 63.1 0 0 1 6.7.1l1.7.2 1 .1c.1 0 .8.1 0 0l3.3.6a64.5 64.5 0 0 1 6.6 1.6l3.2 1 1.4.6.7.3c.3 0 1.1.4.4.1a66.2 66.2 0 0 1 6.1 3 65.2 65.2 0 0 1 6.4 4l.7.6a7.7 7.7 0 0 0 .7.4l.3.3.8.7 3 2.6a4.3 4.3 0 0 0 6-6z"/><path d="M433 767.8c-5.8-5.7-15-7.8-22.7-4.6l.8.2a27.8 27.8 0 0 0-21 21.2c-3.8 19.5 16.2 37.6 34.7 27.7a31.4 31.4 0 0 0 15.6-22.1 26 26 0 0 0-7.3-22.5z" fill="#ff983b"/><path d="M436.1 764.7c-7-6.5-17.8-9.3-26.9-5.7a4.4 4.4 0 0 0-3.1 4.1 4.5 4.5 0 0 0 3.1 4.2l.8.3v-8.3a32.3 32.3 0 0 0-22.9 20.4 29.9 29.9 0 0 0 4.3 27.8 28.2 28.2 0 0 0 25.1 11.7c11-1.2 20.5-9 25.2-18.9a32.7 32.7 0 0 0 2.9-19.1 29 29 0 0 0-8.5-16.5 4.3 4.3 0 0 0-6 6l1.2 1.3.6.7c.2.3.5.6 0 0a23 23 0 0 1 2 3l.7 1.5c0 .2.3.8 0 0l.3.7a28.4 28.4 0 0 1 1 3.5l.3 1.7c-.2-.9 0 .5 0 .8a27.3 27.3 0 0 1 0 3.8v1.6c0-.9 0-.2 0 0l-.2.9a29.8 29.8 0 0 1-1 3.5l-.5 1.4c-.4 1.1.2-.4 0 .2l-.5.9a31.2 31.2 0 0 1-1.7 3l-1 1.5-.6.7c.1-.1.5-.5 0 0a33.5 33.5 0 0 1-2.3 2.7l-2.6 2.3c.6-.5 0 0 0 0l-.8.5a26.7 26.7 0 0 1-3.1 1.8c-.3.2-1.5.7-.7.4a24.4 24.4 0 0 1-3.3 1l-1.3.3-.7.1c1-.1.3 0 0 0a24.5 24.5 0 0 1-3 .1h-1.3c-1-.2.6 0 0 0l-.7-.2a22.6 22.6 0 0 1-2.9-.8l-1.3-.4c-.4-.1.7.3.1 0l-.7-.3a24 24 0 0 1-2.5-1.4l-1.1-.8c-.2-.2-.8-.6 0 0l-.5-.4a27.7 27.7 0 0 1-2.1-2l-1-1.2c-.3-.2-1-1.2-.4-.4l-1.7-2.6-1.3-2.4s.2.6 0 0l-.2-.6-.6-1.7a23.5 23.5 0 0 1-.6-2.8l-.1-.6c-.2-.7 0 1 0 0l-.2-1.7a25.7 25.7 0 0 1 .1-3l.1-.8c0 .2-.2 1 0 .1l.3-1.7a31.2 31.2 0 0 1 1-3.4c.4-1.1-.2.5 0-.2l.4-.8 1-1.7.9-1.5.5-.8.3-.4.3-.4a25.2 25.2 0 0 1 2-2.1l1.3-1.2.5-.5c.1 0 1-.8.3-.2a35 35 0 0 1 3-2l1.6-.8s1-.5.4-.3l.5-.1a25.8 25.8 0 0 1 3.8-1.2 4.3 4.3 0 0 0 3.1-4 4.5 4.5 0 0 0-3.1-4.2l-.8-.3v8.2a20.3 20.3 0 0 1 2.9-.9l1.5-.3c-1 .2 0 0 .3 0a21.5 21.5 0 0 1 3 0c.2 0 1.8.2.7 0l1.3.3a21.5 21.5 0 0 1 2.8.8c.1 0 1.6.6.7.2l1.2.6a21.3 21.3 0 0 1 2.4 1.4l.7.5q-.6-.5 0 0l1 1a4.3 4.3 0 1 0 6.1-6z" fill="#ff983b"/><path d="M799 728.4a63.6 63.6 0 0 0-66.1-13.4l2.2.9a80.6 80.6 0 0 0-60.8 61.5C663 834.1 721 886.7 775 857.8a91.3 91.3 0 0 0 45.3-64.3c3.5-23.4-4.1-48.8-21.4-65.1z"/><path d="M802 725.4a69.2 69.2 0 0 0-54-18.5 60.4 60.4 0 0 0-16.2 4c-1.7.7-3.3 2.1-3.2 4.1a4.5 4.5 0 0 0 3.2 4.2l2.2.8v-8.2a82.9 82.9 0 0 0-37.1 19 85.6 85.6 0 0 0-23.6 34.5 78 78 0 0 0-3.5 40 80.6 80.6 0 0 0 43.5 58A69 69 0 0 0 750 870a77 77 0 0 0 39.1-16.3 96 96 0 0 0 27.6-34.6c6.4-13.6 9.6-28.5 8.4-43.5s-6.4-29.7-15.6-41.7a72.6 72.6 0 0 0-7.5-8.5 4.3 4.3 0 1 0-6 6 64.2 64.2 0 0 1 5.2 5.7l.8 1 .4.5.2.2a71 71 0 0 1 5.6 8.7l2.3 4.7.6 1.2c.2.4 0 0 0-.1l.2.5 1 2.7a75.8 75.8 0 0 1 2.9 10 123.3 123.3 0 0 1 1 5.7c0-.8 0 0 0 0l.2 1.2.2 2.7a77.5 77.5 0 0 1 .1 10.7c0 1.7-.2 3.4-.5 5.2v.6l-.2 1-.5 2.7a82.5 82.5 0 0 1-2.8 10.1c-.5 1.6-1.1 3.3-1.8 4.9l-.2.5c0-.2.3-.7 0 0l-.5 1-1.1 2.5a97 97 0 0 1-5.2 9.4l-3 4.4-1.5 2-.3.4c0-.1.4-.6 0 .1l-1 1a92.8 92.8 0 0 1-7.1 8 85.3 85.3 0 0 1-3.8 3.5l-2 1.7-.8.7-.7.5a80.6 80.6 0 0 1-8.7 5.8 92 92 0 0 1-6.6 3.4l-1 .4c-.6.3.6-.2 0 0l-.7.3a67.6 67.6 0 0 1-9.1 3 65.2 65.2 0 0 1-6.7 1.3c.8-.1.3 0-.2 0l-1.3.1a64.6 64.6 0 0 1-8.8.2 67.3 67.3 0 0 1-4.6-.3l-1.1-.2c-.7 0-1.5-.2-2.2-.4a63.9 63.9 0 0 1-8.3-2.1l-4.1-1.5-.5-.2h.3l-1-.3-2-1a70.6 70.6 0 0 1-7.4-4.2l-3.7-2.5-.7-.6c-.7-.5.5.5-.3-.2a76 76 0 0 1-1.7-1.4 73.2 73.2 0 0 1-6.3-6l-3-3.1-1.4-1.8-.6-.7c.6.7 0-.2-.3-.5a77.1 77.1 0 0 1-8.8-15.2l-.2-.5s.3.7 0 .3-.2-.7-.4-1a78.5 78.5 0 0 1-2.2-6.4 74.6 74.6 0 0 1-2.1-8.7 29.8 29.8 0 0 1-.3-1.8v-.6l-.2-1.3-.3-4.5a73.2 73.2 0 0 1 .2-9.3l.3-2.4v-.3a70.4 70.4 0 0 1 1.1-6.1 73.5 73.5 0 0 1 2.8-9.3 81.7 81.7 0 0 1 1-2.8s-.2.6 0 .2l.6-1.3 2.1-4.4a80.4 80.4 0 0 1 5.1-8.3l1.5-2 .6-.8.5-.6 3.1-3.7a84.2 84.2 0 0 1 7-6.8l1.7-1.5 1-.8.5-.4.4-.3.5-.4 1-.8 2.1-1.4a80.7 80.7 0 0 1 8.4-5l4.5-2.1a2.7 2.7 0 0 1 .3-.1l1.2-.5a67 67 0 0 1 2.3-.9 74.8 74.8 0 0 1 9.2-2.6 4.3 4.3 0 0 0 3.1-4.1 4.5 4.5 0 0 0-3.1-4.1l-2.2-1v8.3a59.1 59.1 0 0 1 13-3.5c1.2-.2-.6 0 .2 0l.7-.1 1.7-.2a54 54 0 0 1 3.3-.2 63.1 63.1 0 0 1 6.8.2l1.7.2h1s.7.2 0 0l3.2.6a64.5 64.5 0 0 1 6.6 1.7l3.3 1 1.4.6.7.3c.2 0 1 .4.3 0a66.2 66.2 0 0 1 6.1 3 65.2 65.2 0 0 1 6.4 4l.8.6.6.5.3.3.9.7 3 2.6a4.3 4.3 0 0 0 6-6z"/><g fill="#ff983b"><path d="M764.9 767.8c-6-5.7-15.2-7.8-22.8-4.6l.8.2a27.7 27.7 0 0 0-21 21.2c-3.9 19.5 16.1 37.6 34.7 27.7a31.4 31.4 0 0 0 15.6-22.1 26 26 0 0 0-7.3-22.5z"/><path d="M767.9 764.7c-7-6.5-17.8-9.3-27-5.7a4.4 4.4 0 0 0-3 4.1 4.5 4.5 0 0 0 3 4.2l.8.3v-8.3a32.3 32.3 0 0 0-22.8 20.4 29.9 29.9 0 0 0 4.3 27.8 28.2 28.2 0 0 0 25.1 11.7c11-1.2 20.4-9 25.1-18.9a32.8 32.8 0 0 0 3-19.1 29 29 0 0 0-8.5-16.5 4.3 4.3 0 0 0-6 6l1.2 1.3.6.7c.2.3.5.6 0 0a25.3 25.3 0 0 1 2 3l.7 1.5c0 .2.3.8 0 0l.3.7a28.4 28.4 0 0 1 1 3.5l.3 1.7c-.1-.9 0 .5 0 .8a27.3 27.3 0 0 1 0 3.8v1.6c0-.9 0-.2 0 0l-.2.9a29.8 29.8 0 0 1-1 3.5l-.5 1.4c-.4 1.1.2-.4 0 .2l-.5.9a31.2 31.2 0 0 1-1.7 3l-1 1.5-.5.7c0-.1.4-.5 0 0a31.7 31.7 0 0 1-2.4 2.7l-2.6 2.3c.6-.5.1 0 0 0l-.7.5a26.7 26.7 0 0 1-3.1 1.8c-.3.2-1.5.7-.6.4a24.4 24.4 0 0 1-3.4 1l-1.3.3-.7.1c1-.1.3 0 0 0a24.5 24.5 0 0 1-3 .1h-1.3c-1-.2.6 0 0 0l-.7-.2a22.6 22.6 0 0 1-2.9-.8l-1.3-.4c-.4-.1.7.3.1 0l-.7-.3a23 23 0 0 1-2.4-1.4l-1.2-.8c-.2-.2-.8-.6 0 0l-.5-.4a24.4 24.4 0 0 1-2.1-2l-1-1.2c-.3-.2-1-1.2-.4-.4l-1.7-2.6-1.3-2.4s.2.6 0 0l-.2-.6-.6-1.7a23.5 23.5 0 0 1-.6-2.8l-.1-.6c-.2-.7 0 1 0 0l-.1-1.7a25.7 25.7 0 0 1 0-3l.1-.8c0 .2-.1 1 0 .1l.4-1.7a33.5 33.5 0 0 1 1-3.4c.3-1.1-.3.5 0-.2l.3-.8 1-1.7.9-1.5.5-.8.3-.4.3-.4a27.5 27.5 0 0 1 3.3-3.3l.5-.5c.1 0 1-.8.3-.2a35 35 0 0 1 3-2l1.5-.8s1.1-.5.5-.3l.5-.1a25.8 25.8 0 0 1 3.8-1.2 4.3 4.3 0 0 0 3.1-4 4.5 4.5 0 0 0-3.1-4.2l-.8-.3v8.2a20.3 20.3 0 0 1 2.9-.9l1.4-.3c-1 .2.2 0 .4 0a21.4 21.4 0 0 1 3 0c.2 0 1.8.2.7 0l1.3.3a21.5 21.5 0 0 1 2.7.8c.2 0 1.6.6.8.2l1.2.6a21.3 21.3 0 0 1 2.4 1.4l.6.5q-.5-.5 0 0l1.2 1a4.3 4.3 0 0 0 6-6zM904.5 743l18.6-54.3-.8-2.3a45 45 0 0 0-29 9.7 33.1 33.1 0 0 0-11 14.8c-2 5.9-1.8 12.7 1.4 18 2.3 3.9 6 6.8 9.8 9.1a51.6 51.6 0 0 0 11 5z"/><path d="m908.6 744.1 6.8-19.8 10.2-29.8 1.4-4 .2-.6c.5-1.7-.3-3.1-.8-4.6a4.4 4.4 0 0 0-4.1-3.2 48.9 48.9 0 0 0-36.4 15.1 33 33 0 0 0-9 18.6 24.6 24.6 0 0 0 6.2 19.4c5.3 5.8 13 9.5 20.3 11.9a4.3 4.3 0 0 0 5.3-3 4.4 4.4 0 0 0-3-5.3c-1.5-.4-2.9-1-4.3-1.5l-.6-.3-.8-.3-2.4-1.2a52.7 52.7 0 0 1-3.7-2.3 50.7 50.7 0 0 1-3-2.3 22 22 0 0 1-2.1-2.2c-.3-.3-.7-.8-.3-.2a16.2 16.2 0 0 1-1-1.7c-.3-.3-.4-.6-.6-1l-.3-.6a21.7 21.7 0 0 1-1.1-4 17 17 0 0 1-.1-1.3 20.9 20.9 0 0 1 0-2.5v-.9s.2-1.4 0-.5a22.8 22.8 0 0 1 1-4l.3-.7c.2-.5.2-.6 0-.2l.3-.5a30.4 30.4 0 0 1 1.8-3.4l1.1-1.7.3-.4.8-1a37.1 37.1 0 0 1 2.8-2.8 39.5 39.5 0 0 1 2.5-2.2l.5-.3a48.8 48.8 0 0 1 7.6-4.5l.7-.4h.2l.8-.3 2.1-.8a46.6 46.6 0 0 1 4.7-1.3l2.5-.5H916.3l.9-.2a47.1 47.1 0 0 1 5-.1l-4.2-3.2.9 2.3v-2.2l-6.2 18.4-10 29.1-2.3 6.8a4.3 4.3 0 0 0 3 5.2 4.4 4.4 0 0 0 5.3-3z"/></g><path d="m499.2 504.9.2-.5.2-.5.9-1.6 1-1.5c0-.2.2-.4.4-.6s.8-1 .2-.3a43.8 43.8 0 0 1 4.9-5.1l2.6-2.2.4-.4.5-.3 1.5-1 1.6-1 .6-.3c1-.5-.8.3.3-.1l1.6-.5.8-.2c-.7.2 0 0 .3 0a4.3 4.3 0 0 0 4.3-4.3c0-2.2-1.9-4.4-4.3-4.3-6.3.5-11.4 4.2-16 8.4a35.6 35.6 0 0 0-10.2 14 4.3 4.3 0 0 0 3 5.2 4.4 4.4 0 0 0 5.3-3zM535 486v-.3a3.2 3.2 0 0 0-.4-1.7 3 3 0 0 0-.9-1.4 4.8 4.8 0 0 0-3-1.2l-1 .1a4.3 4.3 0 0 0-2 1.1l-.6.9a4.2 4.2 0 0 0-.6 2.2v.3a3.2 3.2 0 0 0 .3 1.7 3.8 3.8 0 0 0 2.3 2.2 3.2 3.2 0 0 0 1.6.4l1.2-.2a4.3 4.3 0 0 0 1.9-1l.6-1a4.2 4.2 0 0 0 .6-2.1zm271.8-18.4a3.5 3.5 0 0 1 .5 0H806a4.9 4.9 0 0 1 1.2 0l-1.1-.1a5.4 5.4 0 0 1 1.3.4l-1-.5a5.3 5.3 0 0 1 1.2.7l-.9-.7a5.7 5.7 0 0 1 1 1l-.7-.9a5.2 5.2 0 0 1 .6 1l-.4-1v.1a3.2 3.2 0 0 0 .7 1.4 3.3 3.3 0 0 0 1.2 1.1 3.1 3.1 0 0 0 1.6.5 3.2 3.2 0 0 0 1.7 0 4.3 4.3 0 0 0 2.6-2l.4-1a4.4 4.4 0 0 0 0-2.3 11 11 0 0 0-.9-1.8 11.5 11.5 0 0 0-1.2-1.6 12.5 12.5 0 0 0-1.4-1.2 6.9 6.9 0 0 0-.8-.5 9.2 9.2 0 0 0-2.7-1 10.5 10.5 0 0 0-2-.2 11.4 11.4 0 0 0-2 .3 3.3 3.3 0 0 0-1.5.7 3.2 3.2 0 0 0-1 1.2 3.3 3.3 0 0 0-.6 1.6 3.2 3.2 0 0 0 0 1.7 4.3 4.3 0 0 0 2 2.6 4.7 4.7 0 0 0 3.4.4zm13.3-12.7h.7-1.1a10.8 10.8 0 0 1 2.9.7l-1-.4a11.8 11.8 0 0 1 2.4 1.4l-.9-.6a11.8 11.8 0 0 1 1.9 1.8 4.3 4.3 0 0 0 3 1.3 4.3 4.3 0 0 0 3-1.3 4.3 4.3 0 0 0 1.2-3l-.1-1.1a4.2 4.2 0 0 0-1.1-1.9 11.3 11.3 0 0 0-1.7-1.7 15.1 15.1 0 0 0-9.2-3.7 4.3 4.3 0 0 0-3 1.3 4.4 4.4 0 0 0-1.3 3 4.3 4.3 0 0 0 1.3 3 4.7 4.7 0 0 0 3 1.2zm20-3.2a6.6 6.6 0 0 1 .7.8l-.7-1a7.5 7.5 0 0 1 1 1.7l-.4-1a8 8 0 0 1 .4 1.8l-.2-1.1a7.3 7.3 0 0 1 .1 1.3 3.2 3.2 0 0 0 .4 1.6 3.1 3.1 0 0 0 .9 1.4 3.3 3.3 0 0 0 1.3.9 3.2 3.2 0 0 0 1.7.3 4.3 4.3 0 0 0 3-1.2l.6-.9a4.3 4.3 0 0 0 .6-2.1 12.3 12.3 0 0 0-.2-2.7 6.6 6.6 0 0 0-.5-1.5 11.3 11.3 0 0 0-2.8-4.4 4.5 4.5 0 0 0-3-1.2 3.2 3.2 0 0 0-1.6.3 3.2 3.2 0 0 0-1.4 1 4.4 4.4 0 0 0-1.2 3 4.4 4.4 0 0 0 1.2 3zm30 77.6 3.2 3.2a4.1 4.1 0 0 0 4.6.9 3.2 3.2 0 0 0 1.4-.9l.7-.9a4.3 4.3 0 0 0 .6-2.1l-.2-1.1a4.2 4.2 0 0 0-1-2l-3.3-3.1a4.4 4.4 0 0 0-6 0l-.7.8a4.2 4.2 0 0 0-.6 2.2l.2 1.1a4.2 4.2 0 0 0 1.1 2zm28 155.3a37.2 37.2 0 0 0-22.8 24.7 32.3 32.3 0 0 0 8.9 31.4 30.6 30.6 0 0 0 17.5 8.4c2.2.3 4.4-2.1 4.3-4.3-.1-2.5-1.9-4-4.3-4.2a20 20 0 0 1-4.2-1.1l-.8-.4-.2-.1a27.4 27.4 0 0 1-3-1.7l-1.3-.9c-.4-.3.7.6-.1 0l-.8-.8a27.8 27.8 0 0 1-2.4-2.3 22 22 0 0 1-1-1.2c-.8-.9.4.7-.2-.3l-.6-.8a28.8 28.8 0 0 1-1.7-2.7l-.8-1.6c-.5-1 .2.5 0-.1l-.4-1.2a29.4 29.4 0 0 1-1-3c0-.6-.2-1.1-.3-1.7-.1-.8 0 0 0 0v-1.2a25.9 25.9 0 0 1 0-3.4v-1.8.1l.3-1a30.2 30.2 0 0 1 1-3.5l.5-1.7c0 .1-.3.8 0 0l.5-1a34.7 34.7 0 0 1 1.8-3.2l.9-1.3.5-.8c-.5.8.2-.1.2-.2a36 36 0 0 1 2.7-3l1.7-1.4.5-.5.3-.2a40.8 40.8 0 0 1 5.3-3.2l.7-.3.6-.2c2.1-.8 3.8-3 3-5.3-.6-2-3-3.8-5.2-3z" fill="#ffd3b3"/><g fill="#9fbdff"><path d="M198 425.3a8 8 0 0 1 1.2-.4 3 3 0 0 0 .6-.1h-.4 1.3-.4a2.6 2.6 0 0 0 .6.1 10.1 10.1 0 0 1 1 .3c.2 0 1 .4.3 0v.1a10.1 10.1 0 0 1 1 .6l.6.3-.1-.1 1.8 1.7.8.9.4.5c-.1-.1-.5-.6-.1-.2l2.8 4.4a4.3 4.3 0 1 0 7.4-4.3c-2.3-3.8-4.7-7.4-8.3-10s-8.6-3.7-12.7-2a4.7 4.7 0 0 0-2.6 2 4.4 4.4 0 0 0-.4 3.2c.7 2 3 3.9 5.3 3zm57.5-22.5a34 34 0 0 1 2.8-1.5c.7-.4-.5.2 0 0l.6-.3a8.4 8.4 0 0 0 1.4-.3h-.5 1c.8 0 0 .2-.2 0a4.6 4.6 0 0 0 .7.2c.7.2-.6-.3-.2 0l.6.2c.3.2.3.2 0 0s-.3-.2 0 0l.5.5c.3.4-.6-.9-.2 0l.4.5a22.4 22.4 0 0 1 1.6 3l-.2-.4.3.7a28.2 28.2 0 0 1 .9 2.8c0 .5.2 1 .3 1.4l.1.9c.1.8-.1-1 0 0a4.6 4.6 0 0 0 1.3 3 4.4 4.4 0 0 0 3 1.2c2 0 4.5-1.9 4.2-4.3a30.5 30.5 0 0 0-1.8-7.7 22.3 22.3 0 0 0-4.3-7.5 10.2 10.2 0 0 0-8.2-3 20 20 0 0 0-8.4 3.3 4.3 4.3 0 0 0 4.3 7.3zm43.6 10.4a4.3 4.3 0 1 0-4.3-4.3 4.3 4.3 0 0 0 4.3 4.3zm16.2-5.3a4.3 4.3 0 1 0-4.2-4.3 4.3 4.3 0 0 0 4.2 4.3zm16.7-4.2a4.3 4.3 0 1 0-4.3-4.3 4.3 4.3 0 0 0 4.3 4.3zm52.8-.7-3.6-5.5q-10.9-16.1-23.2-31.1c-1-1.2-2.2-2.5-3.8-2.3a4.2 4.2 0 0 0-2.2 1.2 25.3 25.3 0 0 0-6.5 25.8l-2.4 1 1 1.4a36.5 36.5 0 0 0 39.5 10z"/><path d="M388.5 400.9c-6.8-10.7-14.4-21-22.2-31-1.9-2.4-3.7-4.9-5.7-7.1-2.5-2.8-6.4-4-9.7-2a21.8 21.8 0 0 0-6 6.3 29.8 29.8 0 0 0-3.5 25l2-4.8-2.4 1.1a4 4 0 0 0-2 3.1 4.5 4.5 0 0 0 1.1 3.6 40.4 40.4 0 0 0 34.7 14.6 37.4 37.4 0 0 0 11.2-2.6c2-.9 3.8-2.9 3-5.3-.6-2-3-3.9-5.3-3a33 33 0 0 1-5.7 1.9 35.1 35.1 0 0 1-3.2.5h-1.4a36.5 36.5 0 0 1-5.4 0l-.7-.1-1-.2a31 31 0 0 1-7.4-2.1 36.7 36.7 0 0 1-4.8-2.5l-2.4-1.6-.5-.5-.8-.7a33.4 33.4 0 0 1-4.2-4.4l-.8 6.7 2.4-1.1a4.3 4.3 0 0 0 2-4.8 23.3 23.3 0 0 1-.8-3.1l-.1-.7c-.1-.7 0 1 0-.2l-.1-1.7a23.8 23.8 0 0 1 .1-3.1v-.8c0 1 0 .2 0 0l.5-1.8a27 27 0 0 1 .9-3l.1-.3.2-.4.8-1.6a27.3 27.3 0 0 1 1.8-2.7l.5-.6 1.2-1.3.6-.5c-.3.2-.5 0 0 0a3.1 3.1 0 0 1-1.7 0c.6.1.3.1 0 0a8.1 8.1 0 0 1 .7.6l1.2 1.4 5.4 6.7a443 443 0 0 1 20.2 28.4 4.3 4.3 0 0 0 7.3-4.4z"/></g><path d="M140.7 625.2h265.7a4.3 4.3 0 0 0 0-8.5H140.7a4.3 4.3 0 0 0 0 8.5zm307.4 0h239.8a4.3 4.3 0 0 0 0-8.5H448.1a4.3 4.3 0 1 0 0 8.5zm289.8 0H890a4.3 4.3 0 0 0 0-8.5H737.9a4.3 4.3 0 0 0 0 8.5zm-576.5 31a180.5 180.5 0 0 0 25.5-.6c2.2-.2 4.4-1.8 4.2-4.3 0-2.1-1.8-4.5-4.2-4.2a180.5 180.5 0 0 1-25.5.5 4.3 4.3 0 0 0-4.3 4.3 4.4 4.4 0 0 0 4.3 4.3zm325.9 0a180.3 180.3 0 0 0 25.4-.6c2.2-.2 4.4-1.8 4.3-4.3 0-2.1-1.9-4.5-4.3-4.2a180.3 180.3 0 0 1-25.4.5 4.3 4.3 0 0 0-4.3 4.3 4.4 4.4 0 0 0 4.3 4.3zm272.4 0a180.5 180.5 0 0 0 25.5-.6c2.2-.2 4.4-1.8 4.3-4.3-.1-2.1-2-4.5-4.3-4.2a180.5 180.5 0 0 1-25.5.5 4.3 4.3 0 0 0-4.2 4.3 4.4 4.4 0 0 0 4.2 4.3z" fill="#ff983b"/><path d="M229 326.9c27 0 53.8-1.4 80.5-3.5s53.6-5 80.3-7.9c7-.7 14-1.3 21-2.5a34.8 34.8 0 0 0 17.4-7.6 4.3 4.3 0 0 0 0-6 4.4 4.4 0 0 0-6 0l-1 .8c.2-.2.7-.5 0 0l-1.6 1-1.7 1-.7.2-.4.2a46 46 0 0 1-7.6 2l-2 .4-1 .2c-.2 0-1 .1-.2 0l-4 .4-9.8 1-39.5 4.3c-26.3 2.6-52.7 5-79 6.2-15 .7-29.8 1.2-44.7 1.2a4.3 4.3 0 1 0 0 8.5z" fill="#ffd3b3"/><path d="M608.5 304.1a61.1 61.1 0 0 1-8.6-5.2l-.4-.4c-.6-.4.4.4 0 0l-1-.7-2-1.7a61.1 61.1 0 0 1-7-7.4l-.3-.4s.3.5 0 0l-.6-.9-1.6-2.2a60.3 60.3 0 0 1-4.9-8.8l-.2-.5a26.5 26.5 0 0 1-1.4-4.2 27.9 27.9 0 0 1-1-5.1 19 19 0 0 1 .2-2.6v-.6a16.1 16.1 0 0 1 .5-1.7l.4-1 .1-.3a15 15 0 0 1 1.2-2l.2-.2.6-.8a21 21 0 0 1 1.8-1.6l.8-.7.2-.2 2-1.3a39 39 0 0 1 4.3-2.1c-.7.3 0 0 .3-.2l1.2-.4 2.2-.8a88.3 88.3 0 0 1 10.9-2.6l2.6-.4 1.5-.2.9-.1q2.8-.4 5.7-.6a104.9 104.9 0 0 1 11.5 0l5.7.5 1.5.2h.7l3 .5a94.3 94.3 0 0 1 39.2 16.2l1.9 1.4 1 .8.3.2.3.2 3.9 3.3c2.6 2.2 5 4.6 7.3 7l3.4 3.8 1.6 2 .8 1 .1.1.4.5q3 4 5.7 8.4l2.5 4.4a4.3 4.3 0 0 0 5.9 1.6 4.4 4.4 0 0 0 1.5-5.9 106 106 0 0 0-28.7-33.5 102.8 102.8 0 0 0-41.4-19 106 106 0 0 0-49.6 1.3 40.3 40.3 0 0 0-18.5 9.7 21.2 21.2 0 0 0-5.5 9.8 26.5 26.5 0 0 0 .5 13.1 63 63 0 0 0 27.5 35.2q2.2 1.4 4.5 2.6a4.3 4.3 0 0 0 5.9-1.6c1-2 .6-4.8-1.5-5.8z" fill="#fff"/><path d="M31.5 388.5h123a4.3 4.3 0 0 0 0-8.6h-123a4.3 4.3 0 0 0 0 8.6zm9.6 70h29.6a4.3 4.3 0 0 0 0-8.6H41a4.3 4.3 0 1 0 0 8.6zm34.9 35h1.1a3.2 3.2 0 0 0 1.6-.4 3.8 3.8 0 0 0 2.3-2.3 3.2 3.2 0 0 0 .4-1.6l-.2-1.1a4.2 4.2 0 0 0-1-2l-1-.6a4.3 4.3 0 0 0-2.1-.6H76a4.1 4.1 0 0 0-3.9 2.6 3.1 3.1 0 0 0-.4 1.7l.2 1.1a4.3 4.3 0 0 0 1 2l1 .6a4.3 4.3 0 0 0 2.1.6zm-38.1 71h33.9a4.3 4.3 0 1 0 0-8.5h-34a4.3 4.3 0 1 0 0 8.5zm13.7 46.7H58a4.5 4.5 0 0 0 3-1.3 4.3 4.3 0 0 0 0-6 4.5 4.5 0 0 0-3-1.2h-6.3a4.4 4.4 0 0 0-3 1.2 4.3 4.3 0 0 0 0 6 4.4 4.4 0 0 0 3 1.3zm69-282.1h46.6a4.3 4.3 0 1 0 0-8.6h-46.6a4.3 4.3 0 0 0 0 8.6zm688.3 79.6 3 8.5a4.7 4.7 0 0 0 2 2.6 4.3 4.3 0 0 0 5.9-1.6 4.2 4.2 0 0 0 .4-3.3l-3-8.5a4.5 4.5 0 0 0-2-2.5 4.3 4.3 0 0 0-3.4-.5 4.3 4.3 0 0 0-2.5 2 4.2 4.2 0 0 0-.4 3.3zm40.5-15-3.1 16c-.4 2.1.6 4.6 3 5.2 2.1.5 4.8-.7 5.3-3l3-15.9c.5-2.2-.6-4.7-3-5.3-2-.4-4.8.7-5.2 3zm36.9 15-10.7 11.5a4.3 4.3 0 0 0 6 6l10.7-11.6a4.3 4.3 0 1 0-6-6zm13.6 56 7.4-7.5a4.4 4.4 0 0 0 1.2-3 4.3 4.3 0 0 0-4.2-4.3 4.5 4.5 0 0 0-3 1.3l-7.5 7.4a4.3 4.3 0 0 0 0 6 4.3 4.3 0 0 0 3 1.3 4.5 4.5 0 0 0 3-1.2zm-440 .2 4 8a4.3 4.3 0 0 0 7.8-1 4.7 4.7 0 0 0-.4-3.3l-4-8a4.3 4.3 0 0 0-7.9 1 4.8 4.8 0 0 0 .5 3.3zm25-24.5a116.3 116.3 0 0 0 .6 20.7c.2 2.2 1.8 4.4 4.3 4.3 2-.1 4.5-2 4.2-4.3a116.3 116.3 0 0 1-.6-20.7 4.3 4.3 0 0 0-4.3-4.3 4.4 4.4 0 0 0-4.2 4.3zm34.1-2-4.7 16a4.3 4.3 0 0 0 3 5.2 4.4 4.4 0 0 0 5.3-3l4.7-16a4.3 4.3 0 0 0-3-5.2 4.4 4.4 0 0 0-5.3 3zm35 20.9 1.6-2.4a3.1 3.1 0 0 0 .5-1.6 3.2 3.2 0 0 0 0-1.7 3.3 3.3 0 0 0-.9-1.5 3.2 3.2 0 0 0-1.2-1l-1-.5a4.2 4.2 0 0 0-2.2 0l-1 .4a4.3 4.3 0 0 0-1.6 1.6l-1.6 2.4a3.1 3.1 0 0 0-.5 1.6 3.2 3.2 0 0 0 .1 1.7 3.2 3.2 0 0 0 .8 1.4 3.3 3.3 0 0 0 1.2 1.1l1 .5a4.4 4.4 0 0 0 2.3 0l1-.5a4.3 4.3 0 0 0 1.5-1.5zm-406.1 18.4a71.7 71.7 0 0 0 9.8 44.7 72.5 72.5 0 0 0 8 10.8 4.3 4.3 0 0 0 6 0 4.4 4.4 0 0 0 0-6l-1.7-2-.8-1c-.2-.3 0 0 0 .1l-.6-.8q-1.6-2.1-3-4.3a55.7 55.7 0 0 1-4.6-8.8c-.6-1.2.1.4-.2-.3a74.4 74.4 0 0 1-3.2-10.2q-.7-2.6-1-5.4l-.2-.8-.1-.8-.3-2.9a65 65 0 0 1 .3-12.3c.3-2.2-2.1-4.3-4.2-4.2-2.6 0-4 1.8-4.3 4.2zM130 512.4a20.8 20.8 0 0 0 .8 11 20.5 20.5 0 0 0 6.3 9 4.6 4.6 0 0 0 3 1.3 4.4 4.4 0 0 0 3-1.3c1.4-1.5 1.8-4.6 0-6a15.2 15.2 0 0 1-1.6-1.4l-.7-.7c-.2-.2-.5-.7 0-.1a16.5 16.5 0 0 1-1.2-1.9l-.5-1a2.1 2.1 0 0 1-.2-.4l.1.3a18.5 18.5 0 0 1-.5-2l-.3-1v-.4.3a16.9 16.9 0 0 1 0-2v-1.3a4.6 4.6 0 0 0-.4-3.3 4.4 4.4 0 0 0-2.6-2c-2.1-.5-4.8.6-5.3 3z" fill="#9fbdff"/></svg>