<svg viewBox="0 0 1000 1000" width="1000" height="1000" xmlns="http://www.w3.org/2000/svg"><rect fill="#cfe0ff" height="950" rx="475" width="950" x="25" y="25"/><path d="M965.6 432.7a76.7 76.7 0 0 0-4-22.3 69.7 69.7 0 0 0-23.7-27.6c-55-42.9-120.3-94-190.8-107.6-9.1-1.7-20.8-4.3-32-4.9a20.1 20.1 0 0 0-20.9 22.4c11.8 107.4 15.7 224 .8 330-1.2 8.5-2 18.4 4.1 24.3 2.5 2.4 5.8 3.7 9 5a428.3 428.3 0 0 1 181.4 142.6 19.7 19.7 0 0 0 9.5 7.2c13.4 4.5 22-10.5 26-22.7a893.6 893.6 0 0 0 40.6-346.4z" fill="#9fbdff"/><path d="M970 432.7a66.2 66.2 0 0 0-9.4-33c-6-8.8-14-15.6-22.4-22-17-13.2-34-26.5-51.6-39-35.6-25.7-73.9-49.3-116.2-62a309.4 309.4 0 0 0-30.8-7.3c-6-1.1-12-2.2-18-2.8a34 34 0 0 0-15 .7 24.6 24.6 0 0 0-16.5 19.2c-.8 5.3.3 10.7.9 16l1.7 17.6c4.6 48.4 7.4 97 7.7 145.7.2 48.2-2 96.5-8 144.4-1.3 10-4.3 21-1.5 30.9a20 20 0 0 0 9.2 11.8c4.4 2.7 9.5 4.3 14.2 6.3a425.3 425.3 0 0 1 150.4 111q10.3 11.9 19.6 24.5c3 4.2 6.2 8 11 10.2a19.1 19.1 0 0 0 13.3 1.3c8.4-2.4 14-10.5 17.4-18 4.6-10.2 7.3-21.3 10.5-32A899.8 899.8 0 0 0 965.9 614a894.9 894.9 0 0 0 6.2-145.7q-.8-17.8-2.2-35.5c-.4-5.5-9-5.5-8.5 0a893 893 0 0 1 0 141.3 886.8 886.8 0 0 1-22.2 138.8q-4.2 17.3-9 34.4c-3.2 11-6.3 22-10 32.7-2.3 6.4-6.1 14.8-12.8 17.7-8.9 3.9-15-6.2-19.4-12a434.5 434.5 0 0 0-86.9-85.8 427.7 427.7 0 0 0-51-32.5q-13.4-7.2-27.2-13.5c-4.8-2.2-9.6-4.2-14.5-6.3-4.1-1.7-7.7-3.8-9.1-8.3-1.3-4.3-1-9-.5-13.4l2.2-16q2.1-17.3 3.7-34.7c2-23 3.2-46.3 3.8-69.5 1.3-47.4-.2-94.7-3.6-142q-2.4-34.5-6.2-69a19 19 0 0 1 1.7-12 16.1 16.1 0 0 1 7.5-6.7c4.4-2 9.5-1.2 14.1-.7a279.3 279.3 0 0 1 76 20.8 408.2 408.2 0 0 1 55.9 30.6c18 11.6 35.4 24.1 52.4 37l24.2 18.7c8 6.2 16.2 12.3 22 20.6 6.4 9 8 19 8.9 29.7.4 5.5 9 5.6 8.5 0z" fill="#9fbdff"/><path d="M925 779a890.7 890.7 0 0 0 33-139l-2.7-.1c-13.4-.4-28.2 8-39.1.2-7-5-8.8-14.5-11.1-22.8-2.7-9.6-7.6-19.5-16.7-23.6-15.8-7-37 6.4-50.5-4.3-7-5.4-8.6-15-9.9-23.8l-6-43.2c-2.7-19.4-6.1-40.2-20-54-13.3-13.6-34-17.4-52.9-15.7-15.1 1.4-29.7 5.8-44.5 9.7.4 54.4-2.4 108.6-9.6 160.3-1.2 8.5-2 18.4 4.1 24.3 2.5 2.3 5.8 3.7 9 5a428.3 428.3 0 0 1 181.4 142.6 19.7 19.7 0 0 0 9.5 7.2c13.4 4.5 22-10.5 26-22.7z" fill="#f96632"/><path d="M929 780.2a890.9 890.9 0 0 0 27.7-107.9q3-15.5 5.4-31a4.4 4.4 0 0 0-4.1-5.5c-6.7-.7-13.4.8-19.9 2-5.5 1-11.4 2.2-16.6.3-4.6-1.7-7.4-6.2-9-10.7-2-5.5-3-11.3-5-16.7a41.7 41.7 0 0 0-9.8-15.8 28.1 28.1 0 0 0-16.6-7.4c-11-1.3-21.8 3.1-32.7 1.7l-1-.2c-.7 0-1.3-.2-1.8-.4a11 11 0 0 1-3.2-1.3 14.3 14.3 0 0 1-5.1-5c-3-4.7-4-10.6-4.9-16.3-2.2-15-4.2-30.2-6.3-45.3-1.8-12.3-3.7-24.7-8.5-36.2s-12.8-21.7-24-27.9c-24.5-13.8-53.4-8.2-79-1.4l-11 3a4.3 4.3 0 0 0-3.2 4.1c.3 37.4-1 74.7-4.2 112q-1.2 13.5-2.7 27c-1 8.4-2.4 17-3.3 25.4-.7 7-.5 15 4 20.9 4.8 6.5 13.5 8.7 20.6 11.8a424.6 424.6 0 0 1 148 108.8q7.8 8.7 15 17.9l6.7 8.9c2.4 3.3 4.9 6.4 8.4 8.6a19 19 0 0 0 20 .7c5.6-3.3 9.6-9.1 12.4-14.9a74.7 74.7 0 0 0 3.7-9.2 4.3 4.3 0 0 0-8.2-2.3 53 53 0 0 1-3.3 8 38.3 38.3 0 0 1-4.6 7.3 22.7 22.7 0 0 1-3 2.9l-.3.2-.7.4-1 .6c-.2.1-1.2.6-.5.3a9 9 0 0 1-6.8.2 15.5 15.5 0 0 1-7.4-5.3l-6.7-9q-7-9-14.5-17.8a434 434 0 0 0-66-62.2 428.4 428.4 0 0 0-77-47c-6.9-3.2-13.9-6.1-20.9-9-3-1.4-6-3-7.6-5.7a17.4 17.4 0 0 1-2-8.3c-.2-8 1.4-15.3 2.5-23.3q1.6-12.9 2.8-25.9c3.6-36 5-72.3 5.2-108.5v-13.4l-3.2 4c25.3-6.6 53.1-15.4 78.4-5 11 4.6 19.1 12.9 24.3 23.5s7.2 23.3 9 35.2l6.4 45.4c1.6 11.6 4.3 25 16.3 30.3 10.7 4.6 22.4.9 33.5.2a25 25 0 0 1 14.5 2.4 26 26 0 0 1 10.1 12.3c4.7 10 4.6 23.7 13.8 31.5 10.8 9.3 24.5 4 37 2.4a38 38 0 0 1 8.9-.2l-4.2-5.4A894.4 894.4 0 0 1 930 747.8q-4.3 15.1-9.2 30.1c-1.7 5.3 6.6 7.5 8.3 2.3z" fill="#f96632"/><path d="M278.8 137.8a706.4 706.4 0 0 1 272.4 10.6c18 4.3 38 11 45.9 27.9 2.1 4.7 3.1 9.8 4 15a1175.1 1175.1 0 0 1 15 320.5c-.5 5.3-1.1 10.8-4 15.2s-9 7.2-13.7 4.8c-3.1-1.7-4.8-5-6.8-8-9.4-13.8-27-18.8-43.4-22.3a894.2 894.2 0 0 0-213.4-20c-8.4.2-18.4-.2-23.1-7.2a25.1 25.1 0 0 1-3.1-12.5l-4.7-68.5C298 307.2 292 220.7 275.6 136" fill="#fff"/><path d="M280 142a702.8 702.8 0 0 1 265 9.3c15.5 3.6 33.4 7.6 44.1 20.3 6.1 7.2 7.3 17 9 26q3 17 5.6 34A1165.1 1165.1 0 0 1 616 366.8a1174.1 1174.1 0 0 1-3.4 135.8c-.4 5.1-.6 10.4-1.6 15.4-.8 3.9-2.3 8-6 9.7-3 1.5-5.4.4-7.4-2.5-2.6-3.8-5-7.5-8.3-10.6-13.7-12.7-33.6-16-51.2-19.6a902.4 902.4 0 0 0-134.7-17q-33.9-1.7-67.8-.8c-6.6.2-16.1.7-20.2-5-2.7-3.8-2.4-9.2-2.7-13.6l-1.2-17.3c-3.1-46-6-91.9-9.9-137.7-3.7-45.5-8.6-91-16-136q-2.7-16.4-5.8-32.7c-.5-2.3-3.2-3.6-5.3-3a4.4 4.4 0 0 0-3 5.2c8.9 45.6 14.7 91.7 19 137.8 4.5 46.5 7.4 93.1 10.6 139.7l2.4 35.4c.4 5.8.6 11.7 1.4 17.5.7 4.8 2.5 9.4 6.2 12.6 7 5.9 16.7 5.8 25.3 5.6q17.3-.4 34.6-.2a886 886 0 0 1 137.6 12.6q17 3 34 6.6c9 1.9 18.1 3.8 26.7 7.3 7.4 3.1 14.4 7.7 19 14.5 2.6 4 5.1 8.2 10 9.8s10 0 13.8-3c8.4-6.8 8.1-19.3 9-29.1q1.4-17.3 2.4-34.7 1.9-34.7 1.7-69.4a1176.7 1176.7 0 0 0-8.9-138.7q-4.3-34.6-10.5-69c-1-5.2-1.9-10.4-3.8-15.3a40 40 0 0 0-7.2-12 55.5 55.5 0 0 0-20.7-14c-8.3-3.5-17-5.7-25.7-7.7q-16.6-3.9-33.4-7-33.6-6-67.6-8.9a707.6 707.6 0 0 0-136.2 1.7q-16.8 1.9-33.5 4.5c-2.3.4-3.5 3.2-3 5.3.7 2.4 3 3.3 5.3 3z" fill="#fff"/><path d="M591.6 523.8c2 3 3.7 6.3 6.8 8 4.7 2.4 10.7-.4 13.7-4.8s3.5-9.9 4-15.2a1174.8 1174.8 0 0 0 1.3-196.8l-15.3 1.7c-1.7.2-3.6.5-4.7 1.8a7 7 0 0 0-1.2 3.8l-2.5 23.3c-10.6-4.4-22.7 3-29.4 12.3s-10.2 20.7-17 30a9.2 9.2 0 0 1-3.6 3.1c-2.6 1.1-5.7-.2-8.4-1.2A36.9 36.9 0 0 0 508 391a80.2 80.2 0 0 1-4 30.5l-42.6-6q-1.1-28-4-55.8a14 14 0 0 0-2.2-7c-5.4-7.1-16.6 1.1-25.5-.2.3-28.2-3.3-53.9-3-82.1 0-3.2-.2-6.7-2.6-8.8-2-1.7-4.9-1.7-7.5-1.6-23.2.7-42.4 1-65 6 2.2 35.5 11.4 80 10.4 115.5-6.3.9-21.2-7.3-27.6-6.5l-5.6-44.7a218 218 0 0 0-29.4.5l4.5 62.6 4.6 68.4c.3 4.4.7 9 3.1 12.6 4.8 7 14.7 7.4 23.2 7.1a894.2 894.2 0 0 1 213.4 20c16.3 3.6 34 8.6 43.4 22.4z" fill="#9fbdff"/><path d="M588 526c1.8 2.8 3.5 5.9 6.1 8a13 13 0 0 0 10.8 2.6c7.5-1.3 12.3-8 14-15a75.2 75.2 0 0 0 1.6-11.4l1-12.5q1-12.6 1.7-25.1 2.9-50.5 1.4-101-.8-28.4-3-56.6c-.2-2.1-1.8-4.5-4.3-4.3l-13.4 1.5c-4.7.5-9.4 1.1-11.3 6.2a26.4 26.4 0 0 0-1 6.4l-.7 7-1.5 13.8 5.4-4c-14.3-5.8-28.8 5.4-36 17-4.2 6.4-7 13.5-10.9 20.2l-3 4.9-1.4 2-.6.7a3.4 3.4 0 0 1-.7.7 1.6 1.6 0 0 1-1 .1 14.2 14.2 0 0 1-2.4-.6c-2-.6-3.8-1.4-5.8-1.9a42 42 0 0 0-27.2 2.6 4.2 4.2 0 0 0-2.1 3.7 78 78 0 0 1-3.8 29.3l5.2-3-42.5-6 3.1 4q-.9-21.6-2.9-43.2l-1-10.6c-.3-3.3-.5-6.7-2-9.8-2.8-5.5-8.6-6.8-14.2-6-2.7.4-5.4 1.1-8 1.8l-2.2.4-.9.2c-1.3.2.8 0-.6 0a18.7 18.7 0 0 1-4.1 0l4.3 4.3c.1-23-2.3-45.8-3-68.8l-.2-8.6c0-2.6.2-5.3-.1-7.9a13.7 13.7 0 0 0-2.8-7.6 10.7 10.7 0 0 0-6.8-3.6 48.8 48.8 0 0 0-8.6-.1l-8.4.2c-5.4.2-11 .4-16.4.8a249.4 249.4 0 0 0-37.4 5 4.3 4.3 0 0 0-3.1 4.1c2 30.5 7.7 60.6 9.8 91.2.6 8 .9 16.2.6 24.4l4.3-4.3a8.9 8.9 0 0 1-1.3 0h-.6c-1-.1-2.2-.4-3.3-.7-2.7-.7-5.2-1.6-7.8-2.5-4.5-1.5-9.7-3.8-14.6-3.3l4.3 4.3-5.6-44.7c-.3-2.4-1.8-4.2-4.3-4.3a224.8 224.8 0 0 0-29.4.5c-2.1.2-4.4 1.8-4.2 4.3 2.3 30.6 4.3 61.3 6.4 92l1.6 23.1c.5 7.4.5 15 1.7 22.2a19 19 0 0 0 10.5 14.8c5.3 2.5 11.3 3 17.1 2.9 14.8-.2 29.6-.5 44.4-.2s29.7 1 44.5 2a885.5 885.5 0 0 1 89.2 10.8c14.1 2.5 28.3 5.1 42.3 8.5a106.2 106.2 0 0 1 16.7 5.2l.3.2.9.4 1.9.9 3.9 2a36.3 36.3 0 0 1 6.2 4.6 33.2 33.2 0 0 1 5 5.8 4.4 4.4 0 0 0 6 1.5 4.3 4.3 0 0 0 1.4-5.9 55 55 0 0 0-29-19.8c-12.5-4.2-25.8-6.5-38.7-9a906.6 906.6 0 0 0-89.2-12.4 892 892 0 0 0-89.3-3.5c-6.7.1-13.4.6-20 .3a39.4 39.4 0 0 1-4.1-.3 10.2 10.2 0 0 0-1-.2l-2.2-.5a11.7 11.7 0 0 1-5.4-3l-.7-.7-.1-.1a13.5 13.5 0 0 1-1.2-2 19.5 19.5 0 0 1-1-4c-.6-3-.6-6.8-.9-10l-1.5-22.8c-2.1-30.5-4.1-61-6.3-91.4l-.9-11.4-4.2 4.2a224.8 224.8 0 0 1 29.3-.5l-4.2-4.2 5.6 44.7c.3 2 1.8 4.5 4.3 4.2a10.6 10.6 0 0 1 1.3 0c.4 0 1.6.2.6 0l3.3.7c2.7.7 5.2 1.7 7.8 2.6 4.5 1.5 9.7 3.7 14.6 3.2 2.3-.3 4.2-1.7 4.2-4.3.9-30.5-4.6-61-8.1-91.2-1-8-1.8-16.2-2.3-24.3l-3.2 4.1c20.5-4.5 41.3-5.2 62-5.8h3.7a8.4 8.4 0 0 1 2.5.3 1.7 1.7 0 0 1 1 .9l.2.6.2 1a68 68 0 0 1 .1 7.4c0 2.7 0 5.5.2 8.3.2 10.8 1 21.7 1.6 32.5a536 536 0 0 1 1.3 37.2c0 2.5 2 4 4.3 4.3 4.9.6 9.7-1 14.4-2l3.3-.7h2.3c.2 0 .7.2-.1 0l.7.2a6.4 6.4 0 0 1 .6.2s-.6-.3-.2 0l.6.3c.5.3-.4-.5 0 0l.5.6c.4.3-.2-.7.3.4a13 13 0 0 1 .8 2.9v.3l.2 1 .3 2.9 1 10q.9 10 1.5 20 .8 11.2 1.3 22.5c0 1.7 1.3 3.9 3.1 4.2l42.6 6c2.4.3 4.4-.6 5.2-3a84.7 84.7 0 0 0 4.2-31.6l-2.2 3.7a32.4 32.4 0 0 1 20.4-1.7c3.8.9 7.6 3.1 11.7 2.8 4.5-.4 7.2-3.5 9.6-7 4.4-6.2 7.3-13 10.8-19.7 3.2-6 6.8-11.8 12-15.6a23.5 23.5 0 0 1 9.1-4.4 14 14 0 0 1 4.3-.4c-.1 0 1.3.1.8 0l1.2.3a18.6 18.6 0 0 1 2.6.8c2.9 1.2 5.2-1.6 5.4-4l1.3-11.8c.4-4 .6-8 1.3-12l.3-1-.2.4c-.5 0 .4-.1.5-.2l.5-.1 1-.1 3.1-.4 11.6-1.2-4.4-4.3q3.7 48 3.5 96.2-.2 47.9-4.4 95.6a94.7 94.7 0 0 1-1.3 11.5c-.7 3.5-1.9 6.3-4.2 8.3a6.8 6.8 0 0 1-1.4.9 4.2 4.2 0 0 1-1.6.6 7.7 7.7 0 0 1-1 .3h-.8a6.6 6.6 0 0 1-1.2-.3l-.4-.2a3.3 3.3 0 0 1-.6-.4 8.2 8.2 0 0 1-.9-.8l-.5-.6c-1.2-1.4-2-3-3-4.4a4.4 4.4 0 0 0-5.9-1.6 4.3 4.3 0 0 0-1.5 5.9z" fill="#9fbdff"/><path d="M533.5 663q-2.8-33.8-3.6-67.8c-.2-10.3-.3-20.8 2.6-30.8s9.1-19.4 18.6-23.7a22.8 22.8 0 0 0 5-2.6 17.8 17.8 0 0 0 2.5-2.6 75 75 0 0 1 23-18.3 20 20 0 0 1 11.3-3c7 1 11.7 8 13.1 15a62 62 0 0 1-.7 23.3 301 301 0 0 1-24.3 77 93.7 93.7 0 0 1-18.3 28"/><path d="M537.8 663a1025.3 1025.3 0 0 1-3.6-81l.2-4.2.2-2.1.2-1.2a5.8 5.8 0 0 1 0-.7 63 63 0 0 1 1.8-8.3l1-3.2.6-1.4c-.3.8 0 0 0-.2l.5-.8a41 41 0 0 1 3.5-6.2l1-1.2c-.6.6-.2 0 0 0l.5-.8a34.5 34.5 0 0 1 2.4-2.5l1.3-1.1.5-.5c.2-.1.9-.6.2-.1a29.6 29.6 0 0 1 2.8-1.9c2.2-1.2 4.6-1.9 6.7-3.3 2.4-1.6 4-3.9 6-6a72.1 72.1 0 0 1 5.5-5.5 75 75 0 0 1 3.6-3c.5-.4-.5.3.1 0s1.2-1 1.9-1.5a74.1 74.1 0 0 1 6.4-4 58.4 58.4 0 0 1 5-2.6l.4-.2 1.3-.4 2-.5s.7-.2 0 0a8.5 8.5 0 0 1 1-.2h1.5l.5.1a8.7 8.7 0 0 1 1 .3l.6.2c-.8-.2-.2-.1 0 0l1.3.8.7.5c-.1-.1-.6-.6 0 0l1.2 1.1.5.6.3.4.3.4.4.6a26.7 26.7 0 0 1 1.6 3c.3.6-.2-.7 0 0l.3.8.5 1.4a26.9 26.9 0 0 1 .8 4v.4l.1 1 .1 2.1v4.5c0 1.5-.2 3-.4 4.3l-.5 4-1.5 8.4a302.8 302.8 0 0 1-8.3 32.7q-2.6 8.2-5.6 16.2a403 403 0 0 1-6.1 15 244.6 244.6 0 0 1-11 21.5 173.6 173.6 0 0 1-3.3 4.8l-.5.7a3.6 3.6 0 0 1-.4.4 66.7 66.7 0 0 1-5.2 5.8 4.3 4.3 0 0 0 6 6c8-7.9 13.7-17.7 18.5-27.8a308.4 308.4 0 0 0 13.6-33.3 301.9 301.9 0 0 0 9.4-34c1.2-5.7 2.4-11.6 3.2-17.5.9-6.5 1.2-13-.1-19.6a26.4 26.4 0 0 0-7-13.2 17.1 17.1 0 0 0-15.8-4.7 45.5 45.5 0 0 0-15.4 7.5 80.8 80.8 0 0 0-12.9 10.6l-5.4 6.1c-.5.5-.3.3-.1.2a8.7 8.7 0 0 1-1 .6l-1.5.8-3.6 1.6a35.8 35.8 0 0 0-11.6 10.1c-6.8 9-9.4 20.1-10.2 31.1-.4 6.1-.2 12.2 0 18.3l.5 18.8q.8 18.8 2.2 37.6l.7 9.3c.2 2.3 1.9 4.4 4.3 4.3 2.2 0 4.5-1.9 4.3-4.3z"/><path d="M312.3 753.7a621.7 621.7 0 0 1 150.1 80.2 1473.5 1473.5 0 0 1 68-200c3-6.8 6-13.7 11-19.3s12.2-9.5 19.6-8.7c8 1 14.4 7.4 17.7 14.7s3.9 15.4 4.4 23.4a1095 1095 0 0 1-7.3 211.2c-3.6 28-9.2 57.5-28 78.5-26.3 29.3-72.2 33.5-109.3 20.6s-67.6-39.6-97-65.7l-83.4-74"/><path d="M311.2 757.8a612.1 612.1 0 0 1 60.3 26 624.8 624.8 0 0 1 57.9 32.7q15.7 10 30.9 21c2.2 1.7 5.6 0 6.2-2.5q12.5-47.5 28.1-94.2t34.3-92.1c3-7.2 5.7-14.5 9.2-21.4 3-6.2 7-12 13.3-15.3a14.8 14.8 0 0 1 16 1c5 3.5 8 9.5 9.4 15.6 1.9 7.5 2 15.3 2.4 23q.7 12.7 1.1 25.4.9 25.4.5 50.8-.7 50.5-6 100.8a597 597 0 0 1-6.2 45.6 144.1 144.1 0 0 1-12 38.8 77 77 0 0 1-24 28.5 84.9 84.9 0 0 1-32.8 13.5 115.7 115.7 0 0 1-36 .9 131 131 0 0 1-37-10.9c-26.9-12.2-50-31-72-50.3-25-22-50-44.3-75-66.5l-18.7-16.6a4.4 4.4 0 0 0-6 0 4.3 4.3 0 0 0 0 6l79 70c22.9 20.4 45.9 41.3 72.5 56.6 24 13.8 51 22.5 78.8 21.1 25.8-1.3 51.6-11.2 68.1-31.7 18.6-23.1 23.4-53.2 27-81.8q6.7-51.4 8.4-103.4t-1.5-103.7c-1-14.8-3-32.4-17.6-40.3-6.9-3.8-14.7-3.5-21.7-.2s-12.1 9.3-15.8 15.9c-4 7-6.9 14.8-10 22.3q-4.8 11.5-9.4 23.2-9.3 23.5-17.8 47.4-16.8 47.4-30.4 96l-6.5 23.7 6.3-2.5a622 622 0 0 0-115.7-66.4q-17.5-7.6-35.4-14.2c-2.2-.8-4.7.9-5.3 3a4.4 4.4 0 0 0 3 5.2z"/><path d="m613.8 484-1.8-15a3.8 3.8 0 0 1 .3-2.4 3.7 3.7 0 0 1 1.7-1.3 43.1 43.1 0 0 1 8.3-2.7c2.6-.6 5.3-1 8-1.2 1.6-.2 3.4-.4 4.7.6s1.7 2.7 2 4.2l2.6 13.2.4 2" fill="#f96632"/><path d="M618 484c-.6-5-1.4-10.2-1.8-15.3a6.1 6.1 0 0 1 0-.7 1.8 1.8 0 0 1-.2.8c-1 .8-1.1 1-.5.6a6.7 6.7 0 0 1 .7-.4h.2l.8-.4 1.8-.6a45.3 45.3 0 0 1 7-1.7 32.5 32.5 0 0 1 6.2-.8 6.6 6.6 0 0 1 .7 0c-.5 0-.5 0 0 0a1 1 0 0 1-.6-.3c.3.4.3.4 0 0 .2.5.2.4 0 0l.2.7.4 1.5 3 15.2a4.3 4.3 0 0 0 5.2 3 4.4 4.4 0 0 0 3-5.2l-2.7-13.8c-.4-2.2-.8-4.5-2.3-6.4a8.5 8.5 0 0 0-7-3.2 48 48 0 0 0-7 .8 51.7 51.7 0 0 0-6.6 1.4 46 46 0 0 0-6.8 2.6 6.9 6.9 0 0 0-4 6.6c.1 2.5.6 5 .9 7.5l1 8.1c.2 2.3 1.8 4.4 4.3 4.3 2 0 4.5-1.9 4.2-4.3z" fill="#f96632"/><path d="M687.5 515.3q11.2-2.4 22.5-4.3c4-.7 8.6-1.2 11.7 1.4 2.9 2.5 3.4 6.7 3.6 10.4l6 83c.2 2.5.4 5.1-.6 7.4-1.9 4.2-6.8 5.8-11.2 7a293 293 0 0 1-34.5 6.4"/><path d="M688.6 519.4q9.3-2 18.6-3.6l4.4-.8 1-.1c-.1 0-.8 0 0 0l2.2-.2h1.7c.9.1.2 0 0 0l1 .2.8.3c-.8-.3-.2 0 0 0l.5.3c-.5-.3.4.4.5.5s.5.8.1.1l.4.6.3.7.1.3a14.2 14.2 0 0 1 .4 1.4l.2 1a5.4 5.4 0 0 1 0 .5v-.2l.7 8.6L723 548l2.8 37.8 1.3 19 .2 4v1.1c0 .8.3-.9 0 .4l-.3.9c-.3 1 .3-.4-.2.4l-.3.6c-.5.8.6-.5-.2.2l-1 .9c.7-.6.1-.1 0 0l-.8.4-1.6.8c.8-.4.1 0-.1 0l-1 .4-1.9.6-4.4 1.1q-5.2 1.3-10.4 2.3t-10 1.9l-5.4.8-4.7.6c-2.2.3-4.3 1.8-4.2 4.3 0 2 1.9 4.6 4.2 4.3 6.9-.9 13.7-2 20.5-3.3a149.1 149.1 0 0 0 18.3-4.3c5.6-1.8 10.8-5.3 11.7-11.5.6-3.4.1-6.8-.1-10.2l-.8-10.2-3-40.3-1.4-20.4-.7-9.4a22.5 22.5 0 0 0-2.2-8.7 12.1 12.1 0 0 0-8-6c-3.5-.7-7-.3-10.4.3-7.5 1.2-15 2.7-22.4 4.2a4.3 4.3 0 0 0-3 5.3 4.4 4.4 0 0 0 5.2 3z"/><path d="m600 567.5-6.4-54.1a39 39 0 0 1 1.4-21c5.6-12.4 21.5-15.2 35-16.5l31.6-2.9c6.3-.6 13-1 18.6 1.9 9.7 5.2 11.6 18 12.4 28.8l9.3 129c.6 8.2 1 17.3-4.1 23.8-4.4 5.6-11.6 8-18.5 9.8a391.7 391.7 0 0 1-40.2 8.7c-6 1-13.3 1.4-17.4-3.3-1.8-2-2.5-4.8-3.3-7.5l-8-28.8" fill="#6c77c1"/><path d="m604.4 567.5-6-50.7c-.5-3.9-1-7.8-1.2-11.8a41 41 0 0 1 .2-5.6v-.6l.3-1.2a22.3 22.3 0 0 1 .9-2.9l.1-.3.1-.2.5-.9a19.5 19.5 0 0 1 1-1.8c.2-.2 1-1 .2-.3l.7-.7a25 25 0 0 1 3-2.9c-.6.5-.2.2.1 0l1-.7a29.2 29.2 0 0 1 3.7-2l.9-.5-.3.1.5-.1 2-.8 4.3-1.3 4.5-1 2-.3 1.3-.2c.3 0 1.3-.2.4 0 7.6-1 15.3-1.5 23-2.3l12.8-1.1a72.2 72.2 0 0 1 11-.5h1.3c.1 0 .8.2.1 0l.6.2a22.7 22.7 0 0 1 2.6.6l1.2.4c-.6-.2.3.2.5.3a17 17 0 0 1 2.1 1.2c.3.2.7.6.2.1l.7.7a17.4 17.4 0 0 1 1.6 1.6c.3.3.6.8.1.2l.6.8 1.1 1.8 1 2c-.4-.7 0-.2 0 .2s.3.7.5 1.1a43 43 0 0 1 1.2 4.3l.9 4.6v.6l.1.7.3 2.5c.7 8 1.2 16.2 1.8 24.3l3.7 51.2 3.7 51.3c.2 3.8.6 7.6.6 11.4a50.3 50.3 0 0 1-.1 5.2l-.1 1.2c0-.8 0 .1-.1.4a27.4 27.4 0 0 1-1.3 4.9c-.3.7.2-.4-.2.3l-.6 1.2-.7 1.2c-.1.2-.7 1-.2.4a20.1 20.1 0 0 1-1.7 1.8l-.8.7-.5.4c.6-.5.1-.1 0 0l-2 1.3-2 1-1.2.6-.6.2a94.3 94.3 0 0 1-9.8 3l-12.2 3q-12.2 2.8-24.5 4.8l-2.6.4h-.3l-1.3.1a29.1 29.1 0 0 1-4.8 0h-.5s.7.1.2 0l-1-.2-1-.3c-.4 0-1.1-.5-.4 0-.3-.3-.7-.4-1-.6l-.6-.4-.5-.4c-.2-.1-.8-1-.4-.4a8.6 8.6 0 0 1-.7-1l-.3-.7s-.3-.7-.2-.3v-.2l-.3-.6-.4-1.4-1.7-5.9-3.5-12.2-3.4-12.2a4.3 4.3 0 1 0-8.2 2.3l7.2 26c1.1 4.1 2 8.4 4.9 11.9a15 15 0 0 0 9.2 5 37 37 0 0 0 11.3-.2c4.2-.6 8.3-1.4 12.4-2.1q12.9-2.5 25.5-5.8a53.3 53.3 0 0 0 20.7-8.6c6.2-5 8.5-12.9 8.8-20.6a98.2 98.2 0 0 0-.4-11l-1-13.5-2-26.6-3.8-53.8-1.9-26.6c-.5-7.2-.8-14.6-2.6-21.7-1.7-6.6-5-12.7-10.7-16.7-6.6-4.6-15-4.2-22.7-3.5l-26.6 2.4c-7 .7-14 1.2-20.7 3a39.4 39.4 0 0 0-17.1 8.4 27.2 27.2 0 0 0-8.3 20.3 89.1 89.1 0 0 0 .9 12L591 528l3.1 26.4 1.6 13c.2 2.2 1.8 4.3 4.3 4.2 2 0 4.5-1.9 4.2-4.2z" fill="#6c77c1"/><g fill="#ff983b"><path d="M536.3 667.4a147.4 147.4 0 0 1 38.3-134.8c4-4.1 9.5-8.3 15-6.7 7.2 1.9 8.7 11.2 9 18.7a89.7 89.7 0 0 1 32.3 4.2c3.5 1.2 7.2 2.7 9.5 5.6 4.2 5.2 1.9 14.3-4.4 16.8 5.3 0 9.4 5.5 9.2 10.7s-4.2 9.8-8.9 12.2c5.8-2.5 12 4.6 11 10.7s-6.4 10.7-12 13.5c4.8-1.3 9.7 3.5 9.9 8.5s-3.2 9.6-7.3 12.4-8.9 4.5-13.4 6.6a77.3 77.3 0 0 0-39.8 40.9"/><path d="M540.4 666.3q-1-4.5-1.8-9.1l-.3-2-.2-1v-.5l-.5-4.6a142.7 142.7 0 0 1-.6-18.1 144.4 144.4 0 0 1 1-13.1l.2-1.2c-.2 1 0-.2 0-.4l.4-2.2a151.4 151.4 0 0 1 3.9-17.8 140.6 140.6 0 0 1 34.8-60.4l2.1-2 .6-.6c.2 0 1.4-1 .8-.7a22.3 22.3 0 0 1 2.5-1.6l1-.5.5-.2c-.4.2-.4.2 0 0l1.2-.3.8-.2c-.5 0-.5 0 0 0h1.2c-.8 0 .2 0 .4.1s.8.2 1 .3c-.7-.2-.7-.3-.3 0l.5.2.8.5-.5-.3.5.4.6.6.4.4c-.4-.5-.4-.5-.2-.1l1 1.5.3.8.2.5.6 1.9a31.5 31.5 0 0 1 .6 3.2c.2 1 0-.7 0 .2.1 1.5.3 3 .3 4.6a4.3 4.3 0 0 0 4.3 4.2 90 90 0 0 1 14 .4 86 86 0 0 1 13.5 2.6c2 .6 4.2 1.2 6.2 2l.4.1.2.1 1.4.7 1.2.7.4.3c1 .7-.2-.3.2.2l1 1 .5.5c0-.1-.5-.7-.1-.1l.5.9a1.3 1.3 0 0 1 .2.4c0-.7-.2-.5 0 0l.2 1a3.9 3.9 0 0 1 .1.5v-.3 1.6a2.6 2.6 0 0 1 0 .3v-.4c.3.6-.4 1.8-.5 2.4-.3.7 0-.2 0-.2a2 2 0 0 1-.2.6l-.6 1-.1.2c.3-.5-.2.2-.3.3l-.8.8c-.3.3 0 .4.2-.1a2.1 2.1 0 0 1-.5.3c-.3.2-1.7.9-.6.4-2 .8-3.3 2.4-3 4.7a4.3 4.3 0 0 0 4.2 3.7s1 .1.4 0l.4.1.5.1c-.5-.2.3.2.3.3.3 0 .5.3.8.4.4.3-.7-.6 0 0l1.2 1.2c-.2-.3-.3-.4 0 0l.5.7.4.8c-.3-.5-.2-.3 0 0a16.2 16.2 0 0 1 .4 1.8c.1.5 0-1 0 0v1.8-.1c0 .4-.4 1.2-.6 1.7-.3 1 .3-.3 0 .2l-.5.8a16.6 16.6 0 0 1-1 1.5l-.1.1-.6.7-1.4 1.3c-.3.2-.3.2 0 0l-.8.5a18.8 18.8 0 0 1-1.7 1 4.3 4.3 0 0 0-1.8 5.3c.8 1.8 3 3.3 5 2.5l1-.3c.8-.3-.8 0 0 0h1-.3.3c.5.2.7.4.1 0l.8.5c.2.1.7.6.2.1l.7.7.7.7c-.7-.7 0 0 .1.2a9.3 9.3 0 0 1 .5.9c.2.3.4.8.2.1a16.7 16.7 0 0 1 .5 2c-.2-1 0-.1 0 .1v.8l-.1.7-.3 1a5.2 5.2 0 0 1-.2.5c.2-.4.2-.5 0-.2l-.4 1-.6.9-.4.6-.4.6-.8.8-1.6 1.5-.5.3c.3-.2.4-.3.1 0l-.9.6a34.7 34.7 0 0 1-4 2.3 4.3 4.3 0 0 0-1.7 5.4 4.3 4.3 0 0 0 5 2.4c.8-.1-.6 0 .2 0 .5 0 1 .2.2 0l1 .2c.1 0 .6.3.2 0l.2.2.6.4c-.4-.2.5.5.6.6s.7.8.3.2l.7 1 .2.6c0-.1-.2-.7 0-.2l.2 1 .1.5v-.3 1.7a13.5 13.5 0 0 1-.7 2.2c.3-.7-.2.3-.3.5l-.6 1c-.2.3-.8 1.2-.3.6a20.1 20.1 0 0 1-1.8 1.8l-.8.8-.5.4.1-.1-2.4 1.5a48.1 48.1 0 0 1-4.9 2.4l-.6.3-1.4.6-3.3 1.4a80 80 0 0 0-31 23.8 83.4 83.4 0 0 0-11.8 20c-.9 2.1 1 4.9 3 5.3 2.5.6 4.3-.8 5.3-3a3.3 3.3 0 0 1 .1-.4 41.7 41.7 0 0 1 1.7-3.6 95.9 95.9 0 0 1 5.3-8.9l1.4-2 .7-.9.1-.2.4-.4a79.5 79.5 0 0 1 7-7.7 83.3 83.3 0 0 1 5.5-4.9l.5-.3c-.6.4-.1 0 0 0l1-.8a76.5 76.5 0 0 1 8.8-5.6q2.2-1.2 4.6-2.2l1-.5 1-.4c-.2 0-.6.2 0 0l2.8-1.2c7.6-3.2 15.1-7.4 18-15.7a14 14 0 0 0-2.2-13.1 12.2 12.2 0 0 0-12.4-4.8l3.3 7.8c7-3.5 14.5-10 14.4-18.6-.2-7.9-8.2-16.7-16.6-13.4l3.3 7.8c6-3 11.2-9.6 11-16.7s-6-14-13.5-14.1l1.2 8.4a15.7 15.7 0 0 0 7.5-21.8c-2.5-4.5-7.4-7-12-8.5a87 87 0 0 0-15.5-3.7 97 97 0 0 0-18.9-1l4.3 4.3c-.2-5.7-.8-12.2-4.2-17a14.5 14.5 0 0 0-7.3-5.7c-3.9-1.4-8-.5-11.6 1.3a33.5 33.5 0 0 0-8.5 6.6q-3.4 3.4-6.5 7.1a149.7 149.7 0 0 0-11.8 15.7 154.2 154.2 0 0 0-24.2 72.6 146 146 0 0 0 3.4 43.4 4.3 4.3 0 0 0 5.2 3 4.4 4.4 0 0 0 3-5.3zm-230.2-25.2c-16 10.1-22.3 32.5-25.6 54.7a536.3 536.3 0 0 0-5.2 102.2c.1 2.5.2 5.2-.8 7.4-1.2 2.5-3.6 3.6-5.8 4.5-6 2.5-12.1 4.9-18.4 5.7-23.3 3-45-16.5-68.4-17-2.6 0-6-.5-6.8-3.6-.4-1.5-4.4-10.2-4-11.6 8.5-36 14.9-97.1 21.7-133.6 3.3-17.4 2.3-15.6-.5-33.1"/><path d="M308 637.5c-12.8 8-19.4 22.5-23.3 36.7a189.8 189.8 0 0 0-4.6 23.4q-2 14.5-3.4 29a536.3 536.3 0 0 0-2 57.4c0 4.8.3 9.5.5 14.2v3c0 .3-.2 1.6 0 .8a9.5 9.5 0 0 1-.4 1.6c.2-.7-.3.3-.4.5-.3.5.4-.3 0 0a3.4 3.4 0 0 0-.4.4c-.1.1-.6.4 0 0l-.4.3a12.6 12.6 0 0 1-1.3.7l-.4.2-1.4.6-3.3 1.3a93 93 0 0 1-11.5 3.5l-.7.1-.8.1-2.3.3h-5.5l-1.3-.2h-.8s-.9-.2-.4 0l-.9-.2-1.3-.3c-1-.1-1.9-.3-2.8-.6A97 97 0 0 1 228 807c-7.3-2.7-14.3-6-21.7-8.5a81.6 81.6 0 0 0-10.8-3 66.2 66.2 0 0 0-9-1c-.4 0-2 .1-2.3-.2.2.2.9.2.3 0h-.5a4.5 4.5 0 0 0-.5-.2c-.6 0 .4.1.3.1s-1-.7-.5-.2 0 0-.1-.2c-.4-.4.6.9 0 0 .3.4.2.6.1 0l-.2-.4-.5-1.3c-1-2.3-2-4.7-2.8-7.1l-.4-1.4a2.8 2.8 0 0 0-.1-.6 2 2 0 0 1 0 1.6 8.8 8.8 0 0 0 .5-2l.5-2.3 2-9.5c1.3-6.8 2.5-13.7 3.6-20.5 2.5-15.1 4.6-30.3 6.8-45.4 2-14.3 4-28.7 6.4-43 1.1-6.5 2.5-13.1 3.5-19.7a48.3 48.3 0 0 0 .6-8.3 54.5 54.5 0 0 0-.9-7.7l-1.8-10.6c-.4-2.2-3.2-3.6-5.3-3a4.4 4.4 0 0 0-3 5.3l2 10.8.2 1.8v.5-.5a7 7 0 0 0 .1 1l.2 3.2a34.6 34.6 0 0 1-.2 3.5 8.1 8.1 0 0 1-.2 1.9v-.3.5l-.3 1.3-2 10.7c-2.4 14-4.4 28-6.4 41.9-2.2 15.4-4.3 30.7-6.7 46a572.4 572.4 0 0 1-7.5 40.7 9.7 9.7 0 0 0-.3 4.6 25.4 25.4 0 0 0 1.1 3.3c.9 2.2 1.9 4.4 2.7 6.7a11 11 0 0 0 2.4 4.5 9.8 9.8 0 0 0 5.2 2.5c2 .4 3.9.3 5.8.5l2.7.2c-.9 0 .3 0 .5.1l1.6.3c15.3 3 28.8 11.5 44 15a49.5 49.5 0 0 0 24.8-.2 112 112 0 0 0 13.1-4.7c4.3-1.8 7.7-5 8.4-9.8s0-9.6 0-14.4L283 775q0-14.5.7-29t2.3-28.9a495 495 0 0 1 3.6-26.6 130 130 0 0 1 5.9-22.6l1-2.5.3-.7c0 .2-.3.7 0 0l.6-1.4q1.1-2.4 2.4-4.7c.9-1.5 1.8-3 2.9-4.5l.7-1 .4-.6-.1.2 1.6-2a39.8 39.8 0 0 1 3.6-3.4l1-.8s.4-.4 0 0l.3-.2 2-1.5a4.3 4.3 0 0 0-4.2-7.3z"/></g><g fill="#f96632"><path d="M150 765.1a210.7 210.7 0 0 0 8.5-42.6c.3-4 .7-8.2 3.3-11.3 3.6-4.1 9.8-4.3 15.2-4.1 16.7.7 33.3 2.7 50 4.7 22.2 2.6 44.7 5.4 65.5 13.6a7.6 7.6 0 0 1 3.8 2.5c1 1.5.8 3.6.6 5.4q-3.3 22.3-7 44.6"/><path d="M154.1 766.3a214.6 214.6 0 0 0 5.8-23.5c.8-4.1 1.4-8.3 2-12.4l.7-6.2.3-2.7v-1.1c0-.4.3-1.4.2-.6a18 18 0 0 1 .8-3.4l.1-.6c.2-.6-.3.5 0 0l.5-1 .5-.6.5-.5.4-.4c.3-.3.2-.2 0 0l1.8-1c-.7.3 0 0 .3 0l1.2-.4 1-.3h.6c-.8.1-.2 0 0 0l2.4-.2c3.7-.1 7.4.2 11.1.4l12.6 1c8.3.7 16.5 1.7 24.7 2.7l12.1 1.4 5.8.7 2.8.4.7.1 1.7.2c15.5 2.2 31 5.2 45.7 10.8l1.3.5h-.1l.5.3c.2 0 1 .6.7.3l.1.2c-.3-.4 0-.2 0 0-.1-.7 0 .6 0-.2a7 7 0 0 1 0 1.2l-.1 1.2c0-.8-.2.7-.2 1l-1.9 12.4-4 24.8-1 6c-.3 2.3.7 4.8 3 5.3 2.2.5 5-.6 5.3-3l4.3-26 2-12.7 1-6.8a12.3 12.3 0 0 0-.6-6.6c-1.8-4.4-6.7-5.7-10.8-7.2-3.9-1.3-7.8-2.5-11.8-3.6a232.5 232.5 0 0 0-24-5 923.1 923.1 0 0 0-77.1-8.4c-7.4-.2-15.7.8-19.8 7.7a26 26 0 0 0-2.8 11l-.7 6.3a138 138 0 0 1-.7 5.5 211.6 211.6 0 0 1-5.4 24.7l-1.8 6a4.3 4.3 0 0 0 3 5.3 4.4 4.4 0 0 0 5.3-3zM239.6 639a232.2 232.2 0 0 0 43.8 65.7l1.2-9c3.3-22 9.6-44.5 25.6-54.6l-10.7-2.3-59.2-5.6z"/><path d="M236 641.2a236.6 236.6 0 0 0 32.7 53.3q5.6 6.8 11.7 13.2a4.3 4.3 0 0 0 4.6 1 4.4 4.4 0 0 0 2.7-4l.2-2.1a2.5 2.5 0 0 1 0-.3l.2-1.2a305.9 305.9 0 0 1 1.7-11.2 155.8 155.8 0 0 1 6.3-23.4l.6-1.4c0-.2.3-.8 0 0l.4-1a58 58 0 0 1 6.3-11l.4-.5c-.6.8.1-.1.2-.2a27.9 27.9 0 0 1 3.5-3.8l2.5-2.1c.5-.5-.9.6 0 0l.7-.6 1.6-1a4.3 4.3 0 0 0 2-4.2 4.2 4.2 0 0 0-3-3.6c-4-.9-8.1-2-12.2-2.5l-10.8-1-38.2-3.6-10-.9c-2.4-.2-4 2.2-4.2 4.3l-.7 5.7c-.2 2.3 2.2 4.4 4.3 4.3a4.4 4.4 0 0 0 4.3-4.3l.6-5.7-4.3 4.3 26.3 2.3 32.1 3 1 .1c-.4 0-1.6-.3-.7 0l1.7.3 8.6 1.8-1-7.8c-16.3 10.4-22.7 30.5-26.1 48.4-1.2 6.3-2 12.6-2.9 18.9l7.3-3q-5.3-5.6-10.2-11.6l-4.8-6c.4.5 0-.1-.1-.2l-.6-.7-1.1-1.5-2.4-3.2a231.9 231.9 0 0 1-16.2-26q-4.2-7.7-7.7-15.7c-.9-2-4-2.6-5.8-1.5a4.4 4.4 0 0 0-1.6 5.9z"/></g><path d="M299.4 426.2c19.6 5.3 39.9 11 55.4 24s24.8 35.8 16.2 54.2c-2.4 5-6 10.2-4.8 15.6.6 2.5 2.3 4.6 3.6 7 7.2 12.8 1.5 30.4-10.5 39.2s-28.3 9.7-42.5 5.5-26.6-12.9-38.2-22.1-22.5-19.4-35.2-27"/><path d="M298.3 430.4c10.6 2.8 21.2 5.7 31.3 9.9l.8.3.5.2 1.6.7a110 110 0 0 1 11 5.8 78.3 78.3 0 0 1 6.5 4.5l.5.4.6.5 1.5 1.2c1 .8 1.8 1.7 2.7 2.6a57.3 57.3 0 0 1 4.7 5.3c-.5-.7 0 0 0 .1l.6.8 1 1.4a59.6 59.6 0 0 1 2.1 3.3l1.6 3 .8 1.6.3.7c.1.3.5 1.2.2.3a53.8 53.8 0 0 1 2.2 6.8q.5 1.6.8 3.3v.7l.2.5v1.6a39.2 39.2 0 0 1 0 7v.8c0-.1.1-.9 0 0l-.3 1.7a34.4 34.4 0 0 1-.9 3.5l-.5 1.5-.3.8-1.8 3.7c-2.8 5.3-5.7 11.3-3.5 17.4 1 2.8 2.7 5 4 7.7l.7 1.2c-.5-1 .2.6.3 1a26.2 26.2 0 0 1 .8 3.2 24.5 24.5 0 0 1 .3 2.4 27.5 27.5 0 0 1 0 3.4l-.1 1.5s-.2 1.1 0 .5l-.1.4a32.8 32.8 0 0 1-.8 3.4l-1 3-.2.4-.2.5-.7 1.6a33.9 33.9 0 0 1-1.8 3 29.3 29.3 0 0 1-1.4 2c.4-.6 0 0-.2.2a35.5 35.5 0 0 1-4.7 4.6c-.9.8.5-.3-.1.1l-.8.6-1.5 1a38.3 38.3 0 0 1-3.5 2l-1.5.6c-1.1.6.8-.2-.4.2l-.7.3a43.8 43.8 0 0 1-7.4 2l-1.8.3c-1.2.2.6 0-.2 0l-1.2.2a54.3 54.3 0 0 1-7.7.2l-3.6-.3c-.1 0-1.4-.2-.5 0l-.8-.2-2.1-.4a61.5 61.5 0 0 1-7.7-2l-3.7-1.3-1-.4c-.1 0-1-.4-.4-.1l-2-1a105.5 105.5 0 0 1-14.7-8.3c-5-3.3-8.8-6.3-13.2-9.8-9.3-7.6-18.3-15.6-28.2-22.4a127 127 0 0 0-7.2-4.7 4.3 4.3 0 1 0-4.3 7.4c10.6 6.3 19 13.7 28.6 21.5a187 187 0 0 0 29.3 21 72.7 72.7 0 0 0 33 9.6 48 48 0 0 0 31.5-10.2A38.3 38.3 0 0 0 377 542a31 31 0 0 0-2.5-14.8c-1-2.4-2.5-4.5-3.7-6.8l-.3-.7-.2-.5-.1-.8V517c0-1.2-.2.5 0-.2a18.5 18.5 0 0 1 .5-2.2l.3-1c.1-.2.4-1 .2-.3.2-.7.6-1.3.9-2l2-3.8a42.6 42.6 0 0 0 3-7.6 41 41 0 0 0 1.2-14.9 57 57 0 0 0-12.1-29.1c-14-17.9-36.6-25.8-57.6-31.7l-8.1-2.2a4.3 4.3 0 1 0-2.3 8.3z"/><g fill="#ff983b"><path d="M357.3 533.4a187.4 187.4 0 0 1 6.6 51c0 .5 0 1 .5 1.2a1.3 1.3 0 0 0 .7 0l14-2.1c.5-.1 1-.2 1.2-.7a1.4 1.4 0 0 0-.1-1c-7-17.5-18.4-35.5-25-56.5"/><path d="M353.1 534.6c1.3 4.6 2.4 9.3 3.3 14l1.2 7.1.9 6.6q.8 7.1 1 14.4l.1 7.2a6.4 6.4 0 0 0 .8 3.7c1.4 2 3.5 2.5 5.8 2.1l7.2-1c2.4-.4 4.8-.6 7-1.2a5.3 5.3 0 0 0 3.7-7.4l-2.7-6.1c-3.3-7.7-7.2-15.1-10.9-22.7a330 330 0 0 1-6.1-13.4l-.1-.2-.4-.8-.7-1.9-1.4-3.5q-1.4-3.6-2.6-7.3a4.3 4.3 0 0 0-8.2 2.3c5.1 16 13.2 30.7 20.3 45.9l2.8 5.9.6 1.5.2.5c.6 1.2-.1-.4.2.3l.6 1.4.2.6.2.5v-.3l.5-2.2q2.8-1.6 1.3-1.3l-1 .2-2 .3-3.5.5-3.7.6-2 .3-1 .1c-1 .1-.6.3 1.5.4l1.6 1.5c.2 1.6.3 2 .3 1.2v-5.8c0-2.2-.2-4.5-.4-6.7q-.3-6.5-1.2-13a197.8 197.8 0 0 0-5.3-26.6 4.3 4.3 0 0 0-8.2 2.2z"/><path d="M370.2 624.5c3.7-41.2-7.5-84.2-24-121.6-11-25-25.7-49.4-47.6-65.8a106 106 0 0 0-71.4-20.6 110.3 110.3 0 0 0-75.9 40.7c-18.3 23.7-21.8 56.5-15.9 85.2 11.2 53.8 52.9 98.3 102.7 121.5 24 11.3 50.4 18.2 77 17.6 11.8-.2 24-2.1 33.7-8.9 13.3-9.3 18.7-26 20.7-41.3l.7-6.8z"/><path d="M374.4 624.5c2.6-29.3-2.1-59-10.7-87a332.7 332.7 0 0 0-15.6-40.7 206.3 206.3 0 0 0-19.5-34.5 130.8 130.8 0 0 0-28.2-29.2 108.7 108.7 0 0 0-36.9-17.6 107.4 107.4 0 0 0-40.4-2.8 116 116 0 0 0-37.5 11.4 111.8 111.8 0 0 0-31.2 22.9 91.5 91.5 0 0 0-20.1 33.4c-8.4 24.3-7.2 51.4.2 75.8a170.4 170.4 0 0 0 36 63 202 202 0 0 0 57.6 44.6c25.8 13.5 54.7 22 84 22 13.6 0 28.4-1.7 39.7-10.1a55.6 55.6 0 0 0 19.5-31.7 122.6 122.6 0 0 0 3-19.4 4.3 4.3 0 0 0-4.2-4.3 4.4 4.4 0 0 0-4.3 4.3q-.2 2.9-.6 5.7s-.2 1.8 0 .7l-.1.7-.5 2.5c-.4 3-1 5.8-1.8 8.7a75.7 75.7 0 0 1-2.8 8.2l-.1.3-.4.9-1 2a50.6 50.6 0 0 1-4.5 7.4c-.1.1-.5.7 0 .1l-.8 1-1.5 1.7a38.3 38.3 0 0 1-3.2 3l-.7.6c-.2.2-.9.6-.2.2l-2.1 1.4a45.2 45.2 0 0 1-17.9 6.5 77.6 77.6 0 0 1-9 1 132.1 132.1 0 0 1-30.9-1.9 173.9 173.9 0 0 1-21.2-5 175 175 0 0 1-10.2-3.4l-4.5-1.7-2.7-1-1-.4-.8-.4-.4-.1a202.9 202.9 0 0 1-32.2-17.3l-7.4-5.1-3.2-2.4-1-.7-.4-.3-1.8-1.5q-7-5.4-13.3-11.5t-12.2-12.8a153.1 153.1 0 0 1-10.4-13.2 167.6 167.6 0 0 1-17-30.1 2.3 2.3 0 0 1-.2-.5l-.4-1-.8-1.9a147.4 147.4 0 0 1-1.6-4.4q-1.5-4-2.7-8.2a139 139 0 0 1-3.9-17.3l-.3-2a3 3 0 0 1 0-.6l-.2-1.2-.5-4.6q-.4-4.6-.4-9.3a130.8 130.8 0 0 1 .7-13.9l.2-1.2v-.7c0 .6.2-.8.2-.7a95.3 95.3 0 0 1 12.5-35.4l2.6-3.8 1.3-1.7c.8-1.1-.5.6.3-.5l.9-1q3-3.7 6.2-7a101.2 101.2 0 0 1 10-8.8l.4-.4 1-.7 2-1.5a113.8 113.8 0 0 1 16-9.4l4.2-2c1.3-.5-.4.3.4 0l1-.5 2.3-.9q4.5-1.7 9.2-3a104.4 104.4 0 0 1 13-2.8l1.2-.2c1.3-.2-.9 0 .4 0l2.5-.3a102.7 102.7 0 0 1 19.3 0c.9 0 1.7 0 2.5.2h1a3.3 3.3 0 0 1 .7.2l4.8.8q5 .9 9.8 2.3a95.6 95.6 0 0 1 17.7 7q4.4 2.2 8.5 4.8l4 2.7 1.9 1.3 1 .8c.1.1 1 .8.6.4a115.3 115.3 0 0 1 14 13.1 155.5 155.5 0 0 1 21.6 31 252.7 252.7 0 0 1 12.4 26.2l3.9 10a294.7 294.7 0 0 1 12 40.6q1.3 5.3 2.2 10.7a208.2 208.2 0 0 1 3 31.1 184.3 184.3 0 0 1-.6 20.5 4.3 4.3 0 0 0 4.3 4.3 4.4 4.4 0 0 0 4.3-4.5z"/></g><path d="M308.8 440.4a55.2 55.2 0 0 1-7 29.4 223 223 0 0 1-49 66.8c2.5.9 2.5 4.6 1 6.6s-4.3 3-6.4 4.4c-7 5-7.5 12.5-7 20.3.8 11.5.8 21.4-3.1 32.5-7.3 20.5-22.2 37.3-34.3 55.1-8.1 12.1-12.4 27.1-23.6 36.6-9.2 7.8-21.9 7.8-33.2 6.5-12.9-1.4-26-2.1-38.6-5.7A143.7 143.7 0 0 1 40 651.7C35 646 30.3 640 27.6 633c-8.7-22.4 5.4-48.7 26.1-60.9 7.7-4.5 16.4-7.7 22.8-14C88 546.8 89.2 530 95.6 515.8c8.6-18.5 29.9-25.5 39-43.4 14.8-29 43.8-49.3 75.5-56.5s65.4-1.6 94.7 12.3c3.9 1.9 8.4 5.7 6.5 9.6"/><path d="M304.6 440.4c.8 7.6-1.2 14.7-4.1 21.8a173 173 0 0 1-9.6 19.3 217.6 217.6 0 0 1-24.3 34.5 223.3 223.3 0 0 1-16.8 17.6 4.3 4.3 0 0 0-1 4.1 4.5 4.5 0 0 0 3 3 2.2 2.2 0 0 1-1.2-.8c.4.5 0 0 0-.2 0 1 0-1 0 0v.7c0-1-.1 0-.2.2 0-.2.2-.8 0-.1s.2-.2-.1.1l-.6.6c-2.6 1.8-5.4 3-7.7 5.4-4.4 4.5-6 10.7-6 17 0 6.6 1 13 .5 19.7a62.8 62.8 0 0 1-4.6 19.5l-1.6 3.6q-1 2.3-2.3 4.5a162.8 162.8 0 0 1-16.2 25.2c-3.9 5.4-7.8 10.6-11.5 16a147.2 147.2 0 0 0-9 15.8 186.2 186.2 0 0 1-6.4 11.5l-1.2 1.8-.8 1c0 .2-.8 1.1-.4.6a39.8 39.8 0 0 1-6.1 6.4 27 27 0 0 1-6.8 3.7 33.8 33.8 0 0 1-4.1 1.2l-2.2.4c-.9.1-.4 0-.2 0l-1.5.2a62.6 62.6 0 0 1-9 .1c-7-.4-14-1.3-20.8-2a144 144 0 0 1-21.3-3.6 146.4 146.4 0 0 1-18.3-6.2 5.3 5.3 0 0 1-.6-.3l-.9-.3-2.1-1-4.6-2.2q-4.2-2-8.2-4.3-4.2-2.5-8.3-5.2a143.5 143.5 0 0 1-5.6-4l-.8-.6-.7-.5a135 135 0 0 1-14.2-12.7 75.7 75.7 0 0 1-11.9-15.1 34.4 34.4 0 0 1-3.4-8 36.3 36.3 0 0 1-1-3.9l-.1-1a46.6 46.6 0 0 1-.2-2.6 44 44 0 0 1 .2-7.8c0 .8.2-1 .2-1.2l.4-2 1.2-4.2a51.8 51.8 0 0 1 7.1-14.3c.4-.5.9-1 1.3-1.7 0 0 .5-.6 0 0l.8-1 2.7-3.2a62.3 62.3 0 0 1 6.4-6l.6-.4.5-.4a63.4 63.4 0 0 1 5-3.4l8.8-4.7c5.9-3 11.7-6.3 16.2-11.2 8.2-9.1 11.2-21.3 15-32.8l1.4-4 .7-2 .4-.9.3-.8v-.1a42.5 42.5 0 0 1 4-7l1-1.7c.8-1-.3.4.2-.2l.6-.7a62 62 0 0 1 8.5-8.6c8.2-7.2 17.2-13.7 23.2-23 1.6-2.4 2.8-5 4.2-7.6a70.3 70.3 0 0 1 7.1-10.7 4.4 4.4 0 0 1 .4-.4l.5-.7 1.7-2a105.8 105.8 0 0 1 12.3-12.4c2.5-2.2 4-3.4 6.5-5.2a115.5 115.5 0 0 1 15-9.2 102.7 102.7 0 0 1 15.6-6.5 120.7 120.7 0 0 1 18-4.6 126.5 126.5 0 0 1 19.8-1.7q5 0 10 .3l5 .4 2.5.3 1.4.1.9.2a157 157 0 0 1 39 10.7 53.4 53.4 0 0 1 8.6 4.1 15.3 15.3 0 0 1 1.2 1l.6.5c.2.3.8 1.1.4.4l.4.7c-.5-.7.1 0 0 .2v.2-.5c0 .4 0 .4.1 0-1 2.1-.6 4.6 1.6 5.9 1.8 1 4.9.6 5.8-1.6 1.8-4 1-7.7-2-11-2.2-2.5-5.3-4-8.3-5.4a171.2 171.2 0 0 0-20.5-8 155 155 0 0 0-42.8-7c-26.4-.4-52.7 6.7-74.5 21.7a115.3 115.3 0 0 0-27.1 26 140.3 140.3 0 0 0-9.6 15.5 38.7 38.7 0 0 1-2 3.3 42.2 42.2 0 0 1-1.5 2l-.7.9a68.3 68.3 0 0 1-5.7 5.8c-8.4 7.8-18 14.2-24.6 23.7-7.1 10.1-9 22.9-13.5 34.2a51.6 51.6 0 0 1-5.6 10.1s-.5.6-.1.2a35.5 35.5 0 0 1-3.3 3.5 38.3 38.3 0 0 1-7.6 5.5c-3 1.8-6 3.3-9 4.8a69 69 0 0 0-27.2 24.6c-6.2 10-9.8 22.1-8.3 33.9 1.8 14 10.5 25.2 20.1 35a148.3 148.3 0 0 0 70.1 39.2 194.2 194.2 0 0 0 23.2 3.4c7 .7 14 1.7 21 1.8a46.4 46.4 0 0 0 19.4-3.6c6.3-2.7 11.1-7.6 15.1-13 3.7-5 6.5-10.5 9.4-16a143.8 143.8 0 0 1 9.7-16.5c7.8-11.2 16.4-22 23.4-33.7a111.6 111.6 0 0 0 9.1-19.3 67.7 67.7 0 0 0 3.7-21.6c.1-6.6-1-13.2-.4-19.7 0-1.3-.2.8 0-.4l.1-.8a20.5 20.5 0 0 1 .9-3c-.3.7 0 .1 0 0l1.1-2c.6-1-.5.5.3-.4l.7-.8 1.3-1.2 4-2.5c3.1-2 5.4-4.5 5.8-8.3a7.7 7.7 0 0 0-5-8.2l1.9 7.1a230.1 230.1 0 0 0 29.5-33.7 208 208 0 0 0 22.2-38.7 54 54 0 0 0 5.5-26.9c-.2-2.2-1.8-4.3-4.3-4.2-2 0-4.5 1.9-4.2 4.2zm26.3 89a13 13 0 0 0-1.3.8 11.6 11.6 0 0 0-2 1.6 9 9 0 0 0-1.4 2 8.8 8.8 0 0 0-.9 3.3 3.5 3.5 0 0 0 0 .7 7.8 7.8 0 0 0 .3 1.6 7.5 7.5 0 0 0 1.6 2.9 6.8 6.8 0 0 0 1.2 1 4.5 4.5 0 0 0 1 .5 4.4 4.4 0 0 0 1 .3 6.3 6.3 0 0 0 1.6.2 6 6 0 0 0 1.7-.3 6.4 6.4 0 0 0 1.5-.7 7 7 0 0 0 1.8-1.8 5.6 5.6 0 0 0 .7-1.6 4.3 4.3 0 0 0-6.3-4.8 4.6 4.6 0 0 0-2 2.5v.2l.4-1a1.8 1.8 0 0 1-.2.4l.7-.9a2.1 2.1 0 0 1-.3.3l.8-.7a2.5 2.5 0 0 1-.4.3l1-.4a2.4 2.4 0 0 1-.5.1l1.1-.1a3.1 3.1 0 0 1-.5 0l1.1.1a2.4 2.4 0 0 1-.5-.1l1 .4a2.6 2.6 0 0 1-.5-.3l.9.7a2.6 2.6 0 0 1-.4-.4l.6.8a3 3 0 0 1-.3-.6l.4 1a3.2 3.2 0 0 1-.2-.7l.2 1.1a3.8 3.8 0 0 1 0-.7l-.2 1.1a4 4 0 0 1 .3-1l-.5 1a5.4 5.4 0 0 1 .6-1l-.7.9a6.5 6.5 0 0 1 1-1l-.8.6a10.6 10.6 0 0 1 1.6-1 4.4 4.4 0 0 0 2-2.5 4.4 4.4 0 0 0-.4-3.3 4.3 4.3 0 0 0-2.6-2 4.6 4.6 0 0 0-3.3.4zm-4.3-14.8a26.3 26.3 0 0 1 3.4-.8l.6-.1h-.2a27.7 27.7 0 0 1 4.5-.1l1.1.1h-.3.6l2.2.5 2.1.7.6.2c.4.2.4.2-.1 0a6 6 0 0 1 1.1.5 4.3 4.3 0 0 0 5.9-1.5c1-2 .6-4.8-1.6-5.9a29.4 29.4 0 0 0-22.2-1.8 4.3 4.3 0 1 0 2.3 8.2z"/><path d="M271.9 565.5c.7-7.7-1.4-15.8-4.5-22.8-2-4.7-4.8-9.3-9-12.4a19.9 19.9 0 0 0-13.3-3.8 20.7 20.7 0 0 0-14.3 7.6 20 20 0 0 0-3 16 33.9 33.9 0 0 0 19.3 22.8 33 33 0 0 0 14.4 3.3 11.4 11.4 0 0 0 6.3-1.7c2.5-1.7 3.5-4.9 4-7.7v-1.3z" fill="#ff983b"/><path d="M276.2 565.5a47 47 0 0 0-2.4-18 50.2 50.2 0 0 0-7.4-15 25 25 0 0 0-14.6-9.8 24.6 24.6 0 0 0-17 2.5 22.2 22.2 0 0 0-10.6 12.5 26.9 26.9 0 0 0 .3 16.4 38.7 38.7 0 0 0 20 22.2c6.3 3.1 13.5 5 20.5 3.8a12.5 12.5 0 0 0 8.6-5.5c1.8-2.7 2.3-6 2.6-9.1.2-2.2-2.1-4.4-4.3-4.3a4.4 4.4 0 0 0-4.3 4.3v.8c0-.8 0-.2 0 0l-.3 1.4-.4 1.4c-.4 1 .2-.4-.1.1l-.4.8-.4.6c.5-.7.1-.2 0 0l-.5.5c.5-.5.1-.1 0 0l-.8.4c.6-.3 0 0-.1 0l-.8.2-.5.1a22.4 22.4 0 0 1-3.5.1l-1.8-.1c-1-.1-.4 0-.2 0l-1.4-.2a34.8 34.8 0 0 1-3.5-1l-1.7-.6-.8-.3-.5-.2c.3.2.3.1 0 0a39.6 39.6 0 0 1-5.6-3l-1.3-1-.3-.2-.3-.3a38.5 38.5 0 0 1-4.5-4.4l-1-1.1c-.3-.4.3.5 0 0l-.6-.8-1.6-2.5-.7-1.5-.4-.6c0-.2-.3-.7 0-.2a29.2 29.2 0 0 1-1.8-6c.2.8 0-.6 0-.9l-.1-1.5V543c.1-1.2-.2.8 0-.4a21 21 0 0 1 .8-3l.3-.7c0 .2-.3.7 0 0a26.5 26.5 0 0 1 1.4-2.4c-.1.2-.5.6 0 0l1-1c.3-.4.8-.8 1.2-1 0-.2.6-.6 0-.1l.8-.6a21.3 21.3 0 0 1 2.7-1.6l.4-.2.4-.1a19.8 19.8 0 0 1 3.7-1h.4a21 21 0 0 1 3.5 0h.1l.8.1 1.7.4a18.6 18.6 0 0 1 1.7.6c.7.3-.5-.2.2 0l1 .5a16.2 16.2 0 0 1 1.4.9s1.4 1 .8.5a22.2 22.2 0 0 1 2.6 2.6l.5.6c.6.6-.2-.4.3.4l1 1.5a37.5 37.5 0 0 1 2 3.4l.7 1.6a24.3 24.3 0 0 1 .6 1.1l1.5 4.3a51 51 0 0 1 2 8.1l.1.6.1.8.2 2.2a35.4 35.4 0 0 1-.2 4.5 4.3 4.3 0 0 0 4.3 4.3 4.4 4.4 0 0 0 4.5-4.5z" fill="#ff983b"/><path d="M362.5 589.4a19.7 19.7 0 0 0 10.8 1.9 20.9 20.9 0 0 0 10.8-4.6 4.3 4.3 0 0 0 1.3-3 4.4 4.4 0 0 0-1.3-3 4.3 4.3 0 0 0-3-1.2 5 5 0 0 0-3 1.2c-.4.4.2-.1.3-.2a4.3 4.3 0 0 0-.4.3l-.8.5-1 .5-.3.2.3-.1-2 .6-1 .2-.4.1c-.8.2.8 0 .3 0l-2 .1h-1.5c-.6 0 1 .2.4 0a18.3 18.3 0 0 1-2-.4l-1-.3s-.6-.3 0 0h-.2a4.6 4.6 0 0 0-3.3-.5 4.4 4.4 0 0 0-2.5 2c-1 1.9-.6 4.8 1.5 5.8zm-116.7-38.8a2.8 2.8 0 0 1 .6 0l-1.1-.2a5.7 5.7 0 0 1 1 .4l-1-.4a10.7 10.7 0 0 1 2.2 1.2l-.8-.6a10.6 10.6 0 0 1 1.9 1.9l-.7-1a11.7 11.7 0 0 1 1.4 2.5l-.4-1a11.4 11.4 0 0 1 .7 2.6l-.1-1.1a8.3 8.3 0 0 1 0 1.8l.2-1.2a3 3 0 0 1-.1.6l.4-1a1.8 1.8 0 0 1-.2.4l.6-.8a1 1 0 0 1-.2.1l.9-.6h-.1l1-.4a1.3 1.3 0 0 1-.3.1l1.1-.1a1 1 0 0 1-.3 0l1.2.1a.9.9 0 0 1-.3 0l1 .4a1.4 1.4 0 0 1-.3-.2l.9.7a1.7 1.7 0 0 1-.3-.4l.6.9a1.8 1.8 0 0 1-.1-.3l.4 1a2.1 2.1 0 0 1-.1-.4l.1 1.1a3.6 3.6 0 0 1 0-.5l-.1 1a3.8 3.8 0 0 1 .2-.6l-.4 1a9.2 9.2 0 0 1 .5-1 4.3 4.3 0 0 0-7.4-4.3 8.5 8.5 0 0 0-1.4 4.2 5.9 5.9 0 0 0 3 5 5.4 5.4 0 0 0 6.3-.7 6.5 6.5 0 0 0 1.8-4.5 14.8 14.8 0 0 0-4.9-10.9 15.2 15.2 0 0 0-2.8-2 8.8 8.8 0 0 0-4.6-1.4 4.5 4.5 0 0 0-3 1.3 4.3 4.3 0 0 0-1.2 3c0 2.2 1.8 4.4 4.2 4.3zM322 552a50.8 50.8 0 0 1 10.4.3l-1.2-.2 2.8.5a4.6 4.6 0 0 0 3.3-.5 4.3 4.3 0 0 0 2-2.5c.5-2.1-.6-4.8-3-5.3a55 55 0 0 0-14.3-.8 4.5 4.5 0 0 0-3 1.2 4.3 4.3 0 0 0-1.2 3c0 2.2 1.9 4.5 4.3 4.3z" fill="#f96632"/><path d="M329.1 603.4a20.5 20.5 0 0 0 4.5 8 21 21 0 0 0 3.5 3 19.8 19.8 0 0 0 4.1 2 4.3 4.3 0 0 0 3.3-.4 4.3 4.3 0 0 0 1.6-5.8l-.7-.9a4.3 4.3 0 0 0-2-1l-.2-.2 1 .4a15.3 15.3 0 0 1-3.3-2l.8.7a16.6 16.6 0 0 1-2.8-2.8l.7.8a15.7 15.7 0 0 1-2-3.5l.4 1a18 18 0 0 1-.6-1.6 4.4 4.4 0 0 0-2-2.6 4.3 4.3 0 0 0-6.3 4.8z"/><g fill="#f96632"><path d="M394.4 935.2q-12.8-35.7-26.8-71c-10.8-26.7-22.2-53.5-37.9-77.7s-36.1-46-61.6-59.6c-24.3-13.1-54.9-18-79.5-5.4-21 10.8-34.1 32.3-45 53.3a568.4 568.4 0 0 0-54.1 165.9 29.4 29.4 0 0 0 29 34.2l248.4-.2a29.4 29.4 0 0 0 27.6-39.1 3.1 3.1 0 0 1-.1-.4z"/><path d="M398.5 934q-12.8-35.8-27-71.2a519 519 0 0 0-30.2-65.4 217 217 0 0 0-40-51.9c-15.9-14.7-34.7-26.6-55.7-32.2s-44-4.8-62.9 6.6c-17.9 10.7-29.9 28.7-39.6 46.7a523.4 523.4 0 0 0-28.6 63.9 575.8 575.8 0 0 0-20.8 68q-4.2 17.4-7.3 35c-.9 5-2 10.1-1.4 15.3a34.6 34.6 0 0 0 4.2 13.3 33.9 33.9 0 0 0 21 16 38.7 38.7 0 0 0 9.2 1h246.7c13 0 25.3-7 31-19a33.9 33.9 0 0 0 1.4-26.1 4.4 4.4 0 0 0-5.3-3 4.3 4.3 0 0 0-3 5.3 38.4 38.4 0 0 1 1.3 4.4l.2.8v1.1l.1.8.1 1.4a28.2 28.2 0 0 1-.1 3.2l-.1.8c0-.2.1-.8 0 0l-.3 1.3a31 31 0 0 1-.8 3l-.5 1.5-.2.5c.3-.7 0 0 0 0a35.6 35.6 0 0 1-3.5 5.8l-1 1.2a24.3 24.3 0 0 1-3.3 3l-.7.5a27.8 27.8 0 0 1-2.5 1.5l-1.4.7-.5.3-.4.2a30.3 30.3 0 0 1-5.9 1.6l-.8.2c.8-.1 0 0 0 0H124.7a89.7 89.7 0 0 1-9.7-.1c.8 0-.8-.1-1-.2l-1.4-.3a28 28 0 0 1-3-.9l-.8-.3c-.7-.2.5.3-.1 0l-1.3-.6a29.1 29.1 0 0 1-2.8-1.6l-1.3-.9s-.6-.4 0 0l-.5-.3-2.4-2.2a29.4 29.4 0 0 1-2-2.2l-.5-.7-.8-1.3a28.4 28.4 0 0 1-1.5-2.6l-.3-.7-.2-.4c.2.5 0-.2 0-.3l-.4-.9a29.7 29.7 0 0 1-.8-2.5l-.3-1.6-.2-.8c.1.5 0 .3 0 0a31 31 0 0 1 0-6.7s0 .5 0 0l.2-1 .3-1.9.8-4.4a585.3 585.3 0 0 1 16.3-67.8 550.4 550.4 0 0 1 24.2-65c4.6-10.2 9.5-20.4 14.8-30.3a213.6 213.6 0 0 1 15.6-24.8 97.5 97.5 0 0 1 10-10.9 64 64 0 0 1 11-8.4 63.3 63.3 0 0 1 27.9-8.8c20.7-1.5 41 5.2 58.4 16a165.8 165.8 0 0 1 44.3 41.6 307.3 307.3 0 0 1 33.6 59.3c9.8 22 18.4 44.4 26.8 66.9q6.4 16.8 12.5 33.8a4.4 4.4 0 0 0 5.2 3 4.3 4.3 0 0 0 3.1-5.3z"/><path d="M621.8 974.9a101.1 101.1 0 0 0 7.4-19.3c11-38 9-78.6 5.5-118.1-3.8-43.1-9.5-86-15.2-128.9-1.4-10.8-3.8-23.2-13.4-28.5-2-1-4.2-2-5.3-3.9-1.2-2.1-.5-4.8-1-7.2-1.2-5.3-7.6-7.4-13-8.2a146 146 0 0 0-36-1.1c-9 .8-19.5 3.8-22.5 12.3-1.3 4-.7 8.4-1.8 12.4s-3.6 7.3-5.6 10.8c-6.6 12-6.4 26.4-6.1 40a1700.6 1700.6 0 0 1-5.8 174.6l-99.9-86.7c-17-14.8-34.2-29.7-52.6-42.8a342.4 342.4 0 0 0-83-43l-27 222.3q8 8 16.7 15.3z"/><path d="M625.4 977c5-9.6 8.2-20.2 10.6-30.8a230.4 230.4 0 0 0 4.9-32.8c1.7-21.7.7-43.6-1-65.4-3.7-45.8-9.8-91.5-15.8-137-1.2-8.6-2.2-17.3-6.5-25a25.3 25.3 0 0 0-8.9-9.3c-1.2-.8-3.5-1.4-4.2-2.6a4.6 4.6 0 0 1-.2-2 22 22 0 0 0-.5-4.2c-2.3-9.8-14.1-11.2-22.3-12.2a135.9 135.9 0 0 0-32.9-.1c-8.1 1-17 3.5-22 10.5-3 4.2-3.4 9.1-3.8 14.1-.4 4.7-3 8.3-5.3 12.3-5.2 8.9-6.7 19.2-7 29.4-.5 10.8.1 21.8.2 32.6q.5 69.2-4.6 138.3l-1.4 17 7.3-3-91-79.1c-28.7-25-57.2-50-90.3-69a351 351 0 0 0-56-25.6c-3-1-5.1 1.6-5.4 4.1l-1.3 10.2-3.3 26.6-4.5 37.5-5.2 42.3-5 41.8-4.4 35-2.8 23-.6 5.3v.7c0 2.2 1.8 3.6 3.3 5l3.7 3.6q3.7 3.5 7.6 6.9c2 1.6 4 4 6.6 4h358.4c5.5 0 5.5-8.5 0-8.5H263.1l3 1.3q-8.7-7.3-16.8-15.4l1.3 3 2.7-22 6.4-53.1 7.9-64.2 6.7-55.6 2.3-18.4c.3-2.8.8-5.7 1-8.6v-.4l-5.5 4.1a344 344 0 0 1 94.5 51.9c15 11.5 29.2 24 43.4 36.4l45 39L506 913a4.3 4.3 0 0 0 7.3-3q5.6-67 6-134.4l-.2-33.6c-.1-9.8-.8-19.7.7-29.4a46.8 46.8 0 0 1 3.7-13c2-4.3 5.1-8.1 6.7-12.7 1.6-4.4.6-10 2.4-14 1.4-3 3.9-4.8 7-6.2a38.9 38.9 0 0 1 9.6-2.4 124.8 124.8 0 0 1 15.8-.8 144.8 144.8 0 0 1 16.6 1c3.7.4 8 .9 11 2.6a5.4 5.4 0 0 1 2.8 2.4l.2.6a7.3 7.3 0 0 1 .1 1c.1 1.3 0 2.7.3 4.1a9.8 9.8 0 0 0 4.1 6.5c1.6 1.2 3.6 2 5.2 3 5.8 4 7.8 12 9.1 18.7 1.9 10 2.9 20.4 4.2 30.7l4.2 32.9c2.7 22.2 5.3 44.5 7.3 66.8 3.8 41.6 6.7 85.2-6.5 125.6a88.8 88.8 0 0 1-5.5 13.5c-2.6 4.8 4.8 9.2 7.3 4.3z"/></g><path d="m731.4 622.6-10.9-120.8c0-1.4-.2-3 .7-4.1a5.7 5.7 0 0 1 2.8-1.7 68.6 68.6 0 0 1 22.3-3.8 8.3 8.3 0 0 1 4 .7c2.1 1.2 3 3.7 3.5 6a455.5 455.5 0 0 1 13.6 114 10.6 10.6 0 0 1-.9 5 9.4 9.4 0 0 1-3.6 3.3 41 41 0 0 1-32 3.8" fill="#ff983b"/><path d="M735.6 622.6 730 558l-2.9-32-1.4-16.2-.8-8v-1.6c0-.6.2-.2 0 0v-.2c0-.3 0-.2-.1.2l-.5.4.6-.4c-.1.1-.8.3 0 0l.8-.2a67.1 67.1 0 0 1 7.5-2.1 59.1 59.1 0 0 1 6.8-1 59 59 0 0 1 7.6-.4c.2 0 .8.2.2 0a5.6 5.6 0 0 1 .8.3c-.3-.1-.6 0 0 0-.2 0-.5-.4-.2 0 0 0 .5.6.2.1l.1.3.3.7c.3.4-.1-.7 0 .1 1.5 4.8 2.5 9.7 3.6 14.6q1.7 7.7 3.1 15.5t2.6 15.3c.8 5.2 1.3 9.6 2 15q1.8 15.6 2.5 31.4.4 7.8.4 15.7v9.4c0-.9-.2.6-.2.8.2-.8-.4.7-.2.3s-1.2 1-.4.5a20 20 0 0 1-2.7 1.6l-1.5.8-.7.3-.7.3-.2.1-.8.3a49.7 49.7 0 0 1-5 1.6l-3.3.6c-.5.1 0 0 0 0l-.8.1-2 .2a43.8 43.8 0 0 1-6.7-.2c-.2 0-.9-.1-.1 0l-.8-.2-1.6-.3-3.3-.8a4.3 4.3 0 1 0-2.3 8.2 45.1 45.1 0 0 0 29.8-1.6c4.8-2 10.6-4.7 11.8-10.3a40.1 40.1 0 0 0 .4-8.3l-.1-8.2a463.1 463.1 0 0 0-6.2-66.8q-2.8-16.4-6.7-32.6c-1.2-5.2-2.5-11.3-8.4-13-2.6-.7-5.6-.4-8.3-.2a78.2 78.2 0 0 0-8.6 1 69.7 69.7 0 0 0-7.9 1.9c-2.8.8-5.9 1.7-7.8 4.1s-1.6 5.5-1.4 8.5l.8 8.5 3 34 6.1 68 .8 8.5c.2 2.2 1.8 4.4 4.3 4.3 2.1-.1 4.5-2 4.2-4.3z" fill="#ff983b"/><path d="M493.9 889.6q8.3 8.4 16 17.6c4.8 6 9.2 12 13.7 18.7 1.3 1.8 3.8 2.8 5.9 1.5 1.8-1.2 2.8-3.9 1.5-5.9a263.1 263.1 0 0 0-31-38 4.3 4.3 0 1 0-6.1 6zm38.2 10.6 2.4 3-.7-.9a126.2 126.2 0 0 1 7.4 10.6 4.3 4.3 0 0 0 7.4-4.3 135.8 135.8 0 0 0-10.4-14.5 4.3 4.3 0 0 0-3-1.2 4.4 4.4 0 0 0-3 1.3 4.3 4.3 0 0 0-1.3 3 4.9 4.9 0 0 0 1.3 3z"/><path d="M86 804.7a271.3 271.3 0 0 1 22.6-40q3.7-5.4 7.7-10.7c1.3-1.8.3-4.8-1.6-5.8-2.2-1.2-4.4-.4-5.8 1.5a270.3 270.3 0 0 0-24.5 38.8q-3 5.9-5.8 11.9c-1 2-.6 4.7 1.6 5.8 1.8 1 4.8.6 5.8-1.5zm-15-53 1.2-1.6.5-.7.4-.5.4-.6.6-.7 1-1.4 5-6q4.9-5.7 10.1-11.2a4.3 4.3 0 0 0-6-6 266.5 266.5 0 0 0-20.6 24.4c-1.3 1.8-.3 4.8 1.6 5.8 2.2 1.2 4.4.4 5.8-1.5zm507.9-302.4 6.9 4.2a4.4 4.4 0 0 0 3.3.4 4.3 4.3 0 0 0 3-5.3 4.5 4.5 0 0 0-2-2.5l-7-4.2a4.4 4.4 0 0 0-3.2-.4 4.3 4.3 0 0 0-2.6 2 4.3 4.3 0 0 0-.4 3.3 4.5 4.5 0 0 0 2 2.5zM605 417l2.5 11.2a4.3 4.3 0 0 0 5.3 3 4.4 4.4 0 0 0 3-5.3l-2.5-11.2a4.3 4.3 0 0 0-5.3-3 4.4 4.4 0 0 0-3 5.3zm38.7-4.3a49.7 49.7 0 0 1-2 5.7l.4-1a49 49 0 0 1-2.7 5.4 4.3 4.3 0 1 0 7.4 4.3 54.4 54.4 0 0 0 5.1-12.1 4.3 4.3 0 1 0-8.2-2.3zm22 37 4.2-5.3a3.2 3.2 0 0 0 1-1.4 4.4 4.4 0 0 0-1-4.6 4.3 4.3 0 0 0-3-1.3l-1.1.1a4.2 4.2 0 0 0-1.9 1.2l-4.2 5.3a3.2 3.2 0 0 0-1 1.3 3.8 3.8 0 0 0 0 3.3 3.2 3.2 0 0 0 1 1.4 4.3 4.3 0 0 0 3 1.3l1.1-.2a4.4 4.4 0 0 0 1.9-1.1zm-129 239c4.7-1.3 9.4-2.4 14.2-3.3l7.2-1.2 6.8-.8a139.2 139.2 0 0 1 14-.8h2.6q.7.2 0 0l.6.2a11.5 11.5 0 0 1 1.2.3l1 .3c-1-.4.3.2.5.3.4.3.4.3 0 0l.4.3a6.8 6.8 0 0 1 .4.5 4.3 4.3 0 1 0 7.3-4.3c-4.2-6.7-12.6-6.3-19.6-6a191.6 191.6 0 0 0-25.1 3q-7 1.3-13.7 3.2a4.3 4.3 0 0 0 2.2 8.2z" fill="#ff983b"/><path d="M368.6 285.7a4.3 4.3 0 1 0-4.3-4.3 4.3 4.3 0 0 0 4.3 4.3zm18.3-2.1a4.3 4.3 0 1 0-4.2-4.3 4.3 4.3 0 0 0 4.2 4.3zm20.2-1.8a4.3 4.3 0 1 0-4.3-4.3 4.3 4.3 0 0 0 4.3 4.3zM371.7 308a4.3 4.3 0 1 0-4.2-4.3 4.3 4.3 0 0 0 4.2 4.3zm18-3.6a4.3 4.3 0 1 0-4.2-4.2 4.3 4.3 0 0 0 4.3 4.2zm18.4.4a4.3 4.3 0 1 0-4.2-4.3 4.3 4.3 0 0 0 4.3 4.3zM375.3 328a4.3 4.3 0 1 0-4.3-4.3 4.3 4.3 0 0 0 4.3 4.3zm18-2.5a4.3 4.3 0 1 0-4.3-4.2 4.3 4.3 0 0 0 4.3 4.2zm18.4-1a4.3 4.3 0 1 0-4.3-4.3 4.3 4.3 0 0 0 4.3 4.3zm-33.2 25.6.7-.4a4.7 4.7 0 0 0 2-2.5 3.2 3.2 0 0 0 .1-1.7 3.1 3.1 0 0 0-.5-1.6l-.7-.9a4.2 4.2 0 0 0-1.9-1l-1.1-.2a4.2 4.2 0 0 0-2.2.6l-.7.3a4.7 4.7 0 0 0-2 2.6 3.2 3.2 0 0 0 0 1.7 3 3 0 0 0 .5 1.6l.6.8a4.3 4.3 0 0 0 2 1.1l1 .2a4.2 4.2 0 0 0 2.2-.6zm17.6-.9a4.3 4.3 0 1 0-4.2-4.3 4.3 4.3 0 0 0 4.2 4.3zm17.7-.7a4.3 4.3 0 1 0-4.3-4.3 4.3 4.3 0 0 0 4.3 4.3zm-33.6 22.6a4.3 4.3 0 1 0-4.2-4.2 4.3 4.3 0 0 0 4.3 4.3zm17.3-1.4a4.3 4.3 0 1 0-4.2-4.3 4.3 4.3 0 0 0 4.2 4.3zm17.4.7a4.3 4.3 0 1 0-4.3-4.2 4.3 4.3 0 0 0 4.3 4.2zM382.7 394a4.3 4.3 0 1 0-4.3-4.3 4.3 4.3 0 0 0 4.3 4.3zm18 .3a4.3 4.3 0 1 0-4.3-4.3 4.3 4.3 0 0 0 4.3 4.3zm15.2-2.1a4.3 4.3 0 1 0-4.3-4.3 4.3 4.3 0 0 0 4.3 4.3zm104.6 22.7 13.8 3a4.4 4.4 0 0 0 5.3-3c.4-2.2-.7-4.8-3-5.3l-13.9-3a4.3 4.3 0 0 0-5.2 3c-.5 2.2.6 4.8 3 5.3zm-2.1 24.2 13.7 3.9a4.3 4.3 0 1 0 2.3-8.3l-13.7-3.8a4.3 4.3 0 0 0-2.3 8.2zm-3.7 25a50.9 50.9 0 0 0 10.5 2.7 4.7 4.7 0 0 0 3.3-.4 4.4 4.4 0 0 0 2-2.6 4.3 4.3 0 0 0-.4-3.3 4 4 0 0 0-2.5-2 51.5 51.5 0 0 1-10.6-2.7 4.3 4.3 0 0 0-3.3.4 4.4 4.4 0 0 0-2 2.6 4.3 4.3 0 0 0 .4 3.3 4.9 4.9 0 0 0 2.6 2zm229-72.6 32.7 9c1.7.4 4-.3 4.8-2 .9-2 1.8-3.9 2.9-5.7l1.6-2.6.8-1.2.4-.6c.7-1-.5.6.3-.3a34.1 34.1 0 0 1 2.8-3l.7-.6c.4-.3-.6.4 0 0a19.6 19.6 0 0 1 2.5-1.5c.1 0 .8-.4.3-.1s.1 0 .3-.1a15 15 0 0 1 1.6-.5l.6-.1c.6-.2-.7 0 0 0l1.5-.1a13.6 13.6 0 0 1 1.5 0h-.1l1 .3 1.3.5.6.3 1.3.7.6.4.2.2a22.6 22.6 0 0 1 2.3 2.1l.4.6c.5.5-.3-.5 0 0l1 1.5a17.1 17.1 0 0 1 1 2c.3.6-.2-1 0 0 .4 1.4.8 2.6 1 3.9 0 .1.2.8 0 .2l.2 1v4.2l-.1.9-.1.6a42 42 0 0 1-2.5 8.5c-.8 2 .7 4.3 2.5 5a4.3 4.3 0 0 0 5.3-1.7l.6-.8c.4-.5-.6.8.1-.1l1.2-1.3.7-.7s.9-.7.4-.4l.5-.2.6-.4c-.8.5 0 .1.1 0h-.3.4c.7.3-.4-.2 0 0a7.3 7.3 0 0 0 .8.2c-.3 0-.6-.3-.2 0 .8.5-.3-.4 0 0a5.7 5.7 0 0 0 .6.5c-.4-.3-.3-.4 0 0l.3.6c.3.4.3.6 0 0a11.5 11.5 0 0 1 .6 1.6l.1.7c-.2-1 0-.3 0 0v2.1l-.2 2.1v.5l-.3 1.8a25 25 0 0 0-.2 4.7 4.3 4.3 0 0 0 5.4 4.1l.6-.1h-.1 1.3c-1.2-.1.2 0 .5.2a4.3 4.3 0 0 1 .6.2c-.5-.2-.5-.2 0 0l1 .7c-.8-.6.3.2.4.4l.5.5q-.5-.6-.1 0c0 .1.7 1.4.3.4.8 2 2.9 3.7 5.2 3 2-.6 3.9-3 3-5.3a13.3 13.3 0 0 0-15.5-8.3l5.4 4.2c-.2-4 1-7 .8-11.1a14.1 14.1 0 0 0-3.8-9.5 9.7 9.7 0 0 0-10.6-2 19.9 19.9 0 0 0-8 7.3l7.8 3.3c4.4-10.8 4.6-24.3-4.4-32.9a20 20 0 0 0-14.6-5.8 21.2 21.2 0 0 0-13.7 6.6c-3.9 4-6.7 9-9 14l4.9-2-32.6-8.8a4.3 4.3 0 1 0-2.3 8.2zm148.5 115.7a94.7 94.7 0 0 0 15.3 7.5c2 .9 4.7-.9 5.2-3 0-.2.4-1.1 0-.3l.5-.9c-.3.5-.2.3.1 0a6 6 0 0 1 .7-.6c-.8.6 0 0 .2-.1.8-.5-.7.1.3-.1l.4-.1h.7c.5 0-.8-.2 0 0 1 .3-.6-.4.3 0 .2.2 1 .8.2.2a6 6 0 0 1 .7.6c.3.3.4.5 0 0 .3.3.4.6.6 1-.5-.8 0 0 0 .2.3.8 0-.8 0 .2a4.3 4.3 0 0 0 2.6 4c1.4.5 3.6.4 4.7-1l8.9-11.2 1-1c.4-.4.8-.8.2-.4a6.1 6.1 0 0 1 .6-.4c-.5.2-.5.3 0 .1-.5 0-.5 0 0 0-.5 0-.4 0 0 .2.9.3-.1-.2.6.1a28.1 28.1 0 0 1 2.6 1.6 22.4 22.4 0 0 1 1.7 1.6l1 1c-.7-.7 0 .2 0 .3a19 19 0 0 1 1.4 2.2l.5 1.1.2.6a18.6 18.6 0 0 1 .6 2.3l.1.7v-.3l.1 1.2a21.2 21.2 0 0 1 0 2.4v-.1.6a12.4 12.4 0 0 1-.4 1.4c-1 3.5 3 6.8 6.3 4.8a18.6 18.6 0 0 1 1.9-1l.6-.2a35.7 35.7 0 0 1 2.7-.7h2a4.3 4.3 0 0 0 0-8.6 21 21 0 0 0-11.6 3.2l6.3 4.8a22.9 22.9 0 0 0-3.8-19.5 21.7 21.7 0 0 0-8-6.8c-2.3-1-4.7-1.8-7.2-1a10.7 10.7 0 0 0-5.1 3.6c-3.2 3.7-6.1 7.6-9.2 11.5l7.3 3A11.3 11.3 0 0 0 916 501a11.2 11.2 0 0 0-11.4 8.4l5.2-3-1.7-.7-.4-.2-.8-.4a93 93 0 0 1-10.3-5.4 4.3 4.3 0 0 0-5.8 1.5 4.4 4.4 0 0 0 1.5 5.9z" fill="#fff"/><path d="M354.4 203.3a236.5 236.5 0 0 1 49.2.1c1.9.3 3.5-1.4 4-3l1-2.8.3-.6.7-1.6a36.7 36.7 0 0 1 3-5.2l.5-.7.1-.1.3-.3.3-.5a25.6 25.6 0 0 1 2.2-2.2l1.1-1c-.6.5.4-.2.5-.3a18.2 18.2 0 0 1 2.5-1.4c.1 0 .8-.4.3-.2l1.4-.4a20.5 20.5 0 0 1 2.7-.6c-1 .1 0 0 .4 0h2.5l.7.1c-.6 0-.5 0 0 0a20.5 20.5 0 0 1 2.4.7s.6.2.1 0l.3.1 1.3.7.6.5c-.4-.3 0 0 0 0l.6.5a13.3 13.3 0 0 1 1 1c-.5-.6.2.5.4.7l.8 1.6c.3.6 0 0 0-.2l.3 1a24 24 0 0 1 .8 3.2l.1.8.1.6v.4l.1 1 .3 3.6a4.3 4.3 0 0 0 8.4 1.1c.3-.8-.4.6 0-.1a4.5 4.5 0 0 1 .4-.6l-.2.3.5-.4.5-.3q.4-.2-.3 0l.6-.2 1-.2c-.7.2-.3 0 .2 0 .3 0 1.2.3.3 0l1 .4c1.1.2-.5-.4.4.1l1 .6c.1 0 1 .8.4.2l1.6 1.6c.6.6-.2-.4.3.4l.7 1c1.3 2 2.9 3.7 5.2 4.2s4.2-.2 6.3-.9l1.2-.2c1.2-.3-.7 0 .5 0a14.4 14.4 0 0 1 2.5 0c-1-.1.2 0 .4.1l1.2.4c.4.2.5.1.1 0l.6.2 1.2.8a4.3 4.3 0 0 0 5.9-1.6 4.4 4.4 0 0 0-1.6-5.8 18 18 0 0 0-13-2.4 24.8 24.8 0 0 0-2.8.8 8.4 8.4 0 0 1-.9.3 2.7 2.7 0 0 1 1 .3c-.4-.3-.4-.3 0 0l-.5-.6-.6-1a21.6 21.6 0 0 0-2.3-2.7A14 14 0 0 0 447 190a11.1 11.1 0 0 0-9.4 7.7l8.4 1.1c-.3-5.1-.8-10.3-3-15a17.7 17.7 0 0 0-10.7-9.1c-9.1-2.9-19 1.2-24.9 8.4a45.4 45.4 0 0 0-7.9 14.9l4.2-3.1a236.5 236.5 0 0 0-49.2-.1c-2.3.2-4.4 1.8-4.3 4.2 0 2.1 1.9 4.5 4.3 4.3zm123.2 69 28.6-.1a4.3 4.3 0 0 0 4.2-3.1c.4-1.9 1-3.6 1.5-5.4.2-.5 0 0 0 .1l.3-.7a13 13 0 0 1 .6-1.1c.1-.2.8-1.2.3-.6l1-1c0-.1.5-.6 0-.2h.2c.2 0 .7-.6 1-.6 0 0-.8.2-.3.2a2.3 2.3 0 0 0 .4-.2l.6-.1c.6-.2-.2 0-.3 0 .2-.2 1 0 1.2 0 .8 0-.7-.2 0 0l.6.1c.4.1.2 0 0 0s-.3 0 .1.1l.3.1c.2.2.1.1-.1 0-.4 0-.1-.3 0 0l-.1-.3.3.7.1.5v1.7a13 13 0 0 0 1.7 6.4 7.5 7.5 0 0 0 6.6 3.7 11.8 11.8 0 0 0 3.5-.8l1-.4c.4 0 1.6-.2.7-.2H533.7c.8 0-.5-.1 0 0l1.4.3.5.2c.8.2-.3-.2.1 0l1.3.6.4.3.4.3.1.1.7.6.3.4c.8.8-.5-.7.2.2 1.3 1.9 3.9 2.9 5.9 1.6 1.8-1.2 2.9-3.9 1.5-5.9a16.5 16.5 0 0 0-11.5-7.1 15.2 15.2 0 0 0-6.7.5l-1.6.5s-1 .3-.4.2-.6-.3 0 0c.2 0 .5 0 .7.2.6.3.4.3.1 0 .8 1 .2.3.1.2-.2-.3-.2-.4 0 0s0 .2 0-.2c0-.1-.4-1.3-.3-.7s0-.2 0-.4v-.9a18.6 18.6 0 0 0-.5-4.4 9.2 9.2 0 0 0-4.4-5.5 12 12 0 0 0-12.3.9c-4.5 3.2-6.2 8.5-7.5 13.7l4.2-3.2-28.7.1a4.3 4.3 0 0 0 0 8.6z" fill="#cfe0ff"/><path d="M235.2 230q1.5 7.3 2.7 14.8c.8 5 1.4 9.1 2 14.3a299.8 299.8 0 0 1 1.6 30c0 5.7 0 11.4-.4 17a4.3 4.3 0 0 0 4.3 4.3 4.4 4.4 0 0 0 4.3-4.2 306 306 0 0 0-3.2-61.6q-1.3-8.5-3-17a4.3 4.3 0 0 0-5.3-3 4.4 4.4 0 0 0-3 5.3zm-36.9 27.5 3.2 15.9a4.3 4.3 0 0 0 5.2 3 4.4 4.4 0 0 0 3-5.3l-3.2-16a4.3 4.3 0 0 0-5.2-3 4.4 4.4 0 0 0-3 5.3zM590.5 119a44.3 44.3 0 0 1 6 2c.1 0 .7.2 0 0l.8.2 1.2.6 3 1.6a51.5 51.5 0 0 1 5.3 3.6l.5.4 1 1q1.4 1 2.6 2.2a84.8 84.8 0 0 1 15.7 21.5c2.6 4.7 5 9.5 7.4 14.3a4.3 4.3 0 0 0 5.8 1.6 4.4 4.4 0 0 0 1.6-5.9c-8.5-17.1-17.8-35-34.5-45.4a48.7 48.7 0 0 0-14.1-6 4.3 4.3 0 0 0-2.3 8.2zm38.2-14.9a26.3 26.3 0 0 1 4.2 1.2c.2.1 1.2.5.4.1l1 .5 1.7 1a34.1 34.1 0 0 1 3.6 2.3l.3.2.8.8 1.7 1.5a66.3 66.3 0 0 1 6 6.5l.6 1s.8 1 .3.3l1.4 1.8 2.7 3.7c1.3 1.8 3.8 2.9 5.8 1.5 1.8-1.1 3-3.9 1.5-5.8-7.4-10.5-16.3-22.2-29.8-24.8-2.2-.4-4.7.6-5.2 3-.5 2.1.6 4.8 3 5.3zm238.7 178a240.7 240.7 0 0 1 23.3 12.4 243.7 243.7 0 0 1 21.3 14.7c1.8 1.3 4.3 1.8 6 0 1.4-1.6 1.9-4.6 0-6a244.8 244.8 0 0 0-46.3-28.6c-2-1-4.7-.6-5.9 1.6-1 1.8-.6 4.8 1.6 5.8zm9.4-34.4a106.9 106.9 0 0 1 12 3.1l6 2.2 1.4.5.7.3 3 1.3a109.8 109.8 0 0 1 11.1 6q2.6 1.6 5.1 3.4a87 87 0 0 1 2.5 1.8l1.2.8s.6.5 0 .1l.7.5a108.3 108.3 0 0 1 10.6 9.6 4.3 4.3 0 0 0 6-6 112.6 112.6 0 0 0-44-28 107.7 107.7 0 0 0-14-3.8c-2.2-.5-4.8.6-5.3 3-.5 2 .6 4.7 3 5.2z" fill="#ff983b"/></svg>